G75*
G70*
%OFA0B0*%
%FSLAX24Y24*%
%IPPOS*%
%LPD*%
%AMOC8*
5,1,8,0,0,1.08239X$1,22.5*
%
%ADD10C,0.0000*%
%ADD11R,0.0760X0.2100*%
%ADD12R,0.0630X0.0512*%
%ADD13R,0.0512X0.0630*%
%ADD14R,0.1181X0.0394*%
%ADD15R,0.0197X0.0472*%
%ADD16R,0.0472X0.0197*%
%ADD17OC8,0.0740*%
%ADD18R,0.0472X0.0984*%
%ADD19R,0.0590X0.0790*%
%ADD20R,0.1500X0.0790*%
%ADD21R,0.0945X0.0945*%
%ADD22R,0.0472X0.0472*%
%ADD23C,0.0480*%
%ADD24R,0.0551X0.0748*%
%ADD25R,0.0709X0.0551*%
%ADD26R,0.0276X0.0591*%
%ADD27R,0.0512X0.0591*%
%ADD28R,0.0870X0.0240*%
%ADD29R,0.1560X0.1560*%
%ADD30R,0.1250X0.1250*%
%ADD31C,0.0480*%
%ADD32R,0.0591X0.0512*%
%ADD33OC8,0.0480*%
%ADD34R,0.0630X0.0460*%
%ADD35C,0.0554*%
%ADD36R,0.0551X0.0551*%
%ADD37R,0.0315X0.0984*%
%ADD38R,0.0315X0.0657*%
%ADD39R,0.0657X0.0315*%
%ADD40C,0.0120*%
%ADD41C,0.0160*%
%ADD42C,0.0100*%
%ADD43C,0.0316*%
D10*
X001159Y001230D02*
X001159Y020915D01*
X029718Y020915D01*
X029718Y001230D01*
X001159Y001230D01*
X001608Y002155D02*
X001610Y002202D01*
X001616Y002248D01*
X001626Y002294D01*
X001639Y002339D01*
X001657Y002382D01*
X001678Y002424D01*
X001702Y002464D01*
X001730Y002501D01*
X001761Y002536D01*
X001795Y002569D01*
X001831Y002598D01*
X001870Y002624D01*
X001911Y002647D01*
X001954Y002666D01*
X001998Y002682D01*
X002043Y002694D01*
X002089Y002702D01*
X002136Y002706D01*
X002182Y002706D01*
X002229Y002702D01*
X002275Y002694D01*
X002320Y002682D01*
X002364Y002666D01*
X002407Y002647D01*
X002448Y002624D01*
X002487Y002598D01*
X002523Y002569D01*
X002557Y002536D01*
X002588Y002501D01*
X002616Y002464D01*
X002640Y002424D01*
X002661Y002382D01*
X002679Y002339D01*
X002692Y002294D01*
X002702Y002248D01*
X002708Y002202D01*
X002710Y002155D01*
X002708Y002108D01*
X002702Y002062D01*
X002692Y002016D01*
X002679Y001971D01*
X002661Y001928D01*
X002640Y001886D01*
X002616Y001846D01*
X002588Y001809D01*
X002557Y001774D01*
X002523Y001741D01*
X002487Y001712D01*
X002448Y001686D01*
X002407Y001663D01*
X002364Y001644D01*
X002320Y001628D01*
X002275Y001616D01*
X002229Y001608D01*
X002182Y001604D01*
X002136Y001604D01*
X002089Y001608D01*
X002043Y001616D01*
X001998Y001628D01*
X001954Y001644D01*
X001911Y001663D01*
X001870Y001686D01*
X001831Y001712D01*
X001795Y001741D01*
X001761Y001774D01*
X001730Y001809D01*
X001702Y001846D01*
X001678Y001886D01*
X001657Y001928D01*
X001639Y001971D01*
X001626Y002016D01*
X001616Y002062D01*
X001610Y002108D01*
X001608Y002155D01*
X008344Y002968D02*
X008346Y002994D01*
X008352Y003020D01*
X008362Y003045D01*
X008375Y003068D01*
X008391Y003088D01*
X008411Y003106D01*
X008433Y003121D01*
X008456Y003133D01*
X008482Y003141D01*
X008508Y003145D01*
X008534Y003145D01*
X008560Y003141D01*
X008586Y003133D01*
X008610Y003121D01*
X008631Y003106D01*
X008651Y003088D01*
X008667Y003068D01*
X008680Y003045D01*
X008690Y003020D01*
X008696Y002994D01*
X008698Y002968D01*
X008696Y002942D01*
X008690Y002916D01*
X008680Y002891D01*
X008667Y002868D01*
X008651Y002848D01*
X008631Y002830D01*
X008609Y002815D01*
X008586Y002803D01*
X008560Y002795D01*
X008534Y002791D01*
X008508Y002791D01*
X008482Y002795D01*
X008456Y002803D01*
X008432Y002815D01*
X008411Y002830D01*
X008391Y002848D01*
X008375Y002868D01*
X008362Y002891D01*
X008352Y002916D01*
X008346Y002942D01*
X008344Y002968D01*
X011140Y002968D02*
X011142Y002994D01*
X011148Y003020D01*
X011158Y003045D01*
X011171Y003068D01*
X011187Y003088D01*
X011207Y003106D01*
X011229Y003121D01*
X011252Y003133D01*
X011278Y003141D01*
X011304Y003145D01*
X011330Y003145D01*
X011356Y003141D01*
X011382Y003133D01*
X011406Y003121D01*
X011427Y003106D01*
X011447Y003088D01*
X011463Y003068D01*
X011476Y003045D01*
X011486Y003020D01*
X011492Y002994D01*
X011494Y002968D01*
X011492Y002942D01*
X011486Y002916D01*
X011476Y002891D01*
X011463Y002868D01*
X011447Y002848D01*
X011427Y002830D01*
X011405Y002815D01*
X011382Y002803D01*
X011356Y002795D01*
X011330Y002791D01*
X011304Y002791D01*
X011278Y002795D01*
X011252Y002803D01*
X011228Y002815D01*
X011207Y002830D01*
X011187Y002848D01*
X011171Y002868D01*
X011158Y002891D01*
X011148Y002916D01*
X011142Y002942D01*
X011140Y002968D01*
X004958Y012905D02*
X004960Y012938D01*
X004966Y012970D01*
X004975Y013001D01*
X004988Y013031D01*
X005005Y013059D01*
X005025Y013085D01*
X005048Y013109D01*
X005073Y013129D01*
X005101Y013147D01*
X005130Y013161D01*
X005161Y013171D01*
X005193Y013178D01*
X005226Y013181D01*
X005259Y013180D01*
X005291Y013175D01*
X005322Y013166D01*
X005353Y013154D01*
X005381Y013138D01*
X005408Y013119D01*
X005432Y013097D01*
X005453Y013072D01*
X005472Y013045D01*
X005487Y013016D01*
X005498Y012986D01*
X005506Y012954D01*
X005510Y012921D01*
X005510Y012889D01*
X005506Y012856D01*
X005498Y012824D01*
X005487Y012794D01*
X005472Y012765D01*
X005453Y012738D01*
X005432Y012713D01*
X005408Y012691D01*
X005381Y012672D01*
X005353Y012656D01*
X005322Y012644D01*
X005291Y012635D01*
X005259Y012630D01*
X005226Y012629D01*
X005193Y012632D01*
X005161Y012639D01*
X005130Y012649D01*
X005101Y012663D01*
X005073Y012681D01*
X005048Y012701D01*
X005025Y012725D01*
X005005Y012751D01*
X004988Y012779D01*
X004975Y012809D01*
X004966Y012840D01*
X004960Y012872D01*
X004958Y012905D01*
X004958Y016905D02*
X004960Y016938D01*
X004966Y016970D01*
X004975Y017001D01*
X004988Y017031D01*
X005005Y017059D01*
X005025Y017085D01*
X005048Y017109D01*
X005073Y017129D01*
X005101Y017147D01*
X005130Y017161D01*
X005161Y017171D01*
X005193Y017178D01*
X005226Y017181D01*
X005259Y017180D01*
X005291Y017175D01*
X005322Y017166D01*
X005353Y017154D01*
X005381Y017138D01*
X005408Y017119D01*
X005432Y017097D01*
X005453Y017072D01*
X005472Y017045D01*
X005487Y017016D01*
X005498Y016986D01*
X005506Y016954D01*
X005510Y016921D01*
X005510Y016889D01*
X005506Y016856D01*
X005498Y016824D01*
X005487Y016794D01*
X005472Y016765D01*
X005453Y016738D01*
X005432Y016713D01*
X005408Y016691D01*
X005381Y016672D01*
X005353Y016656D01*
X005322Y016644D01*
X005291Y016635D01*
X005259Y016630D01*
X005226Y016629D01*
X005193Y016632D01*
X005161Y016639D01*
X005130Y016649D01*
X005101Y016663D01*
X005073Y016681D01*
X005048Y016701D01*
X005025Y016725D01*
X005005Y016751D01*
X004988Y016779D01*
X004975Y016809D01*
X004966Y016840D01*
X004960Y016872D01*
X004958Y016905D01*
X001608Y019655D02*
X001610Y019702D01*
X001616Y019748D01*
X001626Y019794D01*
X001639Y019839D01*
X001657Y019882D01*
X001678Y019924D01*
X001702Y019964D01*
X001730Y020001D01*
X001761Y020036D01*
X001795Y020069D01*
X001831Y020098D01*
X001870Y020124D01*
X001911Y020147D01*
X001954Y020166D01*
X001998Y020182D01*
X002043Y020194D01*
X002089Y020202D01*
X002136Y020206D01*
X002182Y020206D01*
X002229Y020202D01*
X002275Y020194D01*
X002320Y020182D01*
X002364Y020166D01*
X002407Y020147D01*
X002448Y020124D01*
X002487Y020098D01*
X002523Y020069D01*
X002557Y020036D01*
X002588Y020001D01*
X002616Y019964D01*
X002640Y019924D01*
X002661Y019882D01*
X002679Y019839D01*
X002692Y019794D01*
X002702Y019748D01*
X002708Y019702D01*
X002710Y019655D01*
X002708Y019608D01*
X002702Y019562D01*
X002692Y019516D01*
X002679Y019471D01*
X002661Y019428D01*
X002640Y019386D01*
X002616Y019346D01*
X002588Y019309D01*
X002557Y019274D01*
X002523Y019241D01*
X002487Y019212D01*
X002448Y019186D01*
X002407Y019163D01*
X002364Y019144D01*
X002320Y019128D01*
X002275Y019116D01*
X002229Y019108D01*
X002182Y019104D01*
X002136Y019104D01*
X002089Y019108D01*
X002043Y019116D01*
X001998Y019128D01*
X001954Y019144D01*
X001911Y019163D01*
X001870Y019186D01*
X001831Y019212D01*
X001795Y019241D01*
X001761Y019274D01*
X001730Y019309D01*
X001702Y019346D01*
X001678Y019386D01*
X001657Y019428D01*
X001639Y019471D01*
X001626Y019516D01*
X001616Y019562D01*
X001610Y019608D01*
X001608Y019655D01*
X026608Y019655D02*
X026610Y019702D01*
X026616Y019748D01*
X026626Y019794D01*
X026639Y019839D01*
X026657Y019882D01*
X026678Y019924D01*
X026702Y019964D01*
X026730Y020001D01*
X026761Y020036D01*
X026795Y020069D01*
X026831Y020098D01*
X026870Y020124D01*
X026911Y020147D01*
X026954Y020166D01*
X026998Y020182D01*
X027043Y020194D01*
X027089Y020202D01*
X027136Y020206D01*
X027182Y020206D01*
X027229Y020202D01*
X027275Y020194D01*
X027320Y020182D01*
X027364Y020166D01*
X027407Y020147D01*
X027448Y020124D01*
X027487Y020098D01*
X027523Y020069D01*
X027557Y020036D01*
X027588Y020001D01*
X027616Y019964D01*
X027640Y019924D01*
X027661Y019882D01*
X027679Y019839D01*
X027692Y019794D01*
X027702Y019748D01*
X027708Y019702D01*
X027710Y019655D01*
X027708Y019608D01*
X027702Y019562D01*
X027692Y019516D01*
X027679Y019471D01*
X027661Y019428D01*
X027640Y019386D01*
X027616Y019346D01*
X027588Y019309D01*
X027557Y019274D01*
X027523Y019241D01*
X027487Y019212D01*
X027448Y019186D01*
X027407Y019163D01*
X027364Y019144D01*
X027320Y019128D01*
X027275Y019116D01*
X027229Y019108D01*
X027182Y019104D01*
X027136Y019104D01*
X027089Y019108D01*
X027043Y019116D01*
X026998Y019128D01*
X026954Y019144D01*
X026911Y019163D01*
X026870Y019186D01*
X026831Y019212D01*
X026795Y019241D01*
X026761Y019274D01*
X026730Y019309D01*
X026702Y019346D01*
X026678Y019386D01*
X026657Y019428D01*
X026639Y019471D01*
X026626Y019516D01*
X026616Y019562D01*
X026610Y019608D01*
X026608Y019655D01*
X026608Y002155D02*
X026610Y002202D01*
X026616Y002248D01*
X026626Y002294D01*
X026639Y002339D01*
X026657Y002382D01*
X026678Y002424D01*
X026702Y002464D01*
X026730Y002501D01*
X026761Y002536D01*
X026795Y002569D01*
X026831Y002598D01*
X026870Y002624D01*
X026911Y002647D01*
X026954Y002666D01*
X026998Y002682D01*
X027043Y002694D01*
X027089Y002702D01*
X027136Y002706D01*
X027182Y002706D01*
X027229Y002702D01*
X027275Y002694D01*
X027320Y002682D01*
X027364Y002666D01*
X027407Y002647D01*
X027448Y002624D01*
X027487Y002598D01*
X027523Y002569D01*
X027557Y002536D01*
X027588Y002501D01*
X027616Y002464D01*
X027640Y002424D01*
X027661Y002382D01*
X027679Y002339D01*
X027692Y002294D01*
X027702Y002248D01*
X027708Y002202D01*
X027710Y002155D01*
X027708Y002108D01*
X027702Y002062D01*
X027692Y002016D01*
X027679Y001971D01*
X027661Y001928D01*
X027640Y001886D01*
X027616Y001846D01*
X027588Y001809D01*
X027557Y001774D01*
X027523Y001741D01*
X027487Y001712D01*
X027448Y001686D01*
X027407Y001663D01*
X027364Y001644D01*
X027320Y001628D01*
X027275Y001616D01*
X027229Y001608D01*
X027182Y001604D01*
X027136Y001604D01*
X027089Y001608D01*
X027043Y001616D01*
X026998Y001628D01*
X026954Y001644D01*
X026911Y001663D01*
X026870Y001686D01*
X026831Y001712D01*
X026795Y001741D01*
X026761Y001774D01*
X026730Y001809D01*
X026702Y001846D01*
X026678Y001886D01*
X026657Y001928D01*
X026639Y001971D01*
X026626Y002016D01*
X026616Y002062D01*
X026610Y002108D01*
X026608Y002155D01*
D11*
X014159Y008505D03*
X014159Y012305D03*
D12*
X012534Y011799D03*
X012534Y011011D03*
X012534Y009799D03*
X012534Y009011D03*
X009754Y010330D03*
X009754Y011118D03*
X009159Y018511D03*
X009159Y019299D03*
D13*
X006533Y010655D03*
X005785Y010655D03*
X012248Y007369D03*
X012996Y007369D03*
X013033Y006280D03*
X012285Y006280D03*
X019785Y004780D03*
X020533Y004780D03*
X021872Y004799D03*
X022659Y004799D03*
X023410Y003905D03*
X024158Y003905D03*
X025785Y011405D03*
X026533Y011405D03*
X021803Y011655D03*
X021015Y011655D03*
D14*
X007202Y012405D03*
X007202Y013405D03*
X007202Y014405D03*
X007202Y015405D03*
X007202Y016405D03*
X007202Y017405D03*
D15*
X021122Y006776D03*
X021437Y006776D03*
X021752Y006776D03*
X022067Y006776D03*
X022381Y006776D03*
X022696Y006776D03*
X022696Y005910D03*
X022381Y005910D03*
X022067Y005910D03*
X021752Y005910D03*
X021437Y005910D03*
X021122Y005910D03*
D16*
X021082Y006343D03*
X022736Y006343D03*
D17*
X025159Y005905D03*
X026159Y005905D03*
X026159Y006905D03*
X025159Y006905D03*
X025159Y004905D03*
X026159Y004905D03*
D18*
X010903Y004051D03*
X009919Y004051D03*
X008935Y004051D03*
D19*
X008543Y006752D03*
X007643Y006752D03*
X009443Y006752D03*
D20*
X008533Y009232D03*
D21*
X006108Y008807D03*
X006108Y006838D03*
X010998Y007145D03*
X010998Y009114D03*
D22*
X008072Y010655D03*
X007246Y010655D03*
X004572Y020030D03*
X003746Y020030D03*
D23*
X015919Y018905D02*
X016399Y018905D01*
X016399Y017905D02*
X015919Y017905D01*
X015919Y016905D02*
X016399Y016905D01*
X016399Y015905D02*
X015919Y015905D01*
X015919Y014905D02*
X016399Y014905D01*
X016399Y013905D02*
X015919Y013905D01*
X015919Y012905D02*
X016399Y012905D01*
X016399Y011905D02*
X015919Y011905D01*
X015919Y010905D02*
X016399Y010905D01*
X016399Y009905D02*
X015919Y009905D01*
X015919Y008905D02*
X016399Y008905D01*
X016399Y007905D02*
X015919Y007905D01*
X015919Y006905D02*
X016399Y006905D01*
X016399Y005905D02*
X015919Y005905D01*
X018919Y005905D02*
X019399Y005905D01*
X019399Y006905D02*
X018919Y006905D01*
X018919Y007905D02*
X019399Y007905D01*
X019399Y008905D02*
X018919Y008905D01*
X018919Y009905D02*
X019399Y009905D01*
X019399Y010905D02*
X018919Y010905D01*
X018919Y011905D02*
X019399Y011905D01*
X019399Y012905D02*
X018919Y012905D01*
X018919Y013905D02*
X019399Y013905D01*
X019399Y014905D02*
X018919Y014905D01*
X018919Y015905D02*
X019399Y015905D01*
X019399Y016905D02*
X018919Y016905D01*
X018919Y017905D02*
X019399Y017905D01*
X019399Y018905D02*
X018919Y018905D01*
D24*
X020805Y018090D03*
X026002Y017736D03*
D25*
X025372Y012578D03*
X023009Y012578D03*
D26*
X023049Y016437D03*
X023482Y016594D03*
X023915Y016752D03*
X024348Y016594D03*
X024781Y016752D03*
X025214Y016594D03*
X025647Y016594D03*
X022616Y016594D03*
D27*
X014908Y016530D03*
X014160Y016530D03*
X014160Y017405D03*
X014908Y017405D03*
X003533Y018405D03*
X002785Y018405D03*
X023473Y007655D03*
X024221Y007655D03*
D28*
X014189Y018405D03*
X014189Y018905D03*
X014189Y019405D03*
X014189Y019905D03*
X012129Y019905D03*
X012129Y019405D03*
X012129Y018905D03*
X012129Y018405D03*
D29*
X010659Y015405D03*
D30*
X010659Y018505D03*
X010659Y012305D03*
D31*
X008034Y018405D03*
X008034Y019405D03*
D32*
X014159Y014779D03*
X014159Y014031D03*
D33*
X016659Y003905D03*
X017659Y003905D03*
X018659Y003905D03*
D34*
X010784Y010355D03*
X010784Y010955D03*
D35*
X003936Y010905D02*
X003382Y010905D01*
X003382Y009905D02*
X003936Y009905D01*
X003936Y008905D02*
X003382Y008905D01*
X003382Y007905D02*
X003936Y007905D01*
X003936Y006905D02*
X003382Y006905D01*
X003159Y004682D02*
X003159Y004128D01*
X004159Y004128D02*
X004159Y004682D01*
X005159Y004682D02*
X005159Y004128D01*
X006159Y004128D02*
X006159Y004682D01*
X007159Y004682D02*
X007159Y004128D01*
X013659Y003932D02*
X013659Y003378D01*
X014659Y003378D02*
X014659Y003932D01*
D36*
X011220Y005343D03*
X009724Y005343D03*
D37*
X025909Y009742D03*
D38*
X025909Y008280D03*
D39*
X025096Y008593D03*
X025096Y009093D03*
X025096Y009593D03*
X026722Y009593D03*
X026722Y009093D03*
X026722Y008593D03*
D40*
X026722Y009093D02*
X027847Y009093D01*
X028222Y009468D01*
X028222Y012093D01*
X027659Y012655D01*
X027659Y017843D01*
X026347Y019155D01*
X020159Y019155D01*
X019909Y018905D01*
X019159Y018905D01*
X018409Y018905D01*
X017909Y019405D01*
X015409Y019405D01*
X014909Y018905D01*
X014189Y018905D01*
X013659Y018905D01*
X013534Y018780D01*
X013534Y016655D01*
X013659Y016530D01*
X014160Y016530D01*
X014160Y014780D02*
X014659Y014780D01*
X014909Y014530D01*
X014909Y013155D01*
X015159Y012905D01*
X016159Y012905D01*
X017659Y012905D02*
X017659Y006405D01*
X018159Y005905D01*
X019159Y005905D01*
X019159Y006905D02*
X020409Y006905D01*
X020534Y006780D01*
X020534Y006468D01*
X020659Y006343D01*
X021082Y006343D01*
X021122Y006776D02*
X021122Y007530D01*
X021309Y007718D01*
X021122Y007905D01*
X021122Y008493D01*
X021284Y008655D01*
X021722Y008655D01*
X022784Y009155D02*
X020659Y009155D01*
X020409Y008905D01*
X019159Y008905D01*
X018534Y009405D02*
X020284Y009405D01*
X020409Y009530D01*
X023284Y009530D01*
X023472Y009343D01*
X024034Y009530D02*
X023659Y009905D01*
X019159Y009905D01*
X018534Y009405D02*
X018159Y009030D01*
X018159Y008218D01*
X018472Y007905D01*
X019159Y007905D01*
X021309Y007718D02*
X022534Y007718D01*
X022696Y007555D01*
X022696Y006776D01*
X022736Y006343D02*
X023722Y006343D01*
X024159Y006780D01*
X024221Y007655D02*
X024222Y007656D01*
X024222Y008155D01*
X024534Y008468D01*
X024534Y008468D01*
X024659Y008593D01*
X025096Y008593D01*
X025096Y008343D01*
X025159Y008280D01*
X025909Y008280D01*
X025909Y008280D01*
X025910Y008280D01*
X024659Y008593D02*
X024472Y008780D01*
X024472Y010843D01*
X024409Y010905D01*
X022784Y009155D02*
X023284Y008655D01*
X022381Y005910D02*
X022381Y005558D01*
X022534Y005405D01*
X023409Y005405D01*
X023887Y004905D02*
X025159Y004905D01*
X023887Y004905D02*
X023781Y004799D01*
X022659Y004799D01*
X026722Y009593D02*
X027722Y009593D01*
X027909Y009780D01*
X027909Y011655D01*
X027159Y012405D01*
X027159Y017655D01*
X026409Y018405D01*
X023222Y018405D01*
X022784Y018843D01*
X020409Y018843D01*
X019472Y017905D01*
X019159Y017905D01*
X018409Y017905D01*
X017909Y018405D01*
X014189Y018405D01*
X014189Y019405D02*
X013409Y019405D01*
X012129Y019405D02*
X011534Y019405D01*
X011409Y019530D01*
X011159Y019530D01*
X017659Y012905D02*
X018159Y013405D01*
X021159Y013405D01*
X023049Y015295D01*
X023049Y016437D01*
X023482Y016594D02*
X023482Y015145D01*
X023722Y014905D01*
X024347Y014905D02*
X024534Y015093D01*
X024534Y015655D01*
X024347Y015843D01*
X024347Y016593D01*
X023909Y016746D02*
X023909Y016155D01*
X024034Y016030D01*
X024034Y015468D01*
X014159Y012305D02*
X014159Y011905D01*
X014053Y011799D01*
X014053Y009011D02*
X014159Y008905D01*
X014159Y008780D01*
X014159Y008505D01*
X008659Y010405D02*
X008284Y010030D01*
X005909Y010030D01*
X005159Y009280D01*
X005159Y008405D01*
X004659Y007905D01*
X003659Y007905D01*
X008659Y010405D02*
X008659Y012405D01*
D41*
X009659Y013905D02*
X006159Y013905D01*
X005659Y014405D01*
X003784Y014405D01*
X003534Y014655D01*
X003534Y018404D01*
X002746Y018444D02*
X002746Y018929D01*
X002972Y019155D01*
X003534Y019155D01*
X003746Y019367D01*
X003746Y020030D01*
X004572Y020030D02*
X005034Y020030D01*
X005659Y019405D01*
X005159Y015655D02*
X004159Y015655D01*
X005159Y015655D02*
X006409Y014405D01*
X007202Y014405D01*
X006159Y013905D02*
X006159Y012155D01*
X004909Y010905D01*
X005159Y010655D01*
X005785Y010655D01*
X004909Y010905D02*
X003659Y010905D01*
X002909Y010905D01*
X002659Y010655D01*
X002659Y007155D01*
X002909Y006905D01*
X003659Y006905D01*
X003659Y005905D01*
X005784Y005905D01*
X006108Y006229D01*
X006432Y005905D01*
X006909Y005905D01*
X007159Y005655D01*
X007409Y005905D01*
X008284Y005905D01*
X008534Y006155D01*
X008534Y006743D01*
X009443Y006752D02*
X009443Y006121D01*
X008909Y005587D01*
X008909Y004218D01*
X009076Y004051D01*
X008935Y004051D01*
X009076Y004051D02*
X009919Y004051D01*
X010903Y004051D02*
X010903Y004661D01*
X010409Y005155D01*
X009852Y005155D01*
X009724Y005343D01*
X011220Y005343D02*
X013409Y005343D01*
X013659Y005093D01*
X013659Y003655D01*
X015159Y005718D02*
X016097Y004780D01*
X016159Y004780D01*
X016159Y004780D01*
X017284Y004780D01*
X017659Y004405D01*
X018034Y004780D01*
X019785Y004780D01*
X020533Y004780D02*
X020533Y004154D01*
X020782Y003905D01*
X022409Y003905D01*
X022659Y004155D01*
X022909Y003905D01*
X023410Y003905D01*
X024158Y003905D02*
X025024Y003905D01*
X025534Y003395D01*
X026649Y003395D01*
X026659Y003405D02*
X026909Y003655D01*
X026909Y006155D01*
X026159Y006905D01*
X025159Y005905D02*
X023722Y005905D01*
X022701Y005905D01*
X022659Y004799D02*
X022659Y004155D01*
X020533Y004154D02*
X020284Y003905D01*
X018659Y003905D01*
X017659Y003905D02*
X017659Y004405D01*
X015159Y005718D02*
X015159Y005718D01*
X015159Y007655D01*
X015409Y007905D01*
X016159Y007905D01*
X014159Y008780D02*
X014159Y009655D01*
X014409Y009905D01*
X016159Y009905D01*
X016159Y010905D02*
X014409Y010905D01*
X014159Y011155D01*
X014159Y011905D01*
X014053Y011799D02*
X012534Y011799D01*
X011659Y010780D02*
X011484Y010955D01*
X010784Y010955D01*
X010759Y010330D02*
X009754Y010330D01*
X011659Y010155D02*
X011659Y010780D01*
X012534Y009011D02*
X014053Y009011D01*
X012996Y007369D02*
X012996Y006318D01*
X013821Y006318D01*
X014159Y006655D01*
X012285Y006280D02*
X011284Y006280D01*
X010998Y006567D01*
X010998Y007145D01*
X010274Y007145D01*
X009881Y006752D01*
X009443Y006752D01*
X007159Y005655D02*
X007159Y004405D01*
X006108Y006229D02*
X006108Y006838D01*
X003659Y005905D02*
X003159Y005405D01*
X003159Y004405D01*
X003659Y008905D02*
X004659Y008905D01*
X007202Y015405D02*
X008659Y015405D01*
X012909Y015655D02*
X013909Y015655D01*
X014159Y015405D01*
X014409Y015655D01*
X014659Y015655D01*
X014909Y015905D01*
X014909Y016529D01*
X014908Y016530D02*
X014908Y017405D01*
X014189Y017434D02*
X014189Y018405D01*
X014159Y015405D02*
X014159Y014780D01*
X019159Y011905D02*
X019972Y011905D01*
X020222Y011655D01*
X021015Y011655D01*
X019159Y010905D02*
X024409Y010905D01*
X024472Y010905D01*
X024972Y011405D01*
X025785Y011405D01*
X026533Y011405D02*
X026909Y011405D01*
X027159Y011155D01*
X027159Y010655D01*
X026533Y011405D02*
X026533Y012344D01*
X026347Y012530D01*
X025420Y012530D01*
X024909Y014405D02*
X023159Y014405D01*
X024909Y014405D02*
X025214Y014710D01*
X025214Y016594D01*
X024781Y016752D02*
X024781Y017527D01*
X024909Y017655D01*
X025921Y017655D01*
D42*
X026002Y017736D01*
X026052Y017703D02*
X026729Y017703D01*
X026631Y017802D02*
X026407Y017802D01*
X026407Y017786D02*
X026407Y018025D01*
X026889Y017543D01*
X026889Y012459D01*
X026889Y012351D01*
X026930Y012252D01*
X027639Y011543D01*
X027639Y009892D01*
X027610Y009863D01*
X027235Y009863D01*
X027138Y009960D01*
X026306Y009960D01*
X026277Y009930D01*
X026277Y010321D01*
X026154Y010444D01*
X025665Y010444D01*
X025542Y010321D01*
X025542Y009808D01*
X025529Y009830D01*
X025505Y009854D01*
X025475Y009871D01*
X025442Y009880D01*
X025125Y009880D01*
X025125Y009622D01*
X025067Y009622D01*
X025067Y009880D01*
X024750Y009880D01*
X024742Y009878D01*
X024742Y010654D01*
X024784Y010697D01*
X024840Y010832D01*
X024840Y010863D01*
X025092Y011115D01*
X025319Y011115D01*
X025319Y011003D01*
X025442Y010880D01*
X026128Y010880D01*
X026159Y010911D01*
X026190Y010880D01*
X026864Y010880D01*
X026847Y010864D01*
X026791Y010728D01*
X026791Y010582D01*
X026847Y010447D01*
X026951Y010343D01*
X027086Y010287D01*
X027232Y010287D01*
X027368Y010343D01*
X027471Y010447D01*
X027527Y010582D01*
X027527Y010728D01*
X027471Y010864D01*
X027449Y010886D01*
X027449Y011097D01*
X027449Y011213D01*
X027405Y011319D01*
X027073Y011651D01*
X026999Y011682D01*
X026999Y011807D01*
X026876Y011930D01*
X026823Y011930D01*
X026823Y012286D01*
X026823Y012401D01*
X026779Y012508D01*
X026592Y012694D01*
X026511Y012776D01*
X026889Y012776D01*
X026889Y012874D02*
X025936Y012874D01*
X025936Y012820D02*
X025936Y012941D01*
X025813Y013064D01*
X024930Y013064D01*
X024807Y012941D01*
X024807Y012216D01*
X024930Y012093D01*
X025813Y012093D01*
X025936Y012216D01*
X025936Y012240D01*
X026226Y012240D01*
X026243Y012223D01*
X026243Y011930D01*
X026190Y011930D01*
X026159Y011899D01*
X026128Y011930D01*
X025442Y011930D01*
X025319Y011807D01*
X025319Y011695D01*
X025029Y011695D01*
X024914Y011695D01*
X024807Y011651D01*
X024430Y011273D01*
X024398Y011273D01*
X024263Y011217D01*
X024241Y011195D01*
X021423Y011195D01*
X021466Y011238D01*
X021467Y011236D01*
X021497Y011219D01*
X021530Y011210D01*
X021753Y011210D01*
X021753Y011605D01*
X021853Y011605D01*
X021853Y011705D01*
X022189Y011705D01*
X022189Y011987D01*
X022180Y012020D01*
X022163Y012050D01*
X022138Y012074D01*
X022109Y012091D01*
X022076Y012100D01*
X021853Y012100D01*
X021853Y011705D01*
X021753Y011705D01*
X021753Y012100D01*
X021530Y012100D01*
X021497Y012091D01*
X021467Y012074D01*
X021466Y012073D01*
X021358Y012180D01*
X020672Y012180D01*
X020549Y012057D01*
X020549Y011945D01*
X020342Y011945D01*
X020136Y012151D01*
X020029Y012195D01*
X019914Y012195D01*
X019745Y012195D01*
X019654Y012287D01*
X019489Y012355D01*
X018830Y012355D01*
X018664Y012287D01*
X018538Y012160D01*
X018469Y011995D01*
X018469Y011816D01*
X018538Y011650D01*
X018664Y011524D01*
X018830Y011455D01*
X019489Y011455D01*
X019654Y011524D01*
X019745Y011615D01*
X019851Y011615D01*
X019976Y011491D01*
X020057Y011409D01*
X020164Y011365D01*
X020549Y011365D01*
X020549Y011253D01*
X020608Y011195D01*
X019745Y011195D01*
X019654Y011287D01*
X019489Y011355D01*
X018830Y011355D01*
X018664Y011287D01*
X018538Y011160D01*
X018469Y010995D01*
X018469Y010816D01*
X018538Y010650D01*
X018664Y010524D01*
X018830Y010455D01*
X019489Y010455D01*
X019654Y010524D01*
X019745Y010615D01*
X024202Y010615D01*
X024202Y009859D01*
X024107Y009898D01*
X024048Y009898D01*
X023812Y010134D01*
X023713Y010175D01*
X023605Y010175D01*
X019765Y010175D01*
X019654Y010287D01*
X019489Y010355D01*
X018830Y010355D01*
X018664Y010287D01*
X018538Y010160D01*
X018469Y009995D01*
X018469Y009816D01*
X018527Y009675D01*
X018480Y009675D01*
X018381Y009634D01*
X018305Y009558D01*
X017930Y009183D01*
X017929Y009180D01*
X017929Y012793D01*
X018271Y013135D01*
X018628Y013135D01*
X018591Y013080D01*
X018563Y013013D01*
X018549Y012942D01*
X018549Y012935D01*
X019129Y012935D01*
X019129Y012875D01*
X019189Y012875D01*
X019189Y012535D01*
X019436Y012535D01*
X019507Y012549D01*
X019574Y012577D01*
X019635Y012618D01*
X019686Y012669D01*
X019727Y012730D01*
X019755Y012797D01*
X019769Y012869D01*
X019769Y012875D01*
X019189Y012875D01*
X019189Y012935D01*
X019769Y012935D01*
X019769Y012942D01*
X019755Y013013D01*
X019727Y013080D01*
X019690Y013135D01*
X021213Y013135D01*
X021312Y013176D01*
X021388Y013252D01*
X023216Y015081D01*
X023253Y014992D01*
X023353Y014891D01*
X023353Y014832D01*
X023409Y014697D01*
X023411Y014695D01*
X023390Y014695D01*
X023368Y014717D01*
X023232Y014773D01*
X023086Y014773D01*
X022951Y014717D01*
X022847Y014614D01*
X022791Y014478D01*
X022791Y014332D01*
X022847Y014197D01*
X022951Y014093D01*
X023086Y014037D01*
X023232Y014037D01*
X023368Y014093D01*
X023390Y014115D01*
X024967Y014115D01*
X025073Y014159D01*
X025155Y014241D01*
X025460Y014546D01*
X025504Y014653D01*
X025504Y014768D01*
X025504Y016089D01*
X025872Y016089D01*
X025995Y016212D01*
X025995Y016976D01*
X025872Y017099D01*
X025439Y017099D01*
X025039Y017099D01*
X025023Y017127D01*
X024999Y017151D01*
X024969Y017168D01*
X024936Y017177D01*
X024800Y017177D01*
X024800Y016771D01*
X024762Y016771D01*
X024762Y017177D01*
X024626Y017177D01*
X024593Y017168D01*
X024563Y017151D01*
X024539Y017127D01*
X024524Y017099D01*
X024263Y017099D01*
X024263Y017134D01*
X024140Y017257D01*
X023690Y017257D01*
X023567Y017134D01*
X023567Y017099D01*
X023257Y017099D01*
X023134Y016976D01*
X023134Y016942D01*
X022964Y016942D01*
X022964Y016976D01*
X022841Y017099D01*
X022391Y017099D01*
X022268Y016976D01*
X022268Y016212D01*
X022391Y016089D01*
X022701Y016089D01*
X022701Y016054D01*
X022779Y015977D01*
X022779Y015407D01*
X021047Y013675D01*
X019791Y013675D01*
X019849Y013816D01*
X019849Y013995D01*
X019781Y014160D01*
X019654Y014287D01*
X019489Y014355D01*
X018830Y014355D01*
X018664Y014287D01*
X018538Y014160D01*
X018469Y013995D01*
X018469Y013816D01*
X018527Y013675D01*
X018213Y013675D01*
X018105Y013675D01*
X018006Y013634D01*
X017430Y013058D01*
X017389Y012959D01*
X017389Y012851D01*
X017389Y006459D01*
X017389Y006351D01*
X017430Y006252D01*
X017930Y005752D01*
X018006Y005676D01*
X018105Y005635D01*
X018553Y005635D01*
X018664Y005524D01*
X018830Y005455D01*
X019489Y005455D01*
X019654Y005524D01*
X019781Y005650D01*
X019849Y005816D01*
X019849Y005995D01*
X019781Y006160D01*
X019654Y006287D01*
X019489Y006355D01*
X018830Y006355D01*
X018664Y006287D01*
X018553Y006175D01*
X018271Y006175D01*
X017929Y006517D01*
X017929Y008068D01*
X017930Y008065D01*
X018243Y007752D01*
X018319Y007676D01*
X018418Y007635D01*
X018553Y007635D01*
X018664Y007524D01*
X018830Y007455D01*
X019489Y007455D01*
X019654Y007524D01*
X019781Y007650D01*
X019849Y007816D01*
X019849Y007995D01*
X019781Y008160D01*
X019654Y008287D01*
X019489Y008355D01*
X018830Y008355D01*
X018664Y008287D01*
X018568Y008190D01*
X018429Y008329D01*
X018429Y008918D01*
X018469Y008958D01*
X018469Y008816D01*
X018538Y008650D01*
X018664Y008524D01*
X018830Y008455D01*
X019489Y008455D01*
X019654Y008524D01*
X019765Y008635D01*
X020463Y008635D01*
X020562Y008676D01*
X020638Y008752D01*
X020638Y008752D01*
X020771Y008885D01*
X021134Y008885D01*
X021131Y008884D01*
X020893Y008646D01*
X020852Y008546D01*
X020852Y008439D01*
X020852Y007851D01*
X020893Y007752D01*
X020927Y007718D01*
X020893Y007683D01*
X020852Y007584D01*
X020852Y007476D01*
X020852Y007137D01*
X020813Y007099D01*
X020813Y006651D01*
X020804Y006651D01*
X020804Y006726D01*
X020804Y006834D01*
X020763Y006933D01*
X020638Y007058D01*
X020562Y007134D01*
X020463Y007175D01*
X019765Y007175D01*
X019654Y007287D01*
X019489Y007355D01*
X018830Y007355D01*
X018664Y007287D01*
X018538Y007160D01*
X018469Y006995D01*
X018469Y006816D01*
X018538Y006650D01*
X018664Y006524D01*
X018830Y006455D01*
X019489Y006455D01*
X019654Y006524D01*
X019765Y006635D01*
X020264Y006635D01*
X020264Y006521D01*
X020264Y006414D01*
X020305Y006315D01*
X020506Y006114D01*
X020605Y006073D01*
X020713Y006073D01*
X020721Y006073D01*
X020759Y006034D01*
X020813Y006034D01*
X020813Y005586D01*
X020936Y005463D01*
X021307Y005463D01*
X021622Y005463D01*
X021702Y005543D01*
X021751Y005543D01*
X021751Y005909D01*
X021752Y005909D01*
X021752Y005543D01*
X021801Y005543D01*
X021881Y005463D01*
X022128Y005463D01*
X022153Y005405D01*
X022275Y005282D01*
X022209Y005216D01*
X022207Y005218D01*
X022178Y005235D01*
X022145Y005244D01*
X021922Y005244D01*
X021922Y004849D01*
X021822Y004849D01*
X021822Y005244D01*
X021599Y005244D01*
X021566Y005235D01*
X021536Y005218D01*
X021512Y005194D01*
X021495Y005164D01*
X021486Y005131D01*
X021486Y004849D01*
X021821Y004849D01*
X021821Y004749D01*
X021486Y004749D01*
X021486Y004467D01*
X021495Y004434D01*
X021512Y004404D01*
X021536Y004380D01*
X021566Y004363D01*
X021599Y004354D01*
X021822Y004354D01*
X021822Y004749D01*
X021922Y004749D01*
X021922Y004354D01*
X022145Y004354D01*
X022178Y004363D01*
X022207Y004380D01*
X022209Y004381D01*
X022316Y004274D01*
X022368Y004274D01*
X022289Y004195D01*
X020902Y004195D01*
X020842Y004255D01*
X020876Y004255D01*
X020999Y004378D01*
X020999Y005182D01*
X020876Y005305D01*
X020190Y005305D01*
X020159Y005274D01*
X020128Y005305D01*
X019442Y005305D01*
X019319Y005182D01*
X019319Y005070D01*
X018092Y005070D01*
X017976Y005070D01*
X017870Y005026D01*
X017659Y004815D01*
X017448Y005026D01*
X017342Y005070D01*
X017226Y005070D01*
X016217Y005070D01*
X016217Y005070D01*
X016217Y005070D01*
X015832Y005455D01*
X016489Y005455D01*
X016654Y005524D01*
X016781Y005650D01*
X016849Y005816D01*
X016849Y005995D01*
X016781Y006160D01*
X016654Y006287D01*
X016489Y006355D01*
X015830Y006355D01*
X015664Y006287D01*
X015538Y006160D01*
X015469Y005995D01*
X015469Y005818D01*
X015449Y005838D01*
X015449Y007535D01*
X015529Y007615D01*
X015573Y007615D01*
X015664Y007524D01*
X015830Y007455D01*
X016489Y007455D01*
X016654Y007524D01*
X016781Y007650D01*
X016849Y007816D01*
X016849Y007995D01*
X016781Y008160D01*
X016654Y008287D01*
X016489Y008355D01*
X015830Y008355D01*
X015664Y008287D01*
X015573Y008195D01*
X015351Y008195D01*
X015245Y008151D01*
X015163Y008069D01*
X014913Y007819D01*
X014869Y007713D01*
X014869Y007597D01*
X014869Y005775D01*
X014869Y005660D01*
X014913Y005553D01*
X014929Y005538D01*
X014995Y005472D01*
X015917Y004550D01*
X015932Y004534D01*
X016039Y004490D01*
X016101Y004490D01*
X016101Y004490D01*
X016217Y004490D01*
X017164Y004490D01*
X017369Y004285D01*
X017369Y004251D01*
X017209Y004091D01*
X017209Y003719D01*
X017473Y003455D01*
X017845Y003455D01*
X018109Y003719D01*
X018109Y004091D01*
X017949Y004251D01*
X017949Y004285D01*
X018154Y004490D01*
X019319Y004490D01*
X019319Y004378D01*
X019442Y004255D01*
X020128Y004255D01*
X020159Y004286D01*
X020190Y004255D01*
X020224Y004255D01*
X020164Y004195D01*
X019005Y004195D01*
X018845Y004355D01*
X018473Y004355D01*
X018209Y004091D01*
X018209Y003719D01*
X018473Y003455D01*
X018845Y003455D01*
X019005Y003615D01*
X020226Y003615D01*
X020342Y003615D01*
X020448Y003659D01*
X020533Y003744D01*
X020618Y003659D01*
X020724Y003615D01*
X020840Y003615D01*
X022467Y003615D01*
X022573Y003659D01*
X022655Y003741D01*
X022659Y003745D01*
X022745Y003659D01*
X022851Y003615D01*
X022944Y003615D01*
X022944Y003503D01*
X023067Y003380D01*
X023753Y003380D01*
X023784Y003411D01*
X023815Y003380D01*
X024501Y003380D01*
X024624Y003503D01*
X024624Y003615D01*
X024904Y003615D01*
X025288Y003231D01*
X025370Y003149D01*
X025476Y003105D01*
X026439Y003105D01*
X026451Y003093D01*
X026586Y003037D01*
X026732Y003037D01*
X026868Y003093D01*
X026971Y003197D01*
X027027Y003332D01*
X027027Y003363D01*
X027073Y003409D01*
X027155Y003491D01*
X027199Y003597D01*
X027199Y006097D01*
X027199Y006213D01*
X027155Y006319D01*
X026739Y006735D01*
X026739Y007145D01*
X026399Y007485D01*
X025919Y007485D01*
X025602Y007169D01*
X025366Y007405D01*
X025209Y007405D01*
X025209Y006955D01*
X025109Y006955D01*
X025109Y006855D01*
X024659Y006855D01*
X024659Y006698D01*
X024692Y006665D01*
X024642Y006665D01*
X024527Y006780D01*
X024527Y006853D01*
X024471Y006989D01*
X024368Y007092D01*
X024232Y007148D01*
X024086Y007148D01*
X023951Y007092D01*
X023847Y006989D01*
X023791Y006853D01*
X023791Y006794D01*
X023610Y006613D01*
X023097Y006613D01*
X023059Y006651D01*
X023005Y006651D01*
X023005Y007099D01*
X022966Y007137D01*
X022966Y007609D01*
X022925Y007708D01*
X022849Y007784D01*
X022763Y007871D01*
X022687Y007946D01*
X022588Y007988D01*
X021421Y007988D01*
X021392Y008017D01*
X021392Y008381D01*
X021396Y008385D01*
X021471Y008385D01*
X021513Y008343D01*
X021648Y008287D01*
X021795Y008287D01*
X021930Y008343D01*
X022034Y008447D01*
X022090Y008582D01*
X022090Y008728D01*
X022034Y008864D01*
X022012Y008885D01*
X022672Y008885D01*
X022916Y008641D01*
X022916Y008582D01*
X022972Y008447D01*
X023076Y008343D01*
X023211Y008287D01*
X023357Y008287D01*
X023493Y008343D01*
X023596Y008447D01*
X023652Y008582D01*
X023652Y008728D01*
X023596Y008864D01*
X023493Y008967D01*
X023475Y008975D01*
X023545Y008975D01*
X023680Y009031D01*
X023784Y009134D01*
X023820Y009223D01*
X023826Y009218D01*
X023961Y009162D01*
X024107Y009162D01*
X024202Y009201D01*
X024202Y008834D01*
X023608Y008834D01*
X023649Y008736D02*
X024202Y008736D01*
X024202Y008726D02*
X024243Y008627D01*
X024277Y008593D01*
X024069Y008384D01*
X023993Y008308D01*
X023952Y008209D01*
X023952Y008160D01*
X023878Y008160D01*
X023785Y008068D01*
X023779Y008071D01*
X023746Y008080D01*
X023522Y008080D01*
X023522Y007705D01*
X023423Y007705D01*
X023423Y008080D01*
X023199Y008080D01*
X023166Y008071D01*
X023137Y008054D01*
X023113Y008030D01*
X023095Y008001D01*
X023087Y007968D01*
X023087Y007705D01*
X023422Y007705D01*
X023422Y007605D01*
X023087Y007605D01*
X023087Y007343D01*
X023095Y007310D01*
X023113Y007280D01*
X023137Y007256D01*
X023166Y007239D01*
X023199Y007230D01*
X023423Y007230D01*
X023423Y007605D01*
X023522Y007605D01*
X023522Y007230D01*
X023746Y007230D01*
X023779Y007239D01*
X023785Y007242D01*
X023878Y007150D01*
X024563Y007150D01*
X024686Y007273D01*
X024686Y008037D01*
X024586Y008138D01*
X024677Y008229D01*
X024680Y008225D01*
X024853Y008225D01*
X024867Y008190D01*
X024930Y008127D01*
X025006Y008051D01*
X025105Y008010D01*
X025542Y008010D01*
X025542Y007864D01*
X025665Y007741D01*
X026154Y007741D01*
X026277Y007864D01*
X026277Y008255D01*
X026306Y008225D01*
X027138Y008225D01*
X027261Y008348D01*
X027261Y008823D01*
X027793Y008823D01*
X027900Y008823D01*
X027999Y008864D01*
X028374Y009239D01*
X028450Y009315D01*
X028492Y009414D01*
X028492Y012039D01*
X028492Y012146D01*
X028450Y012246D01*
X027929Y012767D01*
X027929Y017789D01*
X027929Y017896D01*
X027888Y017996D01*
X027029Y018854D01*
X027318Y018854D01*
X027613Y018976D01*
X027838Y019201D01*
X027960Y019496D01*
X027960Y019814D01*
X027838Y020109D01*
X027613Y020334D01*
X027318Y020456D01*
X027000Y020456D01*
X026705Y020334D01*
X026480Y020109D01*
X026358Y019814D01*
X026358Y019496D01*
X026387Y019425D01*
X026293Y019425D01*
X020105Y019425D01*
X020006Y019384D01*
X019930Y019308D01*
X019797Y019175D01*
X019765Y019175D01*
X019654Y019287D01*
X019489Y019355D01*
X018830Y019355D01*
X018664Y019287D01*
X018553Y019175D01*
X018521Y019175D01*
X018062Y019634D01*
X017963Y019675D01*
X017855Y019675D01*
X015355Y019675D01*
X015256Y019634D01*
X015180Y019558D01*
X014834Y019212D01*
X014834Y019612D01*
X014791Y019655D01*
X014834Y019698D01*
X014834Y020112D01*
X014711Y020235D01*
X013667Y020235D01*
X013597Y020165D01*
X013336Y020165D01*
X013232Y020165D01*
X013137Y020126D01*
X012774Y019763D01*
X012774Y020112D01*
X012651Y020235D01*
X011607Y020235D01*
X011537Y020165D01*
X008586Y020165D01*
X008482Y020165D01*
X008387Y020126D01*
X008116Y019855D01*
X007945Y019855D01*
X007779Y019787D01*
X007653Y019660D01*
X007584Y019495D01*
X007584Y019316D01*
X007653Y019150D01*
X007779Y019024D01*
X007945Y018955D01*
X008124Y018955D01*
X008289Y019024D01*
X008416Y019150D01*
X008484Y019316D01*
X008484Y019487D01*
X008642Y019645D01*
X008751Y019645D01*
X008740Y019635D01*
X008723Y019605D01*
X008714Y019572D01*
X008714Y019349D01*
X009109Y019349D01*
X009109Y019249D01*
X008714Y019249D01*
X008714Y019026D01*
X008723Y018993D01*
X008740Y018963D01*
X008741Y018962D01*
X008634Y018854D01*
X008634Y018169D01*
X008757Y018046D01*
X008899Y018046D01*
X008899Y017707D01*
X008899Y017603D01*
X008939Y017508D01*
X009031Y017415D01*
X008892Y017415D01*
X008681Y017626D01*
X008586Y017665D01*
X008482Y017665D01*
X008003Y017665D01*
X008003Y017689D01*
X007880Y017812D01*
X006525Y017812D01*
X006402Y017689D01*
X006402Y017121D01*
X006525Y016998D01*
X007880Y016998D01*
X008003Y017121D01*
X008003Y017145D01*
X008426Y017145D01*
X008564Y017008D01*
X008637Y016935D01*
X008732Y016895D01*
X008781Y016895D01*
X008551Y016665D01*
X008003Y016665D01*
X008003Y016689D01*
X007880Y016812D01*
X006525Y016812D01*
X006402Y016689D01*
X006402Y016121D01*
X006525Y015998D01*
X007880Y015998D01*
X008003Y016121D01*
X008003Y016145D01*
X008607Y016145D01*
X008711Y016145D01*
X008806Y016185D01*
X009267Y016645D01*
X010898Y016645D01*
X010951Y016593D01*
X011086Y016537D01*
X011232Y016537D01*
X011368Y016593D01*
X011471Y016697D01*
X011527Y016832D01*
X011527Y016978D01*
X011510Y017020D01*
X011551Y017020D01*
X011649Y016922D01*
X011649Y014513D01*
X011301Y014165D01*
X010357Y014165D01*
X010262Y014126D01*
X010189Y014052D01*
X010027Y013891D01*
X010027Y013978D01*
X009971Y014114D01*
X009868Y014217D01*
X009732Y014273D01*
X009586Y014273D01*
X009451Y014217D01*
X009428Y014195D01*
X008003Y014195D01*
X008003Y014689D01*
X007880Y014812D01*
X006525Y014812D01*
X006469Y014756D01*
X005405Y015819D01*
X005405Y015819D01*
X005323Y015901D01*
X005217Y015945D01*
X004390Y015945D01*
X004368Y015967D01*
X004232Y016023D01*
X004086Y016023D01*
X003951Y015967D01*
X003847Y015864D01*
X003824Y015808D01*
X003824Y017900D01*
X003876Y017900D01*
X003999Y018023D01*
X003999Y018787D01*
X007780Y018787D01*
X007779Y018787D02*
X007653Y018660D01*
X007584Y018495D01*
X007584Y018316D01*
X007653Y018150D01*
X007779Y018024D01*
X007945Y017955D01*
X008124Y017955D01*
X008289Y018024D01*
X008416Y018150D01*
X008484Y018316D01*
X008484Y018495D01*
X008416Y018660D01*
X008289Y018787D01*
X008124Y018855D01*
X007945Y018855D01*
X007779Y018787D01*
X007681Y018689D02*
X003999Y018689D01*
X003999Y018787D02*
X003876Y018910D01*
X003699Y018910D01*
X003991Y019202D01*
X004036Y019309D01*
X004036Y019424D01*
X004036Y019584D01*
X004069Y019584D01*
X004159Y019674D01*
X004159Y019674D01*
X004249Y019584D01*
X004896Y019584D01*
X004983Y019671D01*
X005291Y019363D01*
X005291Y019332D01*
X005347Y019197D01*
X005451Y019093D01*
X005586Y019037D01*
X005732Y019037D01*
X005868Y019093D01*
X005971Y019197D01*
X006027Y019332D01*
X006027Y019478D01*
X005971Y019614D01*
X005868Y019717D01*
X005732Y019773D01*
X005701Y019773D01*
X005280Y020194D01*
X005198Y020276D01*
X005092Y020320D01*
X005019Y020320D01*
X005019Y020353D01*
X004896Y020476D01*
X004249Y020476D01*
X004159Y020386D01*
X004069Y020476D01*
X003422Y020476D01*
X003299Y020353D01*
X003299Y019707D01*
X003422Y019584D01*
X003456Y019584D01*
X003456Y019487D01*
X003414Y019445D01*
X002939Y019445D01*
X002960Y019496D01*
X002960Y019814D01*
X002838Y020109D01*
X002613Y020334D01*
X002318Y020456D01*
X002000Y020456D01*
X001705Y020334D01*
X001480Y020109D01*
X001409Y019938D01*
X001409Y020665D01*
X029468Y020665D01*
X029468Y001480D01*
X027617Y001480D01*
X027838Y001701D01*
X027960Y001996D01*
X027960Y002314D01*
X027838Y002609D01*
X027613Y002834D01*
X027318Y002956D01*
X027000Y002956D01*
X026705Y002834D01*
X026480Y002609D01*
X026358Y002314D01*
X026358Y001996D01*
X026480Y001701D01*
X026701Y001480D01*
X002617Y001480D01*
X002838Y001701D01*
X002960Y001996D01*
X002960Y002314D01*
X002838Y002609D01*
X002613Y002834D01*
X002318Y002956D01*
X002000Y002956D01*
X001705Y002834D01*
X001480Y002609D01*
X001409Y002438D01*
X001409Y019372D01*
X001480Y019201D01*
X001705Y018976D01*
X002000Y018854D01*
X002318Y018854D01*
X002433Y018902D01*
X002319Y018787D01*
X001409Y018787D01*
X001409Y018689D02*
X002319Y018689D01*
X002319Y018787D02*
X002319Y018023D01*
X002442Y017900D01*
X003128Y017900D01*
X003159Y017931D01*
X003190Y017900D01*
X003244Y017900D01*
X003244Y014597D01*
X003288Y014491D01*
X003370Y014409D01*
X003620Y014159D01*
X003726Y014115D01*
X003842Y014115D01*
X005539Y014115D01*
X005869Y013785D01*
X005869Y012275D01*
X004789Y011195D01*
X004334Y011195D01*
X004212Y011318D01*
X004033Y011392D01*
X003285Y011392D01*
X003106Y011318D01*
X002984Y011195D01*
X002851Y011195D01*
X002745Y011151D01*
X002663Y011069D01*
X002413Y010819D01*
X002369Y010713D01*
X002369Y010597D01*
X002369Y007097D01*
X002413Y006991D01*
X002495Y006909D01*
X002745Y006659D01*
X002851Y006615D01*
X002967Y006615D01*
X002984Y006615D01*
X003106Y006492D01*
X003285Y006418D01*
X003369Y006418D01*
X003369Y006025D01*
X002913Y005569D01*
X002869Y005463D01*
X002869Y005347D01*
X002869Y005080D01*
X002746Y004958D01*
X002672Y004779D01*
X002672Y004031D01*
X002746Y003852D01*
X002883Y003716D01*
X003062Y003641D01*
X003256Y003641D01*
X003435Y003716D01*
X003572Y003852D01*
X003646Y004031D01*
X003646Y004779D01*
X003572Y004958D01*
X003449Y005080D01*
X003449Y005285D01*
X003779Y005615D01*
X005726Y005615D01*
X005842Y005615D01*
X005948Y005659D01*
X006108Y005819D01*
X006267Y005659D01*
X006374Y005615D01*
X006489Y005615D01*
X006789Y005615D01*
X006869Y005535D01*
X006869Y005080D01*
X006746Y004958D01*
X006672Y004779D01*
X006672Y004031D01*
X006746Y003852D01*
X006883Y003716D01*
X007062Y003641D01*
X007256Y003641D01*
X007435Y003716D01*
X007572Y003852D01*
X007646Y004031D01*
X007646Y004779D01*
X007572Y004958D01*
X007449Y005080D01*
X007449Y005535D01*
X007529Y005615D01*
X008226Y005615D01*
X008342Y005615D01*
X008448Y005659D01*
X008698Y005909D01*
X008780Y005991D01*
X008824Y006097D01*
X008824Y006147D01*
X008925Y006147D01*
X008993Y006215D01*
X009060Y006148D01*
X008663Y005751D01*
X008619Y005645D01*
X008619Y005529D01*
X008619Y004753D01*
X008611Y004753D01*
X008488Y004630D01*
X008488Y003472D01*
X008565Y003395D01*
X008436Y003395D01*
X008279Y003330D01*
X008159Y003210D01*
X008094Y003053D01*
X008094Y002883D01*
X008159Y002726D01*
X008279Y002606D01*
X008436Y002541D01*
X008606Y002541D01*
X008763Y002606D01*
X008883Y002726D01*
X008948Y002883D01*
X008948Y003053D01*
X008883Y003210D01*
X008763Y003330D01*
X008719Y003349D01*
X009258Y003349D01*
X009381Y003472D01*
X009381Y003761D01*
X009473Y003761D01*
X009473Y003472D01*
X009596Y003349D01*
X010242Y003349D01*
X010365Y003472D01*
X010365Y004630D01*
X010242Y004753D01*
X009596Y004753D01*
X009473Y004630D01*
X009473Y004341D01*
X009381Y004341D01*
X009381Y004630D01*
X009258Y004753D01*
X009199Y004753D01*
X009199Y005467D01*
X009238Y005506D01*
X009238Y004980D01*
X009361Y004857D01*
X010086Y004857D01*
X010094Y004865D01*
X010289Y004865D01*
X010491Y004664D01*
X010457Y004630D01*
X010457Y003472D01*
X010580Y003349D01*
X011119Y003349D01*
X011075Y003330D01*
X010954Y003210D01*
X010889Y003053D01*
X010889Y002883D01*
X010954Y002726D01*
X011075Y002606D01*
X011232Y002541D01*
X011401Y002541D01*
X011558Y002606D01*
X011679Y002726D01*
X011744Y002883D01*
X011744Y003053D01*
X011679Y003210D01*
X011558Y003330D01*
X011401Y003395D01*
X011273Y003395D01*
X011349Y003472D01*
X011349Y004630D01*
X011226Y004753D01*
X011179Y004753D01*
X011149Y004825D01*
X011117Y004857D01*
X011582Y004857D01*
X011705Y004980D01*
X011705Y005053D01*
X013289Y005053D01*
X013369Y004972D01*
X013369Y004330D01*
X013246Y004208D01*
X013172Y004029D01*
X013172Y003281D01*
X013246Y003102D01*
X013383Y002966D01*
X013562Y002891D01*
X013756Y002891D01*
X013935Y002966D01*
X014072Y003102D01*
X014146Y003281D01*
X014146Y004029D01*
X014072Y004208D01*
X013949Y004330D01*
X013949Y005035D01*
X013949Y005150D01*
X013905Y005257D01*
X013655Y005507D01*
X013573Y005588D01*
X013467Y005633D01*
X011705Y005633D01*
X011705Y005705D01*
X011582Y005828D01*
X010857Y005828D01*
X010734Y005705D01*
X010734Y005240D01*
X010655Y005319D01*
X010573Y005401D01*
X010467Y005445D01*
X010209Y005445D01*
X010209Y005705D01*
X010086Y005828D01*
X009560Y005828D01*
X009689Y005957D01*
X009733Y006063D01*
X009733Y006147D01*
X009825Y006147D01*
X009948Y006270D01*
X009948Y006466D01*
X010045Y006506D01*
X010315Y006776D01*
X010315Y006586D01*
X010438Y006463D01*
X010727Y006463D01*
X010752Y006402D01*
X011038Y006116D01*
X011120Y006034D01*
X011226Y005990D01*
X011819Y005990D01*
X011819Y005878D01*
X011942Y005755D01*
X012628Y005755D01*
X012659Y005786D01*
X012690Y005755D01*
X013376Y005755D01*
X013499Y005878D01*
X013499Y006028D01*
X013764Y006028D01*
X013879Y006028D01*
X013986Y006072D01*
X014201Y006287D01*
X014232Y006287D01*
X014368Y006343D01*
X014471Y006447D01*
X014527Y006582D01*
X014527Y006728D01*
X014471Y006864D01*
X014368Y006967D01*
X014232Y007023D01*
X014086Y007023D01*
X013951Y006967D01*
X013847Y006864D01*
X013791Y006728D01*
X013791Y006697D01*
X013701Y006607D01*
X013499Y006607D01*
X013499Y006682D01*
X013376Y006805D01*
X013286Y006805D01*
X013286Y006844D01*
X013339Y006844D01*
X013462Y006967D01*
X013462Y007771D01*
X013339Y007894D01*
X012653Y007894D01*
X012560Y007801D01*
X012554Y007805D01*
X012521Y007814D01*
X012298Y007814D01*
X012298Y007419D01*
X012198Y007419D01*
X012198Y007814D01*
X011975Y007814D01*
X011942Y007805D01*
X011912Y007788D01*
X011888Y007763D01*
X011871Y007734D01*
X011862Y007701D01*
X011862Y007419D01*
X012197Y007419D01*
X012197Y007319D01*
X011862Y007319D01*
X011862Y007037D01*
X011871Y007004D01*
X011888Y006974D01*
X011912Y006950D01*
X011942Y006933D01*
X011975Y006924D01*
X012198Y006924D01*
X012198Y007319D01*
X012298Y007319D01*
X012298Y006924D01*
X012521Y006924D01*
X012554Y006933D01*
X012560Y006936D01*
X012653Y006844D01*
X012706Y006844D01*
X012706Y006805D01*
X012690Y006805D01*
X012659Y006774D01*
X012628Y006805D01*
X011942Y006805D01*
X011819Y006682D01*
X011819Y006570D01*
X011664Y006570D01*
X011680Y006586D01*
X011680Y007705D01*
X011557Y007828D01*
X010438Y007828D01*
X010315Y007705D01*
X010315Y007435D01*
X010216Y007435D01*
X010110Y007391D01*
X009948Y007229D01*
X009948Y007234D01*
X009825Y007357D01*
X009061Y007357D01*
X008993Y007289D01*
X008925Y007357D01*
X008161Y007357D01*
X008038Y007234D01*
X008038Y007230D01*
X008018Y007251D01*
X007988Y007268D01*
X007955Y007277D01*
X007693Y007277D01*
X007693Y006802D01*
X007593Y006802D01*
X007593Y007277D01*
X007331Y007277D01*
X007298Y007268D01*
X007268Y007251D01*
X007244Y007227D01*
X007227Y007197D01*
X007218Y007164D01*
X007218Y006802D01*
X007593Y006802D01*
X007593Y006702D01*
X007218Y006702D01*
X007218Y006340D01*
X007227Y006307D01*
X007244Y006277D01*
X007268Y006253D01*
X007298Y006236D01*
X007331Y006227D01*
X007593Y006227D01*
X007593Y006702D01*
X007693Y006702D01*
X007693Y006227D01*
X007955Y006227D01*
X007988Y006236D01*
X008018Y006253D01*
X008038Y006273D01*
X008038Y006270D01*
X008113Y006195D01*
X007351Y006195D01*
X007245Y006151D01*
X007163Y006069D01*
X007159Y006065D01*
X007155Y006069D01*
X007155Y006069D01*
X007073Y006151D01*
X006967Y006195D01*
X006707Y006195D01*
X006790Y006279D01*
X006790Y007398D01*
X006667Y007521D01*
X005548Y007521D01*
X005425Y007398D01*
X005425Y006279D01*
X005509Y006195D01*
X003949Y006195D01*
X003949Y006418D01*
X004033Y006418D01*
X004212Y006492D01*
X004349Y006629D01*
X004423Y006808D01*
X004423Y007002D01*
X004349Y007181D01*
X004212Y007318D01*
X004033Y007392D01*
X003285Y007392D01*
X003106Y007318D01*
X003006Y007218D01*
X002949Y007275D01*
X002949Y007679D01*
X002969Y007629D01*
X003106Y007492D01*
X003285Y007418D01*
X004033Y007418D01*
X004212Y007492D01*
X004349Y007629D01*
X004351Y007635D01*
X004605Y007635D01*
X004713Y007635D01*
X004812Y007676D01*
X005388Y008252D01*
X005429Y008351D01*
X005429Y008459D01*
X005429Y009168D01*
X005505Y009245D01*
X005505Y008857D01*
X006058Y008857D01*
X006058Y009409D01*
X005670Y009409D01*
X006021Y009760D01*
X007620Y009760D01*
X007573Y009714D01*
X007573Y008750D01*
X007696Y008627D01*
X009370Y008627D01*
X009493Y008750D01*
X009493Y009714D01*
X009370Y009837D01*
X008472Y009837D01*
X008513Y009877D01*
X008513Y009877D01*
X008888Y010252D01*
X008929Y010351D01*
X008929Y010459D01*
X008929Y012155D01*
X008971Y012197D01*
X009027Y012332D01*
X009027Y012478D01*
X008971Y012614D01*
X008868Y012717D01*
X008732Y012773D01*
X008586Y012773D01*
X008451Y012717D01*
X008347Y012614D01*
X008291Y012478D01*
X008291Y012332D01*
X008347Y012197D01*
X008389Y012155D01*
X008389Y010995D01*
X008388Y010995D01*
X008359Y011012D01*
X008326Y011021D01*
X008122Y011021D01*
X008122Y010705D01*
X008022Y010705D01*
X008022Y010605D01*
X007706Y010605D01*
X007706Y010402D01*
X007715Y010369D01*
X007732Y010339D01*
X007756Y010315D01*
X007782Y010300D01*
X007660Y010300D01*
X007692Y010332D01*
X007692Y010978D01*
X007569Y011101D01*
X006955Y011101D01*
X006876Y011180D01*
X006190Y011180D01*
X006159Y011149D01*
X006128Y011180D01*
X005594Y011180D01*
X006405Y011991D01*
X006449Y012097D01*
X006449Y012213D01*
X006449Y013615D01*
X006482Y013615D01*
X006482Y013454D01*
X007154Y013454D01*
X007154Y013357D01*
X006482Y013357D01*
X006482Y013191D01*
X006491Y013158D01*
X006508Y013128D01*
X006532Y013104D01*
X006562Y013087D01*
X006595Y013078D01*
X007154Y013078D01*
X007154Y013356D01*
X007251Y013356D01*
X007251Y013078D01*
X007810Y013078D01*
X007843Y013087D01*
X007873Y013104D01*
X007897Y013128D01*
X007914Y013158D01*
X007923Y013191D01*
X007923Y013357D01*
X007251Y013357D01*
X007251Y013454D01*
X007923Y013454D01*
X007923Y013615D01*
X009428Y013615D01*
X009451Y013593D01*
X009586Y013537D01*
X009673Y013537D01*
X009533Y013397D01*
X009494Y013301D01*
X009494Y013198D01*
X009494Y011584D01*
X009352Y011584D01*
X009229Y011461D01*
X009229Y010775D01*
X009279Y010724D01*
X009229Y010673D01*
X009229Y009987D01*
X009352Y009864D01*
X010155Y009864D01*
X010278Y009987D01*
X010278Y010019D01*
X010382Y009915D01*
X011186Y009915D01*
X011309Y010038D01*
X011309Y010038D01*
X011347Y009947D01*
X011451Y009843D01*
X011586Y009787D01*
X011732Y009787D01*
X011868Y009843D01*
X011971Y009947D01*
X012027Y010082D01*
X012027Y010228D01*
X011971Y010364D01*
X011949Y010386D01*
X011949Y010722D01*
X011949Y010838D01*
X011905Y010944D01*
X011648Y011201D01*
X011542Y011245D01*
X011426Y011245D01*
X011309Y011245D01*
X011309Y011272D01*
X011186Y011395D01*
X010382Y011395D01*
X010278Y011291D01*
X010278Y011461D01*
X010269Y011470D01*
X011371Y011470D01*
X011494Y011593D01*
X011494Y013017D01*
X011371Y013140D01*
X010014Y013140D01*
X010014Y013142D01*
X010517Y013645D01*
X011357Y013645D01*
X011461Y013645D01*
X011556Y013685D01*
X012129Y014258D01*
X012169Y014353D01*
X012169Y014457D01*
X012169Y016027D01*
X012541Y015656D01*
X012541Y015582D01*
X012597Y015447D01*
X012701Y015343D01*
X012836Y015287D01*
X012982Y015287D01*
X013118Y015343D01*
X013140Y015365D01*
X013789Y015365D01*
X013869Y015285D01*
X013869Y015245D01*
X013777Y015245D01*
X013654Y015122D01*
X013654Y014436D01*
X013746Y014344D01*
X013743Y014337D01*
X013734Y014304D01*
X013734Y014081D01*
X014109Y014081D01*
X014109Y013981D01*
X014209Y013981D01*
X014209Y013645D01*
X014471Y013645D01*
X014504Y013654D01*
X014534Y013671D01*
X014558Y013695D01*
X014575Y013725D01*
X014584Y013758D01*
X014584Y013981D01*
X014209Y013981D01*
X014209Y014081D01*
X014584Y014081D01*
X014584Y014304D01*
X014575Y014337D01*
X014572Y014344D01*
X014639Y014411D01*
X014639Y013552D01*
X014626Y013565D01*
X013692Y013565D01*
X013569Y013442D01*
X013569Y012089D01*
X013059Y012089D01*
X013059Y012142D01*
X012936Y012265D01*
X012132Y012265D01*
X012009Y012142D01*
X012009Y011456D01*
X012116Y011349D01*
X012115Y011347D01*
X012098Y011317D01*
X012089Y011284D01*
X012089Y011061D01*
X012484Y011061D01*
X012484Y010961D01*
X012584Y010961D01*
X012584Y010626D01*
X012866Y010626D01*
X012899Y010634D01*
X012929Y010651D01*
X012953Y010676D01*
X012970Y010705D01*
X012979Y010738D01*
X012979Y010961D01*
X012584Y010961D01*
X012584Y011061D01*
X012979Y011061D01*
X012979Y011284D01*
X012970Y011317D01*
X012953Y011347D01*
X012952Y011349D01*
X013059Y011456D01*
X013059Y011509D01*
X013569Y011509D01*
X013569Y011168D01*
X013692Y011045D01*
X013891Y011045D01*
X013913Y010991D01*
X014163Y010741D01*
X014245Y010659D01*
X014351Y010615D01*
X015573Y010615D01*
X015664Y010524D01*
X015830Y010455D01*
X016489Y010455D01*
X016654Y010524D01*
X016781Y010650D01*
X016849Y010816D01*
X016849Y010995D01*
X016781Y011160D01*
X016654Y011287D01*
X016489Y011355D01*
X015830Y011355D01*
X015664Y011287D01*
X015573Y011195D01*
X014749Y011195D01*
X014749Y012933D01*
X014756Y012926D01*
X014756Y012926D01*
X015006Y012676D01*
X015105Y012635D01*
X015213Y012635D01*
X015553Y012635D01*
X015664Y012524D01*
X015830Y012455D01*
X016489Y012455D01*
X016654Y012524D01*
X016781Y012650D01*
X016849Y012816D01*
X016849Y012995D01*
X016781Y013160D01*
X016654Y013287D01*
X016489Y013355D01*
X015830Y013355D01*
X015664Y013287D01*
X015553Y013175D01*
X015271Y013175D01*
X015179Y013267D01*
X015179Y014476D01*
X015179Y014584D01*
X015138Y014683D01*
X014888Y014933D01*
X014812Y015009D01*
X014713Y015050D01*
X014664Y015050D01*
X014664Y015122D01*
X014541Y015245D01*
X014449Y015245D01*
X014449Y015285D01*
X014529Y015365D01*
X014601Y015365D01*
X014717Y015365D01*
X014823Y015409D01*
X015155Y015741D01*
X015199Y015847D01*
X015199Y015963D01*
X015199Y016025D01*
X015251Y016025D01*
X015374Y016148D01*
X015374Y016912D01*
X015319Y016968D01*
X015374Y017023D01*
X015374Y017787D01*
X015251Y017910D01*
X014565Y017910D01*
X014534Y017879D01*
X014503Y017910D01*
X014479Y017910D01*
X014479Y018075D01*
X014711Y018075D01*
X014771Y018135D01*
X015527Y018135D01*
X015469Y017995D01*
X015469Y017816D01*
X015538Y017650D01*
X015664Y017524D01*
X015830Y017455D01*
X016489Y017455D01*
X016654Y017524D01*
X016781Y017650D01*
X016849Y017816D01*
X016849Y017995D01*
X016791Y018135D01*
X017797Y018135D01*
X018180Y017752D01*
X018256Y017676D01*
X018355Y017635D01*
X018553Y017635D01*
X018664Y017524D01*
X018830Y017455D01*
X019489Y017455D01*
X019654Y017524D01*
X019781Y017650D01*
X019849Y017816D01*
X019849Y017901D01*
X020399Y018451D01*
X020399Y018140D01*
X020755Y018140D01*
X020755Y018040D01*
X020855Y018040D01*
X020855Y018140D01*
X021210Y018140D01*
X021210Y018481D01*
X021201Y018514D01*
X021184Y018544D01*
X021160Y018568D01*
X021152Y018573D01*
X022672Y018573D01*
X023069Y018176D01*
X023168Y018135D01*
X023275Y018135D01*
X025598Y018135D01*
X025596Y018127D01*
X025596Y017786D01*
X025951Y017786D01*
X025951Y017686D01*
X025596Y017686D01*
X025596Y017345D01*
X025605Y017312D01*
X025622Y017282D01*
X025646Y017258D01*
X025676Y017241D01*
X025709Y017232D01*
X025952Y017232D01*
X025952Y017686D01*
X026051Y017686D01*
X026051Y017232D01*
X026294Y017232D01*
X026327Y017241D01*
X026357Y017258D01*
X026381Y017282D01*
X026398Y017312D01*
X026407Y017345D01*
X026407Y017686D01*
X026052Y017686D01*
X026052Y017786D01*
X026407Y017786D01*
X026407Y017900D02*
X026532Y017900D01*
X026434Y017999D02*
X026407Y017999D01*
X026407Y017605D02*
X026828Y017605D01*
X026889Y017506D02*
X026407Y017506D01*
X026407Y017407D02*
X026889Y017407D01*
X026889Y017309D02*
X026397Y017309D01*
X026889Y017210D02*
X024186Y017210D01*
X024263Y017112D02*
X024531Y017112D01*
X024762Y017112D02*
X024800Y017112D01*
X024800Y017013D02*
X024762Y017013D01*
X024762Y016915D02*
X024800Y016915D01*
X024800Y016816D02*
X024762Y016816D01*
X024762Y016732D02*
X024800Y016732D01*
X024800Y016326D01*
X024866Y016326D01*
X024866Y016212D01*
X024924Y016154D01*
X024924Y014830D01*
X024789Y014695D01*
X024657Y014695D01*
X024659Y014697D01*
X024715Y014832D01*
X024715Y014891D01*
X024763Y014940D01*
X024804Y015039D01*
X024804Y015146D01*
X024804Y015709D01*
X024763Y015808D01*
X024687Y015884D01*
X024617Y015954D01*
X024617Y016133D01*
X024696Y016212D01*
X024696Y016326D01*
X024762Y016326D01*
X024762Y016732D01*
X024762Y016718D02*
X024800Y016718D01*
X024800Y016619D02*
X024762Y016619D01*
X024762Y016521D02*
X024800Y016521D01*
X024800Y016422D02*
X024762Y016422D01*
X024696Y016324D02*
X024866Y016324D01*
X024866Y016225D02*
X024696Y016225D01*
X024617Y016126D02*
X024924Y016126D01*
X024924Y016028D02*
X024617Y016028D01*
X024642Y015929D02*
X024924Y015929D01*
X024924Y015831D02*
X024740Y015831D01*
X024794Y015732D02*
X024924Y015732D01*
X024924Y015634D02*
X024804Y015634D01*
X024804Y015535D02*
X024924Y015535D01*
X024924Y015437D02*
X024804Y015437D01*
X024804Y015338D02*
X024924Y015338D01*
X024924Y015240D02*
X024804Y015240D01*
X024804Y015141D02*
X024924Y015141D01*
X024924Y015042D02*
X024804Y015042D01*
X024765Y014944D02*
X024924Y014944D01*
X024924Y014845D02*
X024715Y014845D01*
X024679Y014747D02*
X024841Y014747D01*
X025267Y014353D02*
X026889Y014353D01*
X026889Y014451D02*
X025365Y014451D01*
X025462Y014550D02*
X026889Y014550D01*
X026889Y014648D02*
X025502Y014648D01*
X025504Y014747D02*
X026889Y014747D01*
X026889Y014845D02*
X025504Y014845D01*
X025504Y014944D02*
X026889Y014944D01*
X026889Y015042D02*
X025504Y015042D01*
X025504Y015141D02*
X026889Y015141D01*
X026889Y015240D02*
X025504Y015240D01*
X025504Y015338D02*
X026889Y015338D01*
X026889Y015437D02*
X025504Y015437D01*
X025504Y015535D02*
X026889Y015535D01*
X026889Y015634D02*
X025504Y015634D01*
X025504Y015732D02*
X026889Y015732D01*
X026889Y015831D02*
X025504Y015831D01*
X025504Y015929D02*
X026889Y015929D01*
X026889Y016028D02*
X025504Y016028D01*
X025910Y016126D02*
X026889Y016126D01*
X026889Y016225D02*
X025995Y016225D01*
X025995Y016324D02*
X026889Y016324D01*
X026889Y016422D02*
X025995Y016422D01*
X025995Y016521D02*
X026889Y016521D01*
X026889Y016619D02*
X025995Y016619D01*
X025995Y016718D02*
X026889Y016718D01*
X026889Y016816D02*
X025995Y016816D01*
X025995Y016915D02*
X026889Y016915D01*
X026889Y017013D02*
X025958Y017013D01*
X025952Y017309D02*
X026051Y017309D01*
X026051Y017407D02*
X025952Y017407D01*
X025952Y017506D02*
X026051Y017506D01*
X026051Y017605D02*
X025952Y017605D01*
X025951Y017703D02*
X021210Y017703D01*
X021210Y017699D02*
X021210Y018040D01*
X020855Y018040D01*
X020855Y017586D01*
X021097Y017586D01*
X021130Y017595D01*
X021160Y017612D01*
X021184Y017636D01*
X021201Y017666D01*
X021210Y017699D01*
X021210Y017802D02*
X025596Y017802D01*
X025596Y017900D02*
X021210Y017900D01*
X021210Y017999D02*
X025596Y017999D01*
X025596Y018097D02*
X020855Y018097D01*
X020855Y017999D02*
X020755Y017999D01*
X020755Y018040D02*
X020755Y017586D01*
X020512Y017586D01*
X020479Y017595D01*
X020449Y017612D01*
X020425Y017636D01*
X020408Y017666D01*
X020399Y017699D01*
X020399Y018040D01*
X020755Y018040D01*
X020755Y018097D02*
X020045Y018097D01*
X019947Y017999D02*
X020399Y017999D01*
X020399Y017900D02*
X019849Y017900D01*
X019843Y017802D02*
X020399Y017802D01*
X020399Y017703D02*
X019802Y017703D01*
X019735Y017605D02*
X020462Y017605D01*
X020755Y017605D02*
X020855Y017605D01*
X020855Y017703D02*
X020755Y017703D01*
X020755Y017802D02*
X020855Y017802D01*
X020855Y017900D02*
X020755Y017900D01*
X020399Y018196D02*
X020144Y018196D01*
X020243Y018294D02*
X020399Y018294D01*
X020399Y018393D02*
X020341Y018393D01*
X021210Y018393D02*
X022852Y018393D01*
X022950Y018294D02*
X021210Y018294D01*
X021210Y018196D02*
X023049Y018196D01*
X022753Y018491D02*
X021208Y018491D01*
X021147Y017605D02*
X025596Y017605D01*
X025596Y017506D02*
X019611Y017506D01*
X019489Y017355D02*
X019654Y017287D01*
X019781Y017160D01*
X019849Y016995D01*
X019849Y016816D01*
X022268Y016816D01*
X022268Y016718D02*
X019808Y016718D01*
X019781Y016650D02*
X019849Y016816D01*
X019849Y016915D02*
X022268Y016915D01*
X022305Y017013D02*
X019841Y017013D01*
X019800Y017112D02*
X023567Y017112D01*
X023644Y017210D02*
X019730Y017210D01*
X019600Y017309D02*
X025606Y017309D01*
X025596Y017407D02*
X015374Y017407D01*
X015374Y017309D02*
X015718Y017309D01*
X015664Y017287D02*
X015538Y017160D01*
X015469Y016995D01*
X015469Y016816D01*
X015374Y016816D01*
X015469Y016816D02*
X015538Y016650D01*
X015664Y016524D01*
X015830Y016455D01*
X016489Y016455D01*
X016654Y016524D01*
X016781Y016650D01*
X016849Y016816D01*
X018469Y016816D01*
X018538Y016650D01*
X018664Y016524D01*
X018830Y016455D01*
X019489Y016455D01*
X019654Y016524D01*
X019781Y016650D01*
X019749Y016619D02*
X022268Y016619D01*
X022268Y016521D02*
X019647Y016521D01*
X019565Y016324D02*
X022268Y016324D01*
X022268Y016422D02*
X015374Y016422D01*
X015374Y016324D02*
X015753Y016324D01*
X015830Y016355D02*
X015664Y016287D01*
X015538Y016160D01*
X015469Y015995D01*
X015469Y015816D01*
X015538Y015650D01*
X015664Y015524D01*
X015830Y015455D01*
X016489Y015455D01*
X016654Y015524D01*
X016781Y015650D01*
X016849Y015816D01*
X016849Y015995D01*
X016781Y016160D01*
X016654Y016287D01*
X016489Y016355D01*
X015830Y016355D01*
X015671Y016521D02*
X015374Y016521D01*
X015374Y016619D02*
X015569Y016619D01*
X015510Y016718D02*
X015374Y016718D01*
X015372Y016915D02*
X015469Y016915D01*
X015477Y017013D02*
X015364Y017013D01*
X015374Y017112D02*
X015518Y017112D01*
X015588Y017210D02*
X015374Y017210D01*
X015374Y017506D02*
X015707Y017506D01*
X015583Y017605D02*
X015374Y017605D01*
X015374Y017703D02*
X015516Y017703D01*
X015475Y017802D02*
X015360Y017802D01*
X015261Y017900D02*
X015469Y017900D01*
X015471Y017999D02*
X014479Y017999D01*
X014513Y017900D02*
X014555Y017900D01*
X014733Y018097D02*
X015512Y018097D01*
X016611Y017506D02*
X018707Y017506D01*
X018583Y017605D02*
X016735Y017605D01*
X016802Y017703D02*
X018229Y017703D01*
X018131Y017802D02*
X016843Y017802D01*
X016849Y017900D02*
X018032Y017900D01*
X017934Y017999D02*
X016847Y017999D01*
X016806Y018097D02*
X017835Y018097D01*
X018664Y017287D02*
X018538Y017160D01*
X018469Y016995D01*
X018469Y016816D01*
X018469Y016915D02*
X016849Y016915D01*
X016849Y016995D02*
X016849Y016816D01*
X016808Y016718D02*
X018510Y016718D01*
X018569Y016619D02*
X016749Y016619D01*
X016647Y016521D02*
X018671Y016521D01*
X018753Y016324D02*
X016565Y016324D01*
X016716Y016225D02*
X018603Y016225D01*
X018664Y016287D02*
X018538Y016160D01*
X018469Y015995D01*
X018469Y015816D01*
X018538Y015650D01*
X018664Y015524D01*
X018830Y015455D01*
X019489Y015455D01*
X019654Y015524D01*
X019781Y015650D01*
X019849Y015816D01*
X019849Y015995D01*
X019781Y016160D01*
X019654Y016287D01*
X019489Y016355D01*
X018830Y016355D01*
X018664Y016287D01*
X018524Y016126D02*
X016794Y016126D01*
X016835Y016028D02*
X018483Y016028D01*
X018469Y015929D02*
X016849Y015929D01*
X016849Y015831D02*
X018469Y015831D01*
X018504Y015732D02*
X016814Y015732D01*
X016764Y015634D02*
X018554Y015634D01*
X018653Y015535D02*
X016665Y015535D01*
X016530Y015338D02*
X018788Y015338D01*
X018830Y015355D02*
X018664Y015287D01*
X018538Y015160D01*
X018469Y014995D01*
X018469Y014816D01*
X018538Y014650D01*
X018664Y014524D01*
X018830Y014455D01*
X019489Y014455D01*
X019654Y014524D01*
X019781Y014650D01*
X019849Y014816D01*
X019849Y014995D01*
X019781Y015160D01*
X019654Y015287D01*
X019489Y015355D01*
X018830Y015355D01*
X018617Y015240D02*
X016701Y015240D01*
X016654Y015287D02*
X016781Y015160D01*
X016849Y014995D01*
X016849Y014816D01*
X016781Y014650D01*
X016654Y014524D01*
X016489Y014455D01*
X015830Y014455D01*
X015664Y014524D01*
X015538Y014650D01*
X015469Y014816D01*
X015469Y014995D01*
X015538Y015160D01*
X015664Y015287D01*
X015830Y015355D01*
X016489Y015355D01*
X016654Y015287D01*
X016788Y015141D02*
X018530Y015141D01*
X018489Y015042D02*
X016829Y015042D01*
X016849Y014944D02*
X018469Y014944D01*
X018469Y014845D02*
X016849Y014845D01*
X016821Y014747D02*
X018498Y014747D01*
X018539Y014648D02*
X016779Y014648D01*
X016680Y014550D02*
X018638Y014550D01*
X018824Y014353D02*
X016494Y014353D01*
X016489Y014355D02*
X016654Y014287D01*
X016781Y014160D01*
X016849Y013995D01*
X016849Y013816D01*
X016781Y013650D01*
X016654Y013524D01*
X016489Y013455D01*
X015830Y013455D01*
X015664Y013524D01*
X015538Y013650D01*
X015469Y013816D01*
X015469Y013995D01*
X015538Y014160D01*
X015664Y014287D01*
X015830Y014355D01*
X016489Y014355D01*
X016686Y014254D02*
X018632Y014254D01*
X018536Y014156D02*
X016782Y014156D01*
X016823Y014057D02*
X018495Y014057D01*
X018469Y013958D02*
X016849Y013958D01*
X016849Y013860D02*
X018469Y013860D01*
X018491Y013761D02*
X016827Y013761D01*
X016786Y013663D02*
X018076Y013663D01*
X017936Y013564D02*
X016695Y013564D01*
X016514Y013466D02*
X017838Y013466D01*
X017739Y013367D02*
X015179Y013367D01*
X015179Y013269D02*
X015646Y013269D01*
X015804Y013466D02*
X015179Y013466D01*
X015179Y013564D02*
X015623Y013564D01*
X015532Y013663D02*
X015179Y013663D01*
X015179Y013761D02*
X015491Y013761D01*
X015469Y013860D02*
X015179Y013860D01*
X015179Y013958D02*
X015469Y013958D01*
X015495Y014057D02*
X015179Y014057D01*
X015179Y014156D02*
X015536Y014156D01*
X015632Y014254D02*
X015179Y014254D01*
X015179Y014353D02*
X015824Y014353D01*
X015638Y014550D02*
X015179Y014550D01*
X015179Y014451D02*
X021823Y014451D01*
X021725Y014353D02*
X019494Y014353D01*
X019686Y014254D02*
X021626Y014254D01*
X021528Y014156D02*
X019782Y014156D01*
X019823Y014057D02*
X021429Y014057D01*
X021331Y013958D02*
X019849Y013958D01*
X019849Y013860D02*
X021232Y013860D01*
X021134Y013761D02*
X019827Y013761D01*
X019731Y013072D02*
X026889Y013072D01*
X026889Y013170D02*
X021297Y013170D01*
X021404Y013269D02*
X026889Y013269D01*
X026889Y013367D02*
X021503Y013367D01*
X021601Y013466D02*
X026889Y013466D01*
X026889Y013564D02*
X021700Y013564D01*
X021799Y013663D02*
X026889Y013663D01*
X026889Y013761D02*
X021897Y013761D01*
X021996Y013860D02*
X026889Y013860D01*
X026889Y013958D02*
X022094Y013958D01*
X022193Y014057D02*
X023037Y014057D01*
X022888Y014156D02*
X022291Y014156D01*
X022390Y014254D02*
X022823Y014254D01*
X022791Y014353D02*
X022488Y014353D01*
X022587Y014451D02*
X022791Y014451D01*
X022821Y014550D02*
X022685Y014550D01*
X022784Y014648D02*
X022882Y014648D01*
X022883Y014747D02*
X023022Y014747D01*
X022981Y014845D02*
X023353Y014845D01*
X023389Y014747D02*
X023296Y014747D01*
X023301Y014944D02*
X023080Y014944D01*
X023178Y015042D02*
X023232Y015042D01*
X022710Y015338D02*
X019530Y015338D01*
X019701Y015240D02*
X022612Y015240D01*
X022513Y015141D02*
X019788Y015141D01*
X019829Y015042D02*
X022415Y015042D01*
X022316Y014944D02*
X019849Y014944D01*
X019849Y014845D02*
X022217Y014845D01*
X022119Y014747D02*
X019821Y014747D01*
X019779Y014648D02*
X022020Y014648D01*
X021922Y014550D02*
X019680Y014550D01*
X019665Y015535D02*
X022779Y015535D01*
X022779Y015437D02*
X014851Y015437D01*
X014949Y015535D02*
X015653Y015535D01*
X015554Y015634D02*
X015048Y015634D01*
X015146Y015732D02*
X015504Y015732D01*
X015469Y015831D02*
X015192Y015831D01*
X015199Y015929D02*
X015469Y015929D01*
X015483Y016028D02*
X015254Y016028D01*
X015353Y016126D02*
X015524Y016126D01*
X015603Y016225D02*
X015374Y016225D01*
X014909Y016529D02*
X014908Y016530D01*
X015664Y017287D02*
X015830Y017355D01*
X016489Y017355D01*
X016654Y017287D01*
X016781Y017160D01*
X016849Y016995D01*
X016841Y017013D02*
X018477Y017013D01*
X018518Y017112D02*
X016800Y017112D01*
X016730Y017210D02*
X018588Y017210D01*
X018664Y017287D02*
X018830Y017355D01*
X019489Y017355D01*
X018718Y017309D02*
X016600Y017309D01*
X014189Y017434D02*
X014160Y017405D01*
X012909Y017030D02*
X012909Y015655D01*
X012347Y016218D01*
X012347Y016968D01*
X011784Y017530D01*
X010784Y017530D01*
X010659Y017405D01*
X009409Y017405D01*
X009159Y017655D01*
X009159Y018511D01*
X009684Y018491D02*
X009824Y018491D01*
X009824Y018393D02*
X009684Y018393D01*
X009684Y018294D02*
X009824Y018294D01*
X009824Y018196D02*
X009684Y018196D01*
X009684Y018169D02*
X009684Y018854D01*
X009577Y018962D01*
X009578Y018963D01*
X009595Y018993D01*
X009604Y019026D01*
X009604Y019249D01*
X009209Y019249D01*
X009209Y019349D01*
X009604Y019349D01*
X009604Y019572D01*
X009595Y019605D01*
X009578Y019635D01*
X009567Y019645D01*
X010808Y019645D01*
X010791Y019603D01*
X010791Y019457D01*
X010839Y019340D01*
X009947Y019340D01*
X009824Y019217D01*
X009824Y017793D01*
X009947Y017670D01*
X010556Y017670D01*
X010551Y017665D01*
X009517Y017665D01*
X009419Y017763D01*
X009419Y018046D01*
X009561Y018046D01*
X009684Y018169D01*
X009613Y018097D02*
X009824Y018097D01*
X009824Y017999D02*
X009419Y017999D01*
X009419Y017900D02*
X009824Y017900D01*
X009824Y017802D02*
X009419Y017802D01*
X009479Y017703D02*
X009914Y017703D01*
X008940Y017506D02*
X008801Y017506D01*
X008899Y017605D02*
X008702Y017605D01*
X008899Y017703D02*
X007989Y017703D01*
X007890Y017802D02*
X008899Y017802D01*
X008899Y017900D02*
X003876Y017900D01*
X003824Y017802D02*
X006515Y017802D01*
X006416Y017703D02*
X003824Y017703D01*
X003824Y017605D02*
X006402Y017605D01*
X006402Y017506D02*
X003824Y017506D01*
X003824Y017407D02*
X005073Y017407D01*
X005129Y017431D02*
X004936Y017351D01*
X004788Y017203D01*
X004708Y017010D01*
X004708Y016801D01*
X004788Y016607D01*
X004936Y016460D01*
X005129Y016380D01*
X005338Y016380D01*
X005532Y016460D01*
X005679Y016607D01*
X005759Y016801D01*
X005759Y017010D01*
X005679Y017203D01*
X005532Y017351D01*
X005338Y017431D01*
X005129Y017431D01*
X004894Y017309D02*
X003824Y017309D01*
X003824Y017210D02*
X004796Y017210D01*
X004751Y017112D02*
X003824Y017112D01*
X003824Y017013D02*
X004710Y017013D01*
X004708Y016915D02*
X003824Y016915D01*
X003824Y016816D02*
X004708Y016816D01*
X004743Y016718D02*
X003824Y016718D01*
X003824Y016619D02*
X004783Y016619D01*
X004875Y016521D02*
X003824Y016521D01*
X003824Y016422D02*
X005027Y016422D01*
X005441Y016422D02*
X006402Y016422D01*
X006402Y016324D02*
X003824Y016324D01*
X003824Y016225D02*
X006402Y016225D01*
X006402Y016126D02*
X003824Y016126D01*
X003824Y016028D02*
X006495Y016028D01*
X006525Y015812D02*
X006402Y015689D01*
X006402Y015121D01*
X006525Y014998D01*
X007880Y014998D01*
X007997Y015115D01*
X008428Y015115D01*
X008451Y015093D01*
X008586Y015037D01*
X008732Y015037D01*
X008868Y015093D01*
X008971Y015197D01*
X009027Y015332D01*
X009027Y015478D01*
X008971Y015614D01*
X008868Y015717D01*
X008732Y015773D01*
X008586Y015773D01*
X008451Y015717D01*
X008428Y015695D01*
X007997Y015695D01*
X007880Y015812D01*
X006525Y015812D01*
X006445Y015732D02*
X005492Y015732D01*
X005591Y015634D02*
X006402Y015634D01*
X006402Y015535D02*
X005689Y015535D01*
X005788Y015437D02*
X006402Y015437D01*
X006402Y015338D02*
X005886Y015338D01*
X005985Y015240D02*
X006402Y015240D01*
X006402Y015141D02*
X006083Y015141D01*
X006182Y015042D02*
X006481Y015042D01*
X006379Y014845D02*
X009749Y014845D01*
X009749Y014747D02*
X007945Y014747D01*
X008003Y014648D02*
X009749Y014648D01*
X009749Y014608D02*
X009758Y014575D01*
X009775Y014545D01*
X009799Y014521D01*
X009829Y014504D01*
X009862Y014495D01*
X010609Y014495D01*
X010609Y015355D01*
X010709Y015355D01*
X010709Y014495D01*
X011456Y014495D01*
X011489Y014504D01*
X011519Y014521D01*
X011543Y014545D01*
X011560Y014575D01*
X011569Y014608D01*
X011569Y015355D01*
X010709Y015355D01*
X010709Y015455D01*
X011569Y015455D01*
X011569Y016202D01*
X011560Y016235D01*
X011543Y016265D01*
X011519Y016289D01*
X011489Y016306D01*
X011456Y016315D01*
X010709Y016315D01*
X010709Y015455D01*
X010609Y015455D01*
X010609Y015355D01*
X009749Y015355D01*
X009749Y014608D01*
X009772Y014550D02*
X008003Y014550D01*
X008003Y014451D02*
X011587Y014451D01*
X011546Y014550D02*
X011649Y014550D01*
X011649Y014648D02*
X011569Y014648D01*
X011569Y014747D02*
X011649Y014747D01*
X011649Y014845D02*
X011569Y014845D01*
X011569Y014944D02*
X011649Y014944D01*
X011649Y015042D02*
X011569Y015042D01*
X011569Y015141D02*
X011649Y015141D01*
X011649Y015240D02*
X011569Y015240D01*
X011569Y015338D02*
X011649Y015338D01*
X011649Y015437D02*
X010709Y015437D01*
X010709Y015535D02*
X010609Y015535D01*
X010609Y015455D02*
X010609Y016315D01*
X009862Y016315D01*
X009829Y016306D01*
X009799Y016289D01*
X009775Y016265D01*
X009758Y016235D01*
X009749Y016202D01*
X009749Y015455D01*
X010609Y015455D01*
X010609Y015437D02*
X009027Y015437D01*
X009027Y015338D02*
X009749Y015338D01*
X009749Y015240D02*
X008989Y015240D01*
X008916Y015141D02*
X009749Y015141D01*
X009749Y015042D02*
X008745Y015042D01*
X008573Y015042D02*
X007924Y015042D01*
X007960Y015732D02*
X008487Y015732D01*
X007909Y016028D02*
X009749Y016028D01*
X009749Y016126D02*
X008003Y016126D01*
X007974Y016718D02*
X008604Y016718D01*
X008703Y016816D02*
X005759Y016816D01*
X005759Y016915D02*
X008685Y016915D01*
X008558Y017013D02*
X007895Y017013D01*
X007993Y017112D02*
X008460Y017112D01*
X008534Y017405D02*
X008784Y017155D01*
X010784Y017155D01*
X010909Y017280D01*
X011659Y017280D01*
X011909Y017030D01*
X011909Y014405D01*
X011409Y013905D01*
X010409Y013905D01*
X009754Y013250D01*
X009754Y011118D01*
X010278Y011298D02*
X010285Y011298D01*
X010278Y011396D02*
X012069Y011396D01*
X012093Y011298D02*
X011283Y011298D01*
X011396Y011495D02*
X012009Y011495D01*
X012009Y011593D02*
X011494Y011593D01*
X011494Y011692D02*
X012009Y011692D01*
X012009Y011791D02*
X011494Y011791D01*
X011494Y011889D02*
X012009Y011889D01*
X012009Y011988D02*
X011494Y011988D01*
X011494Y012086D02*
X012009Y012086D01*
X012052Y012185D02*
X011494Y012185D01*
X011494Y012283D02*
X013569Y012283D01*
X013569Y012185D02*
X013016Y012185D01*
X013569Y012382D02*
X011494Y012382D01*
X011494Y012480D02*
X013569Y012480D01*
X013569Y012579D02*
X011494Y012579D01*
X011494Y012677D02*
X013569Y012677D01*
X013569Y012776D02*
X011494Y012776D01*
X011494Y012874D02*
X013569Y012874D01*
X013569Y012973D02*
X011494Y012973D01*
X011440Y013072D02*
X013569Y013072D01*
X013569Y013170D02*
X010042Y013170D01*
X010140Y013269D02*
X013569Y013269D01*
X013569Y013367D02*
X010239Y013367D01*
X010337Y013466D02*
X013593Y013466D01*
X013691Y013564D02*
X010436Y013564D01*
X010095Y013958D02*
X010027Y013958D01*
X009995Y014057D02*
X010193Y014057D01*
X010334Y014156D02*
X009929Y014156D01*
X009778Y014254D02*
X011390Y014254D01*
X011489Y014353D02*
X008003Y014353D01*
X008003Y014254D02*
X009540Y014254D01*
X009520Y013564D02*
X007923Y013564D01*
X007923Y013466D02*
X009602Y013466D01*
X009521Y013367D02*
X007251Y013367D01*
X007154Y013367D02*
X006449Y013367D01*
X006449Y013269D02*
X006482Y013269D01*
X006487Y013170D02*
X006449Y013170D01*
X006449Y013072D02*
X009494Y013072D01*
X009494Y013170D02*
X007917Y013170D01*
X007923Y013269D02*
X009494Y013269D01*
X009494Y012973D02*
X006449Y012973D01*
X006449Y012874D02*
X009494Y012874D01*
X009494Y012776D02*
X006449Y012776D01*
X006449Y012677D02*
X006505Y012677D01*
X006508Y012682D02*
X006491Y012652D01*
X006482Y012619D01*
X006482Y012454D01*
X007154Y012454D01*
X007154Y012732D01*
X006595Y012732D01*
X006562Y012723D01*
X006532Y012706D01*
X006508Y012682D01*
X006482Y012579D02*
X006449Y012579D01*
X006449Y012480D02*
X006482Y012480D01*
X006449Y012382D02*
X007154Y012382D01*
X007154Y012357D02*
X006482Y012357D01*
X006482Y012191D01*
X006491Y012158D01*
X006508Y012128D01*
X006532Y012104D01*
X006562Y012087D01*
X006595Y012078D01*
X007154Y012078D01*
X007154Y012356D01*
X007251Y012356D01*
X007251Y012078D01*
X007810Y012078D01*
X007843Y012087D01*
X007873Y012104D01*
X007897Y012128D01*
X007914Y012158D01*
X007923Y012191D01*
X007923Y012357D01*
X007251Y012357D01*
X007251Y012454D01*
X007154Y012454D01*
X007154Y012357D01*
X007154Y012283D02*
X007251Y012283D01*
X007251Y012185D02*
X007154Y012185D01*
X007154Y012086D02*
X007251Y012086D01*
X007251Y012382D02*
X008291Y012382D01*
X008292Y012480D02*
X007923Y012480D01*
X007923Y012454D02*
X007923Y012619D01*
X007914Y012652D01*
X007897Y012682D01*
X007873Y012706D01*
X007843Y012723D01*
X007810Y012732D01*
X007251Y012732D01*
X007251Y012454D01*
X007923Y012454D01*
X007923Y012579D02*
X008333Y012579D01*
X008411Y012677D02*
X007899Y012677D01*
X007923Y012283D02*
X008311Y012283D01*
X008359Y012185D02*
X007921Y012185D01*
X007839Y012086D02*
X008389Y012086D01*
X008389Y011988D02*
X006402Y011988D01*
X006444Y012086D02*
X006565Y012086D01*
X006484Y012185D02*
X006449Y012185D01*
X006449Y012283D02*
X006482Y012283D01*
X006303Y011889D02*
X008389Y011889D01*
X008389Y011791D02*
X006205Y011791D01*
X006106Y011692D02*
X008389Y011692D01*
X008389Y011593D02*
X006007Y011593D01*
X005909Y011495D02*
X008389Y011495D01*
X008389Y011396D02*
X005810Y011396D01*
X005712Y011298D02*
X008389Y011298D01*
X008389Y011199D02*
X005613Y011199D01*
X005187Y011593D02*
X001409Y011593D01*
X001409Y011495D02*
X005089Y011495D01*
X004990Y011396D02*
X001409Y011396D01*
X001409Y011298D02*
X003086Y011298D01*
X002988Y011199D02*
X001409Y011199D01*
X001409Y011101D02*
X002695Y011101D01*
X002596Y011002D02*
X001409Y011002D01*
X001409Y010904D02*
X002497Y010904D01*
X002407Y010805D02*
X001409Y010805D01*
X001409Y010707D02*
X002369Y010707D01*
X002369Y010608D02*
X001409Y010608D01*
X001409Y010509D02*
X002369Y010509D01*
X002369Y010411D02*
X001409Y010411D01*
X001409Y010312D02*
X002369Y010312D01*
X002369Y010214D02*
X001409Y010214D01*
X001409Y010115D02*
X002369Y010115D01*
X002369Y010017D02*
X001409Y010017D01*
X001409Y009918D02*
X002369Y009918D01*
X002369Y009820D02*
X001409Y009820D01*
X001409Y009721D02*
X002369Y009721D01*
X002369Y009623D02*
X001409Y009623D01*
X001409Y009524D02*
X002369Y009524D01*
X002369Y009425D02*
X001409Y009425D01*
X001409Y009327D02*
X002369Y009327D01*
X002369Y009228D02*
X001409Y009228D01*
X001409Y009130D02*
X002369Y009130D01*
X002369Y009031D02*
X001409Y009031D01*
X001409Y008933D02*
X002369Y008933D01*
X002369Y008834D02*
X001409Y008834D01*
X001409Y008736D02*
X002369Y008736D01*
X002369Y008637D02*
X001409Y008637D01*
X001409Y008539D02*
X002369Y008539D01*
X002369Y008440D02*
X001409Y008440D01*
X001409Y008341D02*
X002369Y008341D01*
X002369Y008243D02*
X001409Y008243D01*
X001409Y008144D02*
X002369Y008144D01*
X002369Y008046D02*
X001409Y008046D01*
X001409Y007947D02*
X002369Y007947D01*
X002369Y007849D02*
X001409Y007849D01*
X001409Y007750D02*
X002369Y007750D01*
X002369Y007652D02*
X001409Y007652D01*
X001409Y007553D02*
X002369Y007553D01*
X002369Y007455D02*
X001409Y007455D01*
X001409Y007356D02*
X002369Y007356D01*
X002369Y007258D02*
X001409Y007258D01*
X001409Y007159D02*
X002369Y007159D01*
X002384Y007060D02*
X001409Y007060D01*
X001409Y006962D02*
X002442Y006962D01*
X002541Y006863D02*
X001409Y006863D01*
X001409Y006765D02*
X002639Y006765D01*
X002738Y006666D02*
X001409Y006666D01*
X001409Y006568D02*
X003031Y006568D01*
X003162Y006469D02*
X001409Y006469D01*
X001409Y006371D02*
X003369Y006371D01*
X003369Y006272D02*
X001409Y006272D01*
X001409Y006174D02*
X003369Y006174D01*
X003369Y006075D02*
X001409Y006075D01*
X001409Y005976D02*
X003320Y005976D01*
X003222Y005878D02*
X001409Y005878D01*
X001409Y005779D02*
X003123Y005779D01*
X003025Y005681D02*
X001409Y005681D01*
X001409Y005582D02*
X002926Y005582D01*
X002878Y005484D02*
X001409Y005484D01*
X001409Y005385D02*
X002869Y005385D01*
X002869Y005287D02*
X001409Y005287D01*
X001409Y005188D02*
X002869Y005188D01*
X002869Y005090D02*
X001409Y005090D01*
X001409Y004991D02*
X002780Y004991D01*
X002719Y004892D02*
X001409Y004892D01*
X001409Y004794D02*
X002679Y004794D01*
X002672Y004695D02*
X001409Y004695D01*
X001409Y004597D02*
X002672Y004597D01*
X002672Y004498D02*
X001409Y004498D01*
X001409Y004400D02*
X002672Y004400D01*
X002672Y004301D02*
X001409Y004301D01*
X001409Y004203D02*
X002672Y004203D01*
X002672Y004104D02*
X001409Y004104D01*
X001409Y004006D02*
X002683Y004006D01*
X002724Y003907D02*
X001409Y003907D01*
X001409Y003809D02*
X002790Y003809D01*
X002897Y003710D02*
X001409Y003710D01*
X001409Y003611D02*
X008488Y003611D01*
X008488Y003513D02*
X001409Y003513D01*
X001409Y003414D02*
X008546Y003414D01*
X008778Y003316D02*
X011060Y003316D01*
X010962Y003217D02*
X008876Y003217D01*
X008921Y003119D02*
X010917Y003119D01*
X010889Y003020D02*
X008948Y003020D01*
X008948Y002922D02*
X010889Y002922D01*
X010914Y002823D02*
X008924Y002823D01*
X008882Y002725D02*
X010956Y002725D01*
X011055Y002626D02*
X008783Y002626D01*
X008259Y002626D02*
X002821Y002626D01*
X002872Y002527D02*
X026446Y002527D01*
X026405Y002429D02*
X002913Y002429D01*
X002954Y002330D02*
X026364Y002330D01*
X026358Y002232D02*
X002960Y002232D01*
X002960Y002133D02*
X026358Y002133D01*
X026358Y002035D02*
X002960Y002035D01*
X002936Y001936D02*
X026383Y001936D01*
X026423Y001838D02*
X002895Y001838D01*
X002854Y001739D02*
X026464Y001739D01*
X026541Y001641D02*
X002777Y001641D01*
X002679Y001542D02*
X026639Y001542D01*
X027679Y001542D02*
X029468Y001542D01*
X029468Y001641D02*
X027777Y001641D01*
X027854Y001739D02*
X029468Y001739D01*
X029468Y001838D02*
X027895Y001838D01*
X027936Y001936D02*
X029468Y001936D01*
X029468Y002035D02*
X027960Y002035D01*
X027960Y002133D02*
X029468Y002133D01*
X029468Y002232D02*
X027960Y002232D01*
X027954Y002330D02*
X029468Y002330D01*
X029468Y002429D02*
X027913Y002429D01*
X027872Y002527D02*
X029468Y002527D01*
X029468Y002626D02*
X027821Y002626D01*
X027723Y002725D02*
X029468Y002725D01*
X029468Y002823D02*
X027624Y002823D01*
X027402Y002922D02*
X029468Y002922D01*
X029468Y003020D02*
X014855Y003020D01*
X014852Y003018D02*
X014918Y003062D01*
X014975Y003119D01*
X015020Y003186D01*
X015050Y003260D01*
X015066Y003338D01*
X015066Y003607D01*
X014708Y003607D01*
X014708Y003704D01*
X015066Y003704D01*
X015066Y003972D01*
X015050Y004051D01*
X015020Y004125D01*
X014975Y004191D01*
X014918Y004248D01*
X014852Y004292D01*
X014778Y004323D01*
X014707Y004337D01*
X014707Y003704D01*
X014611Y003704D01*
X014611Y004337D01*
X014540Y004323D01*
X014466Y004292D01*
X014400Y004248D01*
X014343Y004191D01*
X014299Y004125D01*
X014268Y004051D01*
X014252Y003972D01*
X014252Y003704D01*
X014610Y003704D01*
X014610Y003607D01*
X014252Y003607D01*
X014252Y003338D01*
X014268Y003260D01*
X014299Y003186D01*
X014343Y003119D01*
X014400Y003062D01*
X014466Y003018D01*
X014540Y002987D01*
X014611Y002973D01*
X014611Y003606D01*
X014707Y003606D01*
X014707Y002973D01*
X014778Y002987D01*
X014852Y003018D01*
X014707Y003020D02*
X014611Y003020D01*
X014611Y003119D02*
X014707Y003119D01*
X014707Y003217D02*
X014611Y003217D01*
X014611Y003316D02*
X014707Y003316D01*
X014707Y003414D02*
X014611Y003414D01*
X014611Y003513D02*
X014707Y003513D01*
X014708Y003611D02*
X016429Y003611D01*
X016506Y003535D02*
X016629Y003535D01*
X016629Y003875D01*
X016689Y003875D01*
X016689Y003535D01*
X016812Y003535D01*
X017029Y003752D01*
X017029Y003875D01*
X016689Y003875D01*
X016689Y003935D01*
X017029Y003935D01*
X017029Y004058D01*
X016812Y004275D01*
X016689Y004275D01*
X016689Y003935D01*
X016629Y003935D01*
X016629Y003875D01*
X016289Y003875D01*
X016289Y003752D01*
X016506Y003535D01*
X016629Y003611D02*
X016689Y003611D01*
X016689Y003710D02*
X016629Y003710D01*
X016629Y003809D02*
X016689Y003809D01*
X016689Y003907D02*
X017209Y003907D01*
X017209Y003809D02*
X017029Y003809D01*
X016987Y003710D02*
X017218Y003710D01*
X017316Y003611D02*
X016889Y003611D01*
X016629Y003907D02*
X015066Y003907D01*
X015066Y003809D02*
X016289Y003809D01*
X016331Y003710D02*
X015066Y003710D01*
X015066Y003513D02*
X017415Y003513D01*
X017903Y003513D02*
X018415Y003513D01*
X018316Y003611D02*
X018002Y003611D01*
X018100Y003710D02*
X018218Y003710D01*
X018209Y003809D02*
X018109Y003809D01*
X018109Y003907D02*
X018209Y003907D01*
X018209Y004006D02*
X018109Y004006D01*
X018096Y004104D02*
X018222Y004104D01*
X018320Y004203D02*
X017998Y004203D01*
X017965Y004301D02*
X018419Y004301D01*
X018064Y004400D02*
X019319Y004400D01*
X019396Y004301D02*
X018899Y004301D01*
X018998Y004203D02*
X020172Y004203D01*
X020499Y003710D02*
X020567Y003710D01*
X020895Y004203D02*
X022297Y004203D01*
X022289Y004301D02*
X020922Y004301D01*
X020999Y004400D02*
X021516Y004400D01*
X021486Y004498D02*
X020999Y004498D01*
X020999Y004597D02*
X021486Y004597D01*
X021486Y004695D02*
X020999Y004695D01*
X020999Y004794D02*
X021821Y004794D01*
X021822Y004892D02*
X021922Y004892D01*
X021922Y004991D02*
X021822Y004991D01*
X021822Y005090D02*
X021922Y005090D01*
X021922Y005188D02*
X021822Y005188D01*
X021861Y005484D02*
X021642Y005484D01*
X021752Y005498D02*
X021752Y005910D01*
X021751Y005910D01*
X021751Y006276D01*
X021702Y006276D01*
X021622Y006356D01*
X021528Y006356D01*
X021528Y006409D01*
X021552Y006409D01*
X021585Y006418D01*
X021594Y006423D01*
X021603Y006418D01*
X021636Y006409D01*
X021751Y006409D01*
X021751Y006775D01*
X021752Y006775D01*
X021752Y006409D01*
X021801Y006409D01*
X021868Y006343D01*
X021801Y006276D01*
X021752Y006276D01*
X021752Y005910D01*
X021751Y005878D02*
X021752Y005878D01*
X021751Y005976D02*
X021752Y005976D01*
X021751Y006075D02*
X021752Y006075D01*
X021751Y006174D02*
X021752Y006174D01*
X021751Y006272D02*
X021752Y006272D01*
X021840Y006371D02*
X021528Y006371D01*
X021751Y006469D02*
X021752Y006469D01*
X021751Y006568D02*
X021752Y006568D01*
X021751Y006666D02*
X021752Y006666D01*
X021751Y006765D02*
X021752Y006765D01*
X021751Y006775D02*
X021523Y006775D01*
X021437Y006775D01*
X021437Y006776D01*
X021523Y006776D01*
X021751Y006776D01*
X021751Y006775D01*
X021752Y006776D02*
X021752Y007313D01*
X021659Y007405D01*
X021421Y007448D02*
X022422Y007448D01*
X022426Y007443D01*
X022426Y007142D01*
X022382Y007142D01*
X022382Y006776D01*
X022381Y006776D01*
X022381Y007142D01*
X022332Y007142D01*
X022252Y007222D01*
X021881Y007222D01*
X021801Y007142D01*
X021752Y007142D01*
X021752Y006776D01*
X021751Y006776D01*
X021751Y007142D01*
X021636Y007142D01*
X021603Y007133D01*
X021594Y007128D01*
X021585Y007133D01*
X021552Y007142D01*
X021437Y007142D01*
X021437Y006776D01*
X021436Y006776D01*
X021436Y007142D01*
X021392Y007142D01*
X021392Y007418D01*
X021421Y007448D01*
X021392Y007356D02*
X022426Y007356D01*
X022426Y007258D02*
X021392Y007258D01*
X021392Y007159D02*
X021818Y007159D01*
X021752Y007060D02*
X021751Y007060D01*
X021751Y006962D02*
X021752Y006962D01*
X021751Y006863D02*
X021752Y006863D01*
X021437Y006863D02*
X021436Y006863D01*
X021436Y006962D02*
X021437Y006962D01*
X021436Y007060D02*
X021437Y007060D01*
X020852Y007159D02*
X020502Y007159D01*
X020636Y007060D02*
X020813Y007060D01*
X020813Y006962D02*
X020734Y006962D01*
X020792Y006863D02*
X020813Y006863D01*
X020804Y006765D02*
X020813Y006765D01*
X020804Y006666D02*
X020813Y006666D01*
X020348Y006272D02*
X019668Y006272D01*
X019767Y006174D02*
X020446Y006174D01*
X020600Y006075D02*
X019816Y006075D01*
X019849Y005976D02*
X020813Y005976D01*
X020813Y005878D02*
X019849Y005878D01*
X019834Y005779D02*
X020813Y005779D01*
X020813Y005681D02*
X019793Y005681D01*
X019713Y005582D02*
X020817Y005582D01*
X020916Y005484D02*
X019558Y005484D01*
X019424Y005287D02*
X016000Y005287D01*
X015902Y005385D02*
X022172Y005385D01*
X022271Y005287D02*
X020894Y005287D01*
X020993Y005188D02*
X021509Y005188D01*
X021486Y005090D02*
X020999Y005090D01*
X020999Y004991D02*
X021486Y004991D01*
X021486Y004892D02*
X020999Y004892D01*
X021822Y004695D02*
X021922Y004695D01*
X021922Y004597D02*
X021822Y004597D01*
X021822Y004498D02*
X021922Y004498D01*
X021922Y004400D02*
X021822Y004400D01*
X022624Y003710D02*
X022694Y003710D01*
X022655Y003741D02*
X022655Y003741D01*
X022944Y003611D02*
X019002Y003611D01*
X018903Y003513D02*
X022944Y003513D01*
X023033Y003414D02*
X015066Y003414D01*
X015061Y003316D02*
X025203Y003316D01*
X025105Y003414D02*
X024535Y003414D01*
X024624Y003513D02*
X025006Y003513D01*
X024908Y003611D02*
X024624Y003611D01*
X025302Y003217D02*
X015033Y003217D01*
X014975Y003119D02*
X025444Y003119D01*
X026497Y002626D02*
X011578Y002626D01*
X011677Y002725D02*
X026595Y002725D01*
X026694Y002823D02*
X011719Y002823D01*
X011744Y002922D02*
X013489Y002922D01*
X013329Y003020D02*
X011744Y003020D01*
X011716Y003119D02*
X013240Y003119D01*
X013199Y003217D02*
X011671Y003217D01*
X011573Y003316D02*
X013172Y003316D01*
X013172Y003414D02*
X011292Y003414D01*
X011349Y003513D02*
X013172Y003513D01*
X013172Y003611D02*
X011349Y003611D01*
X011349Y003710D02*
X013172Y003710D01*
X013172Y003809D02*
X011349Y003809D01*
X011349Y003907D02*
X013172Y003907D01*
X013172Y004006D02*
X011349Y004006D01*
X011349Y004104D02*
X013203Y004104D01*
X013244Y004203D02*
X011349Y004203D01*
X011349Y004301D02*
X013340Y004301D01*
X013369Y004400D02*
X011349Y004400D01*
X011349Y004498D02*
X013369Y004498D01*
X013369Y004597D02*
X011349Y004597D01*
X011284Y004695D02*
X013369Y004695D01*
X013369Y004794D02*
X011162Y004794D01*
X011618Y004892D02*
X013369Y004892D01*
X013351Y004991D02*
X011705Y004991D01*
X011705Y005681D02*
X014869Y005681D01*
X014869Y005779D02*
X013400Y005779D01*
X013499Y005878D02*
X014869Y005878D01*
X014869Y005976D02*
X013499Y005976D01*
X013579Y005582D02*
X014901Y005582D01*
X014913Y005553D02*
X014913Y005553D01*
X014983Y005484D02*
X013678Y005484D01*
X013777Y005385D02*
X015081Y005385D01*
X015180Y005287D02*
X013875Y005287D01*
X013933Y005188D02*
X015278Y005188D01*
X015377Y005090D02*
X013949Y005090D01*
X013949Y004991D02*
X015476Y004991D01*
X015574Y004892D02*
X013949Y004892D01*
X013949Y004794D02*
X015673Y004794D01*
X015771Y004695D02*
X013949Y004695D01*
X013949Y004597D02*
X015870Y004597D01*
X016019Y004498D02*
X013949Y004498D01*
X013949Y004400D02*
X017254Y004400D01*
X017353Y004301D02*
X014831Y004301D01*
X014707Y004301D02*
X014611Y004301D01*
X014611Y004203D02*
X014707Y004203D01*
X014707Y004104D02*
X014611Y004104D01*
X014611Y004006D02*
X014707Y004006D01*
X014707Y003907D02*
X014611Y003907D01*
X014611Y003809D02*
X014707Y003809D01*
X014707Y003710D02*
X014611Y003710D01*
X014610Y003611D02*
X014146Y003611D01*
X014146Y003513D02*
X014252Y003513D01*
X014252Y003414D02*
X014146Y003414D01*
X014146Y003316D02*
X014257Y003316D01*
X014285Y003217D02*
X014119Y003217D01*
X014078Y003119D02*
X014343Y003119D01*
X014463Y003020D02*
X013989Y003020D01*
X013829Y002922D02*
X026916Y002922D01*
X026893Y003119D02*
X029468Y003119D01*
X029468Y003217D02*
X026980Y003217D01*
X027020Y003316D02*
X029468Y003316D01*
X029468Y003414D02*
X027078Y003414D01*
X027164Y003513D02*
X029468Y003513D01*
X029468Y003611D02*
X027199Y003611D01*
X027199Y003710D02*
X029468Y003710D01*
X029468Y003809D02*
X027199Y003809D01*
X027199Y003907D02*
X029468Y003907D01*
X029468Y004006D02*
X027199Y004006D01*
X027199Y004104D02*
X029468Y004104D01*
X029468Y004203D02*
X027199Y004203D01*
X027199Y004301D02*
X029468Y004301D01*
X029468Y004400D02*
X027199Y004400D01*
X027199Y004498D02*
X029468Y004498D01*
X029468Y004597D02*
X027199Y004597D01*
X027199Y004695D02*
X029468Y004695D01*
X029468Y004794D02*
X027199Y004794D01*
X027199Y004892D02*
X029468Y004892D01*
X029468Y004991D02*
X027199Y004991D01*
X027199Y005090D02*
X029468Y005090D01*
X029468Y005188D02*
X027199Y005188D01*
X027199Y005287D02*
X029468Y005287D01*
X029468Y005385D02*
X027199Y005385D01*
X027199Y005484D02*
X029468Y005484D01*
X029468Y005582D02*
X027199Y005582D01*
X027199Y005681D02*
X029468Y005681D01*
X029468Y005779D02*
X027199Y005779D01*
X027199Y005878D02*
X029468Y005878D01*
X029468Y005976D02*
X027199Y005976D01*
X027199Y006075D02*
X029468Y006075D01*
X029468Y006174D02*
X027199Y006174D01*
X027174Y006272D02*
X029468Y006272D01*
X029468Y006371D02*
X027104Y006371D01*
X027005Y006469D02*
X029468Y006469D01*
X029468Y006568D02*
X026907Y006568D01*
X026808Y006666D02*
X029468Y006666D01*
X029468Y006765D02*
X026739Y006765D01*
X026739Y006863D02*
X029468Y006863D01*
X029468Y006962D02*
X026739Y006962D01*
X026739Y007060D02*
X029468Y007060D01*
X029468Y007159D02*
X026725Y007159D01*
X026627Y007258D02*
X029468Y007258D01*
X029468Y007356D02*
X026528Y007356D01*
X026430Y007455D02*
X029468Y007455D01*
X029468Y007553D02*
X024686Y007553D01*
X024686Y007455D02*
X025888Y007455D01*
X025790Y007356D02*
X025415Y007356D01*
X025514Y007258D02*
X025691Y007258D01*
X025209Y007258D02*
X025109Y007258D01*
X025109Y007356D02*
X025209Y007356D01*
X025109Y007405D02*
X025109Y006955D01*
X024659Y006955D01*
X024659Y007112D01*
X024952Y007405D01*
X025109Y007405D01*
X024903Y007356D02*
X024686Y007356D01*
X024671Y007258D02*
X024804Y007258D01*
X024706Y007159D02*
X024573Y007159D01*
X024659Y007060D02*
X024399Y007060D01*
X024482Y006962D02*
X024659Y006962D01*
X024523Y006863D02*
X025109Y006863D01*
X025109Y006962D02*
X025209Y006962D01*
X025209Y007060D02*
X025109Y007060D01*
X025109Y007159D02*
X025209Y007159D01*
X024659Y006765D02*
X024542Y006765D01*
X024641Y006666D02*
X024691Y006666D01*
X024534Y006405D02*
X024159Y006780D01*
X023919Y007060D02*
X023005Y007060D01*
X023005Y006962D02*
X023836Y006962D01*
X023795Y006863D02*
X023005Y006863D01*
X023005Y006765D02*
X023762Y006765D01*
X023663Y006666D02*
X023005Y006666D01*
X022381Y006776D02*
X022381Y007183D01*
X022426Y007159D02*
X022315Y007159D01*
X022381Y007060D02*
X022382Y007060D01*
X022381Y006962D02*
X022382Y006962D01*
X022381Y006863D02*
X022382Y006863D01*
X022966Y007159D02*
X023869Y007159D01*
X023522Y007258D02*
X023423Y007258D01*
X023423Y007356D02*
X023522Y007356D01*
X023522Y007455D02*
X023423Y007455D01*
X023423Y007553D02*
X023522Y007553D01*
X023422Y007652D02*
X022949Y007652D01*
X022966Y007553D02*
X023087Y007553D01*
X023087Y007455D02*
X022966Y007455D01*
X022966Y007356D02*
X023087Y007356D01*
X023135Y007258D02*
X022966Y007258D01*
X022883Y007750D02*
X023087Y007750D01*
X023087Y007849D02*
X022785Y007849D01*
X022763Y007871D02*
X022763Y007871D01*
X022685Y007947D02*
X023087Y007947D01*
X023128Y008046D02*
X021392Y008046D01*
X021392Y008144D02*
X023862Y008144D01*
X023966Y008243D02*
X021392Y008243D01*
X021392Y008341D02*
X021517Y008341D01*
X021926Y008341D02*
X023079Y008341D01*
X022979Y008440D02*
X022027Y008440D01*
X022072Y008539D02*
X022934Y008539D01*
X022916Y008637D02*
X022090Y008637D01*
X022087Y008736D02*
X022822Y008736D01*
X022723Y008834D02*
X022046Y008834D01*
X021081Y008834D02*
X020720Y008834D01*
X020621Y008736D02*
X020983Y008736D01*
X020889Y008637D02*
X020468Y008637D01*
X020852Y008539D02*
X019669Y008539D01*
X019521Y008341D02*
X020852Y008341D01*
X020852Y008243D02*
X019698Y008243D01*
X019787Y008144D02*
X020852Y008144D01*
X020852Y008046D02*
X019828Y008046D01*
X019849Y007947D02*
X020852Y007947D01*
X020853Y007849D02*
X019849Y007849D01*
X019822Y007750D02*
X020895Y007750D01*
X020880Y007652D02*
X019781Y007652D01*
X019683Y007553D02*
X020852Y007553D01*
X020852Y007455D02*
X017929Y007455D01*
X017929Y007553D02*
X018635Y007553D01*
X018378Y007652D02*
X017929Y007652D01*
X017929Y007750D02*
X018245Y007750D01*
X018146Y007849D02*
X017929Y007849D01*
X017929Y007947D02*
X018048Y007947D01*
X017949Y008046D02*
X017929Y008046D01*
X018429Y008341D02*
X018797Y008341D01*
X018621Y008243D02*
X018516Y008243D01*
X018429Y008440D02*
X020852Y008440D01*
X020852Y007356D02*
X017929Y007356D01*
X017929Y007258D02*
X018635Y007258D01*
X018537Y007159D02*
X017929Y007159D01*
X017929Y007060D02*
X018496Y007060D01*
X018469Y006962D02*
X017929Y006962D01*
X017929Y006863D02*
X018469Y006863D01*
X018490Y006765D02*
X017929Y006765D01*
X017929Y006666D02*
X018531Y006666D01*
X018620Y006568D02*
X017929Y006568D01*
X017977Y006469D02*
X018796Y006469D01*
X018650Y006272D02*
X018174Y006272D01*
X018075Y006371D02*
X020282Y006371D01*
X020264Y006469D02*
X019522Y006469D01*
X019698Y006568D02*
X020264Y006568D01*
X020638Y007058D02*
X020638Y007058D01*
X020852Y007258D02*
X019683Y007258D01*
X018649Y008539D02*
X018429Y008539D01*
X018429Y008637D02*
X018551Y008637D01*
X018502Y008736D02*
X018429Y008736D01*
X018429Y008834D02*
X018469Y008834D01*
X018469Y008933D02*
X018443Y008933D01*
X018074Y009327D02*
X017929Y009327D01*
X017929Y009425D02*
X018173Y009425D01*
X018271Y009524D02*
X017929Y009524D01*
X017929Y009623D02*
X018370Y009623D01*
X018508Y009721D02*
X017929Y009721D01*
X017929Y009820D02*
X018469Y009820D01*
X018469Y009918D02*
X017929Y009918D01*
X017929Y010017D02*
X018478Y010017D01*
X018519Y010115D02*
X017929Y010115D01*
X017929Y010214D02*
X018591Y010214D01*
X018726Y010312D02*
X017929Y010312D01*
X017929Y010411D02*
X024202Y010411D01*
X024202Y010509D02*
X019620Y010509D01*
X019738Y010608D02*
X024202Y010608D01*
X024202Y010312D02*
X019592Y010312D01*
X019727Y010214D02*
X024202Y010214D01*
X024202Y010115D02*
X023831Y010115D01*
X023929Y010017D02*
X024202Y010017D01*
X024202Y009918D02*
X024028Y009918D01*
X024742Y009918D02*
X025542Y009918D01*
X025535Y009820D02*
X025542Y009820D01*
X025542Y010017D02*
X024742Y010017D01*
X024742Y010115D02*
X025542Y010115D01*
X025542Y010214D02*
X024742Y010214D01*
X024742Y010312D02*
X025542Y010312D01*
X025631Y010411D02*
X024742Y010411D01*
X024742Y010509D02*
X026821Y010509D01*
X026791Y010608D02*
X024742Y010608D01*
X024788Y010707D02*
X026791Y010707D01*
X026823Y010805D02*
X024829Y010805D01*
X024880Y010904D02*
X025419Y010904D01*
X025320Y011002D02*
X024979Y011002D01*
X025077Y011101D02*
X025319Y011101D01*
X025784Y011404D02*
X025785Y011405D01*
X025319Y011791D02*
X022189Y011791D01*
X022189Y011889D02*
X025401Y011889D01*
X024906Y011692D02*
X021853Y011692D01*
X021853Y011605D02*
X022189Y011605D01*
X022189Y011323D01*
X022180Y011290D01*
X022163Y011260D01*
X022138Y011236D01*
X022109Y011219D01*
X022076Y011210D01*
X021853Y011210D01*
X021853Y011605D01*
X021853Y011593D02*
X021753Y011593D01*
X021753Y011495D02*
X021853Y011495D01*
X021853Y011396D02*
X021753Y011396D01*
X021753Y011298D02*
X021853Y011298D01*
X022182Y011298D02*
X024454Y011298D01*
X024553Y011396D02*
X022189Y011396D01*
X022189Y011495D02*
X024651Y011495D01*
X024750Y011593D02*
X022189Y011593D01*
X021853Y011791D02*
X021753Y011791D01*
X021753Y011889D02*
X021853Y011889D01*
X021853Y011988D02*
X021753Y011988D01*
X021753Y012086D02*
X021853Y012086D01*
X022118Y012086D02*
X026243Y012086D01*
X026243Y011988D02*
X022189Y011988D01*
X022445Y012216D02*
X022568Y012093D01*
X023451Y012093D01*
X023574Y012216D01*
X023574Y012941D01*
X023451Y013064D01*
X022568Y013064D01*
X022445Y012941D01*
X022445Y012216D01*
X022476Y012185D02*
X020054Y012185D01*
X020201Y012086D02*
X020579Y012086D01*
X020549Y011988D02*
X020299Y011988D01*
X019873Y011593D02*
X019724Y011593D01*
X019585Y011495D02*
X019972Y011495D01*
X020088Y011396D02*
X017929Y011396D01*
X017929Y011298D02*
X018691Y011298D01*
X018577Y011199D02*
X017929Y011199D01*
X017929Y011101D02*
X018513Y011101D01*
X018472Y011002D02*
X017929Y011002D01*
X017929Y010904D02*
X018469Y010904D01*
X018473Y010805D02*
X017929Y010805D01*
X017929Y010707D02*
X018514Y010707D01*
X018580Y010608D02*
X017929Y010608D01*
X017929Y010509D02*
X018698Y010509D01*
X019627Y011298D02*
X020549Y011298D01*
X020603Y011199D02*
X019741Y011199D01*
X018734Y011495D02*
X017929Y011495D01*
X017929Y011593D02*
X018594Y011593D01*
X018520Y011692D02*
X017929Y011692D01*
X017929Y011791D02*
X018479Y011791D01*
X018469Y011889D02*
X017929Y011889D01*
X017929Y011988D02*
X018469Y011988D01*
X018507Y012086D02*
X017929Y012086D01*
X017929Y012185D02*
X018562Y012185D01*
X018661Y012283D02*
X017929Y012283D01*
X017929Y012382D02*
X022445Y012382D01*
X022445Y012480D02*
X017929Y012480D01*
X017929Y012579D02*
X018741Y012579D01*
X018744Y012577D02*
X018811Y012549D01*
X018883Y012535D01*
X019129Y012535D01*
X019129Y012875D01*
X018549Y012875D01*
X018549Y012869D01*
X018563Y012797D01*
X018591Y012730D01*
X018632Y012669D01*
X018683Y012618D01*
X018744Y012577D01*
X018626Y012677D02*
X017929Y012677D01*
X017929Y012776D02*
X018572Y012776D01*
X018549Y012874D02*
X018010Y012874D01*
X018109Y012973D02*
X018555Y012973D01*
X018588Y013072D02*
X018207Y013072D01*
X017641Y013269D02*
X016672Y013269D01*
X016770Y013170D02*
X017542Y013170D01*
X017444Y013072D02*
X016817Y013072D01*
X016849Y012973D02*
X017395Y012973D01*
X017389Y012874D02*
X016849Y012874D01*
X016833Y012776D02*
X017389Y012776D01*
X017389Y012677D02*
X016792Y012677D01*
X016709Y012579D02*
X017389Y012579D01*
X017389Y012480D02*
X016549Y012480D01*
X016507Y012261D02*
X016436Y012275D01*
X016189Y012275D01*
X016189Y011935D01*
X016769Y011935D01*
X016769Y011942D01*
X016755Y012013D01*
X016727Y012080D01*
X016686Y012141D01*
X016635Y012192D01*
X016574Y012233D01*
X016507Y012261D01*
X016643Y012185D02*
X017389Y012185D01*
X017389Y012283D02*
X014749Y012283D01*
X014749Y012185D02*
X015675Y012185D01*
X015683Y012192D02*
X015632Y012141D01*
X015591Y012080D01*
X015563Y012013D01*
X015549Y011942D01*
X015549Y011935D01*
X016129Y011935D01*
X016129Y011875D01*
X016189Y011875D01*
X016189Y011535D01*
X016436Y011535D01*
X016507Y011549D01*
X016574Y011577D01*
X016635Y011618D01*
X016686Y011669D01*
X016727Y011730D01*
X016755Y011797D01*
X016769Y011869D01*
X016769Y011875D01*
X016189Y011875D01*
X016189Y011935D01*
X016129Y011935D01*
X016129Y012275D01*
X015883Y012275D01*
X015811Y012261D01*
X015744Y012233D01*
X015683Y012192D01*
X015595Y012086D02*
X014749Y012086D01*
X014749Y011988D02*
X015558Y011988D01*
X015549Y011875D02*
X015549Y011869D01*
X015563Y011797D01*
X015591Y011730D01*
X015632Y011669D01*
X015683Y011618D01*
X015744Y011577D01*
X015811Y011549D01*
X015883Y011535D01*
X016129Y011535D01*
X016129Y011875D01*
X015549Y011875D01*
X015566Y011791D02*
X014749Y011791D01*
X014749Y011889D02*
X016129Y011889D01*
X016189Y011889D02*
X017389Y011889D01*
X017389Y011791D02*
X016752Y011791D01*
X016702Y011692D02*
X017389Y011692D01*
X017389Y011593D02*
X016599Y011593D01*
X016627Y011298D02*
X017389Y011298D01*
X017389Y011396D02*
X014749Y011396D01*
X014749Y011298D02*
X015691Y011298D01*
X015577Y011199D02*
X014749Y011199D01*
X014749Y011495D02*
X017389Y011495D01*
X017389Y011199D02*
X016741Y011199D01*
X016805Y011101D02*
X017389Y011101D01*
X017389Y011002D02*
X016846Y011002D01*
X016849Y010904D02*
X017389Y010904D01*
X017389Y010805D02*
X016845Y010805D01*
X016804Y010707D02*
X017389Y010707D01*
X017389Y010608D02*
X016738Y010608D01*
X016620Y010509D02*
X017389Y010509D01*
X017389Y010411D02*
X011949Y010411D01*
X011949Y010509D02*
X015698Y010509D01*
X015580Y010608D02*
X011949Y010608D01*
X011949Y010707D02*
X012098Y010707D01*
X012098Y010705D02*
X012115Y010676D01*
X012139Y010651D01*
X012169Y010634D01*
X012202Y010626D01*
X012484Y010626D01*
X012484Y010961D01*
X012089Y010961D01*
X012089Y010738D01*
X012098Y010705D01*
X012089Y010805D02*
X011949Y010805D01*
X011922Y010904D02*
X012089Y010904D01*
X012089Y011101D02*
X011749Y011101D01*
X011847Y011002D02*
X012484Y011002D01*
X012484Y010904D02*
X012584Y010904D01*
X012584Y011002D02*
X013908Y011002D01*
X014000Y010904D02*
X012979Y010904D01*
X012979Y010805D02*
X014099Y010805D01*
X014197Y010707D02*
X012970Y010707D01*
X012584Y010707D02*
X012484Y010707D01*
X012484Y010805D02*
X012584Y010805D01*
X012979Y011101D02*
X013636Y011101D01*
X013569Y011199D02*
X012979Y011199D01*
X012975Y011298D02*
X013569Y011298D01*
X013569Y011396D02*
X012999Y011396D01*
X013059Y011495D02*
X013569Y011495D01*
X014749Y011593D02*
X015719Y011593D01*
X015616Y011692D02*
X014749Y011692D01*
X014749Y012382D02*
X017389Y012382D01*
X017389Y012086D02*
X016723Y012086D01*
X016760Y011988D02*
X017389Y011988D01*
X016189Y011988D02*
X016129Y011988D01*
X016129Y012086D02*
X016189Y012086D01*
X016189Y012185D02*
X016129Y012185D01*
X015769Y012480D02*
X014749Y012480D01*
X014749Y012579D02*
X015609Y012579D01*
X015005Y012677D02*
X014749Y012677D01*
X014749Y012776D02*
X014906Y012776D01*
X014808Y012874D02*
X014749Y012874D01*
X014639Y013564D02*
X014627Y013564D01*
X014639Y013663D02*
X014520Y013663D01*
X014584Y013761D02*
X014639Y013761D01*
X014639Y013860D02*
X014584Y013860D01*
X014584Y013958D02*
X014639Y013958D01*
X014639Y014057D02*
X014209Y014057D01*
X014209Y013958D02*
X014109Y013958D01*
X014109Y013981D02*
X014109Y013645D01*
X013847Y013645D01*
X013814Y013654D01*
X013784Y013671D01*
X013760Y013695D01*
X013743Y013725D01*
X013734Y013758D01*
X013734Y013981D01*
X014109Y013981D01*
X014109Y014057D02*
X011929Y014057D01*
X012027Y014156D02*
X013734Y014156D01*
X013734Y014254D02*
X012126Y014254D01*
X012169Y014353D02*
X013737Y014353D01*
X013654Y014451D02*
X012169Y014451D01*
X012169Y014550D02*
X013654Y014550D01*
X013654Y014648D02*
X012169Y014648D01*
X012169Y014747D02*
X013654Y014747D01*
X013654Y014845D02*
X012169Y014845D01*
X012169Y014944D02*
X013654Y014944D01*
X013654Y015042D02*
X012169Y015042D01*
X012169Y015141D02*
X013673Y015141D01*
X013771Y015240D02*
X012169Y015240D01*
X012169Y015338D02*
X012712Y015338D01*
X012607Y015437D02*
X012169Y015437D01*
X012169Y015535D02*
X012560Y015535D01*
X012541Y015634D02*
X012169Y015634D01*
X012169Y015732D02*
X012464Y015732D01*
X012366Y015831D02*
X012169Y015831D01*
X012169Y015929D02*
X012267Y015929D01*
X012649Y016283D02*
X012607Y016325D01*
X012607Y017019D01*
X012567Y017115D01*
X012494Y017188D01*
X011931Y017751D01*
X011836Y017790D01*
X011732Y017790D01*
X011491Y017790D01*
X011494Y017793D01*
X011494Y018645D01*
X011537Y018645D01*
X011585Y018597D01*
X011573Y018575D01*
X011564Y018542D01*
X011564Y018415D01*
X012119Y018415D01*
X012119Y018395D01*
X012139Y018395D01*
X012139Y018155D01*
X012581Y018155D01*
X012614Y018164D01*
X012644Y018181D01*
X012649Y018186D01*
X012649Y017082D01*
X012649Y016283D01*
X012649Y016324D02*
X012608Y016324D01*
X012607Y016422D02*
X012649Y016422D01*
X012649Y016521D02*
X012607Y016521D01*
X012607Y016619D02*
X012649Y016619D01*
X012649Y016718D02*
X012607Y016718D01*
X012607Y016816D02*
X012649Y016816D01*
X012649Y016915D02*
X012607Y016915D01*
X012607Y017013D02*
X012649Y017013D01*
X012649Y017112D02*
X012568Y017112D01*
X012649Y017210D02*
X012471Y017210D01*
X012373Y017309D02*
X012649Y017309D01*
X012649Y017407D02*
X012274Y017407D01*
X012176Y017506D02*
X012649Y017506D01*
X012649Y017605D02*
X012077Y017605D01*
X011979Y017703D02*
X012649Y017703D01*
X012649Y017802D02*
X011494Y017802D01*
X011494Y017900D02*
X012649Y017900D01*
X012649Y017999D02*
X011494Y017999D01*
X011494Y018097D02*
X012649Y018097D01*
X012139Y018196D02*
X012119Y018196D01*
X012119Y018155D02*
X012119Y018395D01*
X011564Y018395D01*
X011564Y018268D01*
X011573Y018235D01*
X011590Y018205D01*
X011614Y018181D01*
X011644Y018164D01*
X011677Y018155D01*
X012119Y018155D01*
X012119Y018294D02*
X012139Y018294D01*
X012139Y018393D02*
X012119Y018393D01*
X011564Y018393D02*
X011494Y018393D01*
X011494Y018491D02*
X011564Y018491D01*
X011581Y018590D02*
X011494Y018590D01*
X011494Y018294D02*
X011564Y018294D01*
X011599Y018196D02*
X011494Y018196D01*
X010659Y018505D02*
X010659Y018905D01*
X012129Y018905D01*
X012909Y019530D02*
X012909Y017030D01*
X011649Y016915D02*
X011527Y016915D01*
X011521Y016816D02*
X011649Y016816D01*
X011649Y016718D02*
X011480Y016718D01*
X011394Y016619D02*
X011649Y016619D01*
X011649Y016521D02*
X009142Y016521D01*
X009241Y016619D02*
X010924Y016619D01*
X011159Y016905D02*
X009159Y016905D01*
X008659Y016405D01*
X007202Y016405D01*
X006402Y016521D02*
X005593Y016521D01*
X005684Y016619D02*
X006402Y016619D01*
X006431Y016718D02*
X005725Y016718D01*
X005758Y017013D02*
X006510Y017013D01*
X006411Y017112D02*
X005717Y017112D01*
X005672Y017210D02*
X006402Y017210D01*
X006402Y017309D02*
X005573Y017309D01*
X005394Y017407D02*
X006402Y017407D01*
X007202Y017405D02*
X008534Y017405D01*
X008229Y017999D02*
X008899Y017999D01*
X008705Y018097D02*
X008363Y018097D01*
X008434Y018196D02*
X008634Y018196D01*
X008634Y018294D02*
X008475Y018294D01*
X008484Y018393D02*
X008634Y018393D01*
X008634Y018491D02*
X008484Y018491D01*
X008445Y018590D02*
X008634Y018590D01*
X008634Y018689D02*
X008387Y018689D01*
X008288Y018787D02*
X008634Y018787D01*
X008665Y018886D02*
X003901Y018886D01*
X003773Y018984D02*
X007874Y018984D01*
X007720Y019083D02*
X005843Y019083D01*
X005956Y019181D02*
X007640Y019181D01*
X007599Y019280D02*
X006006Y019280D01*
X006027Y019378D02*
X007584Y019378D01*
X007584Y019477D02*
X006027Y019477D01*
X005987Y019575D02*
X007618Y019575D01*
X007667Y019674D02*
X005911Y019674D01*
X005734Y019773D02*
X007765Y019773D01*
X008132Y019871D02*
X005603Y019871D01*
X005505Y019970D02*
X008231Y019970D01*
X008329Y020068D02*
X005406Y020068D01*
X005308Y020167D02*
X011539Y020167D01*
X012129Y019905D02*
X008534Y019905D01*
X008034Y019405D01*
X008348Y019083D02*
X008714Y019083D01*
X008714Y019181D02*
X008428Y019181D01*
X008469Y019280D02*
X009109Y019280D01*
X009209Y019280D02*
X009887Y019280D01*
X009824Y019181D02*
X009604Y019181D01*
X009604Y019083D02*
X009824Y019083D01*
X009824Y018984D02*
X009590Y018984D01*
X009653Y018886D02*
X009824Y018886D01*
X009824Y018787D02*
X009684Y018787D01*
X009684Y018689D02*
X009824Y018689D01*
X009824Y018590D02*
X009684Y018590D01*
X009604Y019378D02*
X010823Y019378D01*
X010791Y019477D02*
X009604Y019477D01*
X009603Y019575D02*
X010791Y019575D01*
X012719Y020167D02*
X013599Y020167D01*
X013284Y019905D02*
X012909Y019530D01*
X012784Y019773D02*
X012774Y019773D01*
X012774Y019871D02*
X012882Y019871D01*
X012981Y019970D02*
X012774Y019970D01*
X012774Y020068D02*
X013079Y020068D01*
X013284Y019905D02*
X014189Y019905D01*
X014779Y020167D02*
X026538Y020167D01*
X026463Y020068D02*
X014834Y020068D01*
X014834Y019970D02*
X026422Y019970D01*
X026381Y019871D02*
X014834Y019871D01*
X014834Y019773D02*
X026358Y019773D01*
X026358Y019674D02*
X017965Y019674D01*
X018121Y019575D02*
X026358Y019575D01*
X026366Y019477D02*
X018219Y019477D01*
X018318Y019378D02*
X020000Y019378D01*
X019902Y019280D02*
X019661Y019280D01*
X019759Y019181D02*
X019803Y019181D01*
X018657Y019280D02*
X018416Y019280D01*
X018515Y019181D02*
X018559Y019181D01*
X015353Y019674D02*
X014810Y019674D01*
X014834Y019575D02*
X015198Y019575D01*
X015099Y019477D02*
X014834Y019477D01*
X014834Y019378D02*
X015001Y019378D01*
X014902Y019280D02*
X014834Y019280D01*
X011558Y017013D02*
X011513Y017013D01*
X011649Y016422D02*
X009044Y016422D01*
X008945Y016324D02*
X011649Y016324D01*
X011649Y016225D02*
X011563Y016225D01*
X011569Y016126D02*
X011649Y016126D01*
X011649Y016028D02*
X011569Y016028D01*
X011569Y015929D02*
X011649Y015929D01*
X011649Y015831D02*
X011569Y015831D01*
X011569Y015732D02*
X011649Y015732D01*
X011649Y015634D02*
X011569Y015634D01*
X011569Y015535D02*
X011649Y015535D01*
X010709Y015634D02*
X010609Y015634D01*
X010609Y015732D02*
X010709Y015732D01*
X010709Y015831D02*
X010609Y015831D01*
X010609Y015929D02*
X010709Y015929D01*
X010709Y016028D02*
X010609Y016028D01*
X010609Y016126D02*
X010709Y016126D01*
X010709Y016225D02*
X010609Y016225D01*
X009755Y016225D02*
X008847Y016225D01*
X008831Y015732D02*
X009749Y015732D01*
X009749Y015634D02*
X008951Y015634D01*
X009004Y015535D02*
X009749Y015535D01*
X009749Y015831D02*
X005393Y015831D01*
X005255Y015929D02*
X009749Y015929D01*
X010609Y015338D02*
X010709Y015338D01*
X010709Y015240D02*
X010609Y015240D01*
X010609Y015141D02*
X010709Y015141D01*
X010709Y015042D02*
X010609Y015042D01*
X010609Y014944D02*
X010709Y014944D01*
X010709Y014845D02*
X010609Y014845D01*
X010609Y014747D02*
X010709Y014747D01*
X010709Y014648D02*
X010609Y014648D01*
X010609Y014550D02*
X010709Y014550D01*
X009749Y014944D02*
X006280Y014944D01*
X005597Y014057D02*
X001409Y014057D01*
X001409Y014156D02*
X003629Y014156D01*
X003525Y014254D02*
X001409Y014254D01*
X001409Y014353D02*
X003426Y014353D01*
X003328Y014451D02*
X001409Y014451D01*
X001409Y014550D02*
X003264Y014550D01*
X003244Y014648D02*
X001409Y014648D01*
X001409Y014747D02*
X003244Y014747D01*
X003244Y014845D02*
X001409Y014845D01*
X001409Y014944D02*
X003244Y014944D01*
X003244Y015042D02*
X001409Y015042D01*
X001409Y015141D02*
X003244Y015141D01*
X003244Y015240D02*
X001409Y015240D01*
X001409Y015338D02*
X003244Y015338D01*
X003244Y015437D02*
X001409Y015437D01*
X001409Y015535D02*
X003244Y015535D01*
X003244Y015634D02*
X001409Y015634D01*
X001409Y015732D02*
X003244Y015732D01*
X003244Y015831D02*
X001409Y015831D01*
X001409Y015929D02*
X003244Y015929D01*
X003244Y016028D02*
X001409Y016028D01*
X001409Y016126D02*
X003244Y016126D01*
X003244Y016225D02*
X001409Y016225D01*
X001409Y016324D02*
X003244Y016324D01*
X003244Y016422D02*
X001409Y016422D01*
X001409Y016521D02*
X003244Y016521D01*
X003244Y016619D02*
X001409Y016619D01*
X001409Y016718D02*
X003244Y016718D01*
X003244Y016816D02*
X001409Y016816D01*
X001409Y016915D02*
X003244Y016915D01*
X003244Y017013D02*
X001409Y017013D01*
X001409Y017112D02*
X003244Y017112D01*
X003244Y017210D02*
X001409Y017210D01*
X001409Y017309D02*
X003244Y017309D01*
X003244Y017407D02*
X001409Y017407D01*
X001409Y017506D02*
X003244Y017506D01*
X003244Y017605D02*
X001409Y017605D01*
X001409Y017703D02*
X003244Y017703D01*
X003244Y017802D02*
X001409Y017802D01*
X001409Y017900D02*
X002442Y017900D01*
X002343Y017999D02*
X001409Y017999D01*
X001409Y018097D02*
X002319Y018097D01*
X002319Y018196D02*
X001409Y018196D01*
X001409Y018294D02*
X002319Y018294D01*
X002319Y018393D02*
X001409Y018393D01*
X001409Y018491D02*
X002319Y018491D01*
X002319Y018590D02*
X001409Y018590D01*
X001409Y018886D02*
X001923Y018886D01*
X001697Y018984D02*
X001409Y018984D01*
X001409Y019083D02*
X001598Y019083D01*
X001500Y019181D02*
X001409Y019181D01*
X001409Y019280D02*
X001447Y019280D01*
X001422Y019970D02*
X001409Y019970D01*
X001409Y020068D02*
X001463Y020068D01*
X001409Y020167D02*
X001538Y020167D01*
X001636Y020265D02*
X001409Y020265D01*
X001409Y020364D02*
X001776Y020364D01*
X001409Y020462D02*
X003408Y020462D01*
X003310Y020364D02*
X002542Y020364D01*
X002682Y020265D02*
X003299Y020265D01*
X003299Y020167D02*
X002780Y020167D01*
X002855Y020068D02*
X003299Y020068D01*
X003299Y019970D02*
X002896Y019970D01*
X002937Y019871D02*
X003299Y019871D01*
X003299Y019773D02*
X002960Y019773D01*
X002960Y019674D02*
X003332Y019674D01*
X003456Y019575D02*
X002960Y019575D01*
X002952Y019477D02*
X003446Y019477D01*
X003872Y019083D02*
X005475Y019083D01*
X005362Y019181D02*
X003970Y019181D01*
X004024Y019280D02*
X005312Y019280D01*
X005276Y019378D02*
X004036Y019378D01*
X004036Y019477D02*
X005177Y019477D01*
X005079Y019575D02*
X004036Y019575D01*
X004083Y020462D02*
X004235Y020462D01*
X004910Y020462D02*
X029468Y020462D01*
X029468Y020364D02*
X027542Y020364D01*
X027682Y020265D02*
X029468Y020265D01*
X029468Y020167D02*
X027780Y020167D01*
X027855Y020068D02*
X029468Y020068D01*
X029468Y019970D02*
X027896Y019970D01*
X027937Y019871D02*
X029468Y019871D01*
X029468Y019773D02*
X027960Y019773D01*
X027960Y019674D02*
X029468Y019674D01*
X029468Y019575D02*
X027960Y019575D01*
X027952Y019477D02*
X029468Y019477D01*
X029468Y019378D02*
X027912Y019378D01*
X027871Y019280D02*
X029468Y019280D01*
X029468Y019181D02*
X027818Y019181D01*
X027720Y019083D02*
X029468Y019083D01*
X029468Y018984D02*
X027621Y018984D01*
X027395Y018886D02*
X029468Y018886D01*
X029468Y018787D02*
X027096Y018787D01*
X027195Y018689D02*
X029468Y018689D01*
X029468Y018590D02*
X027293Y018590D01*
X027392Y018491D02*
X029468Y018491D01*
X029468Y018393D02*
X027491Y018393D01*
X027589Y018294D02*
X029468Y018294D01*
X029468Y018196D02*
X027688Y018196D01*
X027786Y018097D02*
X029468Y018097D01*
X029468Y017999D02*
X027885Y017999D01*
X027927Y017900D02*
X029468Y017900D01*
X029468Y017802D02*
X027929Y017802D01*
X027929Y017703D02*
X029468Y017703D01*
X029468Y017605D02*
X027929Y017605D01*
X027929Y017506D02*
X029468Y017506D01*
X029468Y017407D02*
X027929Y017407D01*
X027929Y017309D02*
X029468Y017309D01*
X029468Y017210D02*
X027929Y017210D01*
X027929Y017112D02*
X029468Y017112D01*
X029468Y017013D02*
X027929Y017013D01*
X027929Y016915D02*
X029468Y016915D01*
X029468Y016816D02*
X027929Y016816D01*
X027929Y016718D02*
X029468Y016718D01*
X029468Y016619D02*
X027929Y016619D01*
X027929Y016521D02*
X029468Y016521D01*
X029468Y016422D02*
X027929Y016422D01*
X027929Y016324D02*
X029468Y016324D01*
X029468Y016225D02*
X027929Y016225D01*
X027929Y016126D02*
X029468Y016126D01*
X029468Y016028D02*
X027929Y016028D01*
X027929Y015929D02*
X029468Y015929D01*
X029468Y015831D02*
X027929Y015831D01*
X027929Y015732D02*
X029468Y015732D01*
X029468Y015634D02*
X027929Y015634D01*
X027929Y015535D02*
X029468Y015535D01*
X029468Y015437D02*
X027929Y015437D01*
X027929Y015338D02*
X029468Y015338D01*
X029468Y015240D02*
X027929Y015240D01*
X027929Y015141D02*
X029468Y015141D01*
X029468Y015042D02*
X027929Y015042D01*
X027929Y014944D02*
X029468Y014944D01*
X029468Y014845D02*
X027929Y014845D01*
X027929Y014747D02*
X029468Y014747D01*
X029468Y014648D02*
X027929Y014648D01*
X027929Y014550D02*
X029468Y014550D01*
X029468Y014451D02*
X027929Y014451D01*
X027929Y014353D02*
X029468Y014353D01*
X029468Y014254D02*
X027929Y014254D01*
X027929Y014156D02*
X029468Y014156D01*
X029468Y014057D02*
X027929Y014057D01*
X027929Y013958D02*
X029468Y013958D01*
X029468Y013860D02*
X027929Y013860D01*
X027929Y013761D02*
X029468Y013761D01*
X029468Y013663D02*
X027929Y013663D01*
X027929Y013564D02*
X029468Y013564D01*
X029468Y013466D02*
X027929Y013466D01*
X027929Y013367D02*
X029468Y013367D01*
X029468Y013269D02*
X027929Y013269D01*
X027929Y013170D02*
X029468Y013170D01*
X029468Y013072D02*
X027929Y013072D01*
X027929Y012973D02*
X029468Y012973D01*
X029468Y012874D02*
X027929Y012874D01*
X027929Y012776D02*
X029468Y012776D01*
X029468Y012677D02*
X028019Y012677D01*
X028117Y012579D02*
X029468Y012579D01*
X029468Y012480D02*
X028216Y012480D01*
X028314Y012382D02*
X029468Y012382D01*
X029468Y012283D02*
X028413Y012283D01*
X028476Y012185D02*
X029468Y012185D01*
X029468Y012086D02*
X028492Y012086D01*
X028492Y011988D02*
X029468Y011988D01*
X029468Y011889D02*
X028492Y011889D01*
X028492Y011791D02*
X029468Y011791D01*
X029468Y011692D02*
X028492Y011692D01*
X028492Y011593D02*
X029468Y011593D01*
X029468Y011495D02*
X028492Y011495D01*
X028492Y011396D02*
X029468Y011396D01*
X029468Y011298D02*
X028492Y011298D01*
X028492Y011199D02*
X029468Y011199D01*
X029468Y011101D02*
X028492Y011101D01*
X028492Y011002D02*
X029468Y011002D01*
X029468Y010904D02*
X028492Y010904D01*
X028492Y010805D02*
X029468Y010805D01*
X029468Y010707D02*
X028492Y010707D01*
X028492Y010608D02*
X029468Y010608D01*
X029468Y010509D02*
X028492Y010509D01*
X028492Y010411D02*
X029468Y010411D01*
X029468Y010312D02*
X028492Y010312D01*
X028492Y010214D02*
X029468Y010214D01*
X029468Y010115D02*
X028492Y010115D01*
X028492Y010017D02*
X029468Y010017D01*
X029468Y009918D02*
X028492Y009918D01*
X028492Y009820D02*
X029468Y009820D01*
X029468Y009721D02*
X028492Y009721D01*
X028492Y009623D02*
X029468Y009623D01*
X029468Y009524D02*
X028492Y009524D01*
X028492Y009425D02*
X029468Y009425D01*
X029468Y009327D02*
X028455Y009327D01*
X028364Y009228D02*
X029468Y009228D01*
X029468Y009130D02*
X028266Y009130D01*
X028167Y009031D02*
X029468Y009031D01*
X029468Y008933D02*
X028069Y008933D01*
X027928Y008834D02*
X029468Y008834D01*
X029468Y008736D02*
X027261Y008736D01*
X027261Y008637D02*
X029468Y008637D01*
X029468Y008539D02*
X027261Y008539D01*
X027261Y008440D02*
X029468Y008440D01*
X029468Y008341D02*
X027254Y008341D01*
X027156Y008243D02*
X029468Y008243D01*
X029468Y008144D02*
X026277Y008144D01*
X026277Y008046D02*
X029468Y008046D01*
X029468Y007947D02*
X026277Y007947D01*
X026261Y007849D02*
X029468Y007849D01*
X029468Y007750D02*
X026163Y007750D01*
X026277Y008243D02*
X026289Y008243D01*
X025655Y007750D02*
X024686Y007750D01*
X024686Y007652D02*
X029468Y007652D01*
X027639Y009918D02*
X027180Y009918D01*
X027294Y010312D02*
X027639Y010312D01*
X027639Y010214D02*
X026277Y010214D01*
X026277Y010312D02*
X027025Y010312D01*
X026883Y010411D02*
X026187Y010411D01*
X026277Y010115D02*
X027639Y010115D01*
X027639Y010017D02*
X026277Y010017D01*
X026167Y010904D02*
X026151Y010904D01*
X027131Y011593D02*
X027589Y011593D01*
X027639Y011495D02*
X027229Y011495D01*
X027328Y011396D02*
X027639Y011396D01*
X027639Y011298D02*
X027414Y011298D01*
X027449Y011199D02*
X027639Y011199D01*
X027639Y011101D02*
X027449Y011101D01*
X027449Y011002D02*
X027639Y011002D01*
X027639Y010904D02*
X027449Y010904D01*
X027495Y010805D02*
X027639Y010805D01*
X027639Y010707D02*
X027527Y010707D01*
X027527Y010608D02*
X027639Y010608D01*
X027639Y010509D02*
X027497Y010509D01*
X027435Y010411D02*
X027639Y010411D01*
X027490Y011692D02*
X026999Y011692D01*
X026999Y011791D02*
X027392Y011791D01*
X027293Y011889D02*
X026917Y011889D01*
X026823Y011988D02*
X027195Y011988D01*
X027096Y012086D02*
X026823Y012086D01*
X026823Y012185D02*
X026998Y012185D01*
X026917Y012283D02*
X026823Y012283D01*
X026823Y012382D02*
X026889Y012382D01*
X026889Y012480D02*
X026790Y012480D01*
X026708Y012579D02*
X026889Y012579D01*
X026889Y012677D02*
X026609Y012677D01*
X026511Y012776D02*
X026404Y012820D01*
X025936Y012820D01*
X025904Y012973D02*
X026889Y012973D01*
X026243Y012185D02*
X025905Y012185D01*
X025420Y012530D02*
X025372Y012578D01*
X024807Y012579D02*
X023574Y012579D01*
X023574Y012677D02*
X024807Y012677D01*
X024807Y012776D02*
X023574Y012776D01*
X023574Y012874D02*
X024807Y012874D01*
X024839Y012973D02*
X023542Y012973D01*
X023574Y012480D02*
X024807Y012480D01*
X024807Y012382D02*
X023574Y012382D01*
X023574Y012283D02*
X024807Y012283D01*
X024838Y012185D02*
X023543Y012185D01*
X022445Y012283D02*
X019657Y012283D01*
X019577Y012579D02*
X022445Y012579D01*
X022445Y012677D02*
X019692Y012677D01*
X019746Y012776D02*
X022445Y012776D01*
X022445Y012874D02*
X019769Y012874D01*
X019763Y012973D02*
X022477Y012973D01*
X021488Y012086D02*
X021452Y012086D01*
X021427Y011199D02*
X024245Y011199D01*
X025067Y009820D02*
X025125Y009820D01*
X025125Y009721D02*
X025067Y009721D01*
X025067Y009623D02*
X025125Y009623D01*
X024202Y009130D02*
X023779Y009130D01*
X023681Y009031D02*
X024202Y009031D01*
X024202Y008933D02*
X023527Y008933D01*
X023652Y008637D02*
X024239Y008637D01*
X024202Y008726D02*
X024202Y008834D01*
X024223Y008539D02*
X023634Y008539D01*
X023590Y008440D02*
X024125Y008440D01*
X024026Y008341D02*
X023489Y008341D01*
X023522Y008046D02*
X023423Y008046D01*
X023423Y007947D02*
X023522Y007947D01*
X023522Y007849D02*
X023423Y007849D01*
X023423Y007750D02*
X023522Y007750D01*
X022849Y007784D02*
X022849Y007784D01*
X024593Y008144D02*
X024913Y008144D01*
X025019Y008046D02*
X024678Y008046D01*
X024686Y007947D02*
X025542Y007947D01*
X025557Y007849D02*
X024686Y007849D01*
X024534Y006405D02*
X025659Y006405D01*
X026159Y005905D01*
X025659Y005405D02*
X023409Y005405D01*
X022701Y005905D02*
X022696Y005910D01*
X021752Y005779D02*
X021751Y005779D01*
X021751Y005681D02*
X021752Y005681D01*
X021751Y005582D02*
X021752Y005582D01*
X020172Y005287D02*
X020146Y005287D01*
X019325Y005188D02*
X016099Y005188D01*
X016197Y005090D02*
X019319Y005090D01*
X018760Y005484D02*
X016558Y005484D01*
X016713Y005582D02*
X018605Y005582D01*
X018001Y005681D02*
X016793Y005681D01*
X016834Y005779D02*
X017903Y005779D01*
X017930Y005752D02*
X017930Y005752D01*
X017804Y005878D02*
X016849Y005878D01*
X016849Y005976D02*
X017706Y005976D01*
X017607Y006075D02*
X016816Y006075D01*
X016767Y006174D02*
X017509Y006174D01*
X017422Y006272D02*
X016668Y006272D01*
X016522Y006469D02*
X017389Y006469D01*
X017389Y006371D02*
X015449Y006371D01*
X015449Y006469D02*
X015796Y006469D01*
X015830Y006455D02*
X016489Y006455D01*
X016654Y006524D01*
X016781Y006650D01*
X016849Y006816D01*
X016849Y006995D01*
X016781Y007160D01*
X016654Y007287D01*
X016489Y007355D01*
X015830Y007355D01*
X015664Y007287D01*
X015538Y007160D01*
X015469Y006995D01*
X015469Y006816D01*
X015538Y006650D01*
X015664Y006524D01*
X015830Y006455D01*
X015620Y006568D02*
X015449Y006568D01*
X015449Y006666D02*
X015531Y006666D01*
X015490Y006765D02*
X015449Y006765D01*
X015449Y006863D02*
X015469Y006863D01*
X015469Y006962D02*
X015449Y006962D01*
X015449Y007060D02*
X015496Y007060D01*
X015537Y007159D02*
X015449Y007159D01*
X015449Y007258D02*
X015635Y007258D01*
X015449Y007356D02*
X017389Y007356D01*
X017389Y007258D02*
X016683Y007258D01*
X016781Y007159D02*
X017389Y007159D01*
X017389Y007060D02*
X016822Y007060D01*
X016849Y006962D02*
X017389Y006962D01*
X017389Y006863D02*
X016849Y006863D01*
X016828Y006765D02*
X017389Y006765D01*
X017389Y006666D02*
X016787Y006666D01*
X016698Y006568D02*
X017389Y006568D01*
X017389Y007455D02*
X015449Y007455D01*
X015467Y007553D02*
X015635Y007553D01*
X015041Y007947D02*
X014749Y007947D01*
X014749Y007849D02*
X014943Y007849D01*
X014885Y007750D02*
X014749Y007750D01*
X014749Y007652D02*
X014869Y007652D01*
X014869Y007553D02*
X014749Y007553D01*
X014749Y007455D02*
X014869Y007455D01*
X014869Y007356D02*
X014737Y007356D01*
X014749Y007368D02*
X014626Y007245D01*
X013692Y007245D01*
X013569Y007368D01*
X013569Y008721D01*
X013059Y008721D01*
X013059Y008669D01*
X012936Y008546D01*
X012132Y008546D01*
X012009Y008669D01*
X012009Y009354D01*
X012116Y009462D01*
X012115Y009463D01*
X012098Y009493D01*
X012089Y009526D01*
X012089Y009749D01*
X012484Y009749D01*
X012484Y009849D01*
X012484Y010185D01*
X012202Y010185D01*
X012169Y010176D01*
X012139Y010159D01*
X012115Y010135D01*
X012098Y010105D01*
X012089Y010072D01*
X012089Y009849D01*
X012484Y009849D01*
X012584Y009849D01*
X012584Y010185D01*
X012866Y010185D01*
X012899Y010176D01*
X012929Y010159D01*
X012953Y010135D01*
X012970Y010105D01*
X012979Y010072D01*
X012979Y009849D01*
X012584Y009849D01*
X012584Y009749D01*
X012979Y009749D01*
X012979Y009526D01*
X012970Y009493D01*
X012953Y009463D01*
X012952Y009462D01*
X013059Y009354D01*
X013059Y009301D01*
X013569Y009301D01*
X013569Y009642D01*
X013692Y009765D01*
X013891Y009765D01*
X013913Y009819D01*
X014163Y010069D01*
X014245Y010151D01*
X014351Y010195D01*
X015573Y010195D01*
X015664Y010287D01*
X015830Y010355D01*
X016489Y010355D01*
X016654Y010287D01*
X016781Y010160D01*
X016849Y009995D01*
X016849Y009816D01*
X016781Y009650D01*
X016654Y009524D01*
X017389Y009524D01*
X017389Y009425D02*
X014749Y009425D01*
X014749Y009327D02*
X015762Y009327D01*
X015830Y009355D02*
X015664Y009287D01*
X015538Y009160D01*
X015469Y008995D01*
X015469Y008816D01*
X015538Y008650D01*
X015664Y008524D01*
X015830Y008455D01*
X016489Y008455D01*
X016654Y008524D01*
X016781Y008650D01*
X016849Y008816D01*
X016849Y008995D01*
X016781Y009160D01*
X016654Y009287D01*
X016489Y009355D01*
X015830Y009355D01*
X015830Y009455D02*
X015664Y009524D01*
X014749Y009524D01*
X014749Y009615D02*
X015573Y009615D01*
X015664Y009524D01*
X015830Y009455D02*
X016489Y009455D01*
X016654Y009524D01*
X016753Y009623D02*
X017389Y009623D01*
X017389Y009721D02*
X016810Y009721D01*
X016849Y009820D02*
X017389Y009820D01*
X017389Y009918D02*
X016849Y009918D01*
X016840Y010017D02*
X017389Y010017D01*
X017389Y010115D02*
X016799Y010115D01*
X016727Y010214D02*
X017389Y010214D01*
X017389Y010312D02*
X016592Y010312D01*
X015726Y010312D02*
X011992Y010312D01*
X012027Y010214D02*
X015591Y010214D01*
X014749Y009615D02*
X014749Y007368D01*
X014638Y007258D02*
X014869Y007258D01*
X014869Y007159D02*
X013462Y007159D01*
X013462Y007258D02*
X013680Y007258D01*
X013581Y007356D02*
X013462Y007356D01*
X013462Y007455D02*
X013569Y007455D01*
X013569Y007553D02*
X013462Y007553D01*
X013462Y007652D02*
X013569Y007652D01*
X013569Y007750D02*
X013462Y007750D01*
X013383Y007849D02*
X013569Y007849D01*
X013569Y007947D02*
X005083Y007947D01*
X004985Y007849D02*
X012608Y007849D01*
X012298Y007750D02*
X012198Y007750D01*
X012198Y007652D02*
X012298Y007652D01*
X012298Y007553D02*
X012198Y007553D01*
X012198Y007455D02*
X012298Y007455D01*
X012197Y007356D02*
X011680Y007356D01*
X011680Y007258D02*
X011862Y007258D01*
X011862Y007159D02*
X011680Y007159D01*
X011680Y007060D02*
X011862Y007060D01*
X011900Y006962D02*
X011680Y006962D01*
X011680Y006863D02*
X012633Y006863D01*
X012298Y006962D02*
X012198Y006962D01*
X012198Y007060D02*
X012298Y007060D01*
X012298Y007159D02*
X012198Y007159D01*
X012198Y007258D02*
X012298Y007258D01*
X011862Y007455D02*
X011680Y007455D01*
X011680Y007553D02*
X011862Y007553D01*
X011862Y007652D02*
X011680Y007652D01*
X011634Y007750D02*
X011880Y007750D01*
X011520Y008520D02*
X011487Y008511D01*
X011048Y008511D01*
X011048Y009064D01*
X011048Y009164D01*
X011600Y009164D01*
X011600Y009603D01*
X011591Y009636D01*
X011574Y009666D01*
X011550Y009690D01*
X011520Y009707D01*
X011487Y009716D01*
X011048Y009716D01*
X011048Y009164D01*
X010948Y009164D01*
X010948Y009716D01*
X010508Y009716D01*
X010475Y009707D01*
X010445Y009690D01*
X010421Y009666D01*
X010404Y009636D01*
X010395Y009603D01*
X010395Y009164D01*
X010947Y009164D01*
X010947Y009064D01*
X010395Y009064D01*
X010395Y008624D01*
X010404Y008591D01*
X010421Y008561D01*
X010445Y008537D01*
X010475Y008520D01*
X010508Y008511D01*
X010948Y008511D01*
X010948Y009064D01*
X011048Y009064D01*
X011600Y009064D01*
X011600Y008624D01*
X011591Y008591D01*
X011574Y008561D01*
X011550Y008537D01*
X011520Y008520D01*
X011551Y008539D02*
X013569Y008539D01*
X013569Y008637D02*
X013028Y008637D01*
X013569Y008440D02*
X006710Y008440D01*
X006710Y008341D02*
X013569Y008341D01*
X013569Y008243D02*
X006673Y008243D01*
X006684Y008254D02*
X006701Y008284D01*
X006710Y008317D01*
X006710Y008757D01*
X006158Y008757D01*
X006158Y008857D01*
X006058Y008857D01*
X006058Y008757D01*
X005505Y008757D01*
X005505Y008317D01*
X005514Y008284D01*
X005531Y008254D01*
X005556Y008230D01*
X005585Y008213D01*
X005618Y008204D01*
X006058Y008204D01*
X006058Y008757D01*
X006158Y008757D01*
X006158Y008204D01*
X006597Y008204D01*
X006630Y008213D01*
X006660Y008230D01*
X006684Y008254D01*
X006710Y008539D02*
X010444Y008539D01*
X010395Y008637D02*
X009380Y008637D01*
X009479Y008736D02*
X010395Y008736D01*
X010395Y008834D02*
X009493Y008834D01*
X009493Y008933D02*
X010395Y008933D01*
X010395Y009031D02*
X009493Y009031D01*
X009493Y009130D02*
X010947Y009130D01*
X010948Y009228D02*
X011048Y009228D01*
X011048Y009130D02*
X012009Y009130D01*
X012009Y009228D02*
X011600Y009228D01*
X011600Y009327D02*
X012009Y009327D01*
X012080Y009425D02*
X011600Y009425D01*
X011600Y009524D02*
X012090Y009524D01*
X012089Y009623D02*
X011595Y009623D01*
X011507Y009820D02*
X009387Y009820D01*
X009298Y009918D02*
X008554Y009918D01*
X008652Y010017D02*
X009229Y010017D01*
X009229Y010115D02*
X008751Y010115D01*
X008850Y010214D02*
X009229Y010214D01*
X009229Y010312D02*
X008913Y010312D01*
X008929Y010411D02*
X009229Y010411D01*
X009229Y010509D02*
X008929Y010509D01*
X008929Y010608D02*
X009229Y010608D01*
X009262Y010707D02*
X008929Y010707D01*
X008929Y010805D02*
X009229Y010805D01*
X009229Y010904D02*
X008929Y010904D01*
X008929Y011002D02*
X009229Y011002D01*
X009229Y011101D02*
X008929Y011101D01*
X008929Y011199D02*
X009229Y011199D01*
X009229Y011298D02*
X008929Y011298D01*
X008929Y011396D02*
X009229Y011396D01*
X009263Y011495D02*
X008929Y011495D01*
X008929Y011593D02*
X009494Y011593D01*
X009494Y011692D02*
X008929Y011692D01*
X008929Y011791D02*
X009494Y011791D01*
X009494Y011889D02*
X008929Y011889D01*
X008929Y011988D02*
X009494Y011988D01*
X009494Y012086D02*
X008929Y012086D01*
X008959Y012185D02*
X009494Y012185D01*
X009494Y012283D02*
X009007Y012283D01*
X009027Y012382D02*
X009494Y012382D01*
X009494Y012480D02*
X009026Y012480D01*
X008986Y012579D02*
X009494Y012579D01*
X009494Y012677D02*
X008907Y012677D01*
X007251Y012677D02*
X007154Y012677D01*
X007154Y012579D02*
X007251Y012579D01*
X007251Y012480D02*
X007154Y012480D01*
X007154Y013170D02*
X007251Y013170D01*
X007251Y013269D02*
X007154Y013269D01*
X006482Y013466D02*
X006449Y013466D01*
X006449Y013564D02*
X006482Y013564D01*
X005869Y013564D02*
X001409Y013564D01*
X001409Y013466D02*
X005869Y013466D01*
X005869Y013367D02*
X005492Y013367D01*
X005532Y013351D02*
X005338Y013431D01*
X005129Y013431D01*
X004936Y013351D01*
X004788Y013203D01*
X004708Y013010D01*
X004708Y012801D01*
X004788Y012607D01*
X004936Y012460D01*
X005129Y012380D01*
X005338Y012380D01*
X005532Y012460D01*
X005679Y012607D01*
X005759Y012801D01*
X005759Y013010D01*
X005679Y013203D01*
X005532Y013351D01*
X005614Y013269D02*
X005869Y013269D01*
X005869Y013170D02*
X005693Y013170D01*
X005734Y013072D02*
X005869Y013072D01*
X005869Y012973D02*
X005759Y012973D01*
X005759Y012874D02*
X005869Y012874D01*
X005869Y012776D02*
X005749Y012776D01*
X005708Y012677D02*
X005869Y012677D01*
X005869Y012579D02*
X005651Y012579D01*
X005552Y012480D02*
X005869Y012480D01*
X005869Y012382D02*
X005344Y012382D01*
X005124Y012382D02*
X001409Y012382D01*
X001409Y012480D02*
X004915Y012480D01*
X004817Y012579D02*
X001409Y012579D01*
X001409Y012677D02*
X004759Y012677D01*
X004718Y012776D02*
X001409Y012776D01*
X001409Y012874D02*
X004708Y012874D01*
X004708Y012973D02*
X001409Y012973D01*
X001409Y013072D02*
X004734Y013072D01*
X004775Y013170D02*
X001409Y013170D01*
X001409Y013269D02*
X004854Y013269D01*
X004976Y013367D02*
X001409Y013367D01*
X001409Y013663D02*
X005869Y013663D01*
X005869Y013761D02*
X001409Y013761D01*
X001409Y013860D02*
X005794Y013860D01*
X005696Y013958D02*
X001409Y013958D01*
X001409Y012283D02*
X005869Y012283D01*
X005779Y012185D02*
X001409Y012185D01*
X001409Y012086D02*
X005680Y012086D01*
X005581Y011988D02*
X001409Y011988D01*
X001409Y011889D02*
X005483Y011889D01*
X005384Y011791D02*
X001409Y011791D01*
X001409Y011692D02*
X005286Y011692D01*
X004892Y011298D02*
X004232Y011298D01*
X004330Y011199D02*
X004793Y011199D01*
X004789Y010615D02*
X004334Y010615D01*
X004212Y010492D01*
X004033Y010418D01*
X003285Y010418D01*
X003106Y010492D01*
X003006Y010592D01*
X002949Y010535D01*
X002949Y009131D01*
X002969Y009181D01*
X003106Y009318D01*
X003285Y009392D01*
X004033Y009392D01*
X004212Y009318D01*
X004334Y009195D01*
X004428Y009195D01*
X004451Y009217D01*
X004586Y009273D01*
X004732Y009273D01*
X004868Y009217D01*
X004889Y009196D01*
X004889Y009334D01*
X004930Y009433D01*
X005006Y009509D01*
X005627Y010130D01*
X005442Y010130D01*
X005319Y010253D01*
X005319Y010365D01*
X005217Y010365D01*
X005101Y010365D01*
X004995Y010409D01*
X004789Y010615D01*
X004796Y010608D02*
X004327Y010608D01*
X004229Y010509D02*
X004895Y010509D01*
X004993Y010411D02*
X002949Y010411D01*
X002949Y010509D02*
X003089Y010509D01*
X002949Y010312D02*
X005319Y010312D01*
X005358Y010214D02*
X004203Y010214D01*
X004195Y010221D02*
X004129Y010266D01*
X004055Y010296D01*
X003976Y010312D01*
X003707Y010312D01*
X003707Y009954D01*
X003611Y009954D01*
X003611Y010312D01*
X003342Y010312D01*
X003264Y010296D01*
X003189Y010266D01*
X003123Y010221D01*
X003066Y010164D01*
X003022Y010098D01*
X002991Y010024D01*
X002977Y009954D01*
X003610Y009954D01*
X003610Y009857D01*
X002977Y009857D01*
X002991Y009786D01*
X003022Y009712D01*
X003066Y009646D01*
X003123Y009589D01*
X003189Y009545D01*
X003264Y009514D01*
X003342Y009498D01*
X003611Y009498D01*
X003611Y009856D01*
X003707Y009856D01*
X003707Y009498D01*
X003976Y009498D01*
X004055Y009514D01*
X004129Y009545D01*
X004195Y009589D01*
X004252Y009646D01*
X004296Y009712D01*
X004327Y009786D01*
X004341Y009857D01*
X003708Y009857D01*
X003708Y009954D01*
X004341Y009954D01*
X004327Y010024D01*
X004296Y010098D01*
X004252Y010164D01*
X004195Y010221D01*
X004285Y010115D02*
X005612Y010115D01*
X005514Y010017D02*
X004329Y010017D01*
X004334Y009820D02*
X005317Y009820D01*
X005415Y009918D02*
X003708Y009918D01*
X003610Y009918D02*
X002949Y009918D01*
X002949Y009820D02*
X002984Y009820D01*
X003018Y009721D02*
X002949Y009721D01*
X002949Y009623D02*
X003089Y009623D01*
X002949Y009524D02*
X003239Y009524D01*
X003128Y009327D02*
X002949Y009327D01*
X002949Y009425D02*
X004927Y009425D01*
X004889Y009327D02*
X004190Y009327D01*
X004301Y009228D02*
X004478Y009228D01*
X004840Y009228D02*
X004889Y009228D01*
X005021Y009524D02*
X004079Y009524D01*
X004229Y009623D02*
X005120Y009623D01*
X005218Y009721D02*
X004300Y009721D01*
X003707Y009721D02*
X003611Y009721D01*
X003611Y009623D02*
X003707Y009623D01*
X003707Y009524D02*
X003611Y009524D01*
X003611Y009820D02*
X003707Y009820D01*
X003707Y010017D02*
X003611Y010017D01*
X003611Y010115D02*
X003707Y010115D01*
X003707Y010214D02*
X003611Y010214D01*
X003116Y010214D02*
X002949Y010214D01*
X002949Y010115D02*
X003033Y010115D01*
X002990Y010017D02*
X002949Y010017D01*
X002949Y009228D02*
X003017Y009228D01*
X002949Y007652D02*
X002960Y007652D01*
X002949Y007553D02*
X003046Y007553D01*
X002949Y007455D02*
X003198Y007455D01*
X003199Y007356D02*
X002949Y007356D01*
X002967Y007258D02*
X003046Y007258D01*
X004119Y007356D02*
X005425Y007356D01*
X005425Y007258D02*
X004272Y007258D01*
X004358Y007159D02*
X005425Y007159D01*
X005425Y007060D02*
X004399Y007060D01*
X004423Y006962D02*
X005425Y006962D01*
X005425Y006863D02*
X004423Y006863D01*
X004405Y006765D02*
X005425Y006765D01*
X005425Y006666D02*
X004364Y006666D01*
X004287Y006568D02*
X005425Y006568D01*
X005425Y006469D02*
X004156Y006469D01*
X003949Y006371D02*
X005425Y006371D01*
X005432Y006272D02*
X003949Y006272D01*
X003746Y005582D02*
X006822Y005582D01*
X006869Y005484D02*
X003648Y005484D01*
X003549Y005385D02*
X006869Y005385D01*
X006869Y005287D02*
X003451Y005287D01*
X003449Y005188D02*
X006869Y005188D01*
X006869Y005090D02*
X006440Y005090D01*
X006435Y005095D02*
X006256Y005169D01*
X006062Y005169D01*
X005883Y005095D01*
X005746Y004958D01*
X005672Y004779D01*
X005672Y004031D01*
X005746Y003852D01*
X005883Y003716D01*
X006062Y003641D01*
X006256Y003641D01*
X006435Y003716D01*
X006572Y003852D01*
X006646Y004031D01*
X006646Y004779D01*
X006572Y004958D01*
X006435Y005095D01*
X006538Y004991D02*
X006780Y004991D01*
X006719Y004892D02*
X006599Y004892D01*
X006640Y004794D02*
X006679Y004794D01*
X006672Y004695D02*
X006646Y004695D01*
X006646Y004597D02*
X006672Y004597D01*
X006672Y004498D02*
X006646Y004498D01*
X006646Y004400D02*
X006672Y004400D01*
X006672Y004301D02*
X006646Y004301D01*
X006646Y004203D02*
X006672Y004203D01*
X006672Y004104D02*
X006646Y004104D01*
X006635Y004006D02*
X006683Y004006D01*
X006724Y003907D02*
X006594Y003907D01*
X006528Y003809D02*
X006790Y003809D01*
X006897Y003710D02*
X006421Y003710D01*
X005897Y003710D02*
X005421Y003710D01*
X005435Y003716D02*
X005572Y003852D01*
X005646Y004031D01*
X005646Y004779D01*
X005572Y004958D01*
X005435Y005095D01*
X005256Y005169D01*
X005062Y005169D01*
X004883Y005095D01*
X004746Y004958D01*
X004672Y004779D01*
X004672Y004031D01*
X004746Y003852D01*
X004883Y003716D01*
X005062Y003641D01*
X005256Y003641D01*
X005435Y003716D01*
X005528Y003809D02*
X005790Y003809D01*
X005724Y003907D02*
X005594Y003907D01*
X005635Y004006D02*
X005683Y004006D01*
X005672Y004104D02*
X005646Y004104D01*
X005646Y004203D02*
X005672Y004203D01*
X005672Y004301D02*
X005646Y004301D01*
X005646Y004400D02*
X005672Y004400D01*
X005672Y004498D02*
X005646Y004498D01*
X005646Y004597D02*
X005672Y004597D01*
X005672Y004695D02*
X005646Y004695D01*
X005640Y004794D02*
X005679Y004794D01*
X005719Y004892D02*
X005599Y004892D01*
X005538Y004991D02*
X005780Y004991D01*
X005878Y005090D02*
X005440Y005090D01*
X004878Y005090D02*
X003449Y005090D01*
X003538Y004991D02*
X003893Y004991D01*
X003900Y004998D02*
X003843Y004941D01*
X003799Y004875D01*
X003768Y004801D01*
X003752Y004722D01*
X003752Y004454D01*
X004110Y004454D01*
X004110Y004357D01*
X003752Y004357D01*
X003752Y004088D01*
X003768Y004010D01*
X003799Y003936D01*
X003843Y003869D01*
X003900Y003812D01*
X003966Y003768D01*
X004040Y003737D01*
X004111Y003723D01*
X004111Y004356D01*
X004207Y004356D01*
X004207Y003723D01*
X004278Y003737D01*
X004352Y003768D01*
X004418Y003812D01*
X004475Y003869D01*
X004520Y003936D01*
X004550Y004010D01*
X004566Y004088D01*
X004566Y004357D01*
X004208Y004357D01*
X004208Y004454D01*
X004566Y004454D01*
X004566Y004722D01*
X004550Y004801D01*
X004520Y004875D01*
X004475Y004941D01*
X004418Y004998D01*
X004352Y005042D01*
X004278Y005073D01*
X004207Y005087D01*
X004207Y004454D01*
X004111Y004454D01*
X004111Y005087D01*
X004040Y005073D01*
X003966Y005042D01*
X003900Y004998D01*
X003810Y004892D02*
X003599Y004892D01*
X003640Y004794D02*
X003767Y004794D01*
X003752Y004695D02*
X003646Y004695D01*
X003646Y004597D02*
X003752Y004597D01*
X003752Y004498D02*
X003646Y004498D01*
X003646Y004400D02*
X004110Y004400D01*
X004208Y004400D02*
X004672Y004400D01*
X004672Y004498D02*
X004566Y004498D01*
X004566Y004597D02*
X004672Y004597D01*
X004672Y004695D02*
X004566Y004695D01*
X004552Y004794D02*
X004679Y004794D01*
X004719Y004892D02*
X004508Y004892D01*
X004425Y004991D02*
X004780Y004991D01*
X004207Y004991D02*
X004111Y004991D01*
X004111Y004892D02*
X004207Y004892D01*
X004207Y004794D02*
X004111Y004794D01*
X004111Y004695D02*
X004207Y004695D01*
X004207Y004597D02*
X004111Y004597D01*
X004111Y004498D02*
X004207Y004498D01*
X004207Y004301D02*
X004111Y004301D01*
X004111Y004203D02*
X004207Y004203D01*
X004207Y004104D02*
X004111Y004104D01*
X004111Y004006D02*
X004207Y004006D01*
X004207Y003907D02*
X004111Y003907D01*
X004111Y003809D02*
X004207Y003809D01*
X004413Y003809D02*
X004790Y003809D01*
X004724Y003907D02*
X004501Y003907D01*
X004549Y004006D02*
X004683Y004006D01*
X004672Y004104D02*
X004566Y004104D01*
X004566Y004203D02*
X004672Y004203D01*
X004672Y004301D02*
X004566Y004301D01*
X004897Y003710D02*
X003421Y003710D01*
X003528Y003809D02*
X003905Y003809D01*
X003818Y003907D02*
X003594Y003907D01*
X003635Y004006D02*
X003769Y004006D01*
X003752Y004104D02*
X003646Y004104D01*
X003646Y004203D02*
X003752Y004203D01*
X003752Y004301D02*
X003646Y004301D01*
X002402Y002922D02*
X008094Y002922D01*
X008094Y003020D02*
X001409Y003020D01*
X001409Y002922D02*
X001916Y002922D01*
X001694Y002823D02*
X001409Y002823D01*
X001409Y002725D02*
X001595Y002725D01*
X001497Y002626D02*
X001409Y002626D01*
X001409Y002527D02*
X001446Y002527D01*
X001409Y003119D02*
X008121Y003119D01*
X008166Y003217D02*
X001409Y003217D01*
X001409Y003316D02*
X008265Y003316D01*
X008488Y003710D02*
X007421Y003710D01*
X007528Y003809D02*
X008488Y003809D01*
X008488Y003907D02*
X007594Y003907D01*
X007635Y004006D02*
X008488Y004006D01*
X008488Y004104D02*
X007646Y004104D01*
X007646Y004203D02*
X008488Y004203D01*
X008488Y004301D02*
X007646Y004301D01*
X007646Y004400D02*
X008488Y004400D01*
X008488Y004498D02*
X007646Y004498D01*
X007646Y004597D02*
X008488Y004597D01*
X008554Y004695D02*
X007646Y004695D01*
X007640Y004794D02*
X008619Y004794D01*
X008619Y004892D02*
X007599Y004892D01*
X007538Y004991D02*
X008619Y004991D01*
X008619Y005090D02*
X007449Y005090D01*
X007449Y005188D02*
X008619Y005188D01*
X008619Y005287D02*
X007449Y005287D01*
X007449Y005385D02*
X008619Y005385D01*
X008619Y005484D02*
X007449Y005484D01*
X007496Y005582D02*
X008619Y005582D01*
X008634Y005681D02*
X008470Y005681D01*
X008568Y005779D02*
X008691Y005779D01*
X008667Y005878D02*
X008790Y005878D01*
X008766Y005976D02*
X008888Y005976D01*
X008815Y006075D02*
X008987Y006075D01*
X008952Y006174D02*
X009034Y006174D01*
X009610Y005878D02*
X011819Y005878D01*
X011819Y005976D02*
X009697Y005976D01*
X009733Y006075D02*
X011079Y006075D01*
X010980Y006174D02*
X009852Y006174D01*
X009948Y006272D02*
X010882Y006272D01*
X010783Y006371D02*
X009948Y006371D01*
X009956Y006469D02*
X010432Y006469D01*
X010333Y006568D02*
X010107Y006568D01*
X010205Y006666D02*
X010315Y006666D01*
X010304Y006765D02*
X010315Y006765D01*
X009976Y007258D02*
X009924Y007258D01*
X009826Y007356D02*
X010075Y007356D01*
X010315Y007455D02*
X006733Y007455D01*
X006790Y007356D02*
X008160Y007356D01*
X008062Y007258D02*
X008006Y007258D01*
X007693Y007258D02*
X007593Y007258D01*
X007593Y007159D02*
X007693Y007159D01*
X007693Y007060D02*
X007593Y007060D01*
X007593Y006962D02*
X007693Y006962D01*
X007693Y006863D02*
X007593Y006863D01*
X007593Y006765D02*
X006790Y006765D01*
X006790Y006863D02*
X007218Y006863D01*
X007218Y006962D02*
X006790Y006962D01*
X006790Y007060D02*
X007218Y007060D01*
X007218Y007159D02*
X006790Y007159D01*
X006790Y007258D02*
X007280Y007258D01*
X007218Y006666D02*
X006790Y006666D01*
X006790Y006568D02*
X007218Y006568D01*
X007218Y006469D02*
X006790Y006469D01*
X006790Y006371D02*
X007218Y006371D01*
X007249Y006272D02*
X006784Y006272D01*
X007019Y006174D02*
X007299Y006174D01*
X007169Y006075D02*
X007149Y006075D01*
X007593Y006272D02*
X007693Y006272D01*
X007693Y006371D02*
X007593Y006371D01*
X007593Y006469D02*
X007693Y006469D01*
X007693Y006568D02*
X007593Y006568D01*
X007593Y006666D02*
X007693Y006666D01*
X008037Y006272D02*
X008038Y006272D01*
X008534Y006743D02*
X008543Y006752D01*
X008926Y007356D02*
X009060Y007356D01*
X010315Y007553D02*
X004272Y007553D01*
X004120Y007455D02*
X005482Y007455D01*
X004886Y007750D02*
X010361Y007750D01*
X010315Y007652D02*
X004753Y007652D01*
X005182Y008046D02*
X013569Y008046D01*
X013569Y008144D02*
X005280Y008144D01*
X005379Y008243D02*
X005543Y008243D01*
X005505Y008341D02*
X005425Y008341D01*
X005429Y008440D02*
X005505Y008440D01*
X005505Y008539D02*
X005429Y008539D01*
X005429Y008637D02*
X005505Y008637D01*
X005505Y008736D02*
X005429Y008736D01*
X005429Y008834D02*
X006058Y008834D01*
X006058Y008736D02*
X006158Y008736D01*
X006158Y008834D02*
X007573Y008834D01*
X007573Y008933D02*
X006710Y008933D01*
X006710Y008857D02*
X006710Y009296D01*
X006701Y009329D01*
X006684Y009359D01*
X006660Y009383D01*
X006630Y009400D01*
X006597Y009409D01*
X006158Y009409D01*
X006158Y008857D01*
X006710Y008857D01*
X006710Y008736D02*
X007587Y008736D01*
X007686Y008637D02*
X006710Y008637D01*
X006710Y009031D02*
X007573Y009031D01*
X007573Y009130D02*
X006710Y009130D01*
X006710Y009228D02*
X007573Y009228D01*
X007573Y009327D02*
X006702Y009327D01*
X006158Y009327D02*
X006058Y009327D01*
X006058Y009228D02*
X006158Y009228D01*
X006158Y009130D02*
X006058Y009130D01*
X006058Y009031D02*
X006158Y009031D01*
X006158Y008933D02*
X006058Y008933D01*
X005505Y008933D02*
X005429Y008933D01*
X005429Y009031D02*
X005505Y009031D01*
X005505Y009130D02*
X005429Y009130D01*
X005489Y009228D02*
X005505Y009228D01*
X005686Y009425D02*
X007573Y009425D01*
X007573Y009524D02*
X005785Y009524D01*
X005883Y009623D02*
X007573Y009623D01*
X007581Y009721D02*
X005982Y009721D01*
X006533Y010655D02*
X007246Y010655D01*
X007692Y010608D02*
X008022Y010608D01*
X008022Y010705D02*
X007706Y010705D01*
X007706Y010908D01*
X007715Y010941D01*
X007732Y010971D01*
X007756Y010995D01*
X007786Y011012D01*
X007819Y011021D01*
X008022Y011021D01*
X008022Y010705D01*
X008022Y010707D02*
X008122Y010707D01*
X008122Y010805D02*
X008022Y010805D01*
X008022Y010904D02*
X008122Y010904D01*
X008122Y011002D02*
X008022Y011002D01*
X007768Y011002D02*
X007668Y011002D01*
X007692Y010904D02*
X007706Y010904D01*
X007692Y010805D02*
X007706Y010805D01*
X007692Y010707D02*
X007706Y010707D01*
X007692Y010509D02*
X007706Y010509D01*
X007692Y010411D02*
X007706Y010411D01*
X007672Y010312D02*
X007761Y010312D01*
X007569Y011101D02*
X008389Y011101D01*
X008377Y011002D02*
X008389Y011002D01*
X009486Y009721D02*
X012089Y009721D01*
X012089Y009918D02*
X011943Y009918D01*
X012000Y010017D02*
X012089Y010017D01*
X012104Y010115D02*
X012027Y010115D01*
X011811Y009820D02*
X012484Y009820D01*
X012484Y009918D02*
X012584Y009918D01*
X012584Y009820D02*
X013913Y009820D01*
X014012Y009918D02*
X012979Y009918D01*
X012979Y010017D02*
X014111Y010017D01*
X014209Y010115D02*
X012964Y010115D01*
X012584Y010115D02*
X012484Y010115D01*
X012484Y010017D02*
X012584Y010017D01*
X012979Y009721D02*
X013648Y009721D01*
X013569Y009623D02*
X012979Y009623D01*
X012979Y009524D02*
X013569Y009524D01*
X013569Y009425D02*
X012988Y009425D01*
X013059Y009327D02*
X013569Y009327D01*
X014749Y009228D02*
X015606Y009228D01*
X015525Y009130D02*
X014749Y009130D01*
X014749Y009031D02*
X015484Y009031D01*
X015469Y008933D02*
X014749Y008933D01*
X014749Y008834D02*
X015469Y008834D01*
X015502Y008736D02*
X014749Y008736D01*
X014749Y008637D02*
X015551Y008637D01*
X015649Y008539D02*
X014749Y008539D01*
X014749Y008440D02*
X017389Y008440D01*
X017389Y008341D02*
X016521Y008341D01*
X016698Y008243D02*
X017389Y008243D01*
X017389Y008144D02*
X016787Y008144D01*
X016828Y008046D02*
X017389Y008046D01*
X017389Y007947D02*
X016849Y007947D01*
X016849Y007849D02*
X017389Y007849D01*
X017389Y007750D02*
X016822Y007750D01*
X016781Y007652D02*
X017389Y007652D01*
X017389Y007553D02*
X016683Y007553D01*
X015797Y008341D02*
X014749Y008341D01*
X014749Y008243D02*
X015621Y008243D01*
X015238Y008144D02*
X014749Y008144D01*
X014749Y008046D02*
X015140Y008046D01*
X014869Y007060D02*
X013462Y007060D01*
X013457Y006962D02*
X013945Y006962D01*
X013847Y006863D02*
X013358Y006863D01*
X013416Y006765D02*
X013806Y006765D01*
X013760Y006666D02*
X013499Y006666D01*
X013033Y006280D02*
X012996Y006318D01*
X012666Y005779D02*
X012652Y005779D01*
X011918Y005779D02*
X011631Y005779D01*
X010808Y005779D02*
X010135Y005779D01*
X010209Y005681D02*
X010734Y005681D01*
X010734Y005582D02*
X010209Y005582D01*
X010209Y005484D02*
X010734Y005484D01*
X010734Y005385D02*
X010589Y005385D01*
X010688Y005287D02*
X010734Y005287D01*
X010360Y004794D02*
X009199Y004794D01*
X009199Y004892D02*
X009325Y004892D01*
X009238Y004991D02*
X009199Y004991D01*
X009199Y005090D02*
X009238Y005090D01*
X009238Y005188D02*
X009199Y005188D01*
X009199Y005287D02*
X009238Y005287D01*
X009238Y005385D02*
X009199Y005385D01*
X009216Y005484D02*
X009238Y005484D01*
X009315Y004695D02*
X009538Y004695D01*
X009473Y004597D02*
X009381Y004597D01*
X009381Y004498D02*
X009473Y004498D01*
X009473Y004400D02*
X009381Y004400D01*
X009381Y003710D02*
X009473Y003710D01*
X009473Y003611D02*
X009381Y003611D01*
X009381Y003513D02*
X009473Y003513D01*
X009530Y003414D02*
X009324Y003414D01*
X010308Y003414D02*
X010514Y003414D01*
X010457Y003513D02*
X010365Y003513D01*
X010365Y003611D02*
X010457Y003611D01*
X010457Y003710D02*
X010365Y003710D01*
X010365Y003809D02*
X010457Y003809D01*
X010457Y003907D02*
X010365Y003907D01*
X010365Y004006D02*
X010457Y004006D01*
X010457Y004104D02*
X010365Y004104D01*
X010365Y004203D02*
X010457Y004203D01*
X010457Y004301D02*
X010365Y004301D01*
X010365Y004400D02*
X010457Y004400D01*
X010457Y004498D02*
X010365Y004498D01*
X010365Y004597D02*
X010457Y004597D01*
X010459Y004695D02*
X010300Y004695D01*
X011680Y006666D02*
X011819Y006666D01*
X011902Y006765D02*
X011680Y006765D01*
X011600Y008637D02*
X012040Y008637D01*
X012009Y008736D02*
X011600Y008736D01*
X011600Y008834D02*
X012009Y008834D01*
X012009Y008933D02*
X011600Y008933D01*
X011600Y009031D02*
X012009Y009031D01*
X011048Y009031D02*
X010948Y009031D01*
X010948Y008933D02*
X011048Y008933D01*
X011048Y008834D02*
X010948Y008834D01*
X010948Y008736D02*
X011048Y008736D01*
X011048Y008637D02*
X010948Y008637D01*
X010948Y008539D02*
X011048Y008539D01*
X011048Y009327D02*
X010948Y009327D01*
X010948Y009425D02*
X011048Y009425D01*
X011048Y009524D02*
X010948Y009524D01*
X010948Y009623D02*
X011048Y009623D01*
X011189Y009918D02*
X011375Y009918D01*
X011318Y010017D02*
X011288Y010017D01*
X010784Y010355D02*
X010759Y010330D01*
X010379Y009918D02*
X010209Y009918D01*
X010278Y010017D02*
X010280Y010017D01*
X010400Y009623D02*
X009493Y009623D01*
X009493Y009524D02*
X010395Y009524D01*
X010395Y009425D02*
X009493Y009425D01*
X009493Y009327D02*
X010395Y009327D01*
X010395Y009228D02*
X009493Y009228D01*
X011650Y011199D02*
X012089Y011199D01*
X011504Y013663D02*
X013798Y013663D01*
X013734Y013761D02*
X011633Y013761D01*
X011732Y013860D02*
X013734Y013860D01*
X013734Y013958D02*
X011830Y013958D01*
X013106Y015338D02*
X013816Y015338D01*
X014159Y014780D02*
X014160Y014780D01*
X014159Y014779D01*
X014581Y014353D02*
X014639Y014353D01*
X014639Y014254D02*
X014584Y014254D01*
X014584Y014156D02*
X014639Y014156D01*
X014209Y013860D02*
X014109Y013860D01*
X014109Y013761D02*
X014209Y013761D01*
X014209Y013663D02*
X014109Y013663D01*
X015152Y014648D02*
X015539Y014648D01*
X015498Y014747D02*
X015074Y014747D01*
X014976Y014845D02*
X015469Y014845D01*
X015469Y014944D02*
X014877Y014944D01*
X014731Y015042D02*
X015489Y015042D01*
X015530Y015141D02*
X014645Y015141D01*
X014547Y015240D02*
X015617Y015240D01*
X015788Y015338D02*
X014502Y015338D01*
X012909Y015655D02*
X012909Y015655D01*
X008728Y018984D02*
X008194Y018984D01*
X008484Y019378D02*
X008714Y019378D01*
X008714Y019477D02*
X008484Y019477D01*
X008572Y019575D02*
X008715Y019575D01*
X007624Y018590D02*
X003999Y018590D01*
X003999Y018491D02*
X007584Y018491D01*
X007584Y018393D02*
X003999Y018393D01*
X003999Y018294D02*
X007593Y018294D01*
X007634Y018196D02*
X003999Y018196D01*
X003999Y018097D02*
X007705Y018097D01*
X007839Y017999D02*
X003975Y017999D01*
X003534Y018404D02*
X003533Y018405D01*
X003190Y017900D02*
X003128Y017900D01*
X002785Y018405D02*
X002746Y018444D01*
X002417Y018886D02*
X002395Y018886D01*
X001409Y020561D02*
X029468Y020561D01*
X029468Y020659D02*
X001409Y020659D01*
X005008Y020364D02*
X026776Y020364D01*
X026636Y020265D02*
X005209Y020265D01*
X003913Y015929D02*
X003824Y015929D01*
X003824Y015831D02*
X003833Y015831D01*
X006058Y008637D02*
X006158Y008637D01*
X006158Y008539D02*
X006058Y008539D01*
X006058Y008440D02*
X006158Y008440D01*
X006158Y008341D02*
X006058Y008341D01*
X006058Y008243D02*
X006158Y008243D01*
X006147Y005779D02*
X006068Y005779D01*
X005970Y005681D02*
X006246Y005681D01*
X008119Y002823D02*
X002624Y002823D01*
X002723Y002725D02*
X008161Y002725D01*
X013978Y004301D02*
X014487Y004301D01*
X014354Y004203D02*
X014074Y004203D01*
X014115Y004104D02*
X014290Y004104D01*
X014259Y004006D02*
X014146Y004006D01*
X014146Y003907D02*
X014252Y003907D01*
X014252Y003809D02*
X014146Y003809D01*
X014146Y003710D02*
X014252Y003710D01*
X015059Y004006D02*
X016289Y004006D01*
X016289Y004058D02*
X016289Y003935D01*
X016629Y003935D01*
X016629Y004275D01*
X016506Y004275D01*
X016289Y004058D01*
X016335Y004104D02*
X015028Y004104D01*
X014964Y004203D02*
X016433Y004203D01*
X016629Y004203D02*
X016689Y004203D01*
X016689Y004104D02*
X016629Y004104D01*
X016629Y004006D02*
X016689Y004006D01*
X016885Y004203D02*
X017320Y004203D01*
X017222Y004104D02*
X016983Y004104D01*
X017029Y004006D02*
X017209Y004006D01*
X017582Y004892D02*
X017736Y004892D01*
X017835Y004991D02*
X017483Y004991D01*
X015469Y005878D02*
X015449Y005878D01*
X015449Y005976D02*
X015469Y005976D01*
X015449Y006075D02*
X015502Y006075D01*
X015551Y006174D02*
X015449Y006174D01*
X015449Y006272D02*
X015650Y006272D01*
X014869Y006272D02*
X014186Y006272D01*
X014088Y006174D02*
X014869Y006174D01*
X014869Y006075D02*
X013989Y006075D01*
X014395Y006371D02*
X014869Y006371D01*
X014869Y006469D02*
X014480Y006469D01*
X014521Y006568D02*
X014869Y006568D01*
X014869Y006666D02*
X014527Y006666D01*
X014512Y006765D02*
X014869Y006765D01*
X014869Y006863D02*
X014471Y006863D01*
X014373Y006962D02*
X014869Y006962D01*
X016669Y008539D02*
X017389Y008539D01*
X017389Y008637D02*
X016767Y008637D01*
X016816Y008736D02*
X017389Y008736D01*
X017389Y008834D02*
X016849Y008834D01*
X016849Y008933D02*
X017389Y008933D01*
X017389Y009031D02*
X016834Y009031D01*
X016793Y009130D02*
X017389Y009130D01*
X017389Y009228D02*
X016712Y009228D01*
X016557Y009327D02*
X017389Y009327D01*
X017929Y009228D02*
X017976Y009228D01*
X016189Y011593D02*
X016129Y011593D01*
X016129Y011692D02*
X016189Y011692D01*
X016189Y011791D02*
X016129Y011791D01*
X019129Y012579D02*
X019189Y012579D01*
X019189Y012677D02*
X019129Y012677D01*
X019129Y012776D02*
X019189Y012776D01*
X019189Y012874D02*
X019129Y012874D01*
X019764Y015634D02*
X022779Y015634D01*
X022779Y015732D02*
X019814Y015732D01*
X019849Y015831D02*
X022779Y015831D01*
X022779Y015929D02*
X019849Y015929D01*
X019835Y016028D02*
X022727Y016028D01*
X022353Y016126D02*
X019794Y016126D01*
X019716Y016225D02*
X022268Y016225D01*
X022927Y017013D02*
X023171Y017013D01*
X023909Y016746D02*
X023915Y016752D01*
X024347Y016593D02*
X024348Y016594D01*
X025031Y017112D02*
X026889Y017112D01*
X026889Y014254D02*
X025168Y014254D01*
X025064Y014156D02*
X026889Y014156D01*
X026889Y014057D02*
X023281Y014057D01*
X025659Y005405D02*
X026159Y004905D01*
X026659Y003405D02*
X026649Y003395D01*
D43*
X026659Y003405D03*
X023409Y005405D03*
X023722Y005905D03*
X024159Y006780D03*
X023284Y008655D03*
X023472Y009343D03*
X024034Y009530D03*
X024472Y010905D03*
X027159Y010655D03*
X023159Y014405D03*
X023722Y014905D03*
X024347Y014905D03*
X024034Y015468D03*
X021722Y008655D03*
X021722Y007343D03*
X014159Y006655D03*
X011659Y010155D03*
X008659Y012405D03*
X009659Y013905D03*
X008659Y015405D03*
X011159Y016905D03*
X012409Y017530D03*
X012909Y015655D03*
X013409Y019405D03*
X011159Y019530D03*
X005659Y019405D03*
X004159Y015655D03*
X004659Y008905D03*
M02*
