G75*
G70*
%OFA0B0*%
%FSLAX24Y24*%
%IPPOS*%
%LPD*%
%AMOC8*
5,1,8,0,0,1.08239X$1,22.5*
%
%ADD10OC8,0.0740*%
%ADD11C,0.0480*%
%ADD12C,0.0480*%
%ADD13OC8,0.0480*%
%ADD14C,0.0554*%
%ADD15R,0.0630X0.0460*%
%ADD16C,0.0316*%
%ADD17C,0.0100*%
%ADD18C,0.0120*%
%ADD19C,0.0160*%
D10*
X025159Y004905D03*
X026159Y004905D03*
X026159Y005905D03*
X025159Y005905D03*
X025159Y006905D03*
X026159Y006905D03*
D11*
X019399Y006905D02*
X018919Y006905D01*
X018919Y005905D02*
X019399Y005905D01*
X019399Y007905D02*
X018919Y007905D01*
X018919Y008905D02*
X019399Y008905D01*
X019399Y009905D02*
X018919Y009905D01*
X018919Y010905D02*
X019399Y010905D01*
X019399Y011905D02*
X018919Y011905D01*
X018919Y012905D02*
X019399Y012905D01*
X019399Y013905D02*
X018919Y013905D01*
X018919Y014905D02*
X019399Y014905D01*
X019399Y015905D02*
X018919Y015905D01*
X018919Y016905D02*
X019399Y016905D01*
X019399Y017905D02*
X018919Y017905D01*
X018919Y018905D02*
X019399Y018905D01*
X016399Y018905D02*
X015919Y018905D01*
X015919Y017905D02*
X016399Y017905D01*
X016399Y016905D02*
X015919Y016905D01*
X015919Y015905D02*
X016399Y015905D01*
X016399Y014905D02*
X015919Y014905D01*
X015919Y013905D02*
X016399Y013905D01*
X016399Y012905D02*
X015919Y012905D01*
X015919Y011905D02*
X016399Y011905D01*
X016399Y010905D02*
X015919Y010905D01*
X015919Y009905D02*
X016399Y009905D01*
X016399Y008905D02*
X015919Y008905D01*
X015919Y007905D02*
X016399Y007905D01*
X016399Y006905D02*
X015919Y006905D01*
X015919Y005905D02*
X016399Y005905D01*
D12*
X008034Y018405D03*
X008034Y019405D03*
D13*
X016659Y003905D03*
X017659Y003905D03*
X018659Y003905D03*
D14*
X014659Y003932D02*
X014659Y003378D01*
X013659Y003378D02*
X013659Y003932D01*
X007159Y004128D02*
X007159Y004682D01*
X006159Y004682D02*
X006159Y004128D01*
X005159Y004128D02*
X005159Y004682D01*
X004159Y004682D02*
X004159Y004128D01*
X003159Y004128D02*
X003159Y004682D01*
X003382Y006905D02*
X003936Y006905D01*
X003936Y007905D02*
X003382Y007905D01*
X003382Y008905D02*
X003936Y008905D01*
X003936Y009905D02*
X003382Y009905D01*
X003382Y010905D02*
X003936Y010905D01*
D15*
X003659Y012355D03*
X003659Y012955D03*
D16*
X004159Y015655D03*
X008659Y015405D03*
X009659Y013905D03*
X008659Y012405D03*
X011659Y010155D03*
X014159Y006655D03*
X021722Y007343D03*
X021722Y008655D03*
X023284Y008655D03*
X023472Y009343D03*
X024034Y009530D03*
X024472Y010905D03*
X027159Y010655D03*
X024159Y006780D03*
X023722Y005905D03*
X023409Y005405D03*
X026659Y003405D03*
X023159Y014405D03*
X023722Y014905D03*
X024347Y014905D03*
X024034Y015468D03*
X013409Y019405D03*
X012409Y017530D03*
X011159Y016905D03*
X012909Y015655D03*
X011159Y019530D03*
X005659Y019405D03*
X004659Y008905D03*
D17*
X002838Y001701D02*
X002617Y001480D01*
X026701Y001480D01*
X026480Y001701D01*
X026358Y001996D01*
X026358Y002314D01*
X026480Y002609D01*
X026705Y002834D01*
X027000Y002956D01*
X027318Y002956D01*
X027613Y002834D01*
X027838Y002609D01*
X027960Y002314D01*
X027960Y001996D01*
X027838Y001701D01*
X027617Y001480D01*
X029468Y001480D01*
X029468Y020665D01*
X001409Y020665D01*
X001409Y019938D01*
X001480Y020109D01*
X001705Y020334D01*
X002000Y020456D01*
X002318Y020456D01*
X002613Y020334D01*
X002838Y020109D01*
X002960Y019814D01*
X002960Y019496D01*
X002838Y019201D01*
X002613Y018976D01*
X002318Y018854D01*
X002000Y018854D01*
X001705Y018976D01*
X001480Y019201D01*
X001409Y019372D01*
X001409Y002438D01*
X001480Y002609D01*
X001705Y002834D01*
X002000Y002956D01*
X002318Y002956D01*
X002613Y002834D01*
X002838Y002609D01*
X002960Y002314D01*
X002960Y001996D01*
X002838Y001701D01*
X002854Y001739D02*
X026464Y001739D01*
X026423Y001838D02*
X002895Y001838D01*
X002936Y001936D02*
X026383Y001936D01*
X026358Y002035D02*
X002960Y002035D01*
X002960Y002133D02*
X026358Y002133D01*
X026358Y002232D02*
X002960Y002232D01*
X002954Y002330D02*
X026364Y002330D01*
X026405Y002429D02*
X002913Y002429D01*
X002872Y002527D02*
X026446Y002527D01*
X026497Y002626D02*
X011578Y002626D01*
X011558Y002606D02*
X011679Y002726D01*
X011744Y002883D01*
X011744Y003053D01*
X011679Y003210D01*
X011558Y003330D01*
X011401Y003395D01*
X011232Y003395D01*
X011075Y003330D01*
X010954Y003210D01*
X010889Y003053D01*
X010889Y002883D01*
X010954Y002726D01*
X011075Y002606D01*
X011232Y002541D01*
X011401Y002541D01*
X011558Y002606D01*
X011677Y002725D02*
X026595Y002725D01*
X026694Y002823D02*
X011719Y002823D01*
X011744Y002922D02*
X013489Y002922D01*
X013562Y002891D02*
X013383Y002966D01*
X013246Y003102D01*
X013172Y003281D01*
X013172Y004029D01*
X013246Y004208D01*
X013383Y004345D01*
X013562Y004419D01*
X013756Y004419D01*
X013935Y004345D01*
X014072Y004208D01*
X014146Y004029D01*
X014146Y003281D01*
X014072Y003102D01*
X013935Y002966D01*
X013756Y002891D01*
X013562Y002891D01*
X013329Y003020D02*
X011744Y003020D01*
X011716Y003119D02*
X013240Y003119D01*
X013199Y003217D02*
X011671Y003217D01*
X011573Y003316D02*
X013172Y003316D01*
X013172Y003414D02*
X001409Y003414D01*
X001409Y003316D02*
X008265Y003316D01*
X008279Y003330D02*
X008159Y003210D01*
X008094Y003053D01*
X008094Y002883D01*
X008159Y002726D01*
X008279Y002606D01*
X008436Y002541D01*
X008606Y002541D01*
X008763Y002606D01*
X008883Y002726D01*
X008948Y002883D01*
X008948Y003053D01*
X008883Y003210D01*
X008763Y003330D01*
X008606Y003395D01*
X008436Y003395D01*
X008279Y003330D01*
X008166Y003217D02*
X001409Y003217D01*
X001409Y003119D02*
X008121Y003119D01*
X008094Y003020D02*
X001409Y003020D01*
X001409Y002922D02*
X001916Y002922D01*
X001694Y002823D02*
X001409Y002823D01*
X001409Y002725D02*
X001595Y002725D01*
X001497Y002626D02*
X001409Y002626D01*
X001409Y002527D02*
X001446Y002527D01*
X002402Y002922D02*
X008094Y002922D01*
X008119Y002823D02*
X002624Y002823D01*
X002723Y002725D02*
X008161Y002725D01*
X008259Y002626D02*
X002821Y002626D01*
X002777Y001641D02*
X026541Y001641D01*
X026639Y001542D02*
X002679Y001542D01*
X001409Y003513D02*
X013172Y003513D01*
X013172Y003611D02*
X001409Y003611D01*
X001409Y003710D02*
X002897Y003710D01*
X002883Y003716D02*
X003062Y003641D01*
X003256Y003641D01*
X003435Y003716D01*
X003572Y003852D01*
X003646Y004031D01*
X003646Y004779D01*
X003572Y004958D01*
X003435Y005095D01*
X003256Y005169D01*
X003062Y005169D01*
X002883Y005095D01*
X002746Y004958D01*
X002672Y004779D01*
X002672Y004031D01*
X002746Y003852D01*
X002883Y003716D01*
X002790Y003809D02*
X001409Y003809D01*
X001409Y003907D02*
X002724Y003907D01*
X002683Y004006D02*
X001409Y004006D01*
X001409Y004104D02*
X002672Y004104D01*
X002672Y004203D02*
X001409Y004203D01*
X001409Y004301D02*
X002672Y004301D01*
X002672Y004400D02*
X001409Y004400D01*
X001409Y004498D02*
X002672Y004498D01*
X002672Y004597D02*
X001409Y004597D01*
X001409Y004695D02*
X002672Y004695D01*
X002679Y004794D02*
X001409Y004794D01*
X001409Y004892D02*
X002719Y004892D01*
X002780Y004991D02*
X001409Y004991D01*
X001409Y005090D02*
X002878Y005090D01*
X003440Y005090D02*
X004869Y005090D01*
X004869Y005080D02*
X004746Y004958D01*
X004672Y004779D01*
X004672Y004031D01*
X004746Y003852D01*
X004883Y003716D01*
X005062Y003641D01*
X005256Y003641D01*
X005435Y003716D01*
X005572Y003852D01*
X005646Y004031D01*
X005646Y004779D01*
X005572Y004958D01*
X005449Y005080D01*
X005449Y006785D01*
X005869Y007205D01*
X005869Y005080D01*
X005746Y004958D01*
X005672Y004779D01*
X005672Y004031D01*
X005746Y003852D01*
X005883Y003716D01*
X006062Y003641D01*
X006256Y003641D01*
X006435Y003716D01*
X006572Y003852D01*
X006646Y004031D01*
X006646Y004779D01*
X006572Y004958D01*
X006449Y005080D01*
X006449Y007035D01*
X013529Y014115D01*
X015519Y014115D01*
X015469Y013995D01*
X015469Y013816D01*
X015519Y013695D01*
X014351Y013695D01*
X014245Y013651D01*
X014163Y013569D01*
X013913Y013319D01*
X013869Y013213D01*
X013869Y013097D01*
X013869Y006886D01*
X013847Y006864D01*
X013791Y006728D01*
X013791Y006582D01*
X013847Y006447D01*
X013951Y006343D01*
X014086Y006287D01*
X014232Y006287D01*
X014368Y006343D01*
X014471Y006447D01*
X014527Y006582D01*
X014527Y006728D01*
X014471Y006864D01*
X014449Y006886D01*
X014449Y013035D01*
X014529Y013115D01*
X015519Y013115D01*
X015469Y012995D01*
X015469Y012816D01*
X015538Y012650D01*
X015664Y012524D01*
X015830Y012455D01*
X016489Y012455D01*
X016654Y012524D01*
X016745Y012615D01*
X017039Y012615D01*
X017369Y012285D01*
X017369Y011463D01*
X017369Y011347D01*
X017413Y011241D01*
X017913Y010741D01*
X017913Y010741D01*
X017995Y010659D01*
X018101Y010615D01*
X018573Y010615D01*
X018664Y010524D01*
X018830Y010455D01*
X019489Y010455D01*
X019654Y010524D01*
X019765Y010635D01*
X021422Y010635D01*
X021452Y010606D01*
X021452Y008906D01*
X021409Y008864D01*
X021353Y008728D01*
X021353Y008582D01*
X021409Y008447D01*
X021513Y008343D01*
X021648Y008287D01*
X021680Y008287D01*
X022369Y007597D01*
X022369Y005347D01*
X022413Y005241D01*
X022495Y005159D01*
X022995Y004659D01*
X023101Y004615D01*
X023217Y004615D01*
X024629Y004615D01*
X024674Y004570D01*
X022904Y004570D01*
X022573Y004901D01*
X022467Y004945D01*
X022351Y004945D01*
X016029Y004945D01*
X015449Y005525D01*
X015449Y006535D01*
X015529Y006615D01*
X015573Y006615D01*
X015664Y006524D01*
X015830Y006455D01*
X016489Y006455D01*
X016654Y006524D01*
X016781Y006650D01*
X016849Y006816D01*
X016849Y006995D01*
X016781Y007160D01*
X016654Y007287D01*
X016489Y007355D01*
X015830Y007355D01*
X015664Y007287D01*
X015573Y007195D01*
X015467Y007195D01*
X015351Y007195D01*
X015245Y007151D01*
X014995Y006901D01*
X014913Y006819D01*
X014869Y006713D01*
X014869Y005463D01*
X014869Y005347D01*
X014894Y005288D01*
X014056Y006126D01*
X013961Y006165D01*
X013857Y006165D01*
X012017Y006165D01*
X011919Y006263D01*
X011919Y009894D01*
X011971Y009947D01*
X012027Y010082D01*
X012027Y010228D01*
X011971Y010364D01*
X011868Y010467D01*
X011732Y010523D01*
X011586Y010523D01*
X011451Y010467D01*
X011347Y010364D01*
X011291Y010228D01*
X011291Y010082D01*
X011347Y009947D01*
X011399Y009894D01*
X011399Y006207D01*
X011399Y006103D01*
X011439Y006008D01*
X011689Y005758D01*
X011762Y005685D01*
X011857Y005645D01*
X013801Y005645D01*
X016189Y003258D01*
X016262Y003185D01*
X016357Y003145D01*
X026398Y003145D01*
X026451Y003093D01*
X026586Y003037D01*
X026732Y003037D01*
X026868Y003093D01*
X026971Y003197D01*
X027027Y003332D01*
X027027Y003478D01*
X026971Y003614D01*
X026868Y003717D01*
X026732Y003773D01*
X026586Y003773D01*
X026451Y003717D01*
X026398Y003665D01*
X019055Y003665D01*
X019109Y003719D01*
X019109Y004091D01*
X018845Y004355D01*
X018473Y004355D01*
X018209Y004091D01*
X018209Y003719D01*
X018263Y003665D01*
X018055Y003665D01*
X018109Y003719D01*
X018109Y004091D01*
X017845Y004355D01*
X017473Y004355D01*
X017209Y004091D01*
X017209Y003719D01*
X017263Y003665D01*
X016942Y003665D01*
X017029Y003752D01*
X017029Y003875D01*
X016689Y003875D01*
X016689Y003935D01*
X017029Y003935D01*
X017029Y004058D01*
X016812Y004275D01*
X016689Y004275D01*
X016689Y003935D01*
X016629Y003935D01*
X016629Y003875D01*
X016307Y003875D01*
X015792Y004390D01*
X015851Y004365D01*
X022289Y004365D01*
X022538Y004116D01*
X022620Y004034D01*
X022726Y003990D01*
X026851Y003990D01*
X026967Y003990D01*
X027073Y004034D01*
X027323Y004284D01*
X027405Y004366D01*
X027449Y004472D01*
X027449Y010424D01*
X027471Y010447D01*
X027527Y010582D01*
X027527Y010728D01*
X027471Y010864D01*
X027368Y010967D01*
X027232Y011023D01*
X027086Y011023D01*
X026951Y010967D01*
X026949Y010966D01*
X026949Y018347D01*
X026949Y018463D01*
X026905Y018569D01*
X025405Y020069D01*
X025323Y020151D01*
X025217Y020195D01*
X016717Y020195D01*
X016601Y020195D01*
X016495Y020151D01*
X015995Y019651D01*
X015913Y019569D01*
X015869Y019463D01*
X015869Y019355D01*
X015830Y019355D01*
X015664Y019287D01*
X015538Y019160D01*
X015469Y018995D01*
X015469Y018816D01*
X015538Y018650D01*
X015664Y018524D01*
X015830Y018455D01*
X016489Y018455D01*
X016654Y018524D01*
X016781Y018650D01*
X016849Y018816D01*
X016849Y018995D01*
X016781Y019160D01*
X016654Y019287D01*
X016510Y019346D01*
X016779Y019615D01*
X025039Y019615D01*
X026369Y018285D01*
X026369Y007525D01*
X026329Y007485D01*
X025919Y007485D01*
X025602Y007169D01*
X025366Y007405D01*
X025209Y007405D01*
X025209Y006955D01*
X025109Y006955D01*
X025109Y006855D01*
X024659Y006855D01*
X024659Y006698D01*
X024895Y006462D01*
X024579Y006145D01*
X024579Y005665D01*
X024839Y005405D01*
X024629Y005195D01*
X023720Y005195D01*
X023721Y005197D01*
X023777Y005332D01*
X023777Y005478D01*
X023753Y005537D01*
X023795Y005537D01*
X023930Y005593D01*
X024034Y005697D01*
X024090Y005832D01*
X024090Y005978D01*
X024034Y006114D01*
X023992Y006156D01*
X023992Y006451D01*
X024086Y006412D01*
X024232Y006412D01*
X024368Y006468D01*
X024471Y006572D01*
X024527Y006707D01*
X024527Y006853D01*
X024471Y006989D01*
X024429Y007031D01*
X024429Y007334D01*
X024388Y007433D01*
X024312Y007509D01*
X024304Y007517D01*
X024304Y009279D01*
X024346Y009322D01*
X024402Y009457D01*
X024402Y009603D01*
X024346Y009739D01*
X024304Y009781D01*
X024304Y010576D01*
X024398Y010537D01*
X024545Y010537D01*
X024680Y010593D01*
X024784Y010697D01*
X024840Y010832D01*
X024840Y010978D01*
X024784Y011114D01*
X024762Y011136D01*
X024762Y014285D01*
X025092Y014616D01*
X025137Y014722D01*
X025137Y014838D01*
X025137Y015338D01*
X025092Y015444D01*
X025011Y015526D01*
X024823Y015713D01*
X024717Y015758D01*
X024601Y015758D01*
X024265Y015758D01*
X024243Y015780D01*
X024107Y015836D01*
X023961Y015836D01*
X023826Y015780D01*
X023722Y015676D01*
X023666Y015541D01*
X023666Y015394D01*
X023716Y015273D01*
X023648Y015273D01*
X023513Y015217D01*
X023409Y015114D01*
X023353Y014978D01*
X023353Y014832D01*
X023409Y014697D01*
X023452Y014655D01*
X023452Y014633D01*
X023368Y014717D01*
X023232Y014773D01*
X023086Y014773D01*
X022951Y014717D01*
X022847Y014614D01*
X022791Y014478D01*
X022791Y014332D01*
X022847Y014197D01*
X022951Y014093D01*
X023086Y014037D01*
X023139Y014037D01*
X023139Y010767D01*
X023006Y010634D01*
X022930Y010558D01*
X022889Y010459D01*
X022889Y010017D01*
X022881Y010009D01*
X022805Y009933D01*
X022764Y009834D01*
X022764Y008959D01*
X022764Y008851D01*
X022805Y008752D01*
X022916Y008641D01*
X022916Y008582D01*
X022972Y008447D01*
X023014Y008405D01*
X023014Y008226D01*
X023055Y008127D01*
X023131Y008051D01*
X023139Y008043D01*
X023139Y006392D01*
X023006Y006259D01*
X022949Y006202D01*
X022949Y007660D01*
X022949Y007775D01*
X022905Y007882D01*
X022090Y008697D01*
X022090Y008728D01*
X022034Y008864D01*
X021992Y008906D01*
X021992Y010664D01*
X021992Y010771D01*
X021950Y010871D01*
X021763Y011058D01*
X021687Y011134D01*
X021588Y011175D01*
X019765Y011175D01*
X019654Y011287D01*
X019489Y011355D01*
X018830Y011355D01*
X018664Y011287D01*
X018573Y011195D01*
X018279Y011195D01*
X017949Y011525D01*
X017949Y012463D01*
X017905Y012569D01*
X017823Y012651D01*
X017405Y013069D01*
X017405Y013069D01*
X017323Y013151D01*
X017217Y013195D01*
X016859Y013195D01*
X018279Y014615D01*
X018573Y014615D01*
X018664Y014524D01*
X018830Y014455D01*
X019489Y014455D01*
X019654Y014524D01*
X019781Y014650D01*
X019849Y014816D01*
X019849Y014995D01*
X019781Y015160D01*
X019654Y015287D01*
X019489Y015355D01*
X018830Y015355D01*
X018664Y015287D01*
X018573Y015195D01*
X018101Y015195D01*
X017995Y015151D01*
X017913Y015069D01*
X017449Y014605D01*
X017449Y014713D01*
X017449Y015713D01*
X017405Y015819D01*
X017323Y015901D01*
X017073Y016151D01*
X016967Y016195D01*
X016851Y016195D01*
X016745Y016195D01*
X016654Y016287D01*
X016489Y016355D01*
X015830Y016355D01*
X015664Y016287D01*
X015538Y016160D01*
X015469Y015995D01*
X015469Y015816D01*
X015538Y015650D01*
X015664Y015524D01*
X015830Y015455D01*
X016489Y015455D01*
X016654Y015524D01*
X016745Y015615D01*
X016789Y015615D01*
X016869Y015535D01*
X016869Y014775D01*
X016806Y014712D01*
X016849Y014816D01*
X016849Y014995D01*
X016781Y015160D01*
X016654Y015287D01*
X016489Y015355D01*
X015830Y015355D01*
X015664Y015287D01*
X015573Y015195D01*
X013101Y015195D01*
X012995Y015151D01*
X012913Y015069D01*
X004913Y007069D01*
X004869Y006963D01*
X004869Y006847D01*
X004869Y005080D01*
X004869Y005188D02*
X001409Y005188D01*
X001409Y005287D02*
X004869Y005287D01*
X004869Y005385D02*
X001409Y005385D01*
X001409Y005484D02*
X004869Y005484D01*
X004869Y005582D02*
X001409Y005582D01*
X001409Y005681D02*
X004869Y005681D01*
X004869Y005779D02*
X001409Y005779D01*
X001409Y005878D02*
X004869Y005878D01*
X004869Y005976D02*
X001409Y005976D01*
X001409Y006075D02*
X004869Y006075D01*
X004869Y006174D02*
X001409Y006174D01*
X001409Y006272D02*
X004869Y006272D01*
X004869Y006371D02*
X001409Y006371D01*
X001409Y006469D02*
X003162Y006469D01*
X003106Y006492D02*
X003285Y006418D01*
X004033Y006418D01*
X004212Y006492D01*
X004349Y006629D01*
X004423Y006808D01*
X004423Y007002D01*
X004349Y007181D01*
X004212Y007318D01*
X004033Y007392D01*
X003285Y007392D01*
X003106Y007318D01*
X002969Y007181D01*
X002895Y007002D01*
X002895Y006808D01*
X002969Y006629D01*
X003106Y006492D01*
X003031Y006568D02*
X001409Y006568D01*
X001409Y006666D02*
X002954Y006666D01*
X002913Y006765D02*
X001409Y006765D01*
X001409Y006863D02*
X002895Y006863D01*
X002895Y006962D02*
X001409Y006962D01*
X001409Y007060D02*
X002920Y007060D01*
X002960Y007159D02*
X001409Y007159D01*
X001409Y007258D02*
X003046Y007258D01*
X003199Y007356D02*
X001409Y007356D01*
X001409Y007455D02*
X003198Y007455D01*
X003285Y007418D02*
X004033Y007418D01*
X004212Y007492D01*
X004349Y007629D01*
X004423Y007808D01*
X004423Y008002D01*
X004349Y008181D01*
X004212Y008318D01*
X004033Y008392D01*
X003285Y008392D01*
X003106Y008318D01*
X002969Y008181D01*
X002895Y008002D01*
X002895Y007808D01*
X002969Y007629D01*
X003106Y007492D01*
X003285Y007418D01*
X003046Y007553D02*
X001409Y007553D01*
X001409Y007652D02*
X002960Y007652D01*
X002919Y007750D02*
X001409Y007750D01*
X001409Y007849D02*
X002895Y007849D01*
X002895Y007947D02*
X001409Y007947D01*
X001409Y008046D02*
X002914Y008046D01*
X002954Y008144D02*
X001409Y008144D01*
X001409Y008243D02*
X003032Y008243D01*
X003164Y008341D02*
X001409Y008341D01*
X001409Y008440D02*
X003233Y008440D01*
X003285Y008418D02*
X004033Y008418D01*
X004212Y008492D01*
X004349Y008629D01*
X004368Y008676D01*
X004451Y008593D01*
X004586Y008537D01*
X004732Y008537D01*
X004868Y008593D01*
X004890Y008615D01*
X006101Y008615D01*
X006217Y008615D01*
X006323Y008659D01*
X009323Y011659D01*
X009405Y011741D01*
X009449Y011847D01*
X009449Y013595D01*
X009451Y013593D01*
X009586Y013537D01*
X009732Y013537D01*
X009868Y013593D01*
X009890Y013615D01*
X011217Y013615D01*
X011323Y013659D01*
X011405Y013741D01*
X012951Y015287D01*
X012982Y015287D01*
X013118Y015343D01*
X013221Y015447D01*
X013277Y015582D01*
X013277Y015728D01*
X013221Y015864D01*
X013118Y015967D01*
X012982Y016023D01*
X012836Y016023D01*
X012701Y015967D01*
X012597Y015864D01*
X012541Y015728D01*
X012541Y015697D01*
X011039Y014195D01*
X009890Y014195D01*
X009868Y014217D01*
X009732Y014273D01*
X009586Y014273D01*
X009451Y014217D01*
X009449Y014216D01*
X009449Y014785D01*
X011201Y016537D01*
X011232Y016537D01*
X011368Y016593D01*
X011390Y016615D01*
X015573Y016615D01*
X015664Y016524D01*
X015830Y016455D01*
X016489Y016455D01*
X016654Y016524D01*
X016781Y016650D01*
X016849Y016816D01*
X018469Y016816D01*
X018538Y016650D01*
X018664Y016524D01*
X018830Y016455D01*
X019489Y016455D01*
X019654Y016524D01*
X019781Y016650D01*
X019849Y016816D01*
X026369Y016816D01*
X026369Y016718D02*
X019808Y016718D01*
X019849Y016816D02*
X019849Y016995D01*
X019781Y017160D01*
X019654Y017287D01*
X019489Y017355D01*
X018830Y017355D01*
X018664Y017287D01*
X018538Y017160D01*
X018469Y016995D01*
X018469Y016816D01*
X018469Y016915D02*
X016849Y016915D01*
X016849Y016995D02*
X016849Y016816D01*
X016808Y016718D02*
X018510Y016718D01*
X018569Y016619D02*
X016749Y016619D01*
X016647Y016521D02*
X018671Y016521D01*
X018753Y016324D02*
X016565Y016324D01*
X016716Y016225D02*
X018603Y016225D01*
X018664Y016287D02*
X018538Y016160D01*
X018469Y015995D01*
X018469Y015816D01*
X018538Y015650D01*
X018664Y015524D01*
X018830Y015455D01*
X019489Y015455D01*
X019654Y015524D01*
X019781Y015650D01*
X019849Y015816D01*
X019849Y015995D01*
X019781Y016160D01*
X019654Y016287D01*
X019489Y016355D01*
X018830Y016355D01*
X018664Y016287D01*
X018524Y016126D02*
X017098Y016126D01*
X017196Y016028D02*
X018483Y016028D01*
X018469Y015929D02*
X017295Y015929D01*
X017393Y015831D02*
X018469Y015831D01*
X018504Y015732D02*
X017441Y015732D01*
X017449Y015634D02*
X018554Y015634D01*
X018653Y015535D02*
X017449Y015535D01*
X017449Y015437D02*
X023666Y015437D01*
X023666Y015535D02*
X019665Y015535D01*
X019764Y015634D02*
X023704Y015634D01*
X023778Y015732D02*
X019814Y015732D01*
X019849Y015831D02*
X023949Y015831D01*
X024119Y015831D02*
X026369Y015831D01*
X026369Y015929D02*
X019849Y015929D01*
X019835Y016028D02*
X026369Y016028D01*
X026369Y016126D02*
X019794Y016126D01*
X019716Y016225D02*
X026369Y016225D01*
X026369Y016324D02*
X019565Y016324D01*
X019647Y016521D02*
X026369Y016521D01*
X026369Y016619D02*
X019749Y016619D01*
X019849Y016915D02*
X026369Y016915D01*
X026369Y017013D02*
X019841Y017013D01*
X019800Y017112D02*
X026369Y017112D01*
X026369Y017210D02*
X019730Y017210D01*
X019600Y017309D02*
X026369Y017309D01*
X026369Y017407D02*
X011072Y017407D01*
X011086Y017273D02*
X010951Y017217D01*
X010847Y017114D01*
X010791Y016978D01*
X010791Y016947D01*
X008995Y015151D01*
X008949Y015105D01*
X008949Y015174D01*
X008971Y015197D01*
X009027Y015332D01*
X009027Y015363D01*
X011342Y017678D01*
X015278Y017678D01*
X015300Y017667D01*
X015307Y017659D01*
X015351Y017641D01*
X015393Y017620D01*
X015404Y017619D01*
X015414Y017615D01*
X015461Y017615D01*
X015509Y017612D01*
X015519Y017615D01*
X015573Y017615D01*
X015664Y017524D01*
X015830Y017455D01*
X016489Y017455D01*
X016654Y017524D01*
X016781Y017650D01*
X016849Y017816D01*
X016849Y017995D01*
X016781Y018160D01*
X016654Y018287D01*
X016489Y018355D01*
X015830Y018355D01*
X015664Y018287D01*
X015573Y018195D01*
X015540Y018195D01*
X015518Y018206D01*
X015511Y018213D01*
X015467Y018232D01*
X015425Y018253D01*
X015414Y018254D01*
X015404Y018258D01*
X015357Y018258D01*
X015310Y018261D01*
X015300Y018258D01*
X011279Y018258D01*
X011172Y018258D01*
X012029Y019115D01*
X013178Y019115D01*
X013201Y019093D01*
X013336Y019037D01*
X013482Y019037D01*
X013618Y019093D01*
X013721Y019197D01*
X013777Y019332D01*
X013777Y019478D01*
X013721Y019614D01*
X013618Y019717D01*
X013482Y019773D01*
X013336Y019773D01*
X013201Y019717D01*
X013178Y019695D01*
X011967Y019695D01*
X011851Y019695D01*
X011745Y019651D01*
X011510Y019417D01*
X011527Y019457D01*
X011527Y019603D01*
X011471Y019739D01*
X011368Y019842D01*
X011232Y019898D01*
X011086Y019898D01*
X010951Y019842D01*
X010847Y019739D01*
X010791Y019603D01*
X010791Y019572D01*
X009914Y018695D01*
X008380Y018695D01*
X008289Y018787D01*
X008124Y018855D01*
X007945Y018855D01*
X007779Y018787D01*
X007653Y018660D01*
X007584Y018495D01*
X007584Y018316D01*
X007653Y018150D01*
X007779Y018024D01*
X007945Y017955D01*
X008124Y017955D01*
X008289Y018024D01*
X008380Y018115D01*
X009976Y018115D01*
X010092Y018115D01*
X010198Y018159D01*
X011201Y019162D01*
X011232Y019162D01*
X011273Y019179D01*
X010039Y017945D01*
X007529Y017945D01*
X006027Y019447D01*
X006027Y019478D01*
X005971Y019614D01*
X005868Y019717D01*
X005732Y019773D01*
X005586Y019773D01*
X005451Y019717D01*
X005347Y019614D01*
X005291Y019478D01*
X005291Y019332D01*
X005347Y019197D01*
X005451Y019093D01*
X005586Y019037D01*
X005617Y019037D01*
X007245Y017409D01*
X007351Y017365D01*
X007467Y017365D01*
X010101Y017365D01*
X010209Y017365D01*
X008617Y015773D01*
X008586Y015773D01*
X008451Y015717D01*
X008347Y015614D01*
X008291Y015478D01*
X008291Y015332D01*
X008347Y015197D01*
X008369Y015174D01*
X008369Y012636D01*
X008347Y012614D01*
X008291Y012478D01*
X008291Y012332D01*
X008347Y012197D01*
X008451Y012093D01*
X008586Y012037D01*
X008732Y012037D01*
X008868Y012093D01*
X008869Y012095D01*
X008869Y012025D01*
X006039Y009195D01*
X004890Y009195D01*
X004868Y009217D01*
X004732Y009273D01*
X004586Y009273D01*
X004451Y009217D01*
X004368Y009134D01*
X004349Y009181D01*
X004212Y009318D01*
X004033Y009392D01*
X003285Y009392D01*
X003106Y009318D01*
X002969Y009181D01*
X002895Y009002D01*
X002895Y008808D01*
X002969Y008629D01*
X003106Y008492D01*
X003285Y008418D01*
X003060Y008539D02*
X001409Y008539D01*
X001409Y008637D02*
X002966Y008637D01*
X002925Y008736D02*
X001409Y008736D01*
X001409Y008834D02*
X002895Y008834D01*
X002895Y008933D02*
X001409Y008933D01*
X001409Y009031D02*
X002908Y009031D01*
X002948Y009130D02*
X001409Y009130D01*
X001409Y009228D02*
X003017Y009228D01*
X003128Y009327D02*
X001409Y009327D01*
X001409Y009425D02*
X006269Y009425D01*
X006171Y009327D02*
X004190Y009327D01*
X004301Y009228D02*
X004478Y009228D01*
X004840Y009228D02*
X006072Y009228D01*
X006368Y009524D02*
X004079Y009524D01*
X004055Y009514D02*
X004129Y009545D01*
X004195Y009589D01*
X004252Y009646D01*
X004296Y009712D01*
X004327Y009786D01*
X004341Y009857D01*
X003708Y009857D01*
X003708Y009954D01*
X004341Y009954D01*
X004327Y010024D01*
X004296Y010098D01*
X004252Y010164D01*
X004195Y010221D01*
X004129Y010266D01*
X004055Y010296D01*
X003976Y010312D01*
X003707Y010312D01*
X003707Y009954D01*
X003611Y009954D01*
X003611Y010312D01*
X003342Y010312D01*
X003264Y010296D01*
X003189Y010266D01*
X003123Y010221D01*
X003066Y010164D01*
X003022Y010098D01*
X002991Y010024D01*
X002977Y009954D01*
X003610Y009954D01*
X003610Y009857D01*
X002977Y009857D01*
X002991Y009786D01*
X003022Y009712D01*
X003066Y009646D01*
X003123Y009589D01*
X003189Y009545D01*
X003264Y009514D01*
X003342Y009498D01*
X003611Y009498D01*
X003611Y009856D01*
X003707Y009856D01*
X003707Y009498D01*
X003976Y009498D01*
X004055Y009514D01*
X004229Y009623D02*
X006466Y009623D01*
X006565Y009721D02*
X004300Y009721D01*
X004334Y009820D02*
X006663Y009820D01*
X006762Y009918D02*
X003708Y009918D01*
X003610Y009918D02*
X001409Y009918D01*
X001409Y009820D02*
X002984Y009820D01*
X003018Y009721D02*
X001409Y009721D01*
X001409Y009623D02*
X003089Y009623D01*
X003239Y009524D02*
X001409Y009524D01*
X001409Y010017D02*
X002990Y010017D01*
X003033Y010115D02*
X001409Y010115D01*
X001409Y010214D02*
X003116Y010214D01*
X003285Y010418D02*
X004033Y010418D01*
X004212Y010492D01*
X004349Y010629D01*
X004423Y010808D01*
X004423Y011002D01*
X004349Y011181D01*
X004212Y011318D01*
X004033Y011392D01*
X003949Y011392D01*
X003949Y011915D01*
X004061Y011915D01*
X004184Y012038D01*
X004184Y012672D01*
X004184Y013272D01*
X004061Y013395D01*
X003949Y013395D01*
X003949Y013535D01*
X004405Y013991D01*
X004449Y014097D01*
X004449Y014213D01*
X004449Y015424D01*
X004471Y015447D01*
X004527Y015582D01*
X004527Y015728D01*
X004471Y015864D01*
X004368Y015967D01*
X004232Y016023D01*
X004086Y016023D01*
X003951Y015967D01*
X003847Y015864D01*
X003791Y015728D01*
X003791Y015582D01*
X003847Y015447D01*
X003869Y015424D01*
X003869Y014275D01*
X003495Y013901D01*
X003413Y013819D01*
X003369Y013713D01*
X003369Y013395D01*
X003257Y013395D01*
X003134Y013272D01*
X003134Y012672D01*
X003134Y012038D01*
X003257Y011915D01*
X003369Y011915D01*
X003369Y011392D01*
X003285Y011392D01*
X003106Y011318D01*
X002969Y011181D01*
X002895Y011002D01*
X002895Y010808D01*
X002969Y010629D01*
X003106Y010492D01*
X003285Y010418D01*
X003089Y010509D02*
X001409Y010509D01*
X001409Y010411D02*
X007255Y010411D01*
X007353Y010509D02*
X004229Y010509D01*
X004327Y010608D02*
X007452Y010608D01*
X007550Y010707D02*
X004381Y010707D01*
X004421Y010805D02*
X007649Y010805D01*
X007747Y010904D02*
X004423Y010904D01*
X004423Y011002D02*
X007846Y011002D01*
X007945Y011101D02*
X004382Y011101D01*
X004330Y011199D02*
X008043Y011199D01*
X008142Y011298D02*
X004232Y011298D01*
X003949Y011396D02*
X008240Y011396D01*
X008339Y011495D02*
X003949Y011495D01*
X003949Y011593D02*
X008437Y011593D01*
X008536Y011692D02*
X003949Y011692D01*
X003949Y011791D02*
X008634Y011791D01*
X008733Y011889D02*
X003949Y011889D01*
X004134Y011988D02*
X008831Y011988D01*
X008851Y012086D02*
X008869Y012086D01*
X008467Y012086D02*
X004184Y012086D01*
X004184Y012185D02*
X008359Y012185D01*
X008311Y012283D02*
X004184Y012283D01*
X004184Y012382D02*
X005124Y012382D01*
X005129Y012380D02*
X005338Y012380D01*
X005532Y012460D01*
X005679Y012607D01*
X005759Y012801D01*
X005759Y013010D01*
X005679Y013203D01*
X005532Y013351D01*
X005338Y013431D01*
X005129Y013431D01*
X004936Y013351D01*
X004788Y013203D01*
X004708Y013010D01*
X004708Y012801D01*
X004788Y012607D01*
X004936Y012460D01*
X005129Y012380D01*
X005344Y012382D02*
X008291Y012382D01*
X008292Y012480D02*
X005552Y012480D01*
X005651Y012579D02*
X008333Y012579D01*
X008369Y012677D02*
X005708Y012677D01*
X005749Y012776D02*
X008369Y012776D01*
X008369Y012874D02*
X005759Y012874D01*
X005759Y012973D02*
X008369Y012973D01*
X008369Y013072D02*
X005734Y013072D01*
X005693Y013170D02*
X008369Y013170D01*
X008369Y013269D02*
X005614Y013269D01*
X005492Y013367D02*
X008369Y013367D01*
X008369Y013466D02*
X003949Y013466D01*
X003978Y013564D02*
X008369Y013564D01*
X008369Y013663D02*
X004077Y013663D01*
X004175Y013761D02*
X008369Y013761D01*
X008369Y013860D02*
X004274Y013860D01*
X004373Y013958D02*
X008369Y013958D01*
X008369Y014057D02*
X004432Y014057D01*
X004449Y014156D02*
X008369Y014156D01*
X008369Y014254D02*
X004449Y014254D01*
X004449Y014353D02*
X008369Y014353D01*
X008369Y014451D02*
X004449Y014451D01*
X004449Y014550D02*
X008369Y014550D01*
X008369Y014648D02*
X004449Y014648D01*
X004449Y014747D02*
X008369Y014747D01*
X008369Y014845D02*
X004449Y014845D01*
X004449Y014944D02*
X008369Y014944D01*
X008369Y015042D02*
X004449Y015042D01*
X004449Y015141D02*
X008369Y015141D01*
X008329Y015240D02*
X004449Y015240D01*
X004449Y015338D02*
X008291Y015338D01*
X008291Y015437D02*
X004461Y015437D01*
X004508Y015535D02*
X008314Y015535D01*
X008367Y015634D02*
X004527Y015634D01*
X004526Y015732D02*
X008487Y015732D01*
X008675Y015831D02*
X004485Y015831D01*
X004405Y015929D02*
X008773Y015929D01*
X008872Y016028D02*
X001409Y016028D01*
X001409Y016126D02*
X008970Y016126D01*
X009069Y016225D02*
X001409Y016225D01*
X001409Y016324D02*
X009167Y016324D01*
X009266Y016422D02*
X005441Y016422D01*
X005532Y016460D02*
X005338Y016380D01*
X005129Y016380D01*
X004936Y016460D01*
X004788Y016607D01*
X004708Y016801D01*
X004708Y017010D01*
X004788Y017203D01*
X004936Y017351D01*
X005129Y017431D01*
X005338Y017431D01*
X005532Y017351D01*
X005679Y017203D01*
X005759Y017010D01*
X005759Y016801D01*
X005679Y016607D01*
X005532Y016460D01*
X005593Y016521D02*
X009364Y016521D01*
X009463Y016619D02*
X005684Y016619D01*
X005725Y016718D02*
X009562Y016718D01*
X009660Y016816D02*
X005759Y016816D01*
X005759Y016915D02*
X009759Y016915D01*
X009857Y017013D02*
X005758Y017013D01*
X005717Y017112D02*
X009956Y017112D01*
X010054Y017210D02*
X005672Y017210D01*
X005573Y017309D02*
X010153Y017309D01*
X010579Y016915D02*
X010759Y016915D01*
X010805Y017013D02*
X010677Y017013D01*
X010776Y017112D02*
X010846Y017112D01*
X010874Y017210D02*
X010944Y017210D01*
X010973Y017309D02*
X015718Y017309D01*
X015664Y017287D02*
X015573Y017195D01*
X011390Y017195D01*
X011368Y017217D01*
X011232Y017273D01*
X011086Y017273D01*
X011170Y017506D02*
X015707Y017506D01*
X015583Y017605D02*
X011269Y017605D01*
X011374Y017210D02*
X015588Y017210D01*
X015664Y017287D02*
X015830Y017355D01*
X016489Y017355D01*
X016654Y017287D01*
X016781Y017160D01*
X016849Y016995D01*
X016841Y017013D02*
X018477Y017013D01*
X018518Y017112D02*
X016800Y017112D01*
X016730Y017210D02*
X018588Y017210D01*
X018718Y017309D02*
X016600Y017309D01*
X016611Y017506D02*
X018707Y017506D01*
X018664Y017524D02*
X018830Y017455D01*
X019489Y017455D01*
X019654Y017524D01*
X019781Y017650D01*
X019849Y017816D01*
X019849Y017995D01*
X019781Y018160D01*
X019654Y018287D01*
X019489Y018355D01*
X018830Y018355D01*
X018664Y018287D01*
X018538Y018160D01*
X018469Y017995D01*
X018469Y017816D01*
X018538Y017650D01*
X018664Y017524D01*
X018583Y017605D02*
X016735Y017605D01*
X016802Y017703D02*
X018516Y017703D01*
X018475Y017802D02*
X016843Y017802D01*
X016849Y017900D02*
X018469Y017900D01*
X018471Y017999D02*
X016847Y017999D01*
X016806Y018097D02*
X018512Y018097D01*
X018573Y018196D02*
X016745Y018196D01*
X016635Y018294D02*
X018683Y018294D01*
X018742Y018491D02*
X016576Y018491D01*
X016720Y018590D02*
X018598Y018590D01*
X018538Y018650D02*
X018664Y018524D01*
X018830Y018455D01*
X019489Y018455D01*
X019654Y018524D01*
X019781Y018650D01*
X019849Y018816D01*
X019849Y018995D01*
X019781Y019160D01*
X019654Y019287D01*
X019489Y019355D01*
X018830Y019355D01*
X018664Y019287D01*
X018538Y019160D01*
X018469Y018995D01*
X018469Y018816D01*
X018538Y018650D01*
X018522Y018689D02*
X016796Y018689D01*
X016837Y018787D02*
X018481Y018787D01*
X018469Y018886D02*
X016849Y018886D01*
X016849Y018984D02*
X018469Y018984D01*
X018506Y019083D02*
X016813Y019083D01*
X016759Y019181D02*
X018559Y019181D01*
X018657Y019280D02*
X016661Y019280D01*
X016542Y019378D02*
X025276Y019378D01*
X025374Y019280D02*
X019661Y019280D01*
X019759Y019181D02*
X025473Y019181D01*
X025571Y019083D02*
X019813Y019083D01*
X019849Y018984D02*
X025670Y018984D01*
X025768Y018886D02*
X019849Y018886D01*
X019837Y018787D02*
X025867Y018787D01*
X025965Y018689D02*
X019796Y018689D01*
X019720Y018590D02*
X026064Y018590D01*
X026163Y018491D02*
X019576Y018491D01*
X019635Y018294D02*
X026360Y018294D01*
X026369Y018196D02*
X019745Y018196D01*
X019806Y018097D02*
X026369Y018097D01*
X026369Y017999D02*
X019847Y017999D01*
X019849Y017900D02*
X026369Y017900D01*
X026369Y017802D02*
X019843Y017802D01*
X019802Y017703D02*
X026369Y017703D01*
X026369Y017605D02*
X019735Y017605D01*
X019611Y017506D02*
X026369Y017506D01*
X026949Y017506D02*
X029468Y017506D01*
X029468Y017407D02*
X026949Y017407D01*
X026949Y017309D02*
X029468Y017309D01*
X029468Y017210D02*
X026949Y017210D01*
X026949Y017112D02*
X029468Y017112D01*
X029468Y017013D02*
X026949Y017013D01*
X026949Y016915D02*
X029468Y016915D01*
X029468Y016816D02*
X026949Y016816D01*
X026949Y016718D02*
X029468Y016718D01*
X029468Y016619D02*
X026949Y016619D01*
X026949Y016521D02*
X029468Y016521D01*
X029468Y016422D02*
X026949Y016422D01*
X026949Y016324D02*
X029468Y016324D01*
X029468Y016225D02*
X026949Y016225D01*
X026949Y016126D02*
X029468Y016126D01*
X029468Y016028D02*
X026949Y016028D01*
X026949Y015929D02*
X029468Y015929D01*
X029468Y015831D02*
X026949Y015831D01*
X026949Y015732D02*
X029468Y015732D01*
X029468Y015634D02*
X026949Y015634D01*
X026949Y015535D02*
X029468Y015535D01*
X029468Y015437D02*
X026949Y015437D01*
X026949Y015338D02*
X029468Y015338D01*
X029468Y015240D02*
X026949Y015240D01*
X026949Y015141D02*
X029468Y015141D01*
X029468Y015042D02*
X026949Y015042D01*
X026949Y014944D02*
X029468Y014944D01*
X029468Y014845D02*
X026949Y014845D01*
X026949Y014747D02*
X029468Y014747D01*
X029468Y014648D02*
X026949Y014648D01*
X026949Y014550D02*
X029468Y014550D01*
X029468Y014451D02*
X026949Y014451D01*
X026949Y014353D02*
X029468Y014353D01*
X029468Y014254D02*
X026949Y014254D01*
X026949Y014156D02*
X029468Y014156D01*
X029468Y014057D02*
X026949Y014057D01*
X026949Y013958D02*
X029468Y013958D01*
X029468Y013860D02*
X026949Y013860D01*
X026949Y013761D02*
X029468Y013761D01*
X029468Y013663D02*
X026949Y013663D01*
X026949Y013564D02*
X029468Y013564D01*
X029468Y013466D02*
X026949Y013466D01*
X026949Y013367D02*
X029468Y013367D01*
X029468Y013269D02*
X026949Y013269D01*
X026949Y013170D02*
X029468Y013170D01*
X029468Y013072D02*
X026949Y013072D01*
X026949Y012973D02*
X029468Y012973D01*
X029468Y012874D02*
X026949Y012874D01*
X026949Y012776D02*
X029468Y012776D01*
X029468Y012677D02*
X026949Y012677D01*
X026949Y012579D02*
X029468Y012579D01*
X029468Y012480D02*
X026949Y012480D01*
X026949Y012382D02*
X029468Y012382D01*
X029468Y012283D02*
X026949Y012283D01*
X026949Y012185D02*
X029468Y012185D01*
X029468Y012086D02*
X026949Y012086D01*
X026949Y011988D02*
X029468Y011988D01*
X029468Y011889D02*
X026949Y011889D01*
X026949Y011791D02*
X029468Y011791D01*
X029468Y011692D02*
X026949Y011692D01*
X026949Y011593D02*
X029468Y011593D01*
X029468Y011495D02*
X026949Y011495D01*
X026949Y011396D02*
X029468Y011396D01*
X029468Y011298D02*
X026949Y011298D01*
X026949Y011199D02*
X029468Y011199D01*
X029468Y011101D02*
X026949Y011101D01*
X026949Y011002D02*
X027035Y011002D01*
X027283Y011002D02*
X029468Y011002D01*
X029468Y010904D02*
X027431Y010904D01*
X027495Y010805D02*
X029468Y010805D01*
X029468Y010707D02*
X027527Y010707D01*
X027527Y010608D02*
X029468Y010608D01*
X029468Y010509D02*
X027497Y010509D01*
X027449Y010411D02*
X029468Y010411D01*
X029468Y010312D02*
X027449Y010312D01*
X027449Y010214D02*
X029468Y010214D01*
X029468Y010115D02*
X027449Y010115D01*
X027449Y010017D02*
X029468Y010017D01*
X029468Y009918D02*
X027449Y009918D01*
X027449Y009820D02*
X029468Y009820D01*
X029468Y009721D02*
X027449Y009721D01*
X027449Y009623D02*
X029468Y009623D01*
X029468Y009524D02*
X027449Y009524D01*
X027449Y009425D02*
X029468Y009425D01*
X029468Y009327D02*
X027449Y009327D01*
X027449Y009228D02*
X029468Y009228D01*
X029468Y009130D02*
X027449Y009130D01*
X027449Y009031D02*
X029468Y009031D01*
X029468Y008933D02*
X027449Y008933D01*
X027449Y008834D02*
X029468Y008834D01*
X029468Y008736D02*
X027449Y008736D01*
X027449Y008637D02*
X029468Y008637D01*
X029468Y008539D02*
X027449Y008539D01*
X027449Y008440D02*
X029468Y008440D01*
X029468Y008341D02*
X027449Y008341D01*
X027449Y008243D02*
X029468Y008243D01*
X029468Y008144D02*
X027449Y008144D01*
X027449Y008046D02*
X029468Y008046D01*
X029468Y007947D02*
X027449Y007947D01*
X027449Y007849D02*
X029468Y007849D01*
X029468Y007750D02*
X027449Y007750D01*
X027449Y007652D02*
X029468Y007652D01*
X029468Y007553D02*
X027449Y007553D01*
X027449Y007455D02*
X029468Y007455D01*
X029468Y007356D02*
X027449Y007356D01*
X027449Y007258D02*
X029468Y007258D01*
X029468Y007159D02*
X027449Y007159D01*
X027449Y007060D02*
X029468Y007060D01*
X029468Y006962D02*
X027449Y006962D01*
X027449Y006863D02*
X029468Y006863D01*
X029468Y006765D02*
X027449Y006765D01*
X027449Y006666D02*
X029468Y006666D01*
X029468Y006568D02*
X027449Y006568D01*
X027449Y006469D02*
X029468Y006469D01*
X029468Y006371D02*
X027449Y006371D01*
X027449Y006272D02*
X029468Y006272D01*
X029468Y006174D02*
X027449Y006174D01*
X027449Y006075D02*
X029468Y006075D01*
X029468Y005976D02*
X027449Y005976D01*
X027449Y005878D02*
X029468Y005878D01*
X029468Y005779D02*
X027449Y005779D01*
X027449Y005681D02*
X029468Y005681D01*
X029468Y005582D02*
X027449Y005582D01*
X027449Y005484D02*
X029468Y005484D01*
X029468Y005385D02*
X027449Y005385D01*
X027449Y005287D02*
X029468Y005287D01*
X029468Y005188D02*
X027449Y005188D01*
X027449Y005090D02*
X029468Y005090D01*
X029468Y004991D02*
X027449Y004991D01*
X027449Y004892D02*
X029468Y004892D01*
X029468Y004794D02*
X027449Y004794D01*
X027449Y004695D02*
X029468Y004695D01*
X029468Y004597D02*
X027449Y004597D01*
X027449Y004498D02*
X029468Y004498D01*
X029468Y004400D02*
X027419Y004400D01*
X027340Y004301D02*
X029468Y004301D01*
X029468Y004203D02*
X027242Y004203D01*
X027143Y004104D02*
X029468Y004104D01*
X029468Y004006D02*
X027004Y004006D01*
X026875Y003710D02*
X029468Y003710D01*
X029468Y003809D02*
X019109Y003809D01*
X019109Y003907D02*
X029468Y003907D01*
X029468Y003611D02*
X026972Y003611D01*
X027013Y003513D02*
X029468Y003513D01*
X029468Y003414D02*
X027027Y003414D01*
X027020Y003316D02*
X029468Y003316D01*
X029468Y003217D02*
X026980Y003217D01*
X026893Y003119D02*
X029468Y003119D01*
X029468Y003020D02*
X014855Y003020D01*
X014852Y003018D02*
X014918Y003062D01*
X014975Y003119D01*
X015020Y003186D01*
X015050Y003260D01*
X015066Y003338D01*
X015066Y003607D01*
X014708Y003607D01*
X014708Y003704D01*
X015066Y003704D01*
X015066Y003972D01*
X015050Y004051D01*
X015020Y004125D01*
X014975Y004191D01*
X014918Y004248D01*
X014852Y004292D01*
X014778Y004323D01*
X014707Y004337D01*
X014707Y003704D01*
X014611Y003704D01*
X014611Y004337D01*
X014540Y004323D01*
X014466Y004292D01*
X014400Y004248D01*
X014343Y004191D01*
X014299Y004125D01*
X014268Y004051D01*
X014252Y003972D01*
X014252Y003704D01*
X014610Y003704D01*
X014610Y003607D01*
X014252Y003607D01*
X014252Y003338D01*
X014268Y003260D01*
X014299Y003186D01*
X014343Y003119D01*
X014400Y003062D01*
X014466Y003018D01*
X014540Y002987D01*
X014611Y002973D01*
X014611Y003606D01*
X014707Y003606D01*
X014707Y002973D01*
X014778Y002987D01*
X014852Y003018D01*
X014707Y003020D02*
X014611Y003020D01*
X014611Y003119D02*
X014707Y003119D01*
X014707Y003217D02*
X014611Y003217D01*
X014611Y003316D02*
X014707Y003316D01*
X014707Y003414D02*
X014611Y003414D01*
X014611Y003513D02*
X014707Y003513D01*
X014708Y003611D02*
X015835Y003611D01*
X015934Y003513D02*
X015066Y003513D01*
X015066Y003414D02*
X016032Y003414D01*
X016131Y003316D02*
X015061Y003316D01*
X015033Y003217D02*
X016229Y003217D01*
X016409Y003405D02*
X026659Y003405D01*
X026443Y003710D02*
X019100Y003710D01*
X019109Y004006D02*
X022689Y004006D01*
X022550Y004104D02*
X019096Y004104D01*
X018998Y004203D02*
X022451Y004203D01*
X022353Y004301D02*
X018899Y004301D01*
X018419Y004301D02*
X017899Y004301D01*
X017998Y004203D02*
X018320Y004203D01*
X018222Y004104D02*
X018096Y004104D01*
X018109Y004006D02*
X018209Y004006D01*
X018209Y003907D02*
X018109Y003907D01*
X018109Y003809D02*
X018209Y003809D01*
X018218Y003710D02*
X018100Y003710D01*
X017320Y004203D02*
X016885Y004203D01*
X016983Y004104D02*
X017222Y004104D01*
X017209Y004006D02*
X017029Y004006D01*
X017029Y003809D02*
X017209Y003809D01*
X017209Y003907D02*
X016689Y003907D01*
X016629Y003907D02*
X016275Y003907D01*
X016289Y003935D02*
X016629Y003935D01*
X016629Y004275D01*
X016506Y004275D01*
X016289Y004058D01*
X016289Y003935D01*
X016289Y004006D02*
X016176Y004006D01*
X016078Y004104D02*
X016335Y004104D01*
X016433Y004203D02*
X015979Y004203D01*
X015881Y004301D02*
X017419Y004301D01*
X016689Y004203D02*
X016629Y004203D01*
X016629Y004104D02*
X016689Y004104D01*
X016689Y004006D02*
X016629Y004006D01*
X016987Y003710D02*
X017218Y003710D01*
X016409Y003405D02*
X013909Y005905D01*
X011909Y005905D01*
X011659Y006155D01*
X011659Y010155D01*
X011318Y010017D02*
X009431Y010017D01*
X009529Y010115D02*
X011291Y010115D01*
X011291Y010214D02*
X009628Y010214D01*
X009726Y010312D02*
X011326Y010312D01*
X011394Y010411D02*
X009825Y010411D01*
X009923Y010509D02*
X011553Y010509D01*
X011765Y010509D02*
X013869Y010509D01*
X013869Y010411D02*
X011924Y010411D01*
X011992Y010312D02*
X013869Y010312D01*
X013869Y010214D02*
X012027Y010214D01*
X012027Y010115D02*
X013869Y010115D01*
X013869Y010017D02*
X012000Y010017D01*
X011943Y009918D02*
X013869Y009918D01*
X013869Y009820D02*
X011919Y009820D01*
X011919Y009721D02*
X013869Y009721D01*
X013869Y009623D02*
X011919Y009623D01*
X011919Y009524D02*
X013869Y009524D01*
X013869Y009425D02*
X011919Y009425D01*
X011919Y009327D02*
X013869Y009327D01*
X013869Y009228D02*
X011919Y009228D01*
X011919Y009130D02*
X013869Y009130D01*
X013869Y009031D02*
X011919Y009031D01*
X011919Y008933D02*
X013869Y008933D01*
X013869Y008834D02*
X011919Y008834D01*
X011919Y008736D02*
X013869Y008736D01*
X013869Y008637D02*
X011919Y008637D01*
X011919Y008539D02*
X013869Y008539D01*
X013869Y008440D02*
X011919Y008440D01*
X011919Y008341D02*
X013869Y008341D01*
X013869Y008243D02*
X011919Y008243D01*
X011919Y008144D02*
X013869Y008144D01*
X013869Y008046D02*
X011919Y008046D01*
X011919Y007947D02*
X013869Y007947D01*
X013869Y007849D02*
X011919Y007849D01*
X011919Y007750D02*
X013869Y007750D01*
X013869Y007652D02*
X011919Y007652D01*
X011919Y007553D02*
X013869Y007553D01*
X013869Y007455D02*
X011919Y007455D01*
X011919Y007356D02*
X013869Y007356D01*
X013869Y007258D02*
X011919Y007258D01*
X011919Y007159D02*
X013869Y007159D01*
X013869Y007060D02*
X011919Y007060D01*
X011919Y006962D02*
X013869Y006962D01*
X013847Y006863D02*
X011919Y006863D01*
X011919Y006765D02*
X013806Y006765D01*
X013791Y006666D02*
X011919Y006666D01*
X011919Y006568D02*
X013797Y006568D01*
X013838Y006469D02*
X011919Y006469D01*
X011919Y006371D02*
X013923Y006371D01*
X014107Y006075D02*
X014869Y006075D01*
X014869Y006174D02*
X012008Y006174D01*
X011919Y006272D02*
X014869Y006272D01*
X014869Y006371D02*
X014395Y006371D01*
X014480Y006469D02*
X014869Y006469D01*
X014869Y006568D02*
X014521Y006568D01*
X014527Y006666D02*
X014869Y006666D01*
X014891Y006765D02*
X014512Y006765D01*
X014471Y006863D02*
X014957Y006863D01*
X015056Y006962D02*
X014449Y006962D01*
X014449Y007060D02*
X015154Y007060D01*
X015264Y007159D02*
X014449Y007159D01*
X014449Y007258D02*
X015635Y007258D01*
X015664Y007524D02*
X015830Y007455D01*
X016489Y007455D01*
X016654Y007524D01*
X016781Y007650D01*
X016849Y007816D01*
X016849Y007995D01*
X016781Y008160D01*
X016654Y008287D01*
X016489Y008355D01*
X015830Y008355D01*
X015664Y008287D01*
X015538Y008160D01*
X015469Y007995D01*
X015469Y007816D01*
X015538Y007650D01*
X015664Y007524D01*
X015635Y007553D02*
X014449Y007553D01*
X014449Y007455D02*
X022369Y007455D01*
X022369Y007553D02*
X019683Y007553D01*
X019654Y007524D02*
X019781Y007650D01*
X019849Y007816D01*
X019849Y007995D01*
X019781Y008160D01*
X019654Y008287D01*
X019489Y008355D01*
X018830Y008355D01*
X018664Y008287D01*
X018538Y008160D01*
X018469Y007995D01*
X018469Y007816D01*
X018538Y007650D01*
X018664Y007524D01*
X018830Y007455D01*
X019489Y007455D01*
X019654Y007524D01*
X019781Y007652D02*
X022315Y007652D01*
X022216Y007750D02*
X019822Y007750D01*
X019849Y007849D02*
X022118Y007849D01*
X022019Y007947D02*
X019849Y007947D01*
X019828Y008046D02*
X021921Y008046D01*
X021822Y008144D02*
X019787Y008144D01*
X019698Y008243D02*
X021724Y008243D01*
X021517Y008341D02*
X019521Y008341D01*
X019489Y008455D02*
X019654Y008524D01*
X019781Y008650D01*
X019849Y008816D01*
X019849Y008995D01*
X019781Y009160D01*
X019654Y009287D01*
X019489Y009355D01*
X018830Y009355D01*
X018664Y009287D01*
X018538Y009160D01*
X018469Y008995D01*
X018469Y008816D01*
X018538Y008650D01*
X018664Y008524D01*
X018830Y008455D01*
X019489Y008455D01*
X019669Y008539D02*
X021371Y008539D01*
X021353Y008637D02*
X019767Y008637D01*
X019816Y008736D02*
X021357Y008736D01*
X021397Y008834D02*
X019849Y008834D01*
X019849Y008933D02*
X021452Y008933D01*
X021452Y009031D02*
X019834Y009031D01*
X019793Y009130D02*
X021452Y009130D01*
X021452Y009228D02*
X019712Y009228D01*
X019557Y009327D02*
X021452Y009327D01*
X021452Y009425D02*
X014449Y009425D01*
X014449Y009327D02*
X015762Y009327D01*
X015830Y009355D02*
X015664Y009287D01*
X015538Y009160D01*
X015469Y008995D01*
X015469Y008816D01*
X015538Y008650D01*
X015664Y008524D01*
X015830Y008455D01*
X016489Y008455D01*
X016654Y008524D01*
X016781Y008650D01*
X016849Y008816D01*
X016849Y008995D01*
X016781Y009160D01*
X016654Y009287D01*
X016489Y009355D01*
X015830Y009355D01*
X015830Y009455D02*
X015664Y009524D01*
X014449Y009524D01*
X014449Y009623D02*
X015565Y009623D01*
X015538Y009650D02*
X015664Y009524D01*
X015538Y009650D02*
X015469Y009816D01*
X015469Y009995D01*
X015538Y010160D01*
X015664Y010287D01*
X015830Y010355D01*
X016489Y010355D01*
X016654Y010287D01*
X016781Y010160D01*
X016849Y009995D01*
X016849Y009816D01*
X016781Y009650D01*
X016654Y009524D01*
X018664Y009524D01*
X018830Y009455D01*
X019489Y009455D01*
X019654Y009524D01*
X021452Y009524D01*
X021452Y009623D02*
X019753Y009623D01*
X019781Y009650D02*
X019849Y009816D01*
X019849Y009995D01*
X019781Y010160D01*
X019654Y010287D01*
X019489Y010355D01*
X018830Y010355D01*
X018664Y010287D01*
X018538Y010160D01*
X018469Y009995D01*
X018469Y009816D01*
X018538Y009650D01*
X018664Y009524D01*
X018565Y009623D02*
X016753Y009623D01*
X016810Y009721D02*
X018508Y009721D01*
X018469Y009820D02*
X016849Y009820D01*
X016849Y009918D02*
X018469Y009918D01*
X018478Y010017D02*
X016840Y010017D01*
X016799Y010115D02*
X018519Y010115D01*
X018591Y010214D02*
X016727Y010214D01*
X016592Y010312D02*
X018726Y010312D01*
X018698Y010509D02*
X016620Y010509D01*
X016654Y010524D02*
X016781Y010650D01*
X016849Y010816D01*
X016849Y010995D01*
X016781Y011160D01*
X016654Y011287D01*
X016489Y011355D01*
X015830Y011355D01*
X015664Y011287D01*
X015538Y011160D01*
X015469Y010995D01*
X015469Y010816D01*
X015538Y010650D01*
X015664Y010524D01*
X015830Y010455D01*
X016489Y010455D01*
X016654Y010524D01*
X016738Y010608D02*
X018580Y010608D01*
X017947Y010707D02*
X016804Y010707D01*
X016845Y010805D02*
X017849Y010805D01*
X017750Y010904D02*
X016849Y010904D01*
X016846Y011002D02*
X017652Y011002D01*
X017553Y011101D02*
X016805Y011101D01*
X016741Y011199D02*
X017455Y011199D01*
X017390Y011298D02*
X016627Y011298D01*
X016507Y011549D02*
X016574Y011577D01*
X016635Y011618D01*
X016686Y011669D01*
X016727Y011730D01*
X016755Y011797D01*
X016769Y011869D01*
X016769Y011875D01*
X016189Y011875D01*
X016189Y011535D01*
X016436Y011535D01*
X016507Y011549D01*
X016599Y011593D02*
X017369Y011593D01*
X017369Y011495D02*
X014449Y011495D01*
X014449Y011593D02*
X015719Y011593D01*
X015744Y011577D02*
X015811Y011549D01*
X015883Y011535D01*
X016129Y011535D01*
X016129Y011875D01*
X016189Y011875D01*
X016189Y011935D01*
X016769Y011935D01*
X016769Y011942D01*
X016755Y012013D01*
X016727Y012080D01*
X016686Y012141D01*
X016635Y012192D01*
X016574Y012233D01*
X016507Y012261D01*
X016436Y012275D01*
X016189Y012275D01*
X016189Y011935D01*
X016129Y011935D01*
X016129Y011875D01*
X015549Y011875D01*
X015549Y011869D01*
X015563Y011797D01*
X015591Y011730D01*
X015632Y011669D01*
X015683Y011618D01*
X015744Y011577D01*
X015616Y011692D02*
X014449Y011692D01*
X014449Y011791D02*
X015566Y011791D01*
X015549Y011935D02*
X016129Y011935D01*
X016129Y012275D01*
X015883Y012275D01*
X015811Y012261D01*
X015744Y012233D01*
X015683Y012192D01*
X015632Y012141D01*
X015591Y012080D01*
X015563Y012013D01*
X015549Y011942D01*
X015549Y011935D01*
X015558Y011988D02*
X014449Y011988D01*
X014449Y012086D02*
X015595Y012086D01*
X015675Y012185D02*
X014449Y012185D01*
X014449Y012283D02*
X017369Y012283D01*
X017369Y012185D02*
X016643Y012185D01*
X016723Y012086D02*
X017369Y012086D01*
X017369Y011988D02*
X016760Y011988D01*
X016752Y011791D02*
X017369Y011791D01*
X017369Y011889D02*
X016189Y011889D01*
X016129Y011889D02*
X014449Y011889D01*
X014449Y011396D02*
X017369Y011396D01*
X017369Y011692D02*
X016702Y011692D01*
X016189Y011692D02*
X016129Y011692D01*
X016129Y011791D02*
X016189Y011791D01*
X016189Y011988D02*
X016129Y011988D01*
X016129Y012086D02*
X016189Y012086D01*
X016189Y012185D02*
X016129Y012185D01*
X015769Y012480D02*
X014449Y012480D01*
X014449Y012382D02*
X017272Y012382D01*
X017174Y012480D02*
X016549Y012480D01*
X016709Y012579D02*
X017075Y012579D01*
X017501Y012973D02*
X018555Y012973D01*
X018549Y012942D02*
X018549Y012935D01*
X019129Y012935D01*
X019129Y012875D01*
X019189Y012875D01*
X019189Y012535D01*
X019436Y012535D01*
X019507Y012549D01*
X019574Y012577D01*
X019635Y012618D01*
X019686Y012669D01*
X019727Y012730D01*
X019755Y012797D01*
X019769Y012869D01*
X019769Y012875D01*
X019189Y012875D01*
X019189Y012935D01*
X019769Y012935D01*
X019769Y012942D01*
X019755Y013013D01*
X019727Y013080D01*
X019686Y013141D01*
X019635Y013192D01*
X019574Y013233D01*
X019507Y013261D01*
X019436Y013275D01*
X019189Y013275D01*
X019189Y012935D01*
X019129Y012935D01*
X019129Y013275D01*
X018883Y013275D01*
X018811Y013261D01*
X018744Y013233D01*
X018683Y013192D01*
X018632Y013141D01*
X018591Y013080D01*
X018563Y013013D01*
X018549Y012942D01*
X018549Y012875D02*
X018549Y012869D01*
X018563Y012797D01*
X018591Y012730D01*
X018632Y012669D01*
X018683Y012618D01*
X018744Y012577D01*
X018811Y012549D01*
X018883Y012535D01*
X019129Y012535D01*
X019129Y012875D01*
X018549Y012875D01*
X018549Y012874D02*
X017600Y012874D01*
X017698Y012776D02*
X018572Y012776D01*
X018626Y012677D02*
X017797Y012677D01*
X017823Y012651D02*
X017823Y012651D01*
X017895Y012579D02*
X018741Y012579D01*
X018830Y012355D02*
X018664Y012287D01*
X018538Y012160D01*
X018469Y011995D01*
X018469Y011816D01*
X018538Y011650D01*
X018664Y011524D01*
X018830Y011455D01*
X019489Y011455D01*
X019654Y011524D01*
X019781Y011650D01*
X019849Y011816D01*
X019849Y011995D01*
X019781Y012160D01*
X019654Y012287D01*
X019489Y012355D01*
X018830Y012355D01*
X018661Y012283D02*
X017949Y012283D01*
X017949Y012185D02*
X018562Y012185D01*
X018507Y012086D02*
X017949Y012086D01*
X017949Y011988D02*
X018469Y011988D01*
X018469Y011889D02*
X017949Y011889D01*
X017949Y011791D02*
X018479Y011791D01*
X018520Y011692D02*
X017949Y011692D01*
X017949Y011593D02*
X018594Y011593D01*
X018734Y011495D02*
X017979Y011495D01*
X018078Y011396D02*
X023139Y011396D01*
X023139Y011298D02*
X019627Y011298D01*
X019741Y011199D02*
X023139Y011199D01*
X023139Y011101D02*
X021720Y011101D01*
X021819Y011002D02*
X023139Y011002D01*
X023139Y010904D02*
X021917Y010904D01*
X021978Y010805D02*
X023139Y010805D01*
X023079Y010707D02*
X021992Y010707D01*
X021992Y010608D02*
X022980Y010608D01*
X022910Y010509D02*
X021992Y010509D01*
X021992Y010411D02*
X022889Y010411D01*
X022889Y010312D02*
X021992Y010312D01*
X021992Y010214D02*
X022889Y010214D01*
X022889Y010115D02*
X021992Y010115D01*
X021992Y010017D02*
X022889Y010017D01*
X022799Y009918D02*
X021992Y009918D01*
X021992Y009820D02*
X022764Y009820D01*
X022764Y009721D02*
X021992Y009721D01*
X021992Y009623D02*
X022764Y009623D01*
X022764Y009524D02*
X021992Y009524D01*
X021992Y009425D02*
X022764Y009425D01*
X022764Y009327D02*
X021992Y009327D01*
X021992Y009228D02*
X022764Y009228D01*
X022764Y009130D02*
X021992Y009130D01*
X021992Y009031D02*
X022764Y009031D01*
X022764Y008933D02*
X021992Y008933D01*
X022046Y008834D02*
X022771Y008834D01*
X022822Y008736D02*
X022087Y008736D01*
X022150Y008637D02*
X022916Y008637D01*
X022934Y008539D02*
X022248Y008539D01*
X022347Y008440D02*
X022979Y008440D01*
X023014Y008341D02*
X022445Y008341D01*
X022544Y008243D02*
X023014Y008243D01*
X023048Y008144D02*
X022642Y008144D01*
X022741Y008046D02*
X023136Y008046D01*
X023139Y007947D02*
X022839Y007947D01*
X022919Y007849D02*
X023139Y007849D01*
X023139Y007750D02*
X022949Y007750D01*
X022949Y007652D02*
X023139Y007652D01*
X023139Y007553D02*
X022949Y007553D01*
X022949Y007455D02*
X023139Y007455D01*
X023139Y007356D02*
X022949Y007356D01*
X022949Y007258D02*
X023139Y007258D01*
X023139Y007159D02*
X022949Y007159D01*
X022949Y007060D02*
X023139Y007060D01*
X023139Y006962D02*
X022949Y006962D01*
X022949Y006863D02*
X023139Y006863D01*
X023139Y006765D02*
X022949Y006765D01*
X022949Y006666D02*
X023139Y006666D01*
X023139Y006568D02*
X022949Y006568D01*
X022949Y006469D02*
X023139Y006469D01*
X023118Y006371D02*
X022949Y006371D01*
X022949Y006272D02*
X023019Y006272D01*
X022369Y006272D02*
X019668Y006272D01*
X019654Y006287D02*
X019489Y006355D01*
X018830Y006355D01*
X018664Y006287D01*
X018538Y006160D01*
X018469Y005995D01*
X018469Y005816D01*
X018538Y005650D01*
X018664Y005524D01*
X018830Y005455D01*
X019489Y005455D01*
X019654Y005524D01*
X019781Y005650D01*
X019849Y005816D01*
X019849Y005995D01*
X019781Y006160D01*
X019654Y006287D01*
X019767Y006174D02*
X022369Y006174D01*
X022369Y006075D02*
X019816Y006075D01*
X019849Y005976D02*
X022369Y005976D01*
X022369Y005878D02*
X019849Y005878D01*
X019834Y005779D02*
X022369Y005779D01*
X022369Y005681D02*
X019793Y005681D01*
X019713Y005582D02*
X022369Y005582D01*
X022369Y005484D02*
X019558Y005484D01*
X018760Y005484D02*
X016558Y005484D01*
X016489Y005455D02*
X016654Y005524D01*
X016781Y005650D01*
X016849Y005816D01*
X016849Y005995D01*
X016781Y006160D01*
X016654Y006287D01*
X016489Y006355D01*
X015830Y006355D01*
X015664Y006287D01*
X015538Y006160D01*
X015469Y005995D01*
X015469Y005816D01*
X015538Y005650D01*
X015664Y005524D01*
X015830Y005455D01*
X016489Y005455D01*
X016713Y005582D02*
X018605Y005582D01*
X018525Y005681D02*
X016793Y005681D01*
X016834Y005779D02*
X018484Y005779D01*
X018469Y005878D02*
X016849Y005878D01*
X016849Y005976D02*
X018469Y005976D01*
X018502Y006075D02*
X016816Y006075D01*
X016767Y006174D02*
X018551Y006174D01*
X018650Y006272D02*
X016668Y006272D01*
X016522Y006469D02*
X018796Y006469D01*
X018830Y006455D02*
X019489Y006455D01*
X019654Y006524D01*
X019781Y006650D01*
X019849Y006816D01*
X019849Y006995D01*
X019781Y007160D01*
X019654Y007287D01*
X019489Y007355D01*
X018830Y007355D01*
X018664Y007287D01*
X018538Y007160D01*
X018469Y006995D01*
X018469Y006816D01*
X018538Y006650D01*
X018664Y006524D01*
X018830Y006455D01*
X018620Y006568D02*
X016698Y006568D01*
X016787Y006666D02*
X018531Y006666D01*
X018490Y006765D02*
X016828Y006765D01*
X016849Y006863D02*
X018469Y006863D01*
X018469Y006962D02*
X016849Y006962D01*
X016822Y007060D02*
X018496Y007060D01*
X018537Y007159D02*
X016781Y007159D01*
X016683Y007258D02*
X018635Y007258D01*
X018635Y007553D02*
X016683Y007553D01*
X016781Y007652D02*
X018537Y007652D01*
X018496Y007750D02*
X016822Y007750D01*
X016849Y007849D02*
X018469Y007849D01*
X018469Y007947D02*
X016849Y007947D01*
X016828Y008046D02*
X018490Y008046D01*
X018531Y008144D02*
X016787Y008144D01*
X016698Y008243D02*
X018621Y008243D01*
X018797Y008341D02*
X016521Y008341D01*
X016669Y008539D02*
X018649Y008539D01*
X018551Y008637D02*
X016767Y008637D01*
X016816Y008736D02*
X018502Y008736D01*
X018469Y008834D02*
X016849Y008834D01*
X016849Y008933D02*
X018469Y008933D01*
X018484Y009031D02*
X016834Y009031D01*
X016793Y009130D02*
X018525Y009130D01*
X018606Y009228D02*
X016712Y009228D01*
X016557Y009327D02*
X018762Y009327D01*
X019654Y009524D02*
X019781Y009650D01*
X019810Y009721D02*
X021452Y009721D01*
X021452Y009820D02*
X019849Y009820D01*
X019849Y009918D02*
X021452Y009918D01*
X021452Y010017D02*
X019840Y010017D01*
X019799Y010115D02*
X021452Y010115D01*
X021452Y010214D02*
X019727Y010214D01*
X019592Y010312D02*
X021452Y010312D01*
X021452Y010411D02*
X014449Y010411D01*
X014449Y010509D02*
X015698Y010509D01*
X015580Y010608D02*
X014449Y010608D01*
X014449Y010707D02*
X015514Y010707D01*
X015473Y010805D02*
X014449Y010805D01*
X014449Y010904D02*
X015469Y010904D01*
X015472Y011002D02*
X014449Y011002D01*
X014449Y011101D02*
X015513Y011101D01*
X015577Y011199D02*
X014449Y011199D01*
X014449Y011298D02*
X015691Y011298D01*
X016129Y011593D02*
X016189Y011593D01*
X015609Y012579D02*
X014449Y012579D01*
X014449Y012677D02*
X015526Y012677D01*
X015485Y012776D02*
X014449Y012776D01*
X014449Y012874D02*
X015469Y012874D01*
X015469Y012973D02*
X014449Y012973D01*
X014486Y013072D02*
X015501Y013072D01*
X015491Y013761D02*
X013175Y013761D01*
X013077Y013663D02*
X014274Y013663D01*
X014158Y013564D02*
X012978Y013564D01*
X012880Y013466D02*
X014060Y013466D01*
X013961Y013367D02*
X012781Y013367D01*
X012683Y013269D02*
X013892Y013269D01*
X013869Y013170D02*
X012584Y013170D01*
X012486Y013072D02*
X013869Y013072D01*
X013869Y012973D02*
X012387Y012973D01*
X012289Y012874D02*
X013869Y012874D01*
X013869Y012776D02*
X012190Y012776D01*
X012091Y012677D02*
X013869Y012677D01*
X013869Y012579D02*
X011993Y012579D01*
X011894Y012480D02*
X013869Y012480D01*
X013869Y012382D02*
X011796Y012382D01*
X011697Y012283D02*
X013869Y012283D01*
X013869Y012185D02*
X011599Y012185D01*
X011500Y012086D02*
X013869Y012086D01*
X013869Y011988D02*
X011402Y011988D01*
X011303Y011889D02*
X013869Y011889D01*
X013869Y011791D02*
X011205Y011791D01*
X011106Y011692D02*
X013869Y011692D01*
X013869Y011593D02*
X011007Y011593D01*
X010909Y011495D02*
X013869Y011495D01*
X013869Y011396D02*
X010810Y011396D01*
X010712Y011298D02*
X013869Y011298D01*
X013869Y011199D02*
X010613Y011199D01*
X010515Y011101D02*
X013869Y011101D01*
X013869Y011002D02*
X010416Y011002D01*
X010318Y010904D02*
X013869Y010904D01*
X013869Y010805D02*
X010219Y010805D01*
X010121Y010707D02*
X013869Y010707D01*
X013869Y010608D02*
X010022Y010608D01*
X009332Y009918D02*
X011375Y009918D01*
X011399Y009820D02*
X009234Y009820D01*
X009135Y009721D02*
X011399Y009721D01*
X011399Y009623D02*
X009037Y009623D01*
X008938Y009524D02*
X011399Y009524D01*
X011399Y009425D02*
X008839Y009425D01*
X008741Y009327D02*
X011399Y009327D01*
X011399Y009228D02*
X008642Y009228D01*
X008544Y009130D02*
X011399Y009130D01*
X011399Y009031D02*
X008445Y009031D01*
X008347Y008933D02*
X011399Y008933D01*
X011399Y008834D02*
X008248Y008834D01*
X008150Y008736D02*
X011399Y008736D01*
X011399Y008637D02*
X008051Y008637D01*
X007953Y008539D02*
X011399Y008539D01*
X011399Y008440D02*
X007854Y008440D01*
X007756Y008341D02*
X011399Y008341D01*
X011399Y008243D02*
X007657Y008243D01*
X007558Y008144D02*
X011399Y008144D01*
X011399Y008046D02*
X007460Y008046D01*
X007361Y007947D02*
X011399Y007947D01*
X011399Y007849D02*
X007263Y007849D01*
X007164Y007750D02*
X011399Y007750D01*
X011399Y007652D02*
X007066Y007652D01*
X006967Y007553D02*
X011399Y007553D01*
X011399Y007455D02*
X006869Y007455D01*
X006770Y007356D02*
X011399Y007356D01*
X011399Y007258D02*
X006672Y007258D01*
X006573Y007159D02*
X011399Y007159D01*
X011399Y007060D02*
X006474Y007060D01*
X006449Y006962D02*
X011399Y006962D01*
X011399Y006863D02*
X006449Y006863D01*
X006449Y006765D02*
X011399Y006765D01*
X011399Y006666D02*
X006449Y006666D01*
X006449Y006568D02*
X011399Y006568D01*
X011399Y006469D02*
X006449Y006469D01*
X006449Y006371D02*
X011399Y006371D01*
X011399Y006272D02*
X006449Y006272D01*
X006449Y006174D02*
X011399Y006174D01*
X011411Y006075D02*
X006449Y006075D01*
X006449Y005976D02*
X011470Y005976D01*
X011569Y005878D02*
X006449Y005878D01*
X006449Y005779D02*
X011667Y005779D01*
X011771Y005681D02*
X006449Y005681D01*
X006449Y005582D02*
X013864Y005582D01*
X013963Y005484D02*
X006449Y005484D01*
X006449Y005385D02*
X014061Y005385D01*
X014160Y005287D02*
X006449Y005287D01*
X006449Y005188D02*
X014258Y005188D01*
X014357Y005090D02*
X007440Y005090D01*
X007435Y005095D02*
X007256Y005169D01*
X007062Y005169D01*
X006883Y005095D01*
X006746Y004958D01*
X006672Y004779D01*
X006672Y004031D01*
X006746Y003852D01*
X006883Y003716D01*
X007062Y003641D01*
X007256Y003641D01*
X007435Y003716D01*
X007572Y003852D01*
X007646Y004031D01*
X007646Y004779D01*
X007572Y004958D01*
X007435Y005095D01*
X007538Y004991D02*
X014455Y004991D01*
X014554Y004892D02*
X007599Y004892D01*
X007640Y004794D02*
X014653Y004794D01*
X014751Y004695D02*
X007646Y004695D01*
X007646Y004597D02*
X014850Y004597D01*
X014948Y004498D02*
X007646Y004498D01*
X007646Y004400D02*
X013516Y004400D01*
X013340Y004301D02*
X007646Y004301D01*
X007646Y004203D02*
X013244Y004203D01*
X013203Y004104D02*
X007646Y004104D01*
X007635Y004006D02*
X013172Y004006D01*
X013172Y003907D02*
X007594Y003907D01*
X007528Y003809D02*
X013172Y003809D01*
X013172Y003710D02*
X007421Y003710D01*
X006897Y003710D02*
X006421Y003710D01*
X006528Y003809D02*
X006790Y003809D01*
X006724Y003907D02*
X006594Y003907D01*
X006635Y004006D02*
X006683Y004006D01*
X006672Y004104D02*
X006646Y004104D01*
X006646Y004203D02*
X006672Y004203D01*
X006672Y004301D02*
X006646Y004301D01*
X006646Y004400D02*
X006672Y004400D01*
X006672Y004498D02*
X006646Y004498D01*
X006646Y004597D02*
X006672Y004597D01*
X006672Y004695D02*
X006646Y004695D01*
X006640Y004794D02*
X006679Y004794D01*
X006719Y004892D02*
X006599Y004892D01*
X006538Y004991D02*
X006780Y004991D01*
X006878Y005090D02*
X006449Y005090D01*
X005869Y005090D02*
X005449Y005090D01*
X005449Y005188D02*
X005869Y005188D01*
X005869Y005287D02*
X005449Y005287D01*
X005449Y005385D02*
X005869Y005385D01*
X005869Y005484D02*
X005449Y005484D01*
X005449Y005582D02*
X005869Y005582D01*
X005869Y005681D02*
X005449Y005681D01*
X005449Y005779D02*
X005869Y005779D01*
X005869Y005878D02*
X005449Y005878D01*
X005449Y005976D02*
X005869Y005976D01*
X005869Y006075D02*
X005449Y006075D01*
X005449Y006174D02*
X005869Y006174D01*
X005869Y006272D02*
X005449Y006272D01*
X005449Y006371D02*
X005869Y006371D01*
X005869Y006469D02*
X005449Y006469D01*
X005449Y006568D02*
X005869Y006568D01*
X005869Y006666D02*
X005449Y006666D01*
X005449Y006765D02*
X005869Y006765D01*
X005869Y006863D02*
X005527Y006863D01*
X005626Y006962D02*
X005869Y006962D01*
X005869Y007060D02*
X005724Y007060D01*
X005823Y007159D02*
X005869Y007159D01*
X005397Y007553D02*
X004272Y007553D01*
X004358Y007652D02*
X005496Y007652D01*
X005594Y007750D02*
X004399Y007750D01*
X004423Y007849D02*
X005693Y007849D01*
X005791Y007947D02*
X004423Y007947D01*
X004405Y008046D02*
X005890Y008046D01*
X005988Y008144D02*
X004364Y008144D01*
X004287Y008243D02*
X006087Y008243D01*
X006185Y008341D02*
X004155Y008341D01*
X004085Y008440D02*
X006284Y008440D01*
X006382Y008539D02*
X004736Y008539D01*
X004582Y008539D02*
X004258Y008539D01*
X004352Y008637D02*
X004406Y008637D01*
X003707Y009524D02*
X003611Y009524D01*
X003611Y009623D02*
X003707Y009623D01*
X003707Y009721D02*
X003611Y009721D01*
X003611Y009820D02*
X003707Y009820D01*
X003707Y010017D02*
X003611Y010017D01*
X003611Y010115D02*
X003707Y010115D01*
X003707Y010214D02*
X003611Y010214D01*
X004203Y010214D02*
X007058Y010214D01*
X007156Y010312D02*
X001409Y010312D01*
X001409Y010608D02*
X002991Y010608D01*
X002937Y010707D02*
X001409Y010707D01*
X001409Y010805D02*
X002897Y010805D01*
X002895Y010904D02*
X001409Y010904D01*
X001409Y011002D02*
X002895Y011002D01*
X002936Y011101D02*
X001409Y011101D01*
X001409Y011199D02*
X002988Y011199D01*
X003086Y011298D02*
X001409Y011298D01*
X001409Y011396D02*
X003369Y011396D01*
X003369Y011495D02*
X001409Y011495D01*
X001409Y011593D02*
X003369Y011593D01*
X003369Y011692D02*
X001409Y011692D01*
X001409Y011791D02*
X003369Y011791D01*
X003369Y011889D02*
X001409Y011889D01*
X001409Y011988D02*
X003185Y011988D01*
X003134Y012086D02*
X001409Y012086D01*
X001409Y012185D02*
X003134Y012185D01*
X003134Y012283D02*
X001409Y012283D01*
X001409Y012382D02*
X003134Y012382D01*
X003134Y012480D02*
X001409Y012480D01*
X001409Y012579D02*
X003134Y012579D01*
X003134Y012677D02*
X001409Y012677D01*
X001409Y012776D02*
X003134Y012776D01*
X003134Y012874D02*
X001409Y012874D01*
X001409Y012973D02*
X003134Y012973D01*
X003134Y013072D02*
X001409Y013072D01*
X001409Y013170D02*
X003134Y013170D01*
X003134Y013269D02*
X001409Y013269D01*
X001409Y013367D02*
X003229Y013367D01*
X003369Y013466D02*
X001409Y013466D01*
X001409Y013564D02*
X003369Y013564D01*
X003369Y013663D02*
X001409Y013663D01*
X001409Y013761D02*
X003389Y013761D01*
X003454Y013860D02*
X001409Y013860D01*
X001409Y013958D02*
X003552Y013958D01*
X003651Y014057D02*
X001409Y014057D01*
X001409Y014156D02*
X003749Y014156D01*
X003848Y014254D02*
X001409Y014254D01*
X001409Y014353D02*
X003869Y014353D01*
X003869Y014451D02*
X001409Y014451D01*
X001409Y014550D02*
X003869Y014550D01*
X003869Y014648D02*
X001409Y014648D01*
X001409Y014747D02*
X003869Y014747D01*
X003869Y014845D02*
X001409Y014845D01*
X001409Y014944D02*
X003869Y014944D01*
X003869Y015042D02*
X001409Y015042D01*
X001409Y015141D02*
X003869Y015141D01*
X003869Y015240D02*
X001409Y015240D01*
X001409Y015338D02*
X003869Y015338D01*
X003857Y015437D02*
X001409Y015437D01*
X001409Y015535D02*
X003810Y015535D01*
X003791Y015634D02*
X001409Y015634D01*
X001409Y015732D02*
X003793Y015732D01*
X003833Y015831D02*
X001409Y015831D01*
X001409Y015929D02*
X003913Y015929D01*
X004783Y016619D02*
X001409Y016619D01*
X001409Y016521D02*
X004875Y016521D01*
X005027Y016422D02*
X001409Y016422D01*
X001409Y016718D02*
X004743Y016718D01*
X004708Y016816D02*
X001409Y016816D01*
X001409Y016915D02*
X004708Y016915D01*
X004710Y017013D02*
X001409Y017013D01*
X001409Y017112D02*
X004751Y017112D01*
X004796Y017210D02*
X001409Y017210D01*
X001409Y017309D02*
X004894Y017309D01*
X005073Y017407D02*
X001409Y017407D01*
X001409Y017506D02*
X007148Y017506D01*
X007049Y017605D02*
X001409Y017605D01*
X001409Y017703D02*
X006951Y017703D01*
X006852Y017802D02*
X001409Y017802D01*
X001409Y017900D02*
X006754Y017900D01*
X006655Y017999D02*
X001409Y017999D01*
X001409Y018097D02*
X006557Y018097D01*
X006458Y018196D02*
X001409Y018196D01*
X001409Y018294D02*
X006360Y018294D01*
X006261Y018393D02*
X001409Y018393D01*
X001409Y018491D02*
X006163Y018491D01*
X006064Y018590D02*
X001409Y018590D01*
X001409Y018689D02*
X005965Y018689D01*
X005867Y018787D02*
X001409Y018787D01*
X001409Y018886D02*
X001923Y018886D01*
X001697Y018984D02*
X001409Y018984D01*
X001409Y019083D02*
X001598Y019083D01*
X001500Y019181D02*
X001409Y019181D01*
X001409Y019280D02*
X001447Y019280D01*
X001422Y019970D02*
X001409Y019970D01*
X001409Y020068D02*
X001463Y020068D01*
X001409Y020167D02*
X001538Y020167D01*
X001636Y020265D02*
X001409Y020265D01*
X001409Y020364D02*
X001776Y020364D01*
X001409Y020462D02*
X029468Y020462D01*
X029468Y020364D02*
X027542Y020364D01*
X027613Y020334D02*
X027318Y020456D01*
X027000Y020456D01*
X026705Y020334D01*
X026480Y020109D01*
X026358Y019814D01*
X026358Y019496D01*
X026480Y019201D01*
X026705Y018976D01*
X027000Y018854D01*
X027318Y018854D01*
X027613Y018976D01*
X027838Y019201D01*
X027960Y019496D01*
X027960Y019814D01*
X027838Y020109D01*
X027613Y020334D01*
X027682Y020265D02*
X029468Y020265D01*
X029468Y020167D02*
X027780Y020167D01*
X027855Y020068D02*
X029468Y020068D01*
X029468Y019970D02*
X027896Y019970D01*
X027937Y019871D02*
X029468Y019871D01*
X029468Y019773D02*
X027960Y019773D01*
X027960Y019674D02*
X029468Y019674D01*
X029468Y019575D02*
X027960Y019575D01*
X027952Y019477D02*
X029468Y019477D01*
X029468Y019378D02*
X027912Y019378D01*
X027871Y019280D02*
X029468Y019280D01*
X029468Y019181D02*
X027818Y019181D01*
X027720Y019083D02*
X029468Y019083D01*
X029468Y018984D02*
X027621Y018984D01*
X027395Y018886D02*
X029468Y018886D01*
X029468Y018787D02*
X026687Y018787D01*
X026589Y018886D02*
X026923Y018886D01*
X026786Y018689D02*
X029468Y018689D01*
X029468Y018590D02*
X026884Y018590D01*
X026937Y018491D02*
X029468Y018491D01*
X029468Y018393D02*
X026949Y018393D01*
X026949Y018294D02*
X029468Y018294D01*
X029468Y018196D02*
X026949Y018196D01*
X026949Y018097D02*
X029468Y018097D01*
X029468Y017999D02*
X026949Y017999D01*
X026949Y017900D02*
X029468Y017900D01*
X029468Y017802D02*
X026949Y017802D01*
X026949Y017703D02*
X029468Y017703D01*
X029468Y017605D02*
X026949Y017605D01*
X026261Y018393D02*
X011307Y018393D01*
X011405Y018491D02*
X015742Y018491D01*
X015598Y018590D02*
X011504Y018590D01*
X011603Y018689D02*
X015522Y018689D01*
X015481Y018787D02*
X011701Y018787D01*
X011800Y018886D02*
X015469Y018886D01*
X015469Y018984D02*
X011898Y018984D01*
X011997Y019083D02*
X013225Y019083D01*
X013593Y019083D02*
X015506Y019083D01*
X015559Y019181D02*
X013706Y019181D01*
X013756Y019280D02*
X015657Y019280D01*
X015869Y019378D02*
X013777Y019378D01*
X013777Y019477D02*
X015875Y019477D01*
X015919Y019575D02*
X013737Y019575D01*
X013661Y019674D02*
X016018Y019674D01*
X016116Y019773D02*
X013484Y019773D01*
X013334Y019773D02*
X011437Y019773D01*
X011498Y019674D02*
X011800Y019674D01*
X011669Y019575D02*
X011527Y019575D01*
X011527Y019477D02*
X011571Y019477D01*
X011298Y019871D02*
X016215Y019871D01*
X016313Y019970D02*
X002896Y019970D01*
X002855Y020068D02*
X016412Y020068D01*
X016533Y020167D02*
X002780Y020167D01*
X002682Y020265D02*
X026636Y020265D01*
X026538Y020167D02*
X025285Y020167D01*
X025406Y020068D02*
X026463Y020068D01*
X026422Y019970D02*
X025505Y019970D01*
X025603Y019871D02*
X026381Y019871D01*
X026358Y019773D02*
X025702Y019773D01*
X025800Y019674D02*
X026358Y019674D01*
X026358Y019575D02*
X025899Y019575D01*
X025997Y019477D02*
X026366Y019477D01*
X026406Y019378D02*
X026096Y019378D01*
X026194Y019280D02*
X026447Y019280D01*
X026500Y019181D02*
X026293Y019181D01*
X026392Y019083D02*
X026598Y019083D01*
X026697Y018984D02*
X026490Y018984D01*
X025177Y019477D02*
X016641Y019477D01*
X016739Y019575D02*
X025079Y019575D01*
X026776Y020364D02*
X002542Y020364D01*
X002937Y019871D02*
X011020Y019871D01*
X010881Y019773D02*
X008303Y019773D01*
X008289Y019787D02*
X008124Y019855D01*
X007945Y019855D01*
X007779Y019787D01*
X007653Y019660D01*
X007584Y019495D01*
X007584Y019316D01*
X007653Y019150D01*
X007779Y019024D01*
X007945Y018955D01*
X008124Y018955D01*
X008289Y019024D01*
X008416Y019150D01*
X008484Y019316D01*
X008484Y019495D01*
X008416Y019660D01*
X008289Y019787D01*
X008402Y019674D02*
X010820Y019674D01*
X010791Y019575D02*
X008451Y019575D01*
X008484Y019477D02*
X010696Y019477D01*
X010597Y019378D02*
X008484Y019378D01*
X008469Y019280D02*
X010499Y019280D01*
X010400Y019181D02*
X008428Y019181D01*
X008348Y019083D02*
X010302Y019083D01*
X010203Y018984D02*
X008194Y018984D01*
X008288Y018787D02*
X010006Y018787D01*
X010104Y018886D02*
X006589Y018886D01*
X006687Y018787D02*
X007780Y018787D01*
X007681Y018689D02*
X006786Y018689D01*
X006884Y018590D02*
X007624Y018590D01*
X007584Y018491D02*
X006983Y018491D01*
X007081Y018393D02*
X007584Y018393D01*
X007593Y018294D02*
X007180Y018294D01*
X007278Y018196D02*
X007634Y018196D01*
X007705Y018097D02*
X007377Y018097D01*
X007476Y017999D02*
X007839Y017999D01*
X008229Y017999D02*
X010093Y017999D01*
X010191Y018097D02*
X008363Y018097D01*
X007874Y018984D02*
X006490Y018984D01*
X006392Y019083D02*
X007720Y019083D01*
X007640Y019181D02*
X006293Y019181D01*
X006194Y019280D02*
X007599Y019280D01*
X007584Y019378D02*
X006096Y019378D01*
X006027Y019477D02*
X007584Y019477D01*
X007618Y019575D02*
X005987Y019575D01*
X005911Y019674D02*
X007667Y019674D01*
X007765Y019773D02*
X005734Y019773D01*
X005584Y019773D02*
X002960Y019773D01*
X002960Y019674D02*
X005407Y019674D01*
X005331Y019575D02*
X002960Y019575D01*
X002952Y019477D02*
X005291Y019477D01*
X005291Y019378D02*
X002912Y019378D01*
X002871Y019280D02*
X005312Y019280D01*
X005362Y019181D02*
X002818Y019181D01*
X002720Y019083D02*
X005475Y019083D01*
X005670Y018984D02*
X002621Y018984D01*
X002395Y018886D02*
X005768Y018886D01*
X005394Y017407D02*
X007249Y017407D01*
X009298Y015634D02*
X009478Y015634D01*
X009396Y015732D02*
X009576Y015732D01*
X009495Y015831D02*
X009675Y015831D01*
X009593Y015929D02*
X009773Y015929D01*
X009692Y016028D02*
X009872Y016028D01*
X009790Y016126D02*
X009970Y016126D01*
X009889Y016225D02*
X010069Y016225D01*
X009988Y016324D02*
X010167Y016324D01*
X010086Y016422D02*
X010266Y016422D01*
X010185Y016521D02*
X010364Y016521D01*
X010283Y016619D02*
X010463Y016619D01*
X010382Y016718D02*
X010561Y016718D01*
X010480Y016816D02*
X010660Y016816D01*
X011185Y016521D02*
X015671Y016521D01*
X015753Y016324D02*
X010988Y016324D01*
X011086Y016422D02*
X026369Y016422D01*
X026369Y015732D02*
X024778Y015732D01*
X024903Y015634D02*
X026369Y015634D01*
X026369Y015535D02*
X025002Y015535D01*
X025096Y015437D02*
X026369Y015437D01*
X026369Y015338D02*
X025136Y015338D01*
X025137Y015240D02*
X026369Y015240D01*
X026369Y015141D02*
X025137Y015141D01*
X025137Y015042D02*
X026369Y015042D01*
X026369Y014944D02*
X025137Y014944D01*
X025137Y014845D02*
X026369Y014845D01*
X026369Y014747D02*
X025137Y014747D01*
X025106Y014648D02*
X026369Y014648D01*
X026369Y014550D02*
X025026Y014550D01*
X024928Y014451D02*
X026369Y014451D01*
X026369Y014353D02*
X024829Y014353D01*
X024762Y014254D02*
X026369Y014254D01*
X026369Y014156D02*
X024762Y014156D01*
X024762Y014057D02*
X026369Y014057D01*
X026369Y013958D02*
X024762Y013958D01*
X024762Y013860D02*
X026369Y013860D01*
X026369Y013761D02*
X024762Y013761D01*
X024762Y013663D02*
X026369Y013663D01*
X026369Y013564D02*
X024762Y013564D01*
X024762Y013466D02*
X026369Y013466D01*
X026369Y013367D02*
X024762Y013367D01*
X024762Y013269D02*
X026369Y013269D01*
X026369Y013170D02*
X024762Y013170D01*
X024762Y013072D02*
X026369Y013072D01*
X026369Y012973D02*
X024762Y012973D01*
X024762Y012874D02*
X026369Y012874D01*
X026369Y012776D02*
X024762Y012776D01*
X024762Y012677D02*
X026369Y012677D01*
X026369Y012579D02*
X024762Y012579D01*
X024762Y012480D02*
X026369Y012480D01*
X026369Y012382D02*
X024762Y012382D01*
X024762Y012283D02*
X026369Y012283D01*
X026369Y012185D02*
X024762Y012185D01*
X024762Y012086D02*
X026369Y012086D01*
X026369Y011988D02*
X024762Y011988D01*
X024762Y011889D02*
X026369Y011889D01*
X026369Y011791D02*
X024762Y011791D01*
X024762Y011692D02*
X026369Y011692D01*
X026369Y011593D02*
X024762Y011593D01*
X024762Y011495D02*
X026369Y011495D01*
X026369Y011396D02*
X024762Y011396D01*
X024762Y011298D02*
X026369Y011298D01*
X026369Y011199D02*
X024762Y011199D01*
X024789Y011101D02*
X026369Y011101D01*
X026369Y011002D02*
X024830Y011002D01*
X024840Y010904D02*
X026369Y010904D01*
X026369Y010805D02*
X024829Y010805D01*
X024788Y010707D02*
X026369Y010707D01*
X026369Y010608D02*
X024695Y010608D01*
X024304Y010509D02*
X026369Y010509D01*
X026369Y010411D02*
X024304Y010411D01*
X024304Y010312D02*
X026369Y010312D01*
X026369Y010214D02*
X024304Y010214D01*
X024304Y010115D02*
X026369Y010115D01*
X026369Y010017D02*
X024304Y010017D01*
X024304Y009918D02*
X026369Y009918D01*
X026369Y009820D02*
X024304Y009820D01*
X024353Y009721D02*
X026369Y009721D01*
X026369Y009623D02*
X024394Y009623D01*
X024402Y009524D02*
X026369Y009524D01*
X026369Y009425D02*
X024389Y009425D01*
X024348Y009327D02*
X026369Y009327D01*
X026369Y009228D02*
X024304Y009228D01*
X024304Y009130D02*
X026369Y009130D01*
X026369Y009031D02*
X024304Y009031D01*
X024304Y008933D02*
X026369Y008933D01*
X026369Y008834D02*
X024304Y008834D01*
X024304Y008736D02*
X026369Y008736D01*
X026369Y008637D02*
X024304Y008637D01*
X024304Y008539D02*
X026369Y008539D01*
X026369Y008440D02*
X024304Y008440D01*
X024304Y008341D02*
X026369Y008341D01*
X026369Y008243D02*
X024304Y008243D01*
X024304Y008144D02*
X026369Y008144D01*
X026369Y008046D02*
X024304Y008046D01*
X024304Y007947D02*
X026369Y007947D01*
X026369Y007849D02*
X024304Y007849D01*
X024304Y007750D02*
X026369Y007750D01*
X026369Y007652D02*
X024304Y007652D01*
X024304Y007553D02*
X026369Y007553D01*
X025888Y007455D02*
X024366Y007455D01*
X024420Y007356D02*
X024903Y007356D01*
X024952Y007405D02*
X024659Y007112D01*
X024659Y006955D01*
X025109Y006955D01*
X025109Y007405D01*
X024952Y007405D01*
X025109Y007356D02*
X025209Y007356D01*
X025209Y007258D02*
X025109Y007258D01*
X025109Y007159D02*
X025209Y007159D01*
X025209Y007060D02*
X025109Y007060D01*
X025109Y006962D02*
X025209Y006962D01*
X025109Y006863D02*
X024523Y006863D01*
X024527Y006765D02*
X024659Y006765D01*
X024691Y006666D02*
X024510Y006666D01*
X024467Y006568D02*
X024789Y006568D01*
X024888Y006469D02*
X024369Y006469D01*
X024607Y006174D02*
X023992Y006174D01*
X023992Y006272D02*
X024706Y006272D01*
X024804Y006371D02*
X023992Y006371D01*
X024050Y006075D02*
X024579Y006075D01*
X024579Y005976D02*
X024090Y005976D01*
X024090Y005878D02*
X024579Y005878D01*
X024579Y005779D02*
X024068Y005779D01*
X024018Y005681D02*
X024579Y005681D01*
X024662Y005582D02*
X023904Y005582D01*
X023775Y005484D02*
X024760Y005484D01*
X024819Y005385D02*
X023777Y005385D01*
X023758Y005287D02*
X024720Y005287D01*
X024647Y004597D02*
X022877Y004597D01*
X022959Y004695D02*
X022779Y004695D01*
X022860Y004794D02*
X022680Y004794D01*
X022762Y004892D02*
X022582Y004892D01*
X022663Y004991D02*
X015983Y004991D01*
X015885Y005090D02*
X022564Y005090D01*
X022466Y005188D02*
X015786Y005188D01*
X015688Y005287D02*
X022394Y005287D01*
X022369Y005385D02*
X015589Y005385D01*
X015491Y005484D02*
X015760Y005484D01*
X015605Y005582D02*
X015449Y005582D01*
X015449Y005681D02*
X015525Y005681D01*
X015484Y005779D02*
X015449Y005779D01*
X015449Y005878D02*
X015469Y005878D01*
X015469Y005976D02*
X015449Y005976D01*
X015449Y006075D02*
X015502Y006075D01*
X015551Y006174D02*
X015449Y006174D01*
X015449Y006272D02*
X015650Y006272D01*
X015449Y006371D02*
X022369Y006371D01*
X022369Y006469D02*
X019522Y006469D01*
X019698Y006568D02*
X022369Y006568D01*
X022369Y006666D02*
X019787Y006666D01*
X019828Y006765D02*
X022369Y006765D01*
X022369Y006863D02*
X019849Y006863D01*
X019849Y006962D02*
X022369Y006962D01*
X022369Y007060D02*
X019822Y007060D01*
X019781Y007159D02*
X022369Y007159D01*
X022369Y007258D02*
X019683Y007258D01*
X021416Y008440D02*
X014449Y008440D01*
X014449Y008341D02*
X015797Y008341D01*
X015621Y008243D02*
X014449Y008243D01*
X014449Y008144D02*
X015531Y008144D01*
X015490Y008046D02*
X014449Y008046D01*
X014449Y007947D02*
X015469Y007947D01*
X015469Y007849D02*
X014449Y007849D01*
X014449Y007750D02*
X015496Y007750D01*
X015537Y007652D02*
X014449Y007652D01*
X014449Y007356D02*
X022369Y007356D01*
X024429Y007258D02*
X024804Y007258D01*
X024706Y007159D02*
X024429Y007159D01*
X024429Y007060D02*
X024659Y007060D01*
X024659Y006962D02*
X024482Y006962D01*
X025415Y007356D02*
X025790Y007356D01*
X025691Y007258D02*
X025514Y007258D01*
X021452Y010509D02*
X019620Y010509D01*
X019738Y010608D02*
X021449Y010608D01*
X023139Y011593D02*
X019724Y011593D01*
X019798Y011692D02*
X023139Y011692D01*
X023139Y011791D02*
X019839Y011791D01*
X019849Y011889D02*
X023139Y011889D01*
X023139Y011988D02*
X019849Y011988D01*
X019811Y012086D02*
X023139Y012086D01*
X023139Y012185D02*
X019756Y012185D01*
X019657Y012283D02*
X023139Y012283D01*
X023139Y012382D02*
X017949Y012382D01*
X017942Y012480D02*
X023139Y012480D01*
X023139Y012579D02*
X019577Y012579D01*
X019692Y012677D02*
X023139Y012677D01*
X023139Y012776D02*
X019746Y012776D01*
X019769Y012874D02*
X023139Y012874D01*
X023139Y012973D02*
X019763Y012973D01*
X019731Y013072D02*
X023139Y013072D01*
X023139Y013170D02*
X019657Y013170D01*
X019468Y013269D02*
X023139Y013269D01*
X023139Y013367D02*
X017031Y013367D01*
X016933Y013269D02*
X018850Y013269D01*
X018830Y013455D02*
X018664Y013524D01*
X018538Y013650D01*
X018469Y013816D01*
X018469Y013995D01*
X018538Y014160D01*
X018664Y014287D01*
X018830Y014355D01*
X019489Y014355D01*
X019654Y014287D01*
X019781Y014160D01*
X019849Y013995D01*
X019849Y013816D01*
X019781Y013650D01*
X019654Y013524D01*
X019489Y013455D01*
X018830Y013455D01*
X018804Y013466D02*
X017130Y013466D01*
X017228Y013564D02*
X018623Y013564D01*
X018532Y013663D02*
X017327Y013663D01*
X017425Y013761D02*
X018491Y013761D01*
X018469Y013860D02*
X017524Y013860D01*
X017622Y013958D02*
X018469Y013958D01*
X018495Y014057D02*
X017721Y014057D01*
X017820Y014156D02*
X018536Y014156D01*
X018632Y014254D02*
X017918Y014254D01*
X018017Y014353D02*
X018824Y014353D01*
X018638Y014550D02*
X018214Y014550D01*
X018115Y014451D02*
X022791Y014451D01*
X022791Y014353D02*
X019494Y014353D01*
X019686Y014254D02*
X022823Y014254D01*
X022888Y014156D02*
X019782Y014156D01*
X019823Y014057D02*
X023037Y014057D01*
X023139Y013958D02*
X019849Y013958D01*
X019849Y013860D02*
X023139Y013860D01*
X023139Y013761D02*
X019827Y013761D01*
X019786Y013663D02*
X023139Y013663D01*
X023139Y013564D02*
X019695Y013564D01*
X019514Y013466D02*
X023139Y013466D01*
X022821Y014550D02*
X019680Y014550D01*
X019779Y014648D02*
X022882Y014648D01*
X023022Y014747D02*
X019821Y014747D01*
X019849Y014845D02*
X023353Y014845D01*
X023353Y014944D02*
X019849Y014944D01*
X019829Y015042D02*
X023380Y015042D01*
X023437Y015141D02*
X019788Y015141D01*
X019701Y015240D02*
X023567Y015240D01*
X023689Y015338D02*
X019530Y015338D01*
X018788Y015338D02*
X017449Y015338D01*
X017449Y015240D02*
X018617Y015240D01*
X017985Y015141D02*
X017449Y015141D01*
X017449Y015042D02*
X017886Y015042D01*
X017788Y014944D02*
X017449Y014944D01*
X017449Y014845D02*
X017689Y014845D01*
X017591Y014747D02*
X017449Y014747D01*
X017449Y014648D02*
X017492Y014648D01*
X016869Y014845D02*
X016849Y014845D01*
X016841Y014747D02*
X016820Y014747D01*
X016849Y014944D02*
X016869Y014944D01*
X016869Y015042D02*
X016829Y015042D01*
X016869Y015141D02*
X016788Y015141D01*
X016869Y015240D02*
X016701Y015240D01*
X016869Y015338D02*
X016530Y015338D01*
X016665Y015535D02*
X016869Y015535D01*
X016869Y015437D02*
X013211Y015437D01*
X013258Y015535D02*
X015653Y015535D01*
X015554Y015634D02*
X013277Y015634D01*
X013276Y015732D02*
X015504Y015732D01*
X015469Y015831D02*
X013235Y015831D01*
X013155Y015929D02*
X015469Y015929D01*
X015483Y016028D02*
X010692Y016028D01*
X010790Y016126D02*
X015524Y016126D01*
X015603Y016225D02*
X010889Y016225D01*
X010593Y015929D02*
X012663Y015929D01*
X012583Y015831D02*
X010495Y015831D01*
X010396Y015732D02*
X012543Y015732D01*
X012478Y015634D02*
X010298Y015634D01*
X010199Y015535D02*
X012379Y015535D01*
X012280Y015437D02*
X010101Y015437D01*
X010002Y015338D02*
X012182Y015338D01*
X012083Y015240D02*
X009904Y015240D01*
X009805Y015141D02*
X011985Y015141D01*
X011886Y015042D02*
X009706Y015042D01*
X009608Y014944D02*
X011788Y014944D01*
X011689Y014845D02*
X009509Y014845D01*
X009449Y014747D02*
X011591Y014747D01*
X011492Y014648D02*
X009449Y014648D01*
X009449Y014550D02*
X011394Y014550D01*
X011295Y014451D02*
X009449Y014451D01*
X009449Y014353D02*
X011196Y014353D01*
X011098Y014254D02*
X009778Y014254D01*
X009540Y014254D02*
X009449Y014254D01*
X009449Y013564D02*
X009520Y013564D01*
X009449Y013466D02*
X011310Y013466D01*
X011408Y013564D02*
X009798Y013564D01*
X009449Y013367D02*
X011211Y013367D01*
X011112Y013269D02*
X009449Y013269D01*
X009449Y013170D02*
X011014Y013170D01*
X010915Y013072D02*
X009449Y013072D01*
X009449Y012973D02*
X010817Y012973D01*
X010718Y012874D02*
X009449Y012874D01*
X009449Y012776D02*
X010620Y012776D01*
X010521Y012677D02*
X009449Y012677D01*
X009449Y012579D02*
X010423Y012579D01*
X010324Y012480D02*
X009449Y012480D01*
X009449Y012382D02*
X010226Y012382D01*
X010127Y012283D02*
X009449Y012283D01*
X009449Y012185D02*
X010029Y012185D01*
X009930Y012086D02*
X009449Y012086D01*
X009449Y011988D02*
X009831Y011988D01*
X009733Y011889D02*
X009449Y011889D01*
X009425Y011791D02*
X009634Y011791D01*
X009536Y011692D02*
X009356Y011692D01*
X009437Y011593D02*
X009257Y011593D01*
X009339Y011495D02*
X009159Y011495D01*
X009240Y011396D02*
X009060Y011396D01*
X009142Y011298D02*
X008962Y011298D01*
X009043Y011199D02*
X008863Y011199D01*
X008945Y011101D02*
X008765Y011101D01*
X008846Y011002D02*
X008666Y011002D01*
X008747Y010904D02*
X008568Y010904D01*
X008649Y010805D02*
X008469Y010805D01*
X008550Y010707D02*
X008371Y010707D01*
X008452Y010608D02*
X008272Y010608D01*
X008353Y010509D02*
X008174Y010509D01*
X008255Y010411D02*
X008075Y010411D01*
X008156Y010312D02*
X007976Y010312D01*
X008058Y010214D02*
X007878Y010214D01*
X007959Y010115D02*
X007779Y010115D01*
X007861Y010017D02*
X007681Y010017D01*
X007762Y009918D02*
X007582Y009918D01*
X007663Y009820D02*
X007484Y009820D01*
X007565Y009721D02*
X007385Y009721D01*
X007466Y009623D02*
X007287Y009623D01*
X007368Y009524D02*
X007188Y009524D01*
X007269Y009425D02*
X007090Y009425D01*
X007171Y009327D02*
X006991Y009327D01*
X007072Y009228D02*
X006892Y009228D01*
X006974Y009130D02*
X006794Y009130D01*
X006875Y009031D02*
X006695Y009031D01*
X006777Y008933D02*
X006597Y008933D01*
X006678Y008834D02*
X006498Y008834D01*
X006579Y008736D02*
X006400Y008736D01*
X006481Y008637D02*
X006270Y008637D01*
X005298Y007455D02*
X004120Y007455D01*
X004119Y007356D02*
X005200Y007356D01*
X005101Y007258D02*
X004272Y007258D01*
X004358Y007159D02*
X005003Y007159D01*
X004909Y007060D02*
X004399Y007060D01*
X004423Y006962D02*
X004869Y006962D01*
X004869Y006863D02*
X004423Y006863D01*
X004405Y006765D02*
X004869Y006765D01*
X004869Y006666D02*
X004364Y006666D01*
X004287Y006568D02*
X004869Y006568D01*
X004869Y006469D02*
X004156Y006469D01*
X004111Y005087D02*
X004040Y005073D01*
X003966Y005042D01*
X003900Y004998D01*
X003843Y004941D01*
X003799Y004875D01*
X003768Y004801D01*
X003752Y004722D01*
X003752Y004454D01*
X004110Y004454D01*
X004110Y004357D01*
X003752Y004357D01*
X003752Y004088D01*
X003768Y004010D01*
X003799Y003936D01*
X003843Y003869D01*
X003900Y003812D01*
X003966Y003768D01*
X004040Y003737D01*
X004111Y003723D01*
X004111Y004356D01*
X004207Y004356D01*
X004207Y003723D01*
X004278Y003737D01*
X004352Y003768D01*
X004418Y003812D01*
X004475Y003869D01*
X004520Y003936D01*
X004550Y004010D01*
X004566Y004088D01*
X004566Y004357D01*
X004208Y004357D01*
X004208Y004454D01*
X004566Y004454D01*
X004566Y004722D01*
X004550Y004801D01*
X004520Y004875D01*
X004475Y004941D01*
X004418Y004998D01*
X004352Y005042D01*
X004278Y005073D01*
X004207Y005087D01*
X004207Y004454D01*
X004111Y004454D01*
X004111Y005087D01*
X004111Y004991D02*
X004207Y004991D01*
X004207Y004892D02*
X004111Y004892D01*
X004111Y004794D02*
X004207Y004794D01*
X004207Y004695D02*
X004111Y004695D01*
X004111Y004597D02*
X004207Y004597D01*
X004207Y004498D02*
X004111Y004498D01*
X004110Y004400D02*
X003646Y004400D01*
X003646Y004498D02*
X003752Y004498D01*
X003752Y004597D02*
X003646Y004597D01*
X003646Y004695D02*
X003752Y004695D01*
X003767Y004794D02*
X003640Y004794D01*
X003599Y004892D02*
X003810Y004892D01*
X003893Y004991D02*
X003538Y004991D01*
X003646Y004301D02*
X003752Y004301D01*
X003752Y004203D02*
X003646Y004203D01*
X003646Y004104D02*
X003752Y004104D01*
X003769Y004006D02*
X003635Y004006D01*
X003594Y003907D02*
X003818Y003907D01*
X003905Y003809D02*
X003528Y003809D01*
X003421Y003710D02*
X004897Y003710D01*
X004790Y003809D02*
X004413Y003809D01*
X004501Y003907D02*
X004724Y003907D01*
X004683Y004006D02*
X004549Y004006D01*
X004566Y004104D02*
X004672Y004104D01*
X004672Y004203D02*
X004566Y004203D01*
X004566Y004301D02*
X004672Y004301D01*
X004672Y004400D02*
X004208Y004400D01*
X004207Y004301D02*
X004111Y004301D01*
X004111Y004203D02*
X004207Y004203D01*
X004207Y004104D02*
X004111Y004104D01*
X004111Y004006D02*
X004207Y004006D01*
X004207Y003907D02*
X004111Y003907D01*
X004111Y003809D02*
X004207Y003809D01*
X004566Y004498D02*
X004672Y004498D01*
X004672Y004597D02*
X004566Y004597D01*
X004566Y004695D02*
X004672Y004695D01*
X004679Y004794D02*
X004552Y004794D01*
X004508Y004892D02*
X004719Y004892D01*
X004780Y004991D02*
X004425Y004991D01*
X005538Y004991D02*
X005780Y004991D01*
X005719Y004892D02*
X005599Y004892D01*
X005640Y004794D02*
X005679Y004794D01*
X005672Y004695D02*
X005646Y004695D01*
X005646Y004597D02*
X005672Y004597D01*
X005672Y004498D02*
X005646Y004498D01*
X005646Y004400D02*
X005672Y004400D01*
X005672Y004301D02*
X005646Y004301D01*
X005646Y004203D02*
X005672Y004203D01*
X005672Y004104D02*
X005646Y004104D01*
X005635Y004006D02*
X005683Y004006D01*
X005724Y003907D02*
X005594Y003907D01*
X005528Y003809D02*
X005790Y003809D01*
X005897Y003710D02*
X005421Y003710D01*
X008778Y003316D02*
X011060Y003316D01*
X010962Y003217D02*
X008876Y003217D01*
X008921Y003119D02*
X010917Y003119D01*
X010889Y003020D02*
X008948Y003020D01*
X008948Y002922D02*
X010889Y002922D01*
X010914Y002823D02*
X008924Y002823D01*
X008882Y002725D02*
X010956Y002725D01*
X011055Y002626D02*
X008783Y002626D01*
X013829Y002922D02*
X026916Y002922D01*
X026425Y003119D02*
X014975Y003119D01*
X014463Y003020D02*
X013989Y003020D01*
X014078Y003119D02*
X014343Y003119D01*
X014285Y003217D02*
X014119Y003217D01*
X014146Y003316D02*
X014257Y003316D01*
X014252Y003414D02*
X014146Y003414D01*
X014146Y003513D02*
X014252Y003513D01*
X014146Y003611D02*
X014610Y003611D01*
X014611Y003710D02*
X014707Y003710D01*
X014707Y003809D02*
X014611Y003809D01*
X014611Y003907D02*
X014707Y003907D01*
X014707Y004006D02*
X014611Y004006D01*
X014611Y004104D02*
X014707Y004104D01*
X014707Y004203D02*
X014611Y004203D01*
X014611Y004301D02*
X014707Y004301D01*
X014831Y004301D02*
X015145Y004301D01*
X015047Y004400D02*
X013802Y004400D01*
X013978Y004301D02*
X014487Y004301D01*
X014354Y004203D02*
X014074Y004203D01*
X014115Y004104D02*
X014290Y004104D01*
X014259Y004006D02*
X014146Y004006D01*
X014146Y003907D02*
X014252Y003907D01*
X014252Y003809D02*
X014146Y003809D01*
X014146Y003710D02*
X014252Y003710D01*
X015066Y003710D02*
X015736Y003710D01*
X015638Y003809D02*
X015066Y003809D01*
X015066Y003907D02*
X015539Y003907D01*
X015441Y004006D02*
X015059Y004006D01*
X015028Y004104D02*
X015342Y004104D01*
X015244Y004203D02*
X014964Y004203D01*
X014869Y005385D02*
X014797Y005385D01*
X014869Y005484D02*
X014698Y005484D01*
X014600Y005582D02*
X014869Y005582D01*
X014869Y005681D02*
X014501Y005681D01*
X014402Y005779D02*
X014869Y005779D01*
X014869Y005878D02*
X014304Y005878D01*
X014205Y005976D02*
X014869Y005976D01*
X015449Y006469D02*
X015796Y006469D01*
X015620Y006568D02*
X015482Y006568D01*
X015649Y008539D02*
X014449Y008539D01*
X014449Y008637D02*
X015551Y008637D01*
X015502Y008736D02*
X014449Y008736D01*
X014449Y008834D02*
X015469Y008834D01*
X015469Y008933D02*
X014449Y008933D01*
X014449Y009031D02*
X015484Y009031D01*
X015525Y009130D02*
X014449Y009130D01*
X014449Y009228D02*
X015606Y009228D01*
X015830Y009455D02*
X016489Y009455D01*
X016654Y009524D01*
X015508Y009721D02*
X014449Y009721D01*
X014449Y009820D02*
X015469Y009820D01*
X015469Y009918D02*
X014449Y009918D01*
X014449Y010017D02*
X015478Y010017D01*
X015519Y010115D02*
X014449Y010115D01*
X014449Y010214D02*
X015591Y010214D01*
X015726Y010312D02*
X014449Y010312D01*
X018176Y011298D02*
X018691Y011298D01*
X018577Y011199D02*
X018275Y011199D01*
X019585Y011495D02*
X023139Y011495D01*
X019189Y012579D02*
X019129Y012579D01*
X019129Y012677D02*
X019189Y012677D01*
X019189Y012776D02*
X019129Y012776D01*
X019129Y012874D02*
X019189Y012874D01*
X019189Y012973D02*
X019129Y012973D01*
X019129Y013072D02*
X019189Y013072D01*
X019189Y013170D02*
X019129Y013170D01*
X019129Y013269D02*
X019189Y013269D01*
X018661Y013170D02*
X017277Y013170D01*
X017403Y013072D02*
X018588Y013072D01*
X015469Y013860D02*
X013274Y013860D01*
X013372Y013958D02*
X015469Y013958D01*
X015495Y014057D02*
X013471Y014057D01*
X012689Y014845D02*
X012509Y014845D01*
X012591Y014747D02*
X012411Y014747D01*
X012492Y014648D02*
X012312Y014648D01*
X012394Y014550D02*
X012214Y014550D01*
X012295Y014451D02*
X012115Y014451D01*
X012196Y014353D02*
X012017Y014353D01*
X012098Y014254D02*
X011918Y014254D01*
X011999Y014156D02*
X011820Y014156D01*
X011901Y014057D02*
X011721Y014057D01*
X011802Y013958D02*
X011623Y013958D01*
X011704Y013860D02*
X011524Y013860D01*
X011605Y013761D02*
X011425Y013761D01*
X011507Y013663D02*
X011327Y013663D01*
X012608Y014944D02*
X012788Y014944D01*
X012706Y015042D02*
X012886Y015042D01*
X012805Y015141D02*
X012985Y015141D01*
X012904Y015240D02*
X015617Y015240D01*
X015788Y015338D02*
X013106Y015338D01*
X011208Y018294D02*
X015683Y018294D01*
X015573Y018196D02*
X015539Y018196D01*
X011177Y019083D02*
X011122Y019083D01*
X011078Y018984D02*
X011023Y018984D01*
X010979Y018886D02*
X010925Y018886D01*
X010881Y018787D02*
X010826Y018787D01*
X010782Y018689D02*
X010728Y018689D01*
X010684Y018590D02*
X010629Y018590D01*
X010585Y018491D02*
X010531Y018491D01*
X010487Y018393D02*
X010432Y018393D01*
X010388Y018294D02*
X010333Y018294D01*
X010290Y018196D02*
X010235Y018196D01*
X009379Y015535D02*
X009199Y015535D01*
X009280Y015437D02*
X009101Y015437D01*
X009027Y015338D02*
X009182Y015338D01*
X009083Y015240D02*
X008989Y015240D01*
X008985Y015141D02*
X008949Y015141D01*
X004976Y013367D02*
X004089Y013367D01*
X004184Y013269D02*
X004854Y013269D01*
X004775Y013170D02*
X004184Y013170D01*
X004184Y013072D02*
X004734Y013072D01*
X004708Y012973D02*
X004184Y012973D01*
X004184Y012874D02*
X004708Y012874D01*
X004718Y012776D02*
X004184Y012776D01*
X004184Y012677D02*
X004759Y012677D01*
X004817Y012579D02*
X004184Y012579D01*
X004184Y012480D02*
X004915Y012480D01*
X004285Y010115D02*
X006959Y010115D01*
X006861Y010017D02*
X004329Y010017D01*
X001409Y020561D02*
X029468Y020561D01*
X029468Y020659D02*
X001409Y020659D01*
X023296Y014747D02*
X023389Y014747D01*
X023436Y014648D02*
X023452Y014648D01*
X027402Y002922D02*
X029468Y002922D01*
X029468Y002823D02*
X027624Y002823D01*
X027723Y002725D02*
X029468Y002725D01*
X029468Y002626D02*
X027821Y002626D01*
X027872Y002527D02*
X029468Y002527D01*
X029468Y002429D02*
X027913Y002429D01*
X027954Y002330D02*
X029468Y002330D01*
X029468Y002232D02*
X027960Y002232D01*
X027960Y002133D02*
X029468Y002133D01*
X029468Y002035D02*
X027960Y002035D01*
X027936Y001936D02*
X029468Y001936D01*
X029468Y001838D02*
X027895Y001838D01*
X027854Y001739D02*
X029468Y001739D01*
X029468Y001641D02*
X027777Y001641D01*
X027679Y001542D02*
X029468Y001542D01*
D18*
X023409Y005405D02*
X023159Y005655D01*
X023159Y006030D01*
X023409Y006280D01*
X023409Y008155D01*
X023284Y008280D01*
X023284Y008655D01*
X023034Y008905D01*
X023034Y009780D01*
X023159Y009905D01*
X023159Y010405D01*
X023409Y010655D01*
X023409Y014155D01*
X023159Y014405D01*
X023722Y014905D02*
X023722Y010343D01*
X023472Y010093D01*
X023472Y009343D01*
X023722Y009093D01*
X023722Y005905D01*
X024159Y006780D02*
X024159Y007280D01*
X024034Y007405D01*
X024034Y009530D01*
X024034Y014593D01*
X024347Y014905D01*
X021534Y010905D02*
X019159Y010905D01*
X021534Y010905D02*
X021722Y010718D01*
X021722Y008655D01*
D19*
X022659Y007718D01*
X022659Y005405D01*
X023159Y004905D01*
X025159Y004905D01*
X026909Y004280D02*
X027159Y004530D01*
X027159Y010655D01*
X024472Y010905D02*
X024472Y014405D01*
X024847Y014780D01*
X024847Y015280D01*
X024659Y015468D01*
X024034Y015468D01*
X026659Y018405D02*
X025159Y019905D01*
X016659Y019905D01*
X016159Y019405D01*
X016159Y018905D01*
X016159Y017905D02*
X015472Y017905D01*
X015347Y017968D01*
X011222Y017968D01*
X008659Y015405D01*
X008659Y012405D01*
X009159Y011905D02*
X009159Y014905D01*
X011159Y016905D01*
X016159Y016905D01*
X016159Y015905D02*
X016909Y015905D01*
X017159Y015655D01*
X017159Y014655D01*
X016909Y014405D01*
X013409Y014405D01*
X006159Y007155D01*
X006159Y004405D01*
X005159Y004405D02*
X005159Y006905D01*
X013159Y014905D01*
X016159Y014905D01*
X016659Y013405D02*
X014409Y013405D01*
X014159Y013155D01*
X014159Y006655D01*
X015159Y006655D02*
X015159Y005405D01*
X015909Y004655D01*
X022409Y004655D01*
X022784Y004280D01*
X026909Y004280D01*
X026159Y006905D02*
X026659Y007405D01*
X026659Y018405D01*
X019159Y014905D02*
X018159Y014905D01*
X016659Y013405D01*
X016159Y012905D02*
X017159Y012905D01*
X017659Y012405D01*
X017659Y011405D01*
X018159Y010905D01*
X019159Y010905D01*
X016159Y006905D02*
X015409Y006905D01*
X015159Y006655D01*
X009159Y011905D02*
X006159Y008905D01*
X004659Y008905D01*
X003659Y010905D02*
X003659Y012355D01*
X003659Y012955D02*
X003659Y013655D01*
X004159Y014155D01*
X004159Y015655D01*
X007409Y017655D02*
X005659Y019405D01*
X007409Y017655D02*
X010159Y017655D01*
X011909Y019405D01*
X013409Y019405D01*
X011159Y019530D02*
X010034Y018405D01*
X008034Y018405D01*
X011159Y013905D02*
X012909Y015655D01*
X011159Y013905D02*
X009659Y013905D01*
M02*
