%
M48
M72
T01C0.0236
T02C0.0320
T03C0.0354
T04C0.0394
T05C0.0400
T06C0.0551
T07C0.1102
%
T01
X4659Y8905
X8659Y12405
X9659Y13905
X8659Y15405
X11159Y16905
X12409Y17530
X12909Y15655
X13409Y19405
X11159Y19530
X5659Y19405
X4159Y15655
X11659Y10155
X14159Y6655
X21722Y7343
X21722Y8655
X23284Y8655
X23472Y9343
X24034Y9530
X24472Y10905
X27159Y10655
X24159Y6780
X23722Y5905
X23409Y5405
X26659Y3405
X23159Y14405
X23722Y14905
X24347Y14905
X24034Y15468
T02
X19159Y15905
X19159Y16905
X19159Y17905
X19159Y18905
X16159Y18905
X16159Y17905
X16159Y16905
X16159Y15905
X16159Y14905
X16159Y13905
X16159Y12905
X16159Y11905
X16159Y10905
X16159Y9905
X16159Y8905
X16159Y7905
X16159Y6905
X16159Y5905
X16659Y3905
X17659Y3905
X18659Y3905
X19159Y5905
X19159Y6905
X19159Y7905
X19159Y8905
X19159Y9905
X19159Y10905
X19159Y11905
X19159Y12905
X19159Y13905
X19159Y14905
X8034Y18405
X8034Y19405
T03
X8521Y2968
X11317Y2968
T04
X13659Y3655
X14659Y3655
X7159Y4405
X6159Y4405
X5159Y4405
X4159Y4405
X3159Y4405
X3659Y6905
X3659Y7905
X3659Y8905
X3659Y9905
X3659Y10905
T05
X25159Y6905
X25159Y5905
X26159Y5905
X26159Y6905
X26159Y4905
X25159Y4905
T06
X5234Y12905
X5234Y16905
T07
X2159Y2155
X2159Y19655
X27159Y19655
X27159Y2155
M30
