G75*
G70*
%OFA0B0*%
%FSLAX24Y24*%
%IPPOS*%
%LPD*%
%AMOC8*
5,1,8,0,0,1.08239X$1,22.5*
%
%ADD10C,0.1162*%
%ADD11R,0.0820X0.2160*%
%ADD12R,0.0690X0.0572*%
%ADD13R,0.0572X0.0690*%
%ADD14C,0.0611*%
%ADD15R,0.1241X0.0454*%
%ADD16R,0.0257X0.0532*%
%ADD17R,0.0532X0.0257*%
%ADD18OC8,0.0800*%
%ADD19R,0.0532X0.1044*%
%ADD20C,0.0414*%
%ADD21R,0.0650X0.0850*%
%ADD22R,0.1560X0.0850*%
%ADD23R,0.1005X0.1005*%
%ADD24R,0.0532X0.0532*%
%ADD25C,0.0540*%
%ADD26R,0.0611X0.0808*%
%ADD27R,0.0769X0.0611*%
%ADD28R,0.0336X0.0651*%
%ADD29R,0.0572X0.0651*%
%ADD30R,0.0930X0.0300*%
%ADD31R,0.1620X0.1620*%
%ADD32R,0.1310X0.1310*%
%ADD33C,0.0540*%
%ADD34R,0.0651X0.0572*%
%ADD35OC8,0.0540*%
%ADD36R,0.0690X0.0520*%
%ADD37R,0.0720X0.0060*%
%ADD38C,0.0614*%
%ADD39R,0.0611X0.0611*%
%ADD40R,0.0375X0.1044*%
%ADD41R,0.0375X0.0717*%
%ADD42R,0.0717X0.0375*%
%ADD43C,0.0376*%
D10*
X002159Y002155D03*
X002159Y019655D03*
X027159Y019655D03*
X027159Y002155D03*
D11*
X014159Y008505D03*
X014159Y012305D03*
D12*
X012534Y011799D03*
X012534Y011011D03*
X012534Y009799D03*
X012534Y009011D03*
X009754Y010330D03*
X009754Y011118D03*
X009159Y018511D03*
X009159Y019299D03*
D13*
X006533Y010655D03*
X005785Y010655D03*
X012248Y007369D03*
X012996Y007369D03*
X013033Y006280D03*
X012285Y006280D03*
X019785Y004780D03*
X020533Y004780D03*
X021872Y004799D03*
X022659Y004799D03*
X023410Y003905D03*
X024158Y003905D03*
X025785Y011405D03*
X026533Y011405D03*
X021803Y011655D03*
X021015Y011655D03*
D14*
X005234Y012905D03*
X005234Y016905D03*
D15*
X007202Y016405D03*
X007202Y015405D03*
X007202Y014405D03*
X007202Y013405D03*
X007202Y012405D03*
X007202Y017405D03*
D16*
X021122Y006776D03*
X021437Y006776D03*
X021752Y006776D03*
X022067Y006776D03*
X022381Y006776D03*
X022696Y006776D03*
X022696Y005910D03*
X022381Y005910D03*
X022067Y005910D03*
X021752Y005910D03*
X021437Y005910D03*
X021122Y005910D03*
D17*
X021082Y006343D03*
X022736Y006343D03*
D18*
X025159Y005905D03*
X026159Y005905D03*
X026159Y006905D03*
X025159Y006905D03*
X025159Y004905D03*
X026159Y004905D03*
D19*
X010903Y004051D03*
X009919Y004051D03*
X008935Y004051D03*
D20*
X008521Y002968D03*
X011317Y002968D03*
D21*
X009443Y006752D03*
X008543Y006752D03*
X007643Y006752D03*
D22*
X008533Y009232D03*
D23*
X006108Y008807D03*
X006108Y006838D03*
X010998Y007145D03*
X010998Y009114D03*
D24*
X008072Y010655D03*
X007246Y010655D03*
X004572Y020030D03*
X003746Y020030D03*
D25*
X015919Y018905D02*
X016399Y018905D01*
X016399Y017905D02*
X015919Y017905D01*
X015919Y016905D02*
X016399Y016905D01*
X016399Y015905D02*
X015919Y015905D01*
X015919Y014905D02*
X016399Y014905D01*
X016399Y013905D02*
X015919Y013905D01*
X015919Y012905D02*
X016399Y012905D01*
X016399Y011905D02*
X015919Y011905D01*
X015919Y010905D02*
X016399Y010905D01*
X016399Y009905D02*
X015919Y009905D01*
X015919Y008905D02*
X016399Y008905D01*
X016399Y007905D02*
X015919Y007905D01*
X015919Y006905D02*
X016399Y006905D01*
X016399Y005905D02*
X015919Y005905D01*
X018919Y005905D02*
X019399Y005905D01*
X019399Y006905D02*
X018919Y006905D01*
X018919Y007905D02*
X019399Y007905D01*
X019399Y008905D02*
X018919Y008905D01*
X018919Y009905D02*
X019399Y009905D01*
X019399Y010905D02*
X018919Y010905D01*
X018919Y011905D02*
X019399Y011905D01*
X019399Y012905D02*
X018919Y012905D01*
X018919Y013905D02*
X019399Y013905D01*
X019399Y014905D02*
X018919Y014905D01*
X018919Y015905D02*
X019399Y015905D01*
X019399Y016905D02*
X018919Y016905D01*
X018919Y017905D02*
X019399Y017905D01*
X019399Y018905D02*
X018919Y018905D01*
D26*
X020805Y018090D03*
X026002Y017736D03*
D27*
X025372Y012578D03*
X023009Y012578D03*
D28*
X023049Y016437D03*
X023482Y016594D03*
X023915Y016752D03*
X024348Y016594D03*
X024781Y016752D03*
X025214Y016594D03*
X025647Y016594D03*
X022616Y016594D03*
D29*
X014908Y016530D03*
X014160Y016530D03*
X014160Y017405D03*
X014908Y017405D03*
X003533Y018405D03*
X002785Y018405D03*
X023473Y007655D03*
X024221Y007655D03*
D30*
X014189Y018405D03*
X014189Y018905D03*
X014189Y019405D03*
X014189Y019905D03*
X012129Y019905D03*
X012129Y019405D03*
X012129Y018905D03*
X012129Y018405D03*
D31*
X010659Y015405D03*
D32*
X010659Y018505D03*
X010659Y012305D03*
D33*
X008034Y018405D03*
X008034Y019405D03*
D34*
X014159Y014779D03*
X014159Y014031D03*
D35*
X016659Y003905D03*
X017659Y003905D03*
X018659Y003905D03*
D36*
X010784Y010355D03*
X010784Y010955D03*
D37*
X010784Y010655D03*
D38*
X003936Y010905D02*
X003382Y010905D01*
X003382Y009905D02*
X003936Y009905D01*
X003936Y008905D02*
X003382Y008905D01*
X003382Y007905D02*
X003936Y007905D01*
X003936Y006905D02*
X003382Y006905D01*
X003159Y004682D02*
X003159Y004128D01*
X004159Y004128D02*
X004159Y004682D01*
X005159Y004682D02*
X005159Y004128D01*
X006159Y004128D02*
X006159Y004682D01*
X007159Y004682D02*
X007159Y004128D01*
X013659Y003932D02*
X013659Y003378D01*
X014659Y003378D02*
X014659Y003932D01*
D39*
X011220Y005343D03*
X009724Y005343D03*
D40*
X025909Y009742D03*
D41*
X025909Y008280D03*
D42*
X025096Y008593D03*
X025096Y009093D03*
X025096Y009593D03*
X026722Y009593D03*
X026722Y009093D03*
X026722Y008593D03*
D43*
X027159Y010655D03*
X024472Y010905D03*
X024034Y009530D03*
X023472Y009343D03*
X023284Y008655D03*
X021722Y008655D03*
X021722Y007343D03*
X023722Y005905D03*
X023409Y005405D03*
X024159Y006780D03*
X026659Y003405D03*
X014159Y006655D03*
X011659Y010155D03*
X008659Y012405D03*
X009659Y013905D03*
X008659Y015405D03*
X011159Y016905D03*
X012409Y017530D03*
X012909Y015655D03*
X013409Y019405D03*
X011159Y019530D03*
X005659Y019405D03*
X004159Y015655D03*
X004659Y008905D03*
X023159Y014405D03*
X023722Y014905D03*
X024347Y014905D03*
X024034Y015468D03*
M02*
