G75*
G70*
%OFA0B0*%
%FSLAX24Y24*%
%IPPOS*%
%LPD*%
%AMOC8*
5,1,8,0,0,1.08239X$1,22.5*
%
%ADD10R,0.0760X0.2100*%
%ADD11R,0.0630X0.0512*%
%ADD12R,0.0512X0.0630*%
%ADD13R,0.1181X0.0394*%
%ADD14R,0.0197X0.0472*%
%ADD15R,0.0472X0.0197*%
%ADD16R,0.0472X0.0984*%
%ADD17R,0.0590X0.0790*%
%ADD18R,0.1500X0.0790*%
%ADD19R,0.0945X0.0945*%
%ADD20R,0.0472X0.0472*%
%ADD21R,0.0551X0.0748*%
%ADD22R,0.0709X0.0551*%
%ADD23R,0.0276X0.0591*%
%ADD24R,0.0512X0.0591*%
%ADD25R,0.0870X0.0240*%
%ADD26R,0.1560X0.1560*%
%ADD27R,0.1250X0.1250*%
%ADD28R,0.0591X0.0512*%
%ADD29R,0.0630X0.0460*%
%ADD30R,0.0551X0.0551*%
%ADD31R,0.0315X0.0984*%
%ADD32R,0.0315X0.0657*%
%ADD33R,0.0657X0.0315*%
D10*
X014159Y008505D03*
X014159Y012305D03*
D11*
X012534Y011799D03*
X012534Y011011D03*
X012534Y009799D03*
X012534Y009011D03*
X009754Y010330D03*
X009754Y011118D03*
X009159Y018511D03*
X009159Y019299D03*
D12*
X006533Y010655D03*
X005785Y010655D03*
X012248Y007369D03*
X012996Y007369D03*
X013033Y006280D03*
X012285Y006280D03*
X019785Y004780D03*
X020533Y004780D03*
X021872Y004799D03*
X022659Y004799D03*
X023410Y003905D03*
X024158Y003905D03*
X025785Y011405D03*
X026533Y011405D03*
X021803Y011655D03*
X021015Y011655D03*
D13*
X007202Y012405D03*
X007202Y013405D03*
X007202Y014405D03*
X007202Y015405D03*
X007202Y016405D03*
X007202Y017405D03*
D14*
X021122Y006776D03*
X021437Y006776D03*
X021752Y006776D03*
X022067Y006776D03*
X022381Y006776D03*
X022696Y006776D03*
X022696Y005910D03*
X022381Y005910D03*
X022067Y005910D03*
X021752Y005910D03*
X021437Y005910D03*
X021122Y005910D03*
D15*
X021082Y006343D03*
X022736Y006343D03*
D16*
X008935Y004051D03*
X009919Y004051D03*
X010903Y004051D03*
D17*
X009443Y006752D03*
X008543Y006752D03*
X007643Y006752D03*
D18*
X008533Y009232D03*
D19*
X006108Y008807D03*
X006108Y006838D03*
X010998Y007145D03*
X010998Y009114D03*
D20*
X008072Y010655D03*
X007246Y010655D03*
X004572Y020030D03*
X003746Y020030D03*
D21*
X020805Y018090D03*
X026002Y017736D03*
D22*
X025372Y012578D03*
X023009Y012578D03*
D23*
X023049Y016437D03*
X023482Y016594D03*
X023915Y016752D03*
X024348Y016594D03*
X024781Y016752D03*
X025214Y016594D03*
X025647Y016594D03*
X022616Y016594D03*
D24*
X014908Y016530D03*
X014160Y016530D03*
X014160Y017405D03*
X014908Y017405D03*
X003533Y018405D03*
X002785Y018405D03*
X023473Y007655D03*
X024221Y007655D03*
D25*
X014189Y018405D03*
X014189Y018905D03*
X014189Y019405D03*
X014189Y019905D03*
X012129Y019905D03*
X012129Y019405D03*
X012129Y018905D03*
X012129Y018405D03*
D26*
X010659Y015405D03*
D27*
X010659Y018505D03*
X010659Y012305D03*
D28*
X014159Y014031D03*
X014159Y014779D03*
D29*
X010784Y010955D03*
X010784Y010355D03*
D30*
X011220Y005343D03*
X009724Y005343D03*
D31*
X025909Y009742D03*
D32*
X025909Y008280D03*
D33*
X025096Y008593D03*
X025096Y009093D03*
X025096Y009593D03*
X026722Y009593D03*
X026722Y009093D03*
X026722Y008593D03*
M02*
