G75*
G70*
%OFA0B0*%
%FSLAX24Y24*%
%IPPOS*%
%LPD*%
%AMOC8*
5,1,8,0,0,1.08239X$1,22.5*
%
%ADD10C,0.0060*%
%ADD11C,0.0020*%
%ADD12C,0.0030*%
%ADD13C,0.0001*%
%ADD14C,0.0040*%
%ADD15R,0.0512X0.0197*%
%ADD16R,0.0197X0.0512*%
%ADD17C,0.0050*%
%ADD18C,0.0080*%
%ADD19R,0.0200X0.0200*%
%ADD20R,0.1200X0.0600*%
%ADD21R,0.0300X0.0600*%
%ADD22R,0.0866X0.0079*%
%ADD23R,0.1220X0.0374*%
%ADD24R,0.0118X0.0059*%
%ADD25R,0.0118X0.0118*%
%ADD26R,0.0236X0.0531*%
%ADD27R,0.0140X0.0560*%
%ADD28R,0.0295X0.0571*%
%ADD29R,0.0400X0.0140*%
%ADD30R,0.0230X0.0160*%
%ADD31C,0.0160*%
%ADD32R,0.0571X0.0295*%
%ADD33R,0.0197X0.0128*%
%ADD34R,0.0098X0.0059*%
%ADD35R,0.0069X0.0157*%
%ADD36R,0.0079X0.0079*%
%ADD37R,0.0030X0.0089*%
%ADD38R,0.0256X0.0551*%
%ADD39C,0.0010*%
%ADD40C,0.0000*%
%ADD41C,0.0100*%
%ADD42R,0.0295X0.0335*%
%ADD43R,0.0354X0.0531*%
D10*
X007303Y007311D02*
X009763Y007311D01*
X009763Y008673D01*
X007303Y008673D01*
X007303Y007311D01*
X010484Y010005D02*
X011084Y010005D01*
X011101Y010007D01*
X011118Y010011D01*
X011134Y010018D01*
X011148Y010028D01*
X011161Y010041D01*
X011171Y010055D01*
X011178Y010071D01*
X011182Y010088D01*
X011184Y010105D01*
X011184Y011205D01*
X011182Y011222D01*
X011178Y011239D01*
X011171Y011255D01*
X011161Y011269D01*
X011148Y011282D01*
X011134Y011292D01*
X011118Y011299D01*
X011101Y011303D01*
X011084Y011305D01*
X010484Y011305D01*
X010467Y011303D01*
X010450Y011299D01*
X010434Y011292D01*
X010420Y011282D01*
X010407Y011269D01*
X010397Y011255D01*
X010390Y011239D01*
X010386Y011222D01*
X010384Y011205D01*
X010384Y010105D01*
X010386Y010088D01*
X010390Y010071D01*
X010397Y010055D01*
X010407Y010041D01*
X010420Y010028D01*
X010434Y010018D01*
X010450Y010011D01*
X010467Y010007D01*
X010484Y010005D01*
X010784Y010055D02*
X010784Y010255D01*
X010784Y011055D02*
X010784Y011255D01*
X013209Y012555D02*
X013209Y008255D01*
X013211Y008238D01*
X013215Y008221D01*
X013222Y008205D01*
X013232Y008191D01*
X013245Y008178D01*
X013259Y008168D01*
X013275Y008161D01*
X013292Y008157D01*
X013309Y008155D01*
X013709Y008155D01*
X014009Y008155D01*
X014009Y007855D01*
X014309Y007855D01*
X014309Y008155D01*
X014009Y008155D01*
X014309Y008155D02*
X014609Y008155D01*
X015009Y008155D01*
X015026Y008157D01*
X015043Y008161D01*
X015059Y008168D01*
X015073Y008178D01*
X015086Y008191D01*
X015096Y008205D01*
X015103Y008221D01*
X015107Y008238D01*
X015109Y008255D01*
X015109Y012555D01*
X015107Y012572D01*
X015103Y012589D01*
X015096Y012605D01*
X015086Y012619D01*
X015073Y012632D01*
X015059Y012642D01*
X015043Y012649D01*
X015026Y012653D01*
X015009Y012655D01*
X014609Y012655D01*
X013709Y012655D01*
X013309Y012655D01*
X013292Y012653D01*
X013275Y012649D01*
X013259Y012642D01*
X013245Y012632D01*
X013232Y012619D01*
X013222Y012605D01*
X013215Y012589D01*
X013211Y012572D01*
X013209Y012555D01*
X014009Y012655D02*
X014009Y012955D01*
X014309Y012955D01*
X014309Y012655D01*
X014409Y010655D02*
X014159Y010655D01*
X013909Y010655D01*
X013909Y010505D02*
X013909Y010305D01*
X014409Y010305D01*
X014409Y010505D01*
X013909Y010505D01*
X013909Y010155D02*
X014159Y010155D01*
X014409Y010155D01*
X012902Y007619D02*
X012342Y007619D01*
X012342Y007119D02*
X012902Y007119D01*
X012939Y006530D02*
X012379Y006530D01*
X012379Y006030D02*
X012939Y006030D01*
X016559Y005105D02*
X018759Y005105D01*
X018759Y019705D01*
X017909Y019705D01*
X017907Y019675D01*
X017902Y019645D01*
X017893Y019616D01*
X017880Y019589D01*
X017865Y019563D01*
X017846Y019539D01*
X017825Y019518D01*
X017801Y019499D01*
X017775Y019484D01*
X017748Y019471D01*
X017719Y019462D01*
X017689Y019457D01*
X017659Y019455D01*
X017629Y019457D01*
X017599Y019462D01*
X017570Y019471D01*
X017543Y019484D01*
X017517Y019499D01*
X017493Y019518D01*
X017472Y019539D01*
X017453Y019563D01*
X017438Y019589D01*
X017425Y019616D01*
X017416Y019645D01*
X017411Y019675D01*
X017409Y019705D01*
X016559Y019705D01*
X016559Y005105D01*
X016610Y003855D02*
X017106Y003855D01*
X017212Y003855D01*
X018106Y003855D01*
X018212Y003855D01*
X018708Y003855D01*
X018484Y003255D02*
X016834Y003255D01*
X015241Y002068D02*
X014814Y002068D01*
X013616Y002068D02*
X013189Y002068D01*
X013403Y002281D02*
X013403Y001854D01*
X019879Y004530D02*
X020439Y004530D01*
X020439Y005030D02*
X019879Y005030D01*
X023504Y004155D02*
X024064Y004155D01*
X024064Y003655D02*
X023504Y003655D01*
X025879Y011155D02*
X026439Y011155D01*
X026439Y011655D02*
X025879Y011655D01*
X014695Y016280D02*
X014373Y016280D01*
X014373Y016780D02*
X014695Y016780D01*
X014695Y017155D02*
X014373Y017155D01*
X014373Y017655D02*
X014695Y017655D01*
X013869Y018225D02*
X013869Y020085D01*
X012449Y020085D01*
X012449Y018225D01*
X013869Y018225D01*
X008034Y018405D02*
X007784Y018655D01*
X007384Y018355D02*
X007234Y018355D01*
X007234Y019455D01*
X007234Y019505D01*
X004234Y019505D01*
X004217Y019503D01*
X004200Y019499D01*
X004184Y019492D01*
X004170Y019482D01*
X004157Y019469D01*
X004147Y019455D01*
X004140Y019439D01*
X004136Y019422D01*
X004134Y019405D01*
X004134Y018405D01*
X004136Y018388D01*
X004140Y018371D01*
X004147Y018355D01*
X004157Y018341D01*
X004170Y018328D01*
X004184Y018318D01*
X004200Y018311D01*
X004217Y018307D01*
X004234Y018305D01*
X007234Y018305D01*
X007234Y018355D01*
X007384Y018355D02*
X007384Y019455D01*
X007234Y019455D01*
X007784Y019155D02*
X008034Y019405D01*
X006334Y018905D02*
X006134Y018905D01*
X006134Y019205D01*
X005984Y019205D02*
X005834Y019205D01*
X005834Y018605D01*
X005984Y018605D01*
X005984Y019205D01*
X005684Y019205D02*
X005684Y018905D01*
X005484Y018905D01*
X005684Y018905D02*
X005684Y018605D01*
X006134Y018605D02*
X006134Y018905D01*
X003320Y018655D02*
X002998Y018655D01*
X002998Y018155D02*
X003320Y018155D01*
X005879Y010905D02*
X006439Y010905D01*
X006439Y010405D02*
X005879Y010405D01*
D11*
X006113Y009719D02*
X006260Y009719D01*
X006187Y009609D02*
X006113Y009609D01*
X006039Y009646D02*
X006039Y009499D01*
X005929Y009499D01*
X005892Y009536D01*
X005892Y009646D01*
X006113Y009719D02*
X006113Y009499D01*
X006555Y009499D02*
X006702Y009499D01*
X006629Y009499D02*
X006629Y009719D01*
X006555Y009646D01*
X006776Y009682D02*
X006776Y009536D01*
X006923Y009682D01*
X006923Y009536D01*
X006886Y009499D01*
X006813Y009499D01*
X006776Y009536D01*
X006776Y009682D02*
X006813Y009719D01*
X006886Y009719D01*
X006923Y009682D01*
X007218Y009719D02*
X007218Y009572D01*
X007292Y009499D01*
X007365Y009572D01*
X007365Y009719D01*
X009021Y010164D02*
X009242Y010164D01*
X009242Y010237D02*
X009242Y010090D01*
X009095Y010090D02*
X009021Y010164D01*
X009058Y010311D02*
X009021Y010348D01*
X009021Y010421D01*
X009058Y010458D01*
X009205Y010311D01*
X009242Y010348D01*
X009242Y010421D01*
X009205Y010458D01*
X009058Y010458D01*
X009058Y010532D02*
X009021Y010569D01*
X009021Y010642D01*
X009058Y010679D01*
X009205Y010532D01*
X009242Y010569D01*
X009242Y010642D01*
X009205Y010679D01*
X009058Y010679D01*
X009058Y010532D02*
X009205Y010532D01*
X009205Y010311D02*
X009058Y010311D01*
X009095Y010974D02*
X009095Y011084D01*
X009131Y011121D01*
X009242Y011121D01*
X009242Y011195D02*
X009021Y011195D01*
X009021Y011342D01*
X009131Y011269D02*
X009131Y011195D01*
X009095Y010974D02*
X009242Y010974D01*
X008163Y011312D02*
X008126Y011312D01*
X008053Y011239D01*
X008053Y011312D02*
X008053Y011165D01*
X007979Y011239D02*
X007832Y011239D01*
X007832Y011275D02*
X007869Y011312D01*
X007942Y011312D01*
X007979Y011275D01*
X007979Y011239D01*
X007942Y011165D02*
X007869Y011165D01*
X007832Y011202D01*
X007832Y011275D01*
X007758Y011312D02*
X007758Y011202D01*
X007721Y011165D01*
X007684Y011202D01*
X007648Y011165D01*
X007611Y011202D01*
X007611Y011312D01*
X007537Y011275D02*
X007500Y011312D01*
X007427Y011312D01*
X007390Y011275D01*
X007390Y011202D01*
X007427Y011165D01*
X007500Y011165D01*
X007537Y011202D01*
X007537Y011275D01*
X007316Y011275D02*
X007279Y011239D01*
X007169Y011239D01*
X007169Y011165D02*
X007169Y011385D01*
X007279Y011385D01*
X007316Y011349D01*
X007316Y011275D01*
X006704Y011250D02*
X006667Y011214D01*
X006557Y011214D01*
X006630Y011214D02*
X006704Y011140D01*
X006704Y011250D02*
X006704Y011324D01*
X006667Y011360D01*
X006557Y011360D01*
X006557Y011140D01*
X006262Y011177D02*
X006225Y011140D01*
X006152Y011140D01*
X006115Y011177D01*
X006115Y011214D01*
X006152Y011250D01*
X006225Y011250D01*
X006262Y011214D01*
X006262Y011177D01*
X006225Y011250D02*
X006262Y011287D01*
X006262Y011324D01*
X006225Y011360D01*
X006152Y011360D01*
X006115Y011324D01*
X006115Y011287D01*
X006152Y011250D01*
X006041Y011214D02*
X006004Y011250D01*
X005894Y011250D01*
X005894Y011177D01*
X005931Y011140D01*
X006004Y011140D01*
X006041Y011177D01*
X006041Y011214D01*
X005967Y011324D02*
X005894Y011250D01*
X005967Y011324D02*
X006041Y011360D01*
X005560Y009719D02*
X005597Y009682D01*
X005450Y009536D01*
X005487Y009499D01*
X005560Y009499D01*
X005597Y009536D01*
X005597Y009682D01*
X005560Y009719D02*
X005487Y009719D01*
X005450Y009682D01*
X005450Y009536D01*
X005376Y009499D02*
X005229Y009499D01*
X005303Y009499D02*
X005303Y009719D01*
X005229Y009646D01*
X001889Y012039D02*
X001889Y012112D01*
X001852Y012149D01*
X001779Y012149D01*
X001779Y012076D01*
X001706Y012149D02*
X001669Y012112D01*
X001669Y012039D01*
X001706Y012002D01*
X001852Y012002D01*
X001889Y012039D01*
X001889Y012223D02*
X001669Y012223D01*
X001889Y012370D01*
X001669Y012370D01*
X001669Y012444D02*
X001669Y012554D01*
X001706Y012591D01*
X001852Y012591D01*
X001889Y012554D01*
X001889Y012444D01*
X001669Y012444D01*
X001706Y013002D02*
X001852Y013002D01*
X001889Y013039D01*
X001889Y013112D01*
X001852Y013149D01*
X001779Y013149D01*
X001779Y013076D01*
X001706Y013149D02*
X001669Y013112D01*
X001669Y013039D01*
X001706Y013002D01*
X001669Y013223D02*
X001889Y013370D01*
X001669Y013370D01*
X001669Y013444D02*
X001669Y013554D01*
X001706Y013591D01*
X001852Y013591D01*
X001889Y013554D01*
X001889Y013444D01*
X001669Y013444D01*
X001669Y013223D02*
X001889Y013223D01*
X001852Y013892D02*
X001889Y013928D01*
X001889Y014002D01*
X001852Y014038D01*
X001816Y014038D01*
X001779Y014002D01*
X001779Y013965D01*
X001779Y014002D02*
X001742Y014038D01*
X001706Y014038D01*
X001669Y014002D01*
X001669Y013928D01*
X001706Y013892D01*
X001852Y014113D02*
X001852Y014149D01*
X001889Y014149D01*
X001889Y014113D01*
X001852Y014113D01*
X001852Y014223D02*
X001889Y014260D01*
X001889Y014333D01*
X001852Y014370D01*
X001816Y014370D01*
X001779Y014333D01*
X001779Y014297D01*
X001779Y014333D02*
X001742Y014370D01*
X001706Y014370D01*
X001669Y014333D01*
X001669Y014260D01*
X001706Y014223D01*
X001669Y014444D02*
X001816Y014444D01*
X001889Y014518D01*
X001816Y014591D01*
X001669Y014591D01*
X001669Y015002D02*
X001669Y015112D01*
X001706Y015149D01*
X001779Y015149D01*
X001816Y015112D01*
X001816Y015002D01*
X001889Y015002D02*
X001669Y015002D01*
X001816Y015076D02*
X001889Y015149D01*
X001889Y015223D02*
X001669Y015370D01*
X001669Y015444D02*
X001669Y015554D01*
X001706Y015591D01*
X001852Y015591D01*
X001889Y015554D01*
X001889Y015444D01*
X001669Y015444D01*
X001669Y015223D02*
X001889Y015370D01*
X001669Y016002D02*
X001669Y016149D01*
X001669Y016076D02*
X001889Y016076D01*
X001889Y016223D02*
X001669Y016370D01*
X001669Y016444D02*
X001669Y016554D01*
X001706Y016591D01*
X001852Y016591D01*
X001889Y016554D01*
X001889Y016444D01*
X001669Y016444D01*
X001669Y016223D02*
X001889Y016370D01*
X001889Y017002D02*
X001669Y017002D01*
X001669Y017112D01*
X001706Y017149D01*
X001852Y017149D01*
X001889Y017112D01*
X001889Y017002D01*
X001889Y017297D02*
X001669Y017297D01*
X001669Y017370D02*
X001669Y017223D01*
X001669Y017444D02*
X001669Y017554D01*
X001706Y017591D01*
X001779Y017591D01*
X001816Y017554D01*
X001816Y017444D01*
X001889Y017444D02*
X001669Y017444D01*
X001816Y017518D02*
X001889Y017591D01*
X002101Y017978D02*
X002101Y018088D01*
X002138Y018124D01*
X002175Y018124D01*
X002212Y018088D01*
X002212Y018014D01*
X002175Y017978D01*
X002101Y017978D01*
X002028Y018051D01*
X001991Y018124D01*
X002028Y018199D02*
X002065Y018199D01*
X002101Y018235D01*
X002101Y018309D01*
X002138Y018345D01*
X002175Y018345D01*
X002212Y018309D01*
X002212Y018235D01*
X002175Y018199D01*
X002138Y018199D01*
X002101Y018235D01*
X002101Y018309D02*
X002065Y018345D01*
X002028Y018345D01*
X001991Y018309D01*
X001991Y018235D01*
X002028Y018199D01*
X001991Y018641D02*
X001991Y018751D01*
X002028Y018787D01*
X002101Y018787D01*
X002138Y018751D01*
X002138Y018641D01*
X002138Y018714D02*
X002212Y018787D01*
X002212Y018641D02*
X001991Y018641D01*
X005594Y019702D02*
X005631Y019665D01*
X005704Y019665D01*
X005741Y019702D01*
X005741Y019739D01*
X005704Y019775D01*
X005667Y019775D01*
X005704Y019775D02*
X005741Y019812D01*
X005741Y019849D01*
X005704Y019885D01*
X005631Y019885D01*
X005594Y019849D01*
X005815Y019849D02*
X005852Y019885D01*
X005925Y019885D01*
X005962Y019849D01*
X005962Y019812D01*
X005815Y019665D01*
X005962Y019665D01*
X006036Y019665D02*
X006073Y019665D01*
X006073Y019702D01*
X006036Y019702D01*
X006036Y019665D01*
X006146Y019665D02*
X006146Y019702D01*
X006293Y019849D01*
X006293Y019885D01*
X006146Y019885D01*
X006367Y019775D02*
X006478Y019775D01*
X006514Y019739D01*
X006514Y019702D01*
X006478Y019665D01*
X006404Y019665D01*
X006367Y019702D01*
X006367Y019775D01*
X006441Y019849D01*
X006514Y019885D01*
X006588Y019849D02*
X006625Y019885D01*
X006699Y019885D01*
X006735Y019849D01*
X006735Y019812D01*
X006699Y019775D01*
X006625Y019775D01*
X006588Y019812D01*
X006588Y019849D01*
X006625Y019775D02*
X006588Y019739D01*
X006588Y019702D01*
X006625Y019665D01*
X006699Y019665D01*
X006735Y019702D01*
X006735Y019739D01*
X006699Y019775D01*
X007030Y019739D02*
X007141Y019812D01*
X007215Y019775D02*
X007361Y019775D01*
X007436Y019812D02*
X007582Y019812D01*
X007436Y019665D01*
X007582Y019665D01*
X007361Y019665D02*
X007361Y019885D01*
X007215Y019885D02*
X007215Y019665D01*
X007141Y019665D02*
X007030Y019739D01*
X007030Y019665D02*
X007030Y019885D01*
X008900Y019814D02*
X008974Y019887D01*
X008974Y019667D01*
X009047Y019667D02*
X008900Y019667D01*
X009121Y019704D02*
X009268Y019851D01*
X009268Y019704D01*
X009231Y019667D01*
X009158Y019667D01*
X009121Y019704D01*
X009121Y019851D01*
X009158Y019887D01*
X009231Y019887D01*
X009268Y019851D01*
X009342Y019851D02*
X009379Y019887D01*
X009452Y019887D01*
X009489Y019851D01*
X009342Y019704D01*
X009379Y019667D01*
X009452Y019667D01*
X009489Y019704D01*
X009489Y019851D01*
X009342Y019851D02*
X009342Y019704D01*
X009784Y019667D02*
X009784Y019814D01*
X009894Y019814D01*
X009931Y019777D01*
X009931Y019667D01*
X010005Y019667D02*
X010005Y019887D01*
X010152Y019887D01*
X010079Y019777D02*
X010005Y019777D01*
X013419Y017606D02*
X013639Y017606D01*
X013566Y017606D02*
X013492Y017716D01*
X013566Y017606D02*
X013639Y017716D01*
X013456Y017311D02*
X013602Y017164D01*
X013639Y017164D01*
X013639Y017090D02*
X013639Y017054D01*
X013602Y017054D01*
X013602Y017090D01*
X013639Y017090D01*
X013639Y016943D02*
X013419Y016943D01*
X013529Y016833D01*
X013529Y016979D01*
X013419Y017164D02*
X013419Y017311D01*
X013456Y017311D01*
X014919Y018339D02*
X014919Y018449D01*
X014956Y018486D01*
X015102Y018486D01*
X015139Y018449D01*
X015139Y018339D01*
X014919Y018339D01*
X014956Y018560D02*
X014992Y018560D01*
X015029Y018597D01*
X015029Y018670D01*
X015066Y018707D01*
X015102Y018707D01*
X015139Y018670D01*
X015139Y018597D01*
X015102Y018560D01*
X014956Y018560D02*
X014919Y018597D01*
X014919Y018670D01*
X014956Y018707D01*
X014992Y018781D02*
X014919Y018855D01*
X015139Y018855D01*
X015139Y018928D02*
X015139Y018781D01*
X015102Y019002D02*
X015139Y019039D01*
X015139Y019112D01*
X015102Y019149D01*
X015066Y019149D01*
X015029Y019112D01*
X015029Y019076D01*
X015029Y019112D02*
X014992Y019149D01*
X014956Y019149D01*
X014919Y019112D01*
X014919Y019039D01*
X014956Y019002D01*
X014956Y019223D02*
X014919Y019260D01*
X014919Y019333D01*
X014956Y019370D01*
X014992Y019370D01*
X015029Y019333D01*
X015066Y019370D01*
X015102Y019370D01*
X015139Y019333D01*
X015139Y019260D01*
X015102Y019223D01*
X015029Y019297D02*
X015029Y019333D01*
X015066Y019444D02*
X015029Y019481D01*
X015029Y019554D01*
X015066Y019591D01*
X015102Y019591D01*
X015139Y019554D01*
X015139Y019481D01*
X015102Y019444D01*
X015066Y019444D01*
X015029Y019481D02*
X014992Y019444D01*
X014956Y019444D01*
X014919Y019481D01*
X014919Y019554D01*
X014956Y019591D01*
X014992Y019591D01*
X015029Y019554D01*
X014610Y016020D02*
X014610Y015800D01*
X014610Y015874D02*
X014720Y015800D01*
X014610Y015874D02*
X014720Y015947D01*
X014315Y015984D02*
X014168Y015837D01*
X014168Y015800D01*
X014094Y015800D02*
X014057Y015800D01*
X014057Y015837D01*
X014094Y015837D01*
X014094Y015800D01*
X013947Y015800D02*
X013947Y016020D01*
X013836Y015910D01*
X013983Y015910D01*
X014168Y016020D02*
X014315Y016020D01*
X014315Y015984D01*
X014669Y014841D02*
X014669Y014694D01*
X014889Y014694D01*
X014889Y014620D02*
X014779Y014620D01*
X014742Y014583D01*
X014742Y014473D01*
X014889Y014473D01*
X014779Y014694D02*
X014779Y014768D01*
X014706Y014178D02*
X014852Y014031D01*
X014889Y014068D01*
X014889Y014141D01*
X014852Y014178D01*
X014706Y014178D01*
X014669Y014141D01*
X014669Y014068D01*
X014706Y014031D01*
X014852Y014031D01*
X014852Y013957D02*
X014889Y013920D01*
X014889Y013847D01*
X014852Y013810D01*
X014706Y013957D01*
X014852Y013957D01*
X014706Y013957D02*
X014669Y013920D01*
X014669Y013847D01*
X014706Y013810D01*
X014852Y013810D01*
X014889Y013736D02*
X014889Y013589D01*
X014889Y013663D02*
X014669Y013663D01*
X014742Y013589D01*
X013056Y012512D02*
X012909Y012512D01*
X012909Y012292D01*
X012835Y012329D02*
X012798Y012292D01*
X012688Y012292D01*
X012688Y012219D02*
X012688Y012439D01*
X012798Y012439D01*
X012835Y012402D01*
X012835Y012329D01*
X012909Y012402D02*
X012983Y012402D01*
X012393Y012439D02*
X012393Y012476D01*
X012356Y012512D01*
X012283Y012512D01*
X012246Y012476D01*
X012172Y012476D02*
X012135Y012512D01*
X012062Y012512D01*
X012025Y012476D01*
X012172Y012476D02*
X012172Y012439D01*
X012025Y012292D01*
X012172Y012292D01*
X012246Y012292D02*
X012393Y012439D01*
X012393Y012292D02*
X012246Y012292D01*
X013359Y011755D02*
X013359Y009055D01*
X013659Y009055D02*
X013659Y011755D01*
X014659Y011755D02*
X014659Y009055D01*
X014959Y009055D02*
X014959Y011755D01*
X014159Y010805D02*
X014159Y010655D01*
X014159Y010155D02*
X014159Y010005D01*
X012095Y009434D02*
X011875Y009434D01*
X011875Y009544D01*
X011912Y009581D01*
X011985Y009581D01*
X012022Y009544D01*
X012022Y009434D01*
X012022Y009655D02*
X011802Y009655D01*
X011802Y009802D01*
X011912Y009729D02*
X011912Y009655D01*
X011875Y009139D02*
X011839Y009139D01*
X011802Y009102D01*
X011802Y009029D01*
X011839Y008992D01*
X011839Y008918D02*
X011802Y008881D01*
X011802Y008808D01*
X011839Y008771D01*
X011839Y008918D02*
X011875Y008918D01*
X012022Y008771D01*
X012022Y008918D01*
X012022Y008992D02*
X011875Y009139D01*
X012022Y009139D02*
X012022Y008992D01*
X012380Y008022D02*
X012380Y007802D01*
X012453Y007802D02*
X012306Y007802D01*
X012306Y007948D02*
X012380Y008022D01*
X012527Y007985D02*
X012564Y008022D01*
X012638Y008022D01*
X012674Y007985D01*
X012527Y007838D01*
X012564Y007802D01*
X012638Y007802D01*
X012674Y007838D01*
X012674Y007985D01*
X012527Y007985D02*
X012527Y007838D01*
X012969Y007802D02*
X012969Y008022D01*
X013079Y007948D02*
X012969Y007875D01*
X013079Y007802D01*
X013467Y006741D02*
X013541Y006631D01*
X013614Y006741D01*
X013614Y006631D02*
X013394Y006631D01*
X013431Y006336D02*
X013394Y006299D01*
X013394Y006226D01*
X013431Y006189D01*
X013431Y006115D02*
X013394Y006078D01*
X013394Y006005D01*
X013431Y005968D01*
X013431Y006115D02*
X013467Y006115D01*
X013614Y005968D01*
X013614Y006115D01*
X013614Y006189D02*
X013467Y006336D01*
X013431Y006336D01*
X013614Y006336D02*
X013614Y006189D01*
X013500Y005385D02*
X013427Y005385D01*
X013390Y005349D01*
X013316Y005385D02*
X013242Y005385D01*
X013279Y005385D02*
X013279Y005202D01*
X013242Y005165D01*
X013206Y005165D01*
X013169Y005202D01*
X013390Y005165D02*
X013537Y005312D01*
X013537Y005349D01*
X013500Y005385D01*
X013537Y005165D02*
X013390Y005165D01*
X012881Y005321D02*
X012881Y005467D01*
X012845Y005504D01*
X012771Y005504D01*
X012735Y005467D01*
X012735Y005431D01*
X012771Y005394D01*
X012881Y005394D01*
X012881Y005321D02*
X012845Y005284D01*
X012771Y005284D01*
X012735Y005321D01*
X012660Y005284D02*
X012514Y005284D01*
X012587Y005284D02*
X012587Y005504D01*
X012514Y005431D01*
X012439Y005431D02*
X012403Y005394D01*
X012329Y005394D01*
X012293Y005431D01*
X012293Y005467D01*
X012329Y005504D01*
X012403Y005504D01*
X012439Y005467D01*
X012439Y005431D01*
X012403Y005394D02*
X012439Y005357D01*
X012439Y005321D01*
X012403Y005284D01*
X012329Y005284D01*
X012293Y005321D01*
X012293Y005357D01*
X012329Y005394D01*
X012218Y005394D02*
X012218Y005321D01*
X012182Y005284D01*
X012108Y005284D01*
X012072Y005321D01*
X012072Y005394D02*
X012145Y005431D01*
X012182Y005431D01*
X012218Y005394D01*
X012218Y005504D02*
X012072Y005504D01*
X012072Y005394D01*
X011997Y005284D02*
X011997Y005504D01*
X011851Y005504D02*
X011997Y005284D01*
X011851Y005284D02*
X011851Y005504D01*
X011703Y005504D02*
X011703Y005284D01*
X011630Y005284D02*
X011776Y005284D01*
X011630Y005431D02*
X011703Y005504D01*
X011402Y006202D02*
X011402Y006422D01*
X011549Y006422D01*
X011476Y006312D02*
X011402Y006312D01*
X011328Y006348D02*
X011328Y006202D01*
X011218Y006202D01*
X011181Y006238D01*
X011181Y006348D01*
X010886Y006385D02*
X010739Y006238D01*
X010776Y006202D01*
X010850Y006202D01*
X010886Y006238D01*
X010886Y006385D01*
X010850Y006422D01*
X010776Y006422D01*
X010739Y006385D01*
X010739Y006238D01*
X010665Y006202D02*
X010518Y006202D01*
X010592Y006202D02*
X010592Y006422D01*
X010518Y006348D01*
X009321Y006072D02*
X009321Y006035D01*
X009284Y005999D01*
X009321Y005962D01*
X009321Y005925D01*
X009284Y005889D01*
X009211Y005889D01*
X009174Y005925D01*
X009100Y005925D02*
X009063Y005889D01*
X008990Y005889D01*
X008953Y005925D01*
X008879Y005925D02*
X008842Y005889D01*
X008769Y005889D01*
X008732Y005925D01*
X008769Y005999D02*
X008842Y005999D01*
X008879Y005962D01*
X008879Y005925D01*
X008769Y005999D02*
X008732Y006035D01*
X008732Y006072D01*
X008769Y006109D01*
X008842Y006109D01*
X008879Y006072D01*
X008953Y006072D02*
X008990Y006109D01*
X009063Y006109D01*
X009100Y006072D01*
X009100Y006035D01*
X009063Y005999D01*
X009100Y005962D01*
X009100Y005925D01*
X009063Y005999D02*
X009026Y005999D01*
X009174Y006072D02*
X009211Y006109D01*
X009284Y006109D01*
X009321Y006072D01*
X009284Y005999D02*
X009247Y005999D01*
X009262Y005454D02*
X009226Y005417D01*
X009262Y005454D02*
X009336Y005454D01*
X009372Y005417D01*
X009372Y005381D01*
X009226Y005234D01*
X009372Y005234D01*
X009151Y005271D02*
X009151Y005417D01*
X009115Y005454D01*
X009005Y005454D01*
X009005Y005234D01*
X009115Y005234D01*
X009151Y005271D01*
X008511Y005889D02*
X008511Y005925D01*
X008658Y006072D01*
X008658Y006109D01*
X008511Y006109D01*
X008363Y006109D02*
X008363Y005889D01*
X008290Y005889D02*
X008437Y005889D01*
X008290Y006035D02*
X008363Y006109D01*
X008142Y006109D02*
X008142Y005889D01*
X008069Y005889D02*
X008216Y005889D01*
X008069Y006035D02*
X008142Y006109D01*
X007921Y006109D02*
X007921Y005889D01*
X007848Y005889D02*
X007995Y005889D01*
X007848Y006035D02*
X007921Y006109D01*
X007774Y006072D02*
X007774Y005925D01*
X007737Y005889D01*
X007627Y005889D01*
X007627Y006109D01*
X007737Y006109D01*
X007774Y006072D01*
X007553Y005889D02*
X007406Y005889D01*
X007406Y006109D01*
X015019Y006597D02*
X015019Y006670D01*
X015056Y006707D01*
X015092Y006707D01*
X015129Y006670D01*
X015129Y006597D01*
X015092Y006560D01*
X015056Y006560D01*
X015019Y006597D01*
X015129Y006597D02*
X015166Y006560D01*
X015202Y006560D01*
X015239Y006597D01*
X015239Y006670D01*
X015202Y006707D01*
X015166Y006707D01*
X015129Y006670D01*
X015239Y007002D02*
X015019Y007002D01*
X015092Y007076D01*
X015019Y007149D01*
X015239Y007149D01*
X015239Y007223D02*
X015019Y007223D01*
X015129Y007223D02*
X015129Y007370D01*
X015092Y007444D02*
X015092Y007591D01*
X015239Y007444D01*
X015239Y007591D01*
X015239Y007370D02*
X015019Y007370D01*
X019794Y004150D02*
X019941Y004150D01*
X020015Y004077D02*
X020052Y004077D01*
X020052Y004040D01*
X020015Y004040D01*
X020015Y004077D01*
X020126Y004077D02*
X020126Y004040D01*
X020126Y004077D02*
X020272Y004224D01*
X020272Y004260D01*
X020126Y004260D01*
X019904Y004260D02*
X019794Y004150D01*
X019904Y004040D02*
X019904Y004260D01*
X020567Y004260D02*
X020567Y004040D01*
X020567Y004114D02*
X020678Y004187D01*
X020567Y004114D02*
X020678Y004040D01*
X021632Y004061D02*
X021778Y004061D01*
X021705Y004061D02*
X021705Y004281D01*
X021632Y004208D01*
X021853Y004244D02*
X021889Y004281D01*
X021963Y004281D01*
X021999Y004244D01*
X021853Y004097D01*
X021889Y004061D01*
X021963Y004061D01*
X021999Y004097D01*
X021999Y004244D01*
X022074Y004244D02*
X022110Y004281D01*
X022184Y004281D01*
X022220Y004244D01*
X022074Y004097D01*
X022110Y004061D01*
X022184Y004061D01*
X022220Y004097D01*
X022220Y004244D01*
X022074Y004244D02*
X022074Y004097D01*
X021853Y004097D02*
X021853Y004244D01*
X022516Y004208D02*
X022626Y004208D01*
X022662Y004171D01*
X022662Y004061D01*
X022737Y004061D02*
X022737Y004281D01*
X022883Y004281D01*
X022810Y004171D02*
X022737Y004171D01*
X022516Y004208D02*
X022516Y004061D01*
X023347Y003347D02*
X023420Y003420D01*
X023420Y003200D01*
X023347Y003200D02*
X023494Y003200D01*
X023568Y003237D02*
X023715Y003384D01*
X023715Y003237D01*
X023678Y003200D01*
X023605Y003200D01*
X023568Y003237D01*
X023568Y003384D01*
X023605Y003420D01*
X023678Y003420D01*
X023715Y003384D01*
X024010Y003420D02*
X024010Y003200D01*
X024010Y003274D02*
X024120Y003347D01*
X024010Y003274D02*
X024120Y003200D01*
X027179Y004415D02*
X027179Y004489D01*
X027179Y004452D02*
X027399Y004452D01*
X027399Y004415D02*
X027399Y004489D01*
X027362Y004562D02*
X027399Y004599D01*
X027399Y004673D01*
X027362Y004709D01*
X027362Y004783D02*
X027399Y004820D01*
X027399Y004894D01*
X027362Y004930D01*
X027326Y004930D01*
X027289Y004894D01*
X027289Y004820D01*
X027252Y004783D01*
X027216Y004783D01*
X027179Y004820D01*
X027179Y004894D01*
X027216Y004930D01*
X027179Y005004D02*
X027179Y005114D01*
X027216Y005151D01*
X027289Y005151D01*
X027326Y005114D01*
X027326Y005004D01*
X027399Y005004D02*
X027179Y005004D01*
X027216Y004709D02*
X027179Y004673D01*
X027179Y004599D01*
X027216Y004562D01*
X027362Y004562D01*
X028330Y004548D02*
X028366Y004548D01*
X028440Y004548D02*
X028587Y004548D01*
X028587Y004584D02*
X028587Y004511D01*
X028587Y004437D02*
X028587Y004290D01*
X028366Y004290D01*
X028440Y004511D02*
X028440Y004548D01*
X028476Y004658D02*
X028550Y004658D01*
X028587Y004695D01*
X028587Y004805D01*
X028550Y004879D02*
X028476Y004879D01*
X028440Y004916D01*
X028440Y004989D01*
X028476Y005026D01*
X028513Y005026D01*
X028513Y004879D01*
X028550Y004879D02*
X028587Y004916D01*
X028587Y004989D01*
X028587Y005100D02*
X028440Y005100D01*
X028440Y005210D01*
X028476Y005247D01*
X028587Y005247D01*
X028587Y005321D02*
X028587Y005431D01*
X028550Y005468D01*
X028513Y005431D01*
X028513Y005358D01*
X028476Y005321D01*
X028440Y005358D01*
X028440Y005468D01*
X028476Y005542D02*
X028440Y005579D01*
X028440Y005652D01*
X028476Y005689D01*
X028513Y005689D01*
X028513Y005542D01*
X028550Y005542D02*
X028476Y005542D01*
X028550Y005542D02*
X028587Y005579D01*
X028587Y005652D01*
X028550Y005763D02*
X028476Y005763D01*
X028440Y005800D01*
X028440Y005910D01*
X028366Y005910D02*
X028587Y005910D01*
X028587Y005800D01*
X028550Y005763D01*
X028940Y005689D02*
X028976Y005726D01*
X029013Y005726D01*
X029013Y005579D01*
X028976Y005579D02*
X028940Y005616D01*
X028940Y005689D01*
X028976Y005579D02*
X029050Y005579D01*
X029087Y005616D01*
X029087Y005689D01*
X029087Y005800D02*
X029087Y005910D01*
X029050Y005947D01*
X029013Y005910D01*
X029013Y005837D01*
X028976Y005800D01*
X028940Y005837D01*
X028940Y005947D01*
X028940Y006021D02*
X028940Y006095D01*
X028903Y006058D02*
X029050Y006058D01*
X029087Y006095D01*
X029050Y006168D02*
X029087Y006205D01*
X029087Y006279D01*
X029050Y006315D01*
X028976Y006315D01*
X028940Y006279D01*
X028940Y006205D01*
X028976Y006168D01*
X029050Y006168D01*
X029087Y006389D02*
X028940Y006389D01*
X028940Y006500D01*
X028976Y006536D01*
X029087Y006536D01*
X029160Y006610D02*
X029087Y006684D01*
X029087Y006647D01*
X029050Y006647D01*
X029050Y006684D01*
X029087Y006684D01*
X028587Y006684D02*
X028587Y006794D01*
X028366Y006794D01*
X028440Y006794D02*
X028440Y006684D01*
X028476Y006647D01*
X028550Y006647D01*
X028587Y006684D01*
X028587Y006573D02*
X028476Y006573D01*
X028440Y006536D01*
X028440Y006426D01*
X028587Y006426D01*
X028587Y006352D02*
X028440Y006352D01*
X028587Y006352D02*
X028587Y006242D01*
X028550Y006205D01*
X028440Y006205D01*
X028476Y006868D02*
X028440Y006905D01*
X028440Y006978D01*
X028476Y007015D01*
X028513Y007015D01*
X028513Y006868D01*
X028550Y006868D02*
X028476Y006868D01*
X028550Y006868D02*
X028587Y006905D01*
X028587Y006978D01*
X028587Y007089D02*
X028440Y007089D01*
X028513Y007089D02*
X028440Y007163D01*
X028440Y007199D01*
X028440Y007494D02*
X028440Y007568D01*
X028403Y007531D02*
X028550Y007531D01*
X028587Y007568D01*
X028587Y007642D02*
X028366Y007642D01*
X028440Y007678D02*
X028440Y007752D01*
X028476Y007788D01*
X028587Y007788D01*
X028550Y007863D02*
X028476Y007863D01*
X028440Y007899D01*
X028440Y007973D01*
X028476Y008009D01*
X028513Y008009D01*
X028513Y007863D01*
X028550Y007863D02*
X028587Y007899D01*
X028587Y007973D01*
X028440Y007678D02*
X028476Y007642D01*
X028866Y007678D02*
X028866Y007752D01*
X028903Y007788D01*
X029050Y007642D01*
X029087Y007678D01*
X029087Y007752D01*
X029050Y007788D01*
X028903Y007788D01*
X028866Y007678D02*
X028903Y007642D01*
X029050Y007642D01*
X029087Y007567D02*
X029087Y007421D01*
X029087Y007494D02*
X028866Y007494D01*
X028940Y007421D01*
X028903Y007346D02*
X029050Y007200D01*
X029087Y007236D01*
X029087Y007310D01*
X029050Y007346D01*
X028903Y007346D01*
X028866Y007310D01*
X028866Y007236D01*
X028903Y007200D01*
X029050Y007200D01*
X029087Y007126D02*
X029087Y006979D01*
X028940Y007126D01*
X028903Y007126D01*
X028866Y007089D01*
X028866Y007015D01*
X028903Y006979D01*
X028366Y008305D02*
X028366Y008451D01*
X028366Y008378D02*
X028587Y008378D01*
X028587Y008526D02*
X028440Y008526D01*
X028366Y008599D01*
X028440Y008672D01*
X028587Y008672D01*
X028587Y008747D02*
X028366Y008747D01*
X028366Y008857D01*
X028403Y008893D01*
X028476Y008893D01*
X028513Y008857D01*
X028513Y008747D01*
X028476Y008672D02*
X028476Y008526D01*
X028513Y008968D02*
X028513Y009078D01*
X028476Y009114D01*
X028403Y009114D01*
X028366Y009078D01*
X028366Y008968D01*
X028587Y008968D01*
X028513Y009041D02*
X028587Y009114D01*
X028550Y009410D02*
X028403Y009410D01*
X028366Y009446D01*
X028366Y009520D01*
X028403Y009556D01*
X028550Y009556D01*
X028587Y009520D01*
X028587Y009446D01*
X028550Y009410D01*
X028587Y009631D02*
X028587Y009741D01*
X028550Y009777D01*
X028476Y009777D01*
X028440Y009741D01*
X028440Y009631D01*
X028660Y009631D01*
X028550Y009852D02*
X028476Y009852D01*
X028440Y009888D01*
X028440Y009962D01*
X028476Y009998D01*
X028513Y009998D01*
X028513Y009852D01*
X028550Y009852D02*
X028587Y009888D01*
X028587Y009962D01*
X028587Y010073D02*
X028440Y010073D01*
X028440Y010183D01*
X028476Y010219D01*
X028587Y010219D01*
X028587Y010514D02*
X028366Y010514D01*
X028476Y010514D02*
X028476Y010661D01*
X028550Y010735D02*
X028513Y010772D01*
X028513Y010882D01*
X028476Y010882D02*
X028587Y010882D01*
X028587Y010772D01*
X028550Y010735D01*
X028587Y010661D02*
X028366Y010661D01*
X028440Y010772D02*
X028440Y010846D01*
X028476Y010882D01*
X028440Y010956D02*
X028587Y010956D01*
X028513Y010956D02*
X028440Y011030D01*
X028440Y011067D01*
X028476Y011141D02*
X028440Y011177D01*
X028440Y011287D01*
X028366Y011287D02*
X028587Y011287D01*
X028587Y011177D01*
X028550Y011141D01*
X028476Y011141D01*
X028440Y011362D02*
X028550Y011362D01*
X028587Y011398D01*
X028550Y011435D01*
X028587Y011472D01*
X028550Y011508D01*
X028440Y011508D01*
X028440Y011619D02*
X028440Y011693D01*
X028476Y011729D01*
X028587Y011729D01*
X028587Y011619D01*
X028550Y011583D01*
X028513Y011619D01*
X028513Y011729D01*
X028513Y011804D02*
X028440Y011877D01*
X028440Y011914D01*
X028476Y011988D02*
X028440Y012024D01*
X028440Y012098D01*
X028476Y012134D01*
X028513Y012134D01*
X028513Y011988D01*
X028550Y011988D02*
X028476Y011988D01*
X028550Y011988D02*
X028587Y012024D01*
X028587Y012098D01*
X028587Y012430D02*
X028366Y012430D01*
X028587Y012430D02*
X028587Y012576D01*
X028587Y012651D02*
X028587Y012724D01*
X028587Y012687D02*
X028440Y012687D01*
X028440Y012651D01*
X028366Y012687D02*
X028330Y012687D01*
X028476Y012798D02*
X028550Y012798D01*
X028587Y012835D01*
X028587Y012945D01*
X028550Y013019D02*
X028476Y013019D01*
X028440Y013056D01*
X028440Y013129D01*
X028476Y013166D01*
X028513Y013166D01*
X028513Y013019D01*
X028550Y013019D02*
X028587Y013056D01*
X028587Y013129D01*
X028587Y013240D02*
X028440Y013240D01*
X028440Y013350D01*
X028476Y013387D01*
X028587Y013387D01*
X028587Y013461D02*
X028587Y013571D01*
X028550Y013608D01*
X028513Y013571D01*
X028513Y013498D01*
X028476Y013461D01*
X028440Y013498D01*
X028440Y013608D01*
X028476Y013682D02*
X028440Y013719D01*
X028440Y013792D01*
X028476Y013829D01*
X028513Y013829D01*
X028513Y013682D01*
X028550Y013682D02*
X028476Y013682D01*
X028550Y013682D02*
X028587Y013719D01*
X028587Y013792D01*
X028513Y014124D02*
X028440Y014124D01*
X028366Y014197D01*
X028366Y014271D02*
X028587Y014271D01*
X028587Y014197D02*
X028513Y014124D01*
X028476Y014271D02*
X028440Y014308D01*
X028440Y014381D01*
X028476Y014418D01*
X028587Y014418D01*
X028550Y014529D02*
X028403Y014529D01*
X028440Y014492D02*
X028440Y014566D01*
X028440Y014639D02*
X028440Y014713D01*
X028403Y014676D02*
X028550Y014676D01*
X028587Y014713D01*
X028587Y014787D02*
X028587Y014897D01*
X028550Y014934D01*
X028476Y014934D01*
X028440Y014897D01*
X028440Y014787D01*
X028660Y014787D01*
X028587Y015008D02*
X028550Y015008D01*
X028550Y015044D01*
X028587Y015044D01*
X028587Y015008D01*
X028587Y015118D02*
X028366Y015265D01*
X028366Y015486D02*
X028587Y015339D01*
X028550Y015560D02*
X028440Y015560D01*
X028550Y015560D02*
X028587Y015597D01*
X028550Y015634D01*
X028587Y015670D01*
X028550Y015707D01*
X028440Y015707D01*
X028440Y015781D02*
X028550Y015781D01*
X028587Y015818D01*
X028550Y015855D01*
X028587Y015891D01*
X028550Y015928D01*
X028440Y015928D01*
X028440Y016002D02*
X028550Y016002D01*
X028587Y016039D01*
X028550Y016076D01*
X028587Y016112D01*
X028550Y016149D01*
X028440Y016149D01*
X028550Y016223D02*
X028550Y016260D01*
X028587Y016260D01*
X028587Y016223D01*
X028550Y016223D01*
X028550Y016370D02*
X028403Y016370D01*
X028440Y016334D02*
X028440Y016407D01*
X028440Y016518D02*
X028440Y016591D01*
X028476Y016628D01*
X028587Y016628D01*
X028587Y016518D01*
X028550Y016481D01*
X028513Y016518D01*
X028513Y016628D01*
X028440Y016702D02*
X028660Y016702D01*
X028587Y016702D02*
X028587Y016812D01*
X028550Y016849D01*
X028476Y016849D01*
X028440Y016812D01*
X028440Y016702D01*
X028440Y016923D02*
X028587Y016923D01*
X028513Y016923D02*
X028440Y016996D01*
X028440Y017033D01*
X028550Y017107D02*
X028550Y017144D01*
X028587Y017144D01*
X028587Y017107D01*
X028550Y017107D01*
X028550Y017218D02*
X028476Y017218D01*
X028440Y017254D01*
X028440Y017328D01*
X028476Y017364D01*
X028550Y017364D01*
X028587Y017328D01*
X028587Y017254D01*
X028550Y017218D01*
X028587Y017439D02*
X028440Y017439D01*
X028440Y017512D02*
X028440Y017549D01*
X028440Y017512D02*
X028513Y017439D01*
X028476Y017623D02*
X028550Y017623D01*
X028587Y017659D01*
X028587Y017769D01*
X028623Y017769D02*
X028440Y017769D01*
X028440Y017659D01*
X028476Y017623D01*
X028660Y017696D02*
X028660Y017733D01*
X028623Y017769D01*
X028587Y017844D02*
X028366Y017990D01*
X028403Y018065D02*
X028550Y018065D01*
X028587Y018101D01*
X028587Y018175D01*
X028550Y018211D01*
X028403Y018211D01*
X028366Y018175D01*
X028366Y018101D01*
X028403Y018065D01*
X028366Y018286D02*
X028587Y018286D01*
X028476Y018286D02*
X028476Y018432D01*
X028366Y018432D02*
X028587Y018432D01*
X028587Y018507D02*
X028587Y018653D01*
X028587Y018728D02*
X028513Y018801D01*
X028440Y018801D01*
X028366Y018728D01*
X028366Y018507D02*
X028587Y018507D01*
X028587Y016407D02*
X028550Y016370D01*
X028476Y015044D02*
X028476Y015008D01*
X028440Y015008D01*
X028440Y015044D01*
X028476Y015044D01*
X028587Y014566D02*
X028550Y014529D01*
X028440Y012945D02*
X028440Y012835D01*
X028476Y012798D01*
X028440Y011804D02*
X028587Y011804D01*
X026470Y010822D02*
X026360Y010749D01*
X026470Y010675D01*
X026360Y010675D02*
X026360Y010895D01*
X026065Y010859D02*
X025918Y010712D01*
X025955Y010675D01*
X026028Y010675D01*
X026065Y010712D01*
X026065Y010859D01*
X026028Y010895D01*
X025955Y010895D01*
X025918Y010859D01*
X025918Y010712D01*
X025844Y010675D02*
X025697Y010675D01*
X025770Y010675D02*
X025770Y010895D01*
X025697Y010822D01*
X025282Y010520D02*
X025136Y010520D01*
X025136Y010410D01*
X025209Y010447D01*
X025246Y010447D01*
X025282Y010410D01*
X025282Y010337D01*
X025246Y010300D01*
X025172Y010300D01*
X025136Y010337D01*
X025061Y010337D02*
X025025Y010300D01*
X024951Y010300D01*
X024915Y010337D01*
X024915Y010374D01*
X024951Y010410D01*
X025025Y010410D01*
X025061Y010374D01*
X025061Y010337D01*
X025025Y010410D02*
X025061Y010447D01*
X025061Y010484D01*
X025025Y010520D01*
X024951Y010520D01*
X024915Y010484D01*
X024915Y010447D01*
X024951Y010410D01*
X024840Y010337D02*
X024804Y010300D01*
X024730Y010300D01*
X024694Y010337D01*
X024840Y010484D01*
X024840Y010337D01*
X024694Y010337D02*
X024694Y010484D01*
X024730Y010520D01*
X024804Y010520D01*
X024840Y010484D01*
X024619Y010484D02*
X024619Y010410D01*
X024583Y010374D01*
X024473Y010374D01*
X024473Y010300D02*
X024473Y010520D01*
X024583Y010520D01*
X024619Y010484D01*
X024398Y010520D02*
X024398Y010300D01*
X024252Y010300D02*
X024252Y010520D01*
X024325Y010447D01*
X024398Y010520D01*
X024177Y010484D02*
X024177Y010447D01*
X024141Y010410D01*
X024031Y010410D01*
X024141Y010410D02*
X024177Y010374D01*
X024177Y010337D01*
X024141Y010300D01*
X024031Y010300D01*
X024031Y010520D01*
X024141Y010520D01*
X024177Y010484D01*
X021864Y011143D02*
X021717Y011143D01*
X021717Y010923D01*
X021643Y010923D02*
X021643Y011033D01*
X021606Y011070D01*
X021496Y011070D01*
X021496Y010923D01*
X021717Y011033D02*
X021790Y011033D01*
X021201Y010960D02*
X021164Y010923D01*
X021091Y010923D01*
X021054Y010960D01*
X021201Y011107D01*
X021201Y010960D01*
X021201Y011107D02*
X021164Y011143D01*
X021091Y011143D01*
X021054Y011107D01*
X021054Y010960D01*
X020980Y010960D02*
X020943Y010923D01*
X020870Y010923D01*
X020833Y010960D01*
X020980Y011107D01*
X020980Y010960D01*
X020980Y011107D02*
X020943Y011143D01*
X020870Y011143D01*
X020833Y011107D01*
X020833Y010960D01*
X020759Y010923D02*
X020612Y010923D01*
X020685Y010923D02*
X020685Y011143D01*
X020612Y011070D01*
X022866Y008292D02*
X022866Y008145D01*
X023087Y008145D01*
X023087Y008071D02*
X022976Y008071D01*
X022940Y008034D01*
X022940Y007924D01*
X023087Y007924D01*
X022976Y008145D02*
X022976Y008218D01*
X022903Y007629D02*
X023050Y007482D01*
X023087Y007519D01*
X023087Y007592D01*
X023050Y007629D01*
X022903Y007629D01*
X022866Y007592D01*
X022866Y007519D01*
X022903Y007482D01*
X023050Y007482D01*
X023050Y007408D02*
X023087Y007371D01*
X023087Y007298D01*
X023050Y007261D01*
X022903Y007408D01*
X023050Y007408D01*
X023050Y007261D02*
X022903Y007261D01*
X022866Y007298D01*
X022866Y007371D01*
X022903Y007408D01*
X023087Y007187D02*
X023087Y007040D01*
X023087Y007114D02*
X022866Y007114D01*
X022940Y007040D01*
X021999Y006443D02*
X022001Y006448D01*
X022005Y006452D01*
X022010Y006453D01*
X022016Y006451D01*
X022019Y006446D01*
X022019Y006440D01*
X022016Y006435D01*
X022010Y006433D01*
X022005Y006434D01*
X022001Y006438D01*
X021999Y006443D01*
X021959Y006443D02*
X021961Y006456D01*
X021966Y006469D01*
X021975Y006480D01*
X021986Y006487D01*
X021999Y006492D01*
X022012Y006493D01*
X022026Y006490D01*
X022038Y006484D01*
X022048Y006475D01*
X022055Y006463D01*
X022059Y006450D01*
X022059Y006436D01*
X022055Y006423D01*
X022048Y006411D01*
X022038Y006402D01*
X022026Y006396D01*
X022012Y006393D01*
X021999Y006394D01*
X021986Y006399D01*
X021975Y006406D01*
X021966Y006417D01*
X021961Y006430D01*
X021959Y006443D01*
X021936Y006403D02*
X021869Y006403D01*
X021869Y006419D01*
X021936Y006486D01*
X021936Y006503D01*
X021869Y006503D01*
X021809Y006443D02*
X021759Y006493D01*
X021709Y006443D01*
X021759Y006393D02*
X021759Y006493D01*
X021786Y006353D02*
X021786Y006336D01*
X021752Y006303D01*
X021752Y006253D01*
X021752Y006303D02*
X021719Y006336D01*
X021719Y006353D01*
X021869Y006353D02*
X021936Y006253D01*
X021869Y006253D02*
X021936Y006353D01*
X022009Y006293D02*
X022109Y006293D01*
X022059Y006243D01*
X022109Y006293D02*
X022059Y006343D01*
X020662Y006300D02*
X020662Y006153D01*
X020441Y006153D01*
X020441Y006079D02*
X020662Y005932D01*
X020625Y005858D02*
X020478Y005858D01*
X020441Y005821D01*
X020441Y005711D01*
X020662Y005711D01*
X020662Y005821D01*
X020625Y005858D01*
X020441Y005932D02*
X020662Y006079D01*
X020625Y006374D02*
X020662Y006411D01*
X020662Y006484D01*
X020625Y006521D01*
X020588Y006521D01*
X020551Y006484D01*
X020551Y006447D01*
X020551Y006484D02*
X020515Y006521D01*
X020478Y006521D01*
X020441Y006484D01*
X020441Y006411D01*
X020478Y006374D01*
X020551Y006595D02*
X020551Y006742D01*
X020551Y006816D02*
X020515Y006889D01*
X020515Y006926D01*
X020551Y006963D01*
X020625Y006963D01*
X020662Y006926D01*
X020662Y006853D01*
X020625Y006816D01*
X020551Y006816D02*
X020441Y006816D01*
X020441Y006963D01*
X020441Y006705D02*
X020551Y006595D01*
X020441Y006705D02*
X020662Y006705D01*
X020662Y005637D02*
X020515Y005637D01*
X020441Y005564D01*
X020515Y005490D01*
X020662Y005490D01*
X020551Y005490D02*
X020551Y005637D01*
X018355Y002960D02*
X018392Y002924D01*
X018245Y002777D01*
X018282Y002740D01*
X018355Y002740D01*
X018392Y002777D01*
X018392Y002924D01*
X018355Y002960D02*
X018282Y002960D01*
X018245Y002924D01*
X018245Y002777D01*
X018171Y002740D02*
X018024Y002740D01*
X018171Y002887D01*
X018171Y002924D01*
X018134Y002960D01*
X018061Y002960D01*
X018024Y002924D01*
X017950Y002924D02*
X017913Y002960D01*
X017840Y002960D01*
X017803Y002924D01*
X017803Y002887D01*
X017840Y002850D01*
X017913Y002850D01*
X017950Y002814D01*
X017950Y002777D01*
X017913Y002740D01*
X017840Y002740D01*
X017803Y002777D01*
X017729Y002777D02*
X017692Y002740D01*
X017619Y002740D01*
X017582Y002777D01*
X017582Y002814D01*
X017619Y002850D01*
X017692Y002850D01*
X017729Y002814D01*
X017729Y002777D01*
X017692Y002850D02*
X017729Y002887D01*
X017729Y002924D01*
X017692Y002960D01*
X017619Y002960D01*
X017582Y002924D01*
X017582Y002887D01*
X017619Y002850D01*
X017508Y002740D02*
X017361Y002740D01*
X017434Y002740D02*
X017434Y002960D01*
X017361Y002887D01*
X017287Y002924D02*
X017250Y002960D01*
X017177Y002960D01*
X017140Y002924D01*
X017140Y002887D01*
X017177Y002850D01*
X017250Y002850D01*
X017287Y002814D01*
X017287Y002777D01*
X017250Y002740D01*
X017177Y002740D01*
X017140Y002777D01*
X017066Y002777D02*
X017066Y002924D01*
X017029Y002960D01*
X016919Y002960D01*
X016919Y002740D01*
X017029Y002740D01*
X017066Y002777D01*
X028440Y004695D02*
X028476Y004658D01*
X028440Y004695D02*
X028440Y004805D01*
X028866Y004732D02*
X029087Y004732D01*
X029013Y004732D02*
X028940Y004842D01*
X028976Y004916D02*
X028940Y004953D01*
X028940Y005026D01*
X028976Y005063D01*
X029013Y005063D01*
X029013Y004916D01*
X029050Y004916D02*
X028976Y004916D01*
X029050Y004916D02*
X029087Y004953D01*
X029087Y005026D01*
X029087Y004842D02*
X029013Y004732D01*
X028940Y004658D02*
X029087Y004658D01*
X029087Y004548D01*
X029050Y004511D01*
X028940Y004511D01*
X029087Y004437D02*
X029087Y004290D01*
X028866Y004290D01*
X028866Y005358D02*
X029087Y005358D01*
X029013Y005432D01*
X029087Y005505D01*
X028866Y005505D01*
D12*
X028027Y005520D02*
X027978Y005569D01*
X027881Y005569D01*
X027833Y005520D01*
X027833Y005423D01*
X027881Y005375D01*
X027978Y005375D01*
X028027Y005423D01*
X028027Y005520D01*
X027881Y005670D02*
X027881Y005863D01*
X027881Y005964D02*
X027978Y005964D01*
X028027Y006013D01*
X028027Y006158D01*
X027978Y006259D02*
X027881Y006259D01*
X027833Y006307D01*
X027833Y006404D01*
X027881Y006452D01*
X027978Y006452D01*
X028027Y006404D01*
X028027Y006307D01*
X027978Y006259D01*
X027833Y006158D02*
X027833Y006013D01*
X027881Y005964D01*
X027833Y006554D02*
X027833Y006602D01*
X027881Y006650D01*
X027833Y006699D01*
X027881Y006747D01*
X028027Y006747D01*
X028027Y006650D02*
X027881Y006650D01*
X027833Y006554D02*
X028027Y006554D01*
X028027Y006848D02*
X028027Y006993D01*
X027978Y007042D01*
X027881Y007042D01*
X027833Y006993D01*
X027833Y006848D01*
X028123Y006848D01*
X027978Y007143D02*
X027930Y007191D01*
X027930Y007336D01*
X027881Y007336D02*
X028027Y007336D01*
X028027Y007191D01*
X027978Y007143D01*
X027833Y007191D02*
X027833Y007288D01*
X027881Y007336D01*
X027833Y007438D02*
X027833Y007534D01*
X027785Y007486D02*
X027978Y007486D01*
X028027Y007534D01*
X028027Y007634D02*
X028027Y007731D01*
X028027Y007682D02*
X027833Y007682D01*
X027833Y007634D01*
X027736Y007682D02*
X027688Y007682D01*
X027736Y007830D02*
X028027Y007830D01*
X028027Y007976D01*
X027978Y008024D01*
X027881Y008024D01*
X027833Y007976D01*
X027833Y007830D01*
X027736Y008125D02*
X027736Y008173D01*
X028027Y008173D01*
X028027Y008125D02*
X028027Y008222D01*
X027978Y008321D02*
X027881Y008321D01*
X027833Y008370D01*
X027833Y008467D01*
X027881Y008515D01*
X027930Y008515D01*
X027930Y008321D01*
X027978Y008321D02*
X028027Y008370D01*
X028027Y008467D01*
X028027Y008911D02*
X027736Y008911D01*
X027833Y009007D01*
X027736Y009104D01*
X028027Y009104D01*
X027978Y009205D02*
X027881Y009205D01*
X027833Y009254D01*
X027833Y009351D01*
X027881Y009399D01*
X027978Y009399D01*
X028027Y009351D01*
X028027Y009254D01*
X027978Y009205D01*
X028027Y009500D02*
X027736Y009500D01*
X027833Y009500D02*
X027833Y009645D01*
X027881Y009694D01*
X027978Y009694D01*
X028027Y009645D01*
X028027Y009500D01*
X028027Y009795D02*
X028027Y009891D01*
X028027Y009843D02*
X027833Y009843D01*
X027833Y009795D01*
X027736Y009843D02*
X027688Y009843D01*
X027736Y009991D02*
X027736Y010039D01*
X028027Y010039D01*
X028027Y009991D02*
X028027Y010088D01*
X027978Y010188D02*
X027881Y010188D01*
X027833Y010236D01*
X027833Y010333D01*
X027881Y010381D01*
X027930Y010381D01*
X027930Y010188D01*
X027978Y010188D02*
X028027Y010236D01*
X028027Y010333D01*
X027978Y010777D02*
X028027Y010825D01*
X028027Y010922D01*
X027978Y010970D01*
X027930Y010970D01*
X027881Y010922D01*
X027881Y010825D01*
X027833Y010777D01*
X027785Y010777D01*
X027736Y010825D01*
X027736Y010922D01*
X027785Y010970D01*
X027881Y011071D02*
X027833Y011120D01*
X027833Y011217D01*
X027881Y011265D01*
X027930Y011265D01*
X027930Y011071D01*
X027978Y011071D02*
X027881Y011071D01*
X027978Y011071D02*
X028027Y011120D01*
X028027Y011217D01*
X028027Y011366D02*
X027833Y011366D01*
X027833Y011511D01*
X027881Y011560D01*
X028027Y011560D01*
X028027Y011661D02*
X028027Y011806D01*
X027978Y011854D01*
X027930Y011806D01*
X027930Y011709D01*
X027881Y011661D01*
X027833Y011709D01*
X027833Y011854D01*
X027881Y011955D02*
X027978Y011955D01*
X028027Y012004D01*
X028027Y012101D01*
X027978Y012149D01*
X027881Y012149D01*
X027833Y012101D01*
X027833Y012004D01*
X027881Y011955D01*
X027833Y012250D02*
X028027Y012250D01*
X027930Y012250D02*
X027833Y012347D01*
X027833Y012395D01*
X027736Y012790D02*
X027736Y012935D01*
X027785Y012984D01*
X027978Y012984D01*
X028027Y012935D01*
X028027Y012790D01*
X027736Y012790D01*
X027833Y013133D02*
X027833Y013230D01*
X027881Y013278D01*
X028027Y013278D01*
X028027Y013133D01*
X027978Y013085D01*
X027930Y013133D01*
X027930Y013278D01*
X027833Y013379D02*
X027833Y013476D01*
X027785Y013428D02*
X027978Y013428D01*
X028027Y013476D01*
X027978Y013576D02*
X027930Y013624D01*
X027930Y013769D01*
X027881Y013769D02*
X028027Y013769D01*
X028027Y013624D01*
X027978Y013576D01*
X027833Y013624D02*
X027833Y013721D01*
X027881Y013769D01*
X027736Y013871D02*
X027736Y013919D01*
X028027Y013919D01*
X028027Y013871D02*
X028027Y013967D01*
X027978Y014067D02*
X027881Y014067D01*
X027833Y014115D01*
X027833Y014212D01*
X027881Y014260D01*
X027978Y014260D01*
X028027Y014212D01*
X028027Y014115D01*
X027978Y014067D01*
X027978Y014362D02*
X027881Y014362D01*
X027833Y014410D01*
X027833Y014555D01*
X028075Y014555D01*
X028123Y014507D01*
X028123Y014458D01*
X028027Y014410D02*
X028027Y014555D01*
X027978Y014656D02*
X028027Y014705D01*
X028027Y014850D01*
X028075Y014850D02*
X027833Y014850D01*
X027833Y014705D01*
X027881Y014656D01*
X027978Y014656D01*
X028123Y014753D02*
X028123Y014801D01*
X028075Y014850D01*
X028027Y014951D02*
X028027Y015048D01*
X028027Y014999D02*
X027833Y014999D01*
X027833Y014951D01*
X027736Y014999D02*
X027688Y014999D01*
X027833Y015147D02*
X027833Y015292D01*
X027881Y015341D01*
X028027Y015341D01*
X027978Y015442D02*
X027881Y015442D01*
X027833Y015490D01*
X027833Y015635D01*
X028075Y015635D01*
X028123Y015587D01*
X028123Y015539D01*
X028027Y015490D02*
X028027Y015635D01*
X028027Y015490D02*
X027978Y015442D01*
X028027Y015147D02*
X027833Y015147D01*
X028027Y014410D02*
X027978Y014362D01*
X028027Y016031D02*
X027736Y016031D01*
X027736Y016176D01*
X027785Y016225D01*
X027881Y016225D01*
X027930Y016176D01*
X027930Y016031D01*
X028027Y016326D02*
X028027Y016423D01*
X028027Y016374D02*
X027736Y016374D01*
X027736Y016326D01*
X027833Y016571D02*
X027833Y016667D01*
X027881Y016716D01*
X028027Y016716D01*
X028027Y016571D01*
X027978Y016522D01*
X027930Y016571D01*
X027930Y016716D01*
X027833Y016817D02*
X027833Y016914D01*
X027785Y016865D02*
X027978Y016865D01*
X028027Y016914D01*
X028027Y017062D02*
X027785Y017062D01*
X027736Y017110D01*
X027881Y017110D02*
X027881Y017013D01*
X027881Y017210D02*
X027978Y017210D01*
X028027Y017258D01*
X028027Y017355D01*
X027978Y017403D01*
X027881Y017403D01*
X027833Y017355D01*
X027833Y017258D01*
X027881Y017210D01*
X027833Y017504D02*
X028027Y017504D01*
X027930Y017504D02*
X027833Y017601D01*
X027833Y017650D01*
X027833Y017750D02*
X027833Y017798D01*
X027881Y017847D01*
X027833Y017895D01*
X027881Y017943D01*
X028027Y017943D01*
X028027Y017847D02*
X027881Y017847D01*
X027833Y017750D02*
X028027Y017750D01*
X019144Y020128D02*
X019096Y020079D01*
X018951Y020079D01*
X018951Y019983D02*
X018951Y020273D01*
X019096Y020273D01*
X019144Y020224D01*
X019144Y020128D01*
X018850Y020176D02*
X018801Y020128D01*
X018705Y020128D01*
X018656Y020176D01*
X018656Y020224D01*
X018705Y020273D01*
X018801Y020273D01*
X018850Y020224D01*
X018850Y020176D01*
X018801Y020128D02*
X018850Y020079D01*
X018850Y020031D01*
X018801Y019983D01*
X018705Y019983D01*
X018656Y020031D01*
X018656Y020079D01*
X018705Y020128D01*
X018555Y020176D02*
X018555Y020224D01*
X018507Y020273D01*
X018410Y020273D01*
X018362Y020224D01*
X018260Y020224D02*
X018260Y020176D01*
X018212Y020128D01*
X018260Y020079D01*
X018260Y020031D01*
X018212Y019983D01*
X018115Y019983D01*
X018067Y020031D01*
X017966Y020079D02*
X017821Y020079D01*
X017772Y020031D01*
X017821Y019983D01*
X017966Y019983D01*
X017966Y020128D01*
X017917Y020176D01*
X017821Y020176D01*
X017671Y020176D02*
X017526Y020176D01*
X017478Y020128D01*
X017478Y020031D01*
X017526Y019983D01*
X017671Y019983D01*
X017671Y019934D02*
X017671Y020176D01*
X017671Y019934D02*
X017623Y019886D01*
X017574Y019886D01*
X017328Y019983D02*
X017231Y019983D01*
X017183Y020031D01*
X017183Y020128D01*
X017231Y020176D01*
X017328Y020176D01*
X017376Y020128D01*
X017376Y020079D01*
X017183Y020079D01*
X017082Y020128D02*
X017082Y019983D01*
X016985Y019983D02*
X016985Y020128D01*
X017033Y020176D01*
X017082Y020128D01*
X016985Y020128D02*
X016937Y020176D01*
X016888Y020176D01*
X016888Y019983D01*
X016690Y019983D02*
X016690Y020273D01*
X016594Y020273D02*
X016787Y020273D01*
X016493Y020176D02*
X016493Y019983D01*
X016493Y020128D02*
X016299Y020128D01*
X016299Y020176D02*
X016396Y020273D01*
X016493Y020176D01*
X016299Y020176D02*
X016299Y019983D01*
X018067Y020224D02*
X018115Y020273D01*
X018212Y020273D01*
X018260Y020224D01*
X018212Y020128D02*
X018164Y020128D01*
X018362Y019983D02*
X018555Y020176D01*
X018555Y019983D02*
X018362Y019983D01*
X002144Y010967D02*
X002144Y010897D01*
X002109Y010862D01*
X002039Y010897D02*
X002039Y010967D01*
X002074Y011002D01*
X002109Y011002D01*
X002144Y010967D01*
X002039Y010897D02*
X002004Y010862D01*
X001969Y010862D01*
X001934Y010897D01*
X001934Y010967D01*
X001969Y011002D01*
X001969Y010781D02*
X002039Y010781D01*
X002074Y010746D01*
X002074Y010641D01*
X002144Y010641D02*
X001934Y010641D01*
X001934Y010746D01*
X001969Y010781D01*
X001969Y010560D02*
X001934Y010525D01*
X001934Y010455D01*
X001969Y010420D01*
X002109Y010420D01*
X002144Y010455D01*
X002144Y010525D01*
X002109Y010560D01*
X002039Y010560D01*
X002039Y010490D01*
X002209Y005339D02*
X002174Y005304D01*
X002174Y005234D01*
X002209Y005199D01*
X002349Y005199D01*
X002384Y005234D01*
X002384Y005304D01*
X002349Y005339D01*
X002209Y005339D01*
X002174Y005122D02*
X002174Y005052D01*
X002174Y005087D02*
X002384Y005087D01*
X002384Y005052D02*
X002384Y005122D01*
X002349Y004971D02*
X002209Y004971D01*
X002174Y004936D01*
X002174Y004831D01*
X002384Y004831D01*
X002384Y004936D01*
X002349Y004971D01*
X002384Y004750D02*
X002244Y004750D01*
X002174Y004680D01*
X002244Y004610D01*
X002384Y004610D01*
X002384Y004529D02*
X002314Y004459D01*
X002314Y004494D02*
X002314Y004389D01*
X002384Y004389D02*
X002174Y004389D01*
X002174Y004494D01*
X002209Y004529D01*
X002279Y004529D01*
X002314Y004494D01*
X002279Y004610D02*
X002279Y004750D01*
X027688Y004932D02*
X027736Y004932D01*
X027833Y004932D02*
X028027Y004932D01*
X028027Y004884D02*
X028027Y004981D01*
X028027Y005080D02*
X027833Y005080D01*
X027833Y005226D01*
X027881Y005274D01*
X028027Y005274D01*
X027833Y004932D02*
X027833Y004884D01*
X027833Y004783D02*
X028027Y004783D01*
X028027Y004638D01*
X027978Y004589D01*
X027833Y004589D01*
X027833Y004488D02*
X027833Y004343D01*
X027881Y004295D01*
X027978Y004295D01*
X028027Y004343D01*
X028027Y004488D01*
X027736Y004488D01*
X027833Y004194D02*
X027833Y004146D01*
X027930Y004049D01*
X028027Y004049D02*
X027833Y004049D01*
X027833Y003948D02*
X028027Y003948D01*
X027881Y003948D02*
X027881Y003755D01*
X027833Y003755D02*
X027736Y003851D01*
X027833Y003948D01*
X027833Y003755D02*
X028027Y003755D01*
D13*
X013704Y008386D02*
X013715Y008401D01*
X013714Y008401D02*
X013761Y008371D01*
X013810Y008345D01*
X013861Y008322D01*
X013913Y008303D01*
X013967Y008288D01*
X014021Y008276D01*
X014076Y008268D01*
X014131Y008264D01*
X014187Y008264D01*
X014242Y008268D01*
X014297Y008276D01*
X014351Y008288D01*
X014405Y008303D01*
X014457Y008322D01*
X014508Y008345D01*
X014557Y008371D01*
X014604Y008401D01*
X014614Y008386D01*
X014614Y008385D01*
X014569Y008356D01*
X014522Y008331D01*
X014473Y008308D01*
X014423Y008289D01*
X014371Y008273D01*
X014319Y008261D01*
X014266Y008252D01*
X014213Y008247D01*
X014159Y008245D01*
X014105Y008247D01*
X014052Y008252D01*
X013999Y008261D01*
X013947Y008273D01*
X013895Y008289D01*
X013845Y008308D01*
X013796Y008331D01*
X013749Y008356D01*
X013704Y008385D01*
X013704Y008386D01*
X013750Y008357D01*
X013797Y008332D01*
X013846Y008309D01*
X013896Y008290D01*
X013947Y008274D01*
X013999Y008262D01*
X014052Y008253D01*
X014105Y008248D01*
X014159Y008246D01*
X014213Y008248D01*
X014266Y008253D01*
X014319Y008262D01*
X014371Y008274D01*
X014422Y008290D01*
X014472Y008309D01*
X014521Y008332D01*
X014568Y008357D01*
X014614Y008386D01*
X014613Y008387D01*
X014568Y008358D01*
X014521Y008332D01*
X014472Y008310D01*
X014422Y008291D01*
X014371Y008275D01*
X014319Y008263D01*
X014266Y008254D01*
X014213Y008249D01*
X014159Y008247D01*
X014105Y008249D01*
X014052Y008254D01*
X013999Y008263D01*
X013947Y008275D01*
X013896Y008291D01*
X013846Y008310D01*
X013797Y008332D01*
X013750Y008358D01*
X013705Y008387D01*
X013751Y008359D01*
X013798Y008333D01*
X013846Y008311D01*
X013896Y008292D01*
X013947Y008276D01*
X014000Y008264D01*
X014052Y008255D01*
X014106Y008250D01*
X014159Y008248D01*
X014212Y008250D01*
X014266Y008255D01*
X014318Y008264D01*
X014371Y008276D01*
X014422Y008292D01*
X014472Y008311D01*
X014520Y008333D01*
X014567Y008359D01*
X014613Y008387D01*
X014612Y008388D01*
X014567Y008360D01*
X014520Y008334D01*
X014471Y008312D01*
X014421Y008293D01*
X014370Y008277D01*
X014318Y008265D01*
X014266Y008256D01*
X014212Y008251D01*
X014159Y008249D01*
X014106Y008251D01*
X014052Y008256D01*
X014000Y008265D01*
X013948Y008277D01*
X013897Y008293D01*
X013847Y008312D01*
X013798Y008334D01*
X013751Y008360D01*
X013706Y008388D01*
X013707Y008389D01*
X013752Y008361D01*
X013799Y008335D01*
X013847Y008313D01*
X013897Y008294D01*
X013948Y008278D01*
X014000Y008266D01*
X014053Y008257D01*
X014106Y008252D01*
X014159Y008250D01*
X014212Y008252D01*
X014265Y008257D01*
X014318Y008266D01*
X014370Y008278D01*
X014421Y008294D01*
X014471Y008313D01*
X014519Y008335D01*
X014566Y008361D01*
X014611Y008389D01*
X014611Y008390D01*
X014566Y008361D01*
X014519Y008336D01*
X014470Y008314D01*
X014421Y008295D01*
X014370Y008279D01*
X014318Y008267D01*
X014265Y008258D01*
X014212Y008253D01*
X014159Y008251D01*
X014106Y008253D01*
X014053Y008258D01*
X014000Y008267D01*
X013948Y008279D01*
X013897Y008295D01*
X013848Y008314D01*
X013799Y008336D01*
X013752Y008361D01*
X013707Y008390D01*
X013708Y008391D01*
X013753Y008362D01*
X013800Y008337D01*
X013848Y008315D01*
X013898Y008296D01*
X013949Y008280D01*
X014000Y008268D01*
X014053Y008259D01*
X014106Y008254D01*
X014159Y008252D01*
X014212Y008254D01*
X014265Y008259D01*
X014318Y008268D01*
X014369Y008280D01*
X014420Y008296D01*
X014470Y008315D01*
X014518Y008337D01*
X014565Y008362D01*
X014610Y008391D01*
X014610Y008392D01*
X014562Y008362D01*
X014512Y008335D01*
X014461Y008312D01*
X014408Y008293D01*
X014354Y008277D01*
X014299Y008265D01*
X014243Y008257D01*
X014187Y008253D01*
X014131Y008253D01*
X014075Y008257D01*
X014019Y008265D01*
X013964Y008277D01*
X013910Y008293D01*
X013857Y008312D01*
X013806Y008335D01*
X013756Y008362D01*
X013708Y008392D01*
X013709Y008392D01*
X013756Y008363D01*
X013806Y008336D01*
X013857Y008313D01*
X013910Y008294D01*
X013964Y008278D01*
X014019Y008266D01*
X014075Y008258D01*
X014131Y008254D01*
X014187Y008254D01*
X014243Y008258D01*
X014299Y008266D01*
X014354Y008278D01*
X014408Y008294D01*
X014461Y008313D01*
X014512Y008336D01*
X014562Y008363D01*
X014609Y008392D01*
X014609Y008393D01*
X014561Y008363D01*
X014512Y008337D01*
X014460Y008314D01*
X014408Y008295D01*
X014354Y008279D01*
X014299Y008267D01*
X014243Y008259D01*
X014187Y008255D01*
X014131Y008255D01*
X014075Y008259D01*
X014019Y008267D01*
X013964Y008279D01*
X013910Y008295D01*
X013858Y008314D01*
X013806Y008337D01*
X013757Y008363D01*
X013709Y008393D01*
X013710Y008394D01*
X013757Y008364D01*
X013807Y008338D01*
X013858Y008315D01*
X013911Y008296D01*
X013965Y008280D01*
X014019Y008268D01*
X014075Y008260D01*
X014131Y008256D01*
X014187Y008256D01*
X014243Y008260D01*
X014299Y008268D01*
X014353Y008280D01*
X014407Y008296D01*
X014460Y008315D01*
X014511Y008338D01*
X014561Y008364D01*
X014608Y008394D01*
X014607Y008395D01*
X014560Y008365D01*
X014511Y008339D01*
X014460Y008316D01*
X014407Y008296D01*
X014353Y008281D01*
X014298Y008269D01*
X014243Y008261D01*
X014187Y008257D01*
X014131Y008257D01*
X014075Y008261D01*
X014020Y008269D01*
X013965Y008281D01*
X013911Y008296D01*
X013858Y008316D01*
X013807Y008339D01*
X013758Y008365D01*
X013711Y008395D01*
X013711Y008396D01*
X013758Y008366D01*
X013808Y008340D01*
X013859Y008317D01*
X013911Y008297D01*
X013965Y008282D01*
X014020Y008270D01*
X014075Y008262D01*
X014131Y008258D01*
X014187Y008258D01*
X014243Y008262D01*
X014298Y008270D01*
X014353Y008282D01*
X014407Y008297D01*
X014459Y008317D01*
X014510Y008340D01*
X014560Y008366D01*
X014607Y008396D01*
X014606Y008397D01*
X014559Y008367D01*
X014510Y008340D01*
X014459Y008318D01*
X014406Y008298D01*
X014353Y008283D01*
X014298Y008271D01*
X014243Y008263D01*
X014187Y008259D01*
X014131Y008259D01*
X014075Y008263D01*
X014020Y008271D01*
X013965Y008283D01*
X013912Y008298D01*
X013859Y008318D01*
X013808Y008340D01*
X013759Y008367D01*
X013712Y008397D01*
X013759Y008368D01*
X013809Y008341D01*
X013860Y008319D01*
X013912Y008299D01*
X013966Y008284D01*
X014020Y008272D01*
X014075Y008264D01*
X014131Y008260D01*
X014187Y008260D01*
X014243Y008264D01*
X014298Y008272D01*
X014352Y008284D01*
X014406Y008299D01*
X014458Y008319D01*
X014509Y008341D01*
X014559Y008368D01*
X014606Y008397D01*
X014605Y008398D01*
X014558Y008369D01*
X014509Y008342D01*
X014458Y008319D01*
X014406Y008300D01*
X014352Y008285D01*
X014298Y008273D01*
X014242Y008265D01*
X014187Y008261D01*
X014131Y008261D01*
X014076Y008265D01*
X014020Y008273D01*
X013966Y008285D01*
X013912Y008300D01*
X013860Y008319D01*
X013809Y008342D01*
X013760Y008369D01*
X013713Y008398D01*
X013713Y008399D01*
X013760Y008369D01*
X013810Y008343D01*
X013860Y008320D01*
X013913Y008301D01*
X013966Y008286D01*
X014021Y008274D01*
X014076Y008266D01*
X014131Y008262D01*
X014187Y008262D01*
X014242Y008266D01*
X014297Y008274D01*
X014352Y008286D01*
X014405Y008301D01*
X014458Y008320D01*
X014508Y008343D01*
X014558Y008369D01*
X014605Y008399D01*
X014604Y008400D01*
X014557Y008370D01*
X014508Y008344D01*
X014457Y008321D01*
X014405Y008302D01*
X014352Y008287D01*
X014297Y008275D01*
X014242Y008267D01*
X014187Y008263D01*
X014131Y008263D01*
X014076Y008267D01*
X014021Y008275D01*
X013966Y008287D01*
X013913Y008302D01*
X013861Y008321D01*
X013810Y008344D01*
X013761Y008370D01*
X013714Y008400D01*
X013650Y009055D02*
X013669Y009055D01*
X013668Y009055D02*
X013669Y009018D01*
X013674Y008981D01*
X013680Y008945D01*
X013690Y008910D01*
X013702Y008875D01*
X013717Y008841D01*
X013700Y008834D01*
X013700Y008833D01*
X013684Y008868D01*
X013672Y008904D01*
X013662Y008941D01*
X013655Y008978D01*
X013650Y009016D01*
X013649Y009055D01*
X013650Y009055D01*
X013651Y009016D01*
X013656Y008979D01*
X013663Y008941D01*
X013673Y008904D01*
X013685Y008868D01*
X013701Y008834D01*
X013702Y008834D01*
X013686Y008869D01*
X013674Y008905D01*
X013664Y008941D01*
X013657Y008979D01*
X013652Y009017D01*
X013651Y009055D01*
X013652Y009055D01*
X013653Y009017D01*
X013658Y008979D01*
X013665Y008942D01*
X013675Y008905D01*
X013687Y008869D01*
X013702Y008834D01*
X013703Y008835D01*
X013688Y008870D01*
X013676Y008905D01*
X013666Y008942D01*
X013659Y008979D01*
X013654Y009017D01*
X013653Y009055D01*
X013654Y009055D01*
X013655Y009017D01*
X013660Y008979D01*
X013667Y008942D01*
X013677Y008906D01*
X013689Y008870D01*
X013704Y008835D01*
X013705Y008836D01*
X013690Y008870D01*
X013678Y008906D01*
X013668Y008942D01*
X013661Y008979D01*
X013656Y009017D01*
X013655Y009055D01*
X013656Y009055D01*
X013657Y009017D01*
X013662Y008979D01*
X013669Y008943D01*
X013679Y008906D01*
X013691Y008871D01*
X013706Y008836D01*
X013707Y008837D01*
X013692Y008871D01*
X013679Y008906D01*
X013670Y008943D01*
X013663Y008980D01*
X013658Y009017D01*
X013657Y009055D01*
X013658Y009055D01*
X013659Y009017D01*
X013664Y008980D01*
X013671Y008943D01*
X013680Y008907D01*
X013693Y008871D01*
X013708Y008837D01*
X013709Y008837D01*
X013694Y008872D01*
X013681Y008907D01*
X013672Y008943D01*
X013665Y008980D01*
X013660Y009017D01*
X013659Y009055D01*
X013660Y009055D01*
X013661Y009017D01*
X013666Y008980D01*
X013673Y008943D01*
X013682Y008907D01*
X013695Y008872D01*
X013710Y008838D01*
X013711Y008838D01*
X013696Y008873D01*
X013683Y008908D01*
X013674Y008944D01*
X013667Y008980D01*
X013662Y009017D01*
X013661Y009055D01*
X013662Y009055D01*
X013663Y009017D01*
X013668Y008980D01*
X013675Y008944D01*
X013684Y008908D01*
X013697Y008873D01*
X013711Y008839D01*
X013712Y008839D01*
X013698Y008873D01*
X013685Y008908D01*
X013676Y008944D01*
X013669Y008981D01*
X013664Y009017D01*
X013663Y009055D01*
X013664Y009055D01*
X013665Y009017D01*
X013670Y008981D01*
X013677Y008944D01*
X013686Y008909D01*
X013698Y008874D01*
X013713Y008840D01*
X013714Y008840D01*
X013699Y008874D01*
X013687Y008909D01*
X013678Y008945D01*
X013671Y008981D01*
X013666Y009018D01*
X013665Y009055D01*
X013666Y009055D01*
X013667Y009018D01*
X013672Y008981D01*
X013678Y008945D01*
X013688Y008909D01*
X013700Y008874D01*
X013715Y008841D01*
X013716Y008841D01*
X013701Y008875D01*
X013689Y008909D01*
X013679Y008945D01*
X013673Y008981D01*
X013668Y009018D01*
X013667Y009055D01*
X014618Y008834D02*
X014601Y008842D01*
X014601Y008841D02*
X014616Y008875D01*
X014628Y008910D01*
X014638Y008945D01*
X014644Y008981D01*
X014649Y009018D01*
X014650Y009055D01*
X014668Y009055D01*
X014669Y009055D01*
X014668Y009016D01*
X014663Y008978D01*
X014656Y008941D01*
X014646Y008904D01*
X014634Y008868D01*
X014618Y008833D01*
X014617Y008834D01*
X014633Y008868D01*
X014645Y008904D01*
X014655Y008941D01*
X014662Y008979D01*
X014667Y009016D01*
X014668Y009055D01*
X014667Y009055D01*
X014666Y009017D01*
X014661Y008979D01*
X014654Y008941D01*
X014644Y008905D01*
X014632Y008869D01*
X014616Y008834D01*
X014631Y008869D01*
X014643Y008905D01*
X014653Y008942D01*
X014660Y008979D01*
X014665Y009017D01*
X014666Y009055D01*
X014665Y009055D01*
X014664Y009017D01*
X014659Y008979D01*
X014652Y008942D01*
X014642Y008905D01*
X014630Y008870D01*
X014615Y008835D01*
X014614Y008835D01*
X014629Y008870D01*
X014641Y008906D01*
X014651Y008942D01*
X014658Y008979D01*
X014663Y009017D01*
X014664Y009055D01*
X014663Y009055D01*
X014662Y009017D01*
X014657Y008979D01*
X014650Y008942D01*
X014640Y008906D01*
X014628Y008870D01*
X014613Y008836D01*
X014612Y008836D01*
X014627Y008871D01*
X014639Y008906D01*
X014649Y008943D01*
X014656Y008979D01*
X014661Y009017D01*
X014662Y009055D01*
X014661Y009055D01*
X014660Y009017D01*
X014655Y008980D01*
X014648Y008943D01*
X014639Y008906D01*
X014626Y008871D01*
X014611Y008837D01*
X014610Y008837D01*
X014625Y008871D01*
X014638Y008907D01*
X014647Y008943D01*
X014654Y008980D01*
X014659Y009017D01*
X014660Y009055D01*
X014659Y009055D01*
X014658Y009017D01*
X014653Y008980D01*
X014646Y008943D01*
X014637Y008907D01*
X014624Y008872D01*
X014609Y008837D01*
X014608Y008838D01*
X014623Y008872D01*
X014636Y008907D01*
X014645Y008943D01*
X014652Y008980D01*
X014657Y009017D01*
X014658Y009055D01*
X014657Y009055D01*
X014656Y009017D01*
X014651Y008980D01*
X014644Y008944D01*
X014635Y008908D01*
X014622Y008873D01*
X014607Y008838D01*
X014607Y008839D01*
X014621Y008873D01*
X014634Y008908D01*
X014643Y008944D01*
X014650Y008980D01*
X014655Y009017D01*
X014656Y009055D01*
X014655Y009055D01*
X014654Y009017D01*
X014649Y008981D01*
X014642Y008944D01*
X014633Y008908D01*
X014620Y008873D01*
X014606Y008839D01*
X014605Y008840D01*
X014620Y008874D01*
X014632Y008909D01*
X014641Y008944D01*
X014648Y008981D01*
X014653Y009017D01*
X014654Y009055D01*
X014653Y009055D01*
X014652Y009018D01*
X014647Y008981D01*
X014640Y008945D01*
X014631Y008909D01*
X014619Y008874D01*
X014604Y008840D01*
X014603Y008841D01*
X014618Y008874D01*
X014630Y008909D01*
X014640Y008945D01*
X014646Y008981D01*
X014651Y009018D01*
X014652Y009055D01*
X014651Y009055D01*
X014650Y009018D01*
X014645Y008981D01*
X014639Y008945D01*
X014629Y008909D01*
X014617Y008875D01*
X014602Y008841D01*
X013701Y008833D02*
X013718Y008841D01*
X013717Y008841D02*
X013738Y008802D01*
X013763Y008765D01*
X013790Y008731D01*
X013820Y008699D01*
X013854Y008671D01*
X013889Y008645D01*
X013927Y008622D01*
X013967Y008603D01*
X014008Y008588D01*
X014050Y008576D01*
X014093Y008568D01*
X014137Y008564D01*
X014181Y008564D01*
X014225Y008568D01*
X014268Y008576D01*
X014310Y008588D01*
X014351Y008603D01*
X014391Y008622D01*
X014429Y008645D01*
X014464Y008671D01*
X014498Y008699D01*
X014528Y008731D01*
X014555Y008765D01*
X014580Y008802D01*
X014601Y008841D01*
X014617Y008833D01*
X014618Y008832D01*
X014597Y008794D01*
X014573Y008757D01*
X014546Y008722D01*
X014516Y008690D01*
X014483Y008661D01*
X014448Y008635D01*
X014411Y008611D01*
X014372Y008591D01*
X014331Y008575D01*
X014289Y008562D01*
X014246Y008553D01*
X014203Y008547D01*
X014159Y008545D01*
X014115Y008547D01*
X014072Y008553D01*
X014029Y008562D01*
X013987Y008575D01*
X013946Y008591D01*
X013907Y008611D01*
X013870Y008635D01*
X013835Y008661D01*
X013802Y008690D01*
X013772Y008722D01*
X013745Y008757D01*
X013721Y008794D01*
X013700Y008832D01*
X013701Y008833D01*
X013722Y008794D01*
X013746Y008758D01*
X013773Y008723D01*
X013803Y008691D01*
X013836Y008662D01*
X013871Y008636D01*
X013908Y008612D01*
X013947Y008592D01*
X013987Y008576D01*
X014029Y008563D01*
X014072Y008554D01*
X014115Y008548D01*
X014159Y008546D01*
X014203Y008548D01*
X014246Y008554D01*
X014289Y008563D01*
X014331Y008576D01*
X014371Y008592D01*
X014410Y008612D01*
X014447Y008636D01*
X014482Y008662D01*
X014515Y008691D01*
X014545Y008723D01*
X014572Y008758D01*
X014596Y008794D01*
X014617Y008833D01*
X014616Y008833D01*
X014595Y008795D01*
X014571Y008758D01*
X014544Y008724D01*
X014514Y008692D01*
X014482Y008663D01*
X014447Y008636D01*
X014410Y008613D01*
X014371Y008593D01*
X014330Y008577D01*
X014289Y008564D01*
X014246Y008555D01*
X014203Y008549D01*
X014159Y008547D01*
X014115Y008549D01*
X014072Y008555D01*
X014029Y008564D01*
X013988Y008577D01*
X013947Y008593D01*
X013908Y008613D01*
X013871Y008636D01*
X013836Y008663D01*
X013804Y008692D01*
X013774Y008724D01*
X013747Y008758D01*
X013723Y008795D01*
X013702Y008833D01*
X013703Y008834D01*
X013724Y008795D01*
X013748Y008759D01*
X013775Y008724D01*
X013804Y008693D01*
X013837Y008663D01*
X013872Y008637D01*
X013909Y008614D01*
X013948Y008594D01*
X013988Y008578D01*
X014030Y008565D01*
X014072Y008555D01*
X014115Y008550D01*
X014159Y008548D01*
X014203Y008550D01*
X014246Y008555D01*
X014288Y008565D01*
X014330Y008578D01*
X014370Y008594D01*
X014409Y008614D01*
X014446Y008637D01*
X014481Y008663D01*
X014514Y008693D01*
X014543Y008724D01*
X014570Y008759D01*
X014594Y008795D01*
X014615Y008834D01*
X014614Y008834D01*
X014593Y008796D01*
X014570Y008759D01*
X014543Y008725D01*
X014513Y008693D01*
X014480Y008664D01*
X014446Y008638D01*
X014409Y008615D01*
X014370Y008595D01*
X014330Y008579D01*
X014288Y008566D01*
X014246Y008556D01*
X014202Y008551D01*
X014159Y008549D01*
X014116Y008551D01*
X014072Y008556D01*
X014030Y008566D01*
X013988Y008579D01*
X013948Y008595D01*
X013909Y008615D01*
X013872Y008638D01*
X013838Y008664D01*
X013805Y008693D01*
X013775Y008725D01*
X013748Y008759D01*
X013725Y008796D01*
X013704Y008834D01*
X013705Y008834D01*
X013725Y008796D01*
X013749Y008760D01*
X013776Y008726D01*
X013806Y008694D01*
X013838Y008665D01*
X013873Y008639D01*
X013910Y008616D01*
X013948Y008596D01*
X013989Y008580D01*
X014030Y008567D01*
X014073Y008557D01*
X014116Y008552D01*
X014159Y008550D01*
X014202Y008552D01*
X014245Y008557D01*
X014288Y008567D01*
X014329Y008580D01*
X014370Y008596D01*
X014408Y008616D01*
X014445Y008639D01*
X014480Y008665D01*
X014512Y008694D01*
X014542Y008726D01*
X014569Y008760D01*
X014593Y008796D01*
X014613Y008834D01*
X014612Y008835D01*
X014592Y008797D01*
X014568Y008760D01*
X014541Y008726D01*
X014511Y008695D01*
X014479Y008666D01*
X014445Y008640D01*
X014408Y008617D01*
X014369Y008597D01*
X014329Y008581D01*
X014288Y008568D01*
X014245Y008558D01*
X014202Y008553D01*
X014159Y008551D01*
X014116Y008553D01*
X014073Y008558D01*
X014030Y008568D01*
X013989Y008581D01*
X013949Y008597D01*
X013910Y008617D01*
X013873Y008640D01*
X013839Y008666D01*
X013807Y008695D01*
X013777Y008726D01*
X013750Y008760D01*
X013726Y008797D01*
X013706Y008835D01*
X013707Y008835D01*
X013727Y008797D01*
X013751Y008761D01*
X013778Y008727D01*
X013807Y008695D01*
X013839Y008667D01*
X013874Y008641D01*
X013911Y008618D01*
X013949Y008598D01*
X013989Y008582D01*
X014031Y008569D01*
X014073Y008559D01*
X014116Y008554D01*
X014159Y008552D01*
X014202Y008554D01*
X014245Y008559D01*
X014287Y008569D01*
X014329Y008582D01*
X014369Y008598D01*
X014407Y008618D01*
X014444Y008641D01*
X014479Y008667D01*
X014511Y008695D01*
X014540Y008727D01*
X014567Y008761D01*
X014591Y008797D01*
X014611Y008835D01*
X014611Y008836D01*
X014590Y008798D01*
X014566Y008762D01*
X014540Y008728D01*
X014510Y008696D01*
X014478Y008667D01*
X014443Y008641D01*
X014407Y008618D01*
X014368Y008599D01*
X014328Y008582D01*
X014287Y008570D01*
X014245Y008560D01*
X014202Y008555D01*
X014159Y008553D01*
X014116Y008555D01*
X014073Y008560D01*
X014031Y008570D01*
X013990Y008582D01*
X013950Y008599D01*
X013911Y008618D01*
X013875Y008641D01*
X013840Y008667D01*
X013808Y008696D01*
X013778Y008728D01*
X013752Y008762D01*
X013728Y008798D01*
X013707Y008836D01*
X013708Y008836D01*
X013729Y008798D01*
X013752Y008762D01*
X013779Y008728D01*
X013809Y008697D01*
X013841Y008668D01*
X013875Y008642D01*
X013912Y008619D01*
X013950Y008600D01*
X013990Y008583D01*
X014031Y008571D01*
X014073Y008561D01*
X014116Y008556D01*
X014159Y008554D01*
X014202Y008556D01*
X014245Y008561D01*
X014287Y008571D01*
X014328Y008583D01*
X014368Y008600D01*
X014406Y008619D01*
X014443Y008642D01*
X014477Y008668D01*
X014509Y008697D01*
X014539Y008728D01*
X014566Y008762D01*
X014589Y008798D01*
X014610Y008836D01*
X014609Y008837D01*
X014588Y008799D01*
X014565Y008763D01*
X014538Y008729D01*
X014509Y008698D01*
X014477Y008669D01*
X014442Y008643D01*
X014406Y008620D01*
X014368Y008601D01*
X014328Y008584D01*
X014287Y008572D01*
X014245Y008562D01*
X014202Y008557D01*
X014159Y008555D01*
X014116Y008557D01*
X014073Y008562D01*
X014031Y008572D01*
X013990Y008584D01*
X013950Y008601D01*
X013912Y008620D01*
X013876Y008643D01*
X013841Y008669D01*
X013809Y008698D01*
X013780Y008729D01*
X013753Y008763D01*
X013730Y008799D01*
X013709Y008837D01*
X013710Y008837D01*
X013731Y008799D01*
X013754Y008763D01*
X013781Y008730D01*
X013810Y008698D01*
X013842Y008670D01*
X013876Y008644D01*
X013913Y008621D01*
X013951Y008601D01*
X013991Y008585D01*
X014032Y008573D01*
X014074Y008563D01*
X014116Y008558D01*
X014159Y008556D01*
X014202Y008558D01*
X014244Y008563D01*
X014286Y008573D01*
X014327Y008585D01*
X014367Y008601D01*
X014405Y008621D01*
X014442Y008644D01*
X014476Y008670D01*
X014508Y008698D01*
X014537Y008730D01*
X014564Y008763D01*
X014587Y008799D01*
X014608Y008837D01*
X014607Y008837D01*
X014587Y008800D01*
X014563Y008764D01*
X014537Y008730D01*
X014507Y008699D01*
X014475Y008670D01*
X014441Y008645D01*
X014405Y008622D01*
X014367Y008602D01*
X014327Y008586D01*
X014286Y008574D01*
X014244Y008564D01*
X014202Y008559D01*
X014159Y008557D01*
X014116Y008559D01*
X014074Y008564D01*
X014032Y008574D01*
X013991Y008586D01*
X013951Y008602D01*
X013913Y008622D01*
X013877Y008645D01*
X013843Y008670D01*
X013811Y008699D01*
X013781Y008730D01*
X013755Y008764D01*
X013731Y008800D01*
X013711Y008837D01*
X013712Y008838D01*
X013732Y008800D01*
X013756Y008765D01*
X013782Y008731D01*
X013811Y008700D01*
X013843Y008671D01*
X013877Y008645D01*
X013914Y008623D01*
X013952Y008603D01*
X013991Y008587D01*
X014032Y008574D01*
X014074Y008565D01*
X014116Y008560D01*
X014159Y008558D01*
X014202Y008560D01*
X014244Y008565D01*
X014286Y008574D01*
X014327Y008587D01*
X014366Y008603D01*
X014404Y008623D01*
X014441Y008645D01*
X014475Y008671D01*
X014507Y008700D01*
X014536Y008731D01*
X014562Y008765D01*
X014586Y008800D01*
X014606Y008838D01*
X014605Y008838D01*
X014584Y008799D01*
X014559Y008762D01*
X014532Y008728D01*
X014501Y008696D01*
X014467Y008667D01*
X014432Y008641D01*
X014393Y008618D01*
X014353Y008599D01*
X014312Y008583D01*
X014269Y008571D01*
X014225Y008563D01*
X014181Y008559D01*
X014137Y008559D01*
X014093Y008563D01*
X014049Y008571D01*
X014006Y008583D01*
X013965Y008599D01*
X013925Y008618D01*
X013886Y008641D01*
X013851Y008667D01*
X013817Y008696D01*
X013786Y008728D01*
X013759Y008762D01*
X013734Y008799D01*
X013713Y008838D01*
X013714Y008839D01*
X013735Y008800D01*
X013759Y008763D01*
X013787Y008728D01*
X013818Y008696D01*
X013851Y008667D01*
X013887Y008641D01*
X013925Y008619D01*
X013965Y008600D01*
X014006Y008584D01*
X014049Y008572D01*
X014093Y008564D01*
X014137Y008560D01*
X014181Y008560D01*
X014225Y008564D01*
X014269Y008572D01*
X014312Y008584D01*
X014353Y008600D01*
X014393Y008619D01*
X014431Y008641D01*
X014467Y008667D01*
X014500Y008696D01*
X014531Y008728D01*
X014559Y008763D01*
X014583Y008800D01*
X014604Y008839D01*
X014603Y008839D01*
X014582Y008800D01*
X014558Y008764D01*
X014530Y008729D01*
X014500Y008697D01*
X014466Y008668D01*
X014430Y008642D01*
X014392Y008620D01*
X014353Y008601D01*
X014311Y008585D01*
X014269Y008573D01*
X014225Y008565D01*
X014181Y008561D01*
X014137Y008561D01*
X014093Y008565D01*
X014049Y008573D01*
X014007Y008585D01*
X013965Y008601D01*
X013926Y008620D01*
X013888Y008642D01*
X013852Y008668D01*
X013818Y008697D01*
X013788Y008729D01*
X013760Y008764D01*
X013736Y008800D01*
X013715Y008839D01*
X013716Y008840D01*
X013737Y008801D01*
X013761Y008764D01*
X013789Y008730D01*
X013819Y008698D01*
X013852Y008669D01*
X013888Y008643D01*
X013926Y008621D01*
X013966Y008601D01*
X014007Y008586D01*
X014050Y008574D01*
X014093Y008566D01*
X014137Y008562D01*
X014181Y008562D01*
X014225Y008566D01*
X014268Y008574D01*
X014311Y008586D01*
X014352Y008601D01*
X014392Y008621D01*
X014430Y008643D01*
X014466Y008669D01*
X014499Y008698D01*
X014529Y008730D01*
X014557Y008764D01*
X014581Y008801D01*
X014602Y008840D01*
X014581Y008801D01*
X014556Y008765D01*
X014529Y008730D01*
X014498Y008699D01*
X014465Y008670D01*
X014429Y008644D01*
X014392Y008621D01*
X014352Y008602D01*
X014311Y008587D01*
X014268Y008575D01*
X014225Y008567D01*
X014181Y008563D01*
X014137Y008563D01*
X014093Y008567D01*
X014050Y008575D01*
X014007Y008587D01*
X013966Y008602D01*
X013926Y008621D01*
X013889Y008644D01*
X013853Y008670D01*
X013820Y008699D01*
X013789Y008730D01*
X013762Y008765D01*
X013737Y008801D01*
X013716Y008840D01*
X014615Y008386D02*
X014604Y008402D01*
X014604Y008401D02*
X014649Y008434D01*
X014691Y008469D01*
X014730Y008508D01*
X014767Y008548D01*
X014800Y008592D01*
X014831Y008637D01*
X014858Y008685D01*
X014882Y008734D01*
X014903Y008785D01*
X014920Y008838D01*
X014933Y008891D01*
X014942Y008945D01*
X014948Y009000D01*
X014950Y009055D01*
X014968Y009055D01*
X014969Y009055D01*
X014967Y008998D01*
X014961Y008942D01*
X014951Y008887D01*
X014938Y008832D01*
X014920Y008779D01*
X014900Y008727D01*
X014875Y008676D01*
X014847Y008627D01*
X014816Y008581D01*
X014781Y008536D01*
X014744Y008494D01*
X014703Y008455D01*
X014660Y008419D01*
X014615Y008386D01*
X014614Y008386D01*
X014660Y008420D01*
X014703Y008456D01*
X014743Y008495D01*
X014780Y008537D01*
X014815Y008581D01*
X014846Y008628D01*
X014874Y008677D01*
X014899Y008727D01*
X014920Y008779D01*
X014937Y008833D01*
X014950Y008887D01*
X014960Y008943D01*
X014966Y008998D01*
X014968Y009055D01*
X014967Y009055D01*
X014965Y008998D01*
X014959Y008943D01*
X014949Y008887D01*
X014936Y008833D01*
X014919Y008780D01*
X014898Y008728D01*
X014873Y008677D01*
X014845Y008628D01*
X014814Y008582D01*
X014780Y008538D01*
X014742Y008496D01*
X014702Y008457D01*
X014659Y008420D01*
X014614Y008387D01*
X014613Y008388D01*
X014659Y008421D01*
X014701Y008457D01*
X014741Y008496D01*
X014779Y008538D01*
X014813Y008582D01*
X014844Y008629D01*
X014872Y008678D01*
X014897Y008728D01*
X014918Y008780D01*
X014935Y008833D01*
X014948Y008888D01*
X014958Y008943D01*
X014964Y008999D01*
X014966Y009055D01*
X014965Y009055D01*
X014963Y008999D01*
X014957Y008943D01*
X014947Y008888D01*
X014934Y008834D01*
X014917Y008780D01*
X014896Y008728D01*
X014871Y008678D01*
X014844Y008630D01*
X014812Y008583D01*
X014778Y008539D01*
X014741Y008497D01*
X014701Y008458D01*
X014658Y008422D01*
X014613Y008389D01*
X014612Y008390D01*
X014657Y008423D01*
X014700Y008459D01*
X014740Y008498D01*
X014777Y008539D01*
X014812Y008584D01*
X014843Y008630D01*
X014871Y008678D01*
X014895Y008729D01*
X014916Y008781D01*
X014933Y008834D01*
X014946Y008888D01*
X014956Y008943D01*
X014962Y008999D01*
X014964Y009055D01*
X014963Y009055D01*
X014961Y008999D01*
X014955Y008943D01*
X014946Y008888D01*
X014932Y008834D01*
X014915Y008781D01*
X014894Y008729D01*
X014870Y008679D01*
X014842Y008631D01*
X014811Y008584D01*
X014777Y008540D01*
X014739Y008499D01*
X014699Y008460D01*
X014657Y008424D01*
X014612Y008391D01*
X014611Y008391D01*
X014656Y008424D01*
X014699Y008460D01*
X014739Y008499D01*
X014776Y008541D01*
X014810Y008585D01*
X014841Y008631D01*
X014869Y008679D01*
X014893Y008730D01*
X014914Y008781D01*
X014931Y008834D01*
X014945Y008888D01*
X014954Y008943D01*
X014960Y008999D01*
X014962Y009055D01*
X014961Y009055D01*
X014959Y008999D01*
X014953Y008943D01*
X014944Y008889D01*
X014930Y008835D01*
X014913Y008782D01*
X014892Y008730D01*
X014868Y008680D01*
X014840Y008632D01*
X014809Y008585D01*
X014775Y008541D01*
X014738Y008500D01*
X014698Y008461D01*
X014655Y008425D01*
X014611Y008392D01*
X014610Y008393D01*
X014655Y008426D01*
X014697Y008462D01*
X014737Y008501D01*
X014774Y008542D01*
X014808Y008586D01*
X014839Y008632D01*
X014867Y008680D01*
X014891Y008730D01*
X014912Y008782D01*
X014929Y008835D01*
X014943Y008889D01*
X014952Y008944D01*
X014958Y008999D01*
X014960Y009055D01*
X014959Y009055D01*
X014957Y008999D01*
X014951Y008944D01*
X014942Y008889D01*
X014928Y008835D01*
X014911Y008782D01*
X014890Y008731D01*
X014866Y008681D01*
X014838Y008633D01*
X014807Y008587D01*
X014773Y008543D01*
X014736Y008501D01*
X014697Y008463D01*
X014654Y008427D01*
X014609Y008394D01*
X014609Y008395D01*
X014654Y008427D01*
X014696Y008463D01*
X014736Y008502D01*
X014773Y008543D01*
X014807Y008587D01*
X014838Y008633D01*
X014865Y008681D01*
X014889Y008731D01*
X014910Y008783D01*
X014927Y008835D01*
X014941Y008889D01*
X014950Y008944D01*
X014956Y008999D01*
X014958Y009055D01*
X014957Y009055D01*
X014955Y008999D01*
X014949Y008944D01*
X014940Y008889D01*
X014926Y008836D01*
X014909Y008783D01*
X014889Y008732D01*
X014864Y008682D01*
X014837Y008634D01*
X014806Y008588D01*
X014772Y008544D01*
X014735Y008503D01*
X014695Y008464D01*
X014653Y008428D01*
X014608Y008395D01*
X014608Y008396D01*
X014652Y008429D01*
X014695Y008465D01*
X014734Y008503D01*
X014771Y008545D01*
X014805Y008588D01*
X014836Y008634D01*
X014863Y008682D01*
X014888Y008732D01*
X014908Y008783D01*
X014925Y008836D01*
X014939Y008890D01*
X014948Y008944D01*
X014954Y008999D01*
X014956Y009055D01*
X014955Y009055D01*
X014953Y008999D01*
X014947Y008944D01*
X014938Y008890D01*
X014924Y008836D01*
X014907Y008784D01*
X014887Y008732D01*
X014863Y008683D01*
X014835Y008635D01*
X014804Y008589D01*
X014770Y008545D01*
X014734Y008504D01*
X014694Y008466D01*
X014652Y008430D01*
X014607Y008397D01*
X014607Y008398D01*
X014651Y008431D01*
X014693Y008466D01*
X014733Y008505D01*
X014770Y008546D01*
X014803Y008589D01*
X014834Y008635D01*
X014862Y008683D01*
X014886Y008733D01*
X014906Y008784D01*
X014923Y008837D01*
X014937Y008890D01*
X014946Y008944D01*
X014952Y008999D01*
X014954Y009055D01*
X014953Y009055D01*
X014951Y008999D01*
X014945Y008945D01*
X014936Y008890D01*
X014922Y008837D01*
X014905Y008784D01*
X014885Y008733D01*
X014861Y008684D01*
X014833Y008636D01*
X014803Y008590D01*
X014769Y008547D01*
X014732Y008505D01*
X014693Y008467D01*
X014650Y008431D01*
X014606Y008399D01*
X014605Y008400D01*
X014650Y008432D01*
X014692Y008468D01*
X014731Y008506D01*
X014768Y008547D01*
X014802Y008591D01*
X014832Y008636D01*
X014860Y008684D01*
X014884Y008734D01*
X014905Y008785D01*
X014921Y008837D01*
X014935Y008891D01*
X014944Y008945D01*
X014950Y008999D01*
X014952Y009055D01*
X014951Y009055D01*
X014949Y009000D01*
X014943Y008945D01*
X014934Y008891D01*
X014921Y008837D01*
X014904Y008785D01*
X014883Y008734D01*
X014859Y008685D01*
X014832Y008637D01*
X014801Y008591D01*
X014767Y008548D01*
X014731Y008507D01*
X014691Y008468D01*
X014649Y008433D01*
X014605Y008400D01*
X013350Y009055D02*
X013369Y009055D01*
X013368Y009054D02*
X013370Y009000D01*
X013376Y008945D01*
X013385Y008891D01*
X013398Y008838D01*
X013415Y008785D01*
X013436Y008734D01*
X013460Y008685D01*
X013487Y008637D01*
X013518Y008592D01*
X013551Y008548D01*
X013588Y008507D01*
X013627Y008469D01*
X013669Y008434D01*
X013714Y008401D01*
X013703Y008386D01*
X013658Y008419D01*
X013615Y008455D01*
X013574Y008494D01*
X013537Y008536D01*
X013502Y008581D01*
X013471Y008627D01*
X013443Y008676D01*
X013419Y008727D01*
X013398Y008779D01*
X013380Y008832D01*
X013367Y008887D01*
X013357Y008942D01*
X013351Y008998D01*
X013349Y009054D01*
X013350Y009054D01*
X013352Y008998D01*
X013358Y008942D01*
X013368Y008887D01*
X013381Y008833D01*
X013398Y008779D01*
X013419Y008727D01*
X013444Y008677D01*
X013472Y008628D01*
X013503Y008581D01*
X013538Y008537D01*
X013575Y008495D01*
X013615Y008456D01*
X013658Y008420D01*
X013704Y008386D01*
X013704Y008387D01*
X013659Y008420D01*
X013616Y008457D01*
X013576Y008496D01*
X013538Y008538D01*
X013504Y008582D01*
X013473Y008628D01*
X013445Y008677D01*
X013420Y008728D01*
X013399Y008780D01*
X013382Y008833D01*
X013369Y008887D01*
X013359Y008943D01*
X013353Y008998D01*
X013351Y009054D01*
X013352Y009054D01*
X013354Y008998D01*
X013360Y008943D01*
X013370Y008888D01*
X013383Y008833D01*
X013400Y008780D01*
X013421Y008728D01*
X013446Y008678D01*
X013474Y008629D01*
X013505Y008582D01*
X013539Y008538D01*
X013577Y008496D01*
X013617Y008457D01*
X013659Y008421D01*
X013705Y008388D01*
X013705Y008389D01*
X013660Y008422D01*
X013617Y008458D01*
X013577Y008497D01*
X013540Y008539D01*
X013506Y008583D01*
X013474Y008629D01*
X013447Y008678D01*
X013422Y008728D01*
X013401Y008780D01*
X013384Y008833D01*
X013371Y008888D01*
X013361Y008943D01*
X013355Y008999D01*
X013353Y009054D01*
X013354Y009054D01*
X013356Y008999D01*
X013362Y008943D01*
X013372Y008888D01*
X013385Y008834D01*
X013402Y008781D01*
X013423Y008729D01*
X013447Y008678D01*
X013475Y008630D01*
X013506Y008584D01*
X013541Y008539D01*
X013578Y008498D01*
X013618Y008459D01*
X013661Y008423D01*
X013706Y008390D01*
X013706Y008391D01*
X013661Y008424D01*
X013619Y008460D01*
X013579Y008498D01*
X013542Y008540D01*
X013507Y008584D01*
X013476Y008631D01*
X013448Y008679D01*
X013424Y008729D01*
X013403Y008781D01*
X013386Y008834D01*
X013372Y008888D01*
X013363Y008943D01*
X013357Y008999D01*
X013355Y009054D01*
X013356Y009054D01*
X013358Y008999D01*
X013364Y008943D01*
X013373Y008888D01*
X013387Y008834D01*
X013404Y008781D01*
X013425Y008730D01*
X013449Y008679D01*
X013477Y008631D01*
X013508Y008585D01*
X013542Y008541D01*
X013579Y008499D01*
X013619Y008460D01*
X013662Y008424D01*
X013707Y008391D01*
X013707Y008392D01*
X013663Y008425D01*
X013620Y008461D01*
X013580Y008500D01*
X013543Y008541D01*
X013509Y008585D01*
X013478Y008632D01*
X013450Y008680D01*
X013426Y008730D01*
X013405Y008782D01*
X013388Y008835D01*
X013374Y008889D01*
X013365Y008943D01*
X013359Y008999D01*
X013357Y009054D01*
X013358Y009054D01*
X013360Y008999D01*
X013366Y008944D01*
X013375Y008889D01*
X013389Y008835D01*
X013406Y008782D01*
X013427Y008730D01*
X013451Y008680D01*
X013479Y008632D01*
X013510Y008586D01*
X013544Y008542D01*
X013581Y008501D01*
X013621Y008462D01*
X013663Y008426D01*
X013708Y008393D01*
X013709Y008394D01*
X013664Y008427D01*
X013621Y008463D01*
X013582Y008501D01*
X013545Y008543D01*
X013511Y008587D01*
X013480Y008633D01*
X013452Y008681D01*
X013428Y008731D01*
X013407Y008782D01*
X013390Y008835D01*
X013376Y008889D01*
X013367Y008944D01*
X013361Y008999D01*
X013359Y009054D01*
X013360Y009054D01*
X013362Y008999D01*
X013368Y008944D01*
X013377Y008889D01*
X013391Y008835D01*
X013408Y008783D01*
X013429Y008731D01*
X013453Y008681D01*
X013480Y008633D01*
X013511Y008587D01*
X013545Y008543D01*
X013582Y008502D01*
X013622Y008463D01*
X013664Y008427D01*
X013709Y008395D01*
X013710Y008395D01*
X013665Y008428D01*
X013623Y008464D01*
X013583Y008503D01*
X013546Y008544D01*
X013512Y008588D01*
X013481Y008634D01*
X013454Y008682D01*
X013429Y008732D01*
X013409Y008783D01*
X013392Y008836D01*
X013378Y008889D01*
X013369Y008944D01*
X013363Y008999D01*
X013361Y009054D01*
X013362Y009054D01*
X013364Y008999D01*
X013370Y008944D01*
X013379Y008890D01*
X013393Y008836D01*
X013410Y008783D01*
X013430Y008732D01*
X013455Y008682D01*
X013482Y008634D01*
X013513Y008588D01*
X013547Y008545D01*
X013584Y008503D01*
X013623Y008465D01*
X013666Y008429D01*
X013710Y008396D01*
X013711Y008397D01*
X013666Y008430D01*
X013624Y008466D01*
X013584Y008504D01*
X013548Y008545D01*
X013514Y008589D01*
X013483Y008635D01*
X013455Y008683D01*
X013431Y008732D01*
X013411Y008784D01*
X013394Y008836D01*
X013380Y008890D01*
X013371Y008944D01*
X013365Y008999D01*
X013363Y009054D01*
X013364Y009054D01*
X013366Y008999D01*
X013372Y008944D01*
X013381Y008890D01*
X013395Y008836D01*
X013412Y008784D01*
X013432Y008733D01*
X013456Y008683D01*
X013484Y008635D01*
X013515Y008589D01*
X013548Y008546D01*
X013585Y008505D01*
X013625Y008466D01*
X013667Y008431D01*
X013711Y008398D01*
X013712Y008399D01*
X013668Y008431D01*
X013625Y008467D01*
X013586Y008505D01*
X013549Y008547D01*
X013515Y008590D01*
X013485Y008636D01*
X013457Y008684D01*
X013433Y008733D01*
X013413Y008784D01*
X013396Y008837D01*
X013382Y008890D01*
X013373Y008945D01*
X013367Y008999D01*
X013365Y009054D01*
X013366Y009054D01*
X013368Y008999D01*
X013374Y008945D01*
X013383Y008890D01*
X013397Y008837D01*
X013413Y008785D01*
X013434Y008734D01*
X013458Y008684D01*
X013486Y008636D01*
X013516Y008591D01*
X013550Y008547D01*
X013587Y008506D01*
X013626Y008468D01*
X013668Y008432D01*
X013713Y008400D01*
X013669Y008433D01*
X013627Y008468D01*
X013587Y008507D01*
X013551Y008548D01*
X013517Y008591D01*
X013486Y008637D01*
X013459Y008685D01*
X013435Y008734D01*
X013414Y008785D01*
X013398Y008837D01*
X013384Y008891D01*
X013375Y008945D01*
X013369Y009000D01*
X013367Y009054D01*
X014968Y011755D02*
X014949Y011755D01*
X014950Y011756D02*
X014948Y011810D01*
X014942Y011865D01*
X014933Y011919D01*
X014920Y011972D01*
X014903Y012025D01*
X014882Y012076D01*
X014858Y012125D01*
X014831Y012173D01*
X014800Y012218D01*
X014766Y012262D01*
X014730Y012303D01*
X014691Y012341D01*
X014649Y012376D01*
X014604Y012409D01*
X014615Y012424D01*
X014660Y012391D01*
X014703Y012355D01*
X014744Y012316D01*
X014781Y012274D01*
X014816Y012229D01*
X014847Y012183D01*
X014875Y012134D01*
X014899Y012083D01*
X014920Y012031D01*
X014938Y011978D01*
X014951Y011923D01*
X014961Y011868D01*
X014967Y011812D01*
X014969Y011756D01*
X014968Y011756D01*
X014966Y011812D01*
X014960Y011868D01*
X014950Y011923D01*
X014937Y011977D01*
X014920Y012031D01*
X014899Y012083D01*
X014874Y012133D01*
X014846Y012182D01*
X014815Y012229D01*
X014780Y012273D01*
X014743Y012315D01*
X014703Y012354D01*
X014660Y012390D01*
X014614Y012424D01*
X014614Y012423D01*
X014659Y012390D01*
X014702Y012353D01*
X014742Y012314D01*
X014780Y012272D01*
X014814Y012228D01*
X014845Y012182D01*
X014873Y012133D01*
X014898Y012082D01*
X014919Y012030D01*
X014936Y011977D01*
X014949Y011923D01*
X014959Y011867D01*
X014965Y011812D01*
X014967Y011756D01*
X014966Y011756D01*
X014964Y011812D01*
X014958Y011867D01*
X014948Y011922D01*
X014935Y011977D01*
X014918Y012030D01*
X014897Y012082D01*
X014872Y012132D01*
X014844Y012181D01*
X014813Y012228D01*
X014779Y012272D01*
X014741Y012314D01*
X014701Y012353D01*
X014658Y012389D01*
X014613Y012422D01*
X014613Y012421D01*
X014658Y012388D01*
X014701Y012352D01*
X014741Y012313D01*
X014778Y012271D01*
X014812Y012227D01*
X014844Y012181D01*
X014871Y012132D01*
X014896Y012082D01*
X014917Y012030D01*
X014934Y011977D01*
X014947Y011922D01*
X014957Y011867D01*
X014963Y011811D01*
X014965Y011756D01*
X014964Y011756D01*
X014962Y011811D01*
X014956Y011867D01*
X014946Y011922D01*
X014933Y011976D01*
X014916Y012029D01*
X014895Y012081D01*
X014871Y012132D01*
X014843Y012180D01*
X014812Y012226D01*
X014777Y012271D01*
X014740Y012312D01*
X014700Y012351D01*
X014657Y012387D01*
X014612Y012420D01*
X014612Y012419D01*
X014657Y012386D01*
X014699Y012350D01*
X014739Y012312D01*
X014776Y012270D01*
X014811Y012226D01*
X014842Y012179D01*
X014870Y012131D01*
X014894Y012081D01*
X014915Y012029D01*
X014932Y011976D01*
X014946Y011922D01*
X014955Y011867D01*
X014961Y011811D01*
X014963Y011756D01*
X014962Y011756D01*
X014960Y011811D01*
X014954Y011867D01*
X014945Y011922D01*
X014931Y011976D01*
X014914Y012029D01*
X014893Y012080D01*
X014869Y012131D01*
X014841Y012179D01*
X014810Y012225D01*
X014776Y012269D01*
X014739Y012311D01*
X014699Y012350D01*
X014656Y012386D01*
X014611Y012419D01*
X014611Y012418D01*
X014655Y012385D01*
X014698Y012349D01*
X014738Y012310D01*
X014775Y012269D01*
X014809Y012225D01*
X014840Y012178D01*
X014868Y012130D01*
X014892Y012080D01*
X014913Y012028D01*
X014930Y011975D01*
X014944Y011921D01*
X014953Y011867D01*
X014959Y011811D01*
X014961Y011756D01*
X014960Y011756D01*
X014958Y011811D01*
X014952Y011866D01*
X014943Y011921D01*
X014929Y011975D01*
X014912Y012028D01*
X014891Y012080D01*
X014867Y012130D01*
X014839Y012178D01*
X014808Y012224D01*
X014774Y012268D01*
X014737Y012309D01*
X014697Y012348D01*
X014655Y012384D01*
X014610Y012417D01*
X014609Y012416D01*
X014654Y012383D01*
X014697Y012347D01*
X014736Y012309D01*
X014773Y012267D01*
X014807Y012223D01*
X014838Y012177D01*
X014866Y012129D01*
X014890Y012079D01*
X014911Y012028D01*
X014928Y011975D01*
X014942Y011921D01*
X014951Y011866D01*
X014957Y011811D01*
X014959Y011756D01*
X014958Y011756D01*
X014956Y011811D01*
X014950Y011866D01*
X014941Y011921D01*
X014927Y011975D01*
X014910Y012027D01*
X014889Y012079D01*
X014865Y012129D01*
X014838Y012177D01*
X014807Y012223D01*
X014773Y012267D01*
X014736Y012308D01*
X014696Y012347D01*
X014654Y012383D01*
X014609Y012415D01*
X014608Y012415D01*
X014653Y012382D01*
X014695Y012346D01*
X014735Y012307D01*
X014772Y012266D01*
X014806Y012222D01*
X014837Y012176D01*
X014864Y012128D01*
X014889Y012078D01*
X014909Y012027D01*
X014926Y011974D01*
X014940Y011921D01*
X014949Y011866D01*
X014955Y011811D01*
X014957Y011756D01*
X014956Y011756D01*
X014954Y011811D01*
X014948Y011866D01*
X014939Y011920D01*
X014925Y011974D01*
X014908Y012027D01*
X014888Y012078D01*
X014863Y012128D01*
X014836Y012176D01*
X014805Y012222D01*
X014771Y012265D01*
X014734Y012307D01*
X014695Y012345D01*
X014652Y012381D01*
X014608Y012414D01*
X014607Y012413D01*
X014652Y012380D01*
X014694Y012345D01*
X014733Y012306D01*
X014770Y012265D01*
X014804Y012221D01*
X014835Y012175D01*
X014863Y012127D01*
X014887Y012078D01*
X014907Y012026D01*
X014924Y011974D01*
X014938Y011920D01*
X014947Y011866D01*
X014953Y011811D01*
X014955Y011756D01*
X014954Y011756D01*
X014952Y011811D01*
X014946Y011866D01*
X014937Y011920D01*
X014923Y011974D01*
X014906Y012026D01*
X014886Y012077D01*
X014862Y012127D01*
X014834Y012175D01*
X014803Y012221D01*
X014770Y012264D01*
X014733Y012305D01*
X014693Y012344D01*
X014651Y012379D01*
X014607Y012412D01*
X014606Y012411D01*
X014650Y012379D01*
X014693Y012343D01*
X014732Y012305D01*
X014769Y012264D01*
X014803Y012220D01*
X014833Y012174D01*
X014861Y012126D01*
X014885Y012077D01*
X014905Y012026D01*
X014922Y011973D01*
X014936Y011920D01*
X014945Y011865D01*
X014951Y011811D01*
X014953Y011756D01*
X014952Y011756D01*
X014950Y011811D01*
X014944Y011865D01*
X014935Y011920D01*
X014921Y011973D01*
X014904Y012025D01*
X014884Y012076D01*
X014860Y012126D01*
X014832Y012174D01*
X014802Y012219D01*
X014768Y012263D01*
X014731Y012304D01*
X014692Y012342D01*
X014650Y012378D01*
X014605Y012410D01*
X014649Y012377D01*
X014691Y012342D01*
X014731Y012303D01*
X014767Y012262D01*
X014801Y012219D01*
X014832Y012173D01*
X014859Y012125D01*
X014883Y012076D01*
X014904Y012025D01*
X014920Y011973D01*
X014934Y011919D01*
X014943Y011865D01*
X014949Y011810D01*
X014951Y011756D01*
X014614Y012424D02*
X014603Y012409D01*
X014604Y012409D02*
X014557Y012439D01*
X014508Y012465D01*
X014457Y012488D01*
X014405Y012507D01*
X014351Y012522D01*
X014297Y012534D01*
X014242Y012542D01*
X014187Y012546D01*
X014131Y012546D01*
X014076Y012542D01*
X014021Y012534D01*
X013967Y012522D01*
X013913Y012507D01*
X013861Y012488D01*
X013810Y012465D01*
X013761Y012439D01*
X013714Y012409D01*
X013704Y012424D01*
X013704Y012425D01*
X013749Y012454D01*
X013796Y012479D01*
X013845Y012502D01*
X013895Y012521D01*
X013947Y012537D01*
X013999Y012549D01*
X014052Y012558D01*
X014105Y012563D01*
X014159Y012565D01*
X014213Y012563D01*
X014266Y012558D01*
X014319Y012549D01*
X014371Y012537D01*
X014423Y012521D01*
X014473Y012502D01*
X014522Y012479D01*
X014569Y012454D01*
X014614Y012425D01*
X014614Y012424D01*
X014568Y012453D01*
X014521Y012478D01*
X014472Y012501D01*
X014422Y012520D01*
X014371Y012536D01*
X014319Y012548D01*
X014266Y012557D01*
X014213Y012562D01*
X014159Y012564D01*
X014105Y012562D01*
X014052Y012557D01*
X013999Y012548D01*
X013947Y012536D01*
X013896Y012520D01*
X013846Y012501D01*
X013797Y012478D01*
X013750Y012453D01*
X013704Y012424D01*
X013705Y012423D01*
X013750Y012452D01*
X013797Y012478D01*
X013846Y012500D01*
X013896Y012519D01*
X013947Y012535D01*
X013999Y012547D01*
X014052Y012556D01*
X014105Y012561D01*
X014159Y012563D01*
X014213Y012561D01*
X014266Y012556D01*
X014319Y012547D01*
X014371Y012535D01*
X014422Y012519D01*
X014472Y012500D01*
X014521Y012478D01*
X014568Y012452D01*
X014613Y012423D01*
X014567Y012451D01*
X014520Y012477D01*
X014472Y012499D01*
X014422Y012518D01*
X014371Y012534D01*
X014318Y012546D01*
X014266Y012555D01*
X014212Y012560D01*
X014159Y012562D01*
X014106Y012560D01*
X014052Y012555D01*
X014000Y012546D01*
X013947Y012534D01*
X013896Y012518D01*
X013846Y012499D01*
X013798Y012477D01*
X013751Y012451D01*
X013705Y012423D01*
X013706Y012422D01*
X013751Y012450D01*
X013798Y012476D01*
X013847Y012498D01*
X013897Y012517D01*
X013948Y012533D01*
X014000Y012545D01*
X014052Y012554D01*
X014106Y012559D01*
X014159Y012561D01*
X014212Y012559D01*
X014266Y012554D01*
X014318Y012545D01*
X014370Y012533D01*
X014421Y012517D01*
X014471Y012498D01*
X014520Y012476D01*
X014567Y012450D01*
X014612Y012422D01*
X014611Y012421D01*
X014566Y012449D01*
X014519Y012475D01*
X014471Y012497D01*
X014421Y012516D01*
X014370Y012532D01*
X014318Y012544D01*
X014265Y012553D01*
X014212Y012558D01*
X014159Y012560D01*
X014106Y012558D01*
X014053Y012553D01*
X014000Y012544D01*
X013948Y012532D01*
X013897Y012516D01*
X013847Y012497D01*
X013799Y012475D01*
X013752Y012449D01*
X013707Y012421D01*
X013707Y012420D01*
X013752Y012449D01*
X013799Y012474D01*
X013848Y012496D01*
X013897Y012515D01*
X013948Y012531D01*
X014000Y012543D01*
X014053Y012552D01*
X014106Y012557D01*
X014159Y012559D01*
X014212Y012557D01*
X014265Y012552D01*
X014318Y012543D01*
X014370Y012531D01*
X014421Y012515D01*
X014470Y012496D01*
X014519Y012474D01*
X014566Y012449D01*
X014611Y012420D01*
X014610Y012419D01*
X014565Y012448D01*
X014518Y012473D01*
X014470Y012495D01*
X014420Y012514D01*
X014369Y012530D01*
X014318Y012542D01*
X014265Y012551D01*
X014212Y012556D01*
X014159Y012558D01*
X014106Y012556D01*
X014053Y012551D01*
X014000Y012542D01*
X013949Y012530D01*
X013898Y012514D01*
X013848Y012495D01*
X013800Y012473D01*
X013753Y012448D01*
X013708Y012419D01*
X013708Y012418D01*
X013756Y012448D01*
X013806Y012475D01*
X013857Y012498D01*
X013910Y012517D01*
X013964Y012533D01*
X014019Y012545D01*
X014075Y012553D01*
X014131Y012557D01*
X014187Y012557D01*
X014243Y012553D01*
X014299Y012545D01*
X014354Y012533D01*
X014408Y012517D01*
X014461Y012498D01*
X014512Y012475D01*
X014562Y012448D01*
X014610Y012418D01*
X014609Y012418D01*
X014562Y012447D01*
X014512Y012474D01*
X014461Y012497D01*
X014408Y012516D01*
X014354Y012532D01*
X014299Y012544D01*
X014243Y012552D01*
X014187Y012556D01*
X014131Y012556D01*
X014075Y012552D01*
X014019Y012544D01*
X013964Y012532D01*
X013910Y012516D01*
X013857Y012497D01*
X013806Y012474D01*
X013756Y012447D01*
X013709Y012418D01*
X013709Y012417D01*
X013757Y012447D01*
X013806Y012473D01*
X013858Y012496D01*
X013910Y012515D01*
X013964Y012531D01*
X014019Y012543D01*
X014075Y012551D01*
X014131Y012555D01*
X014187Y012555D01*
X014243Y012551D01*
X014299Y012543D01*
X014354Y012531D01*
X014408Y012515D01*
X014460Y012496D01*
X014512Y012473D01*
X014561Y012447D01*
X014609Y012417D01*
X014608Y012416D01*
X014561Y012446D01*
X014511Y012472D01*
X014460Y012495D01*
X014407Y012514D01*
X014353Y012530D01*
X014299Y012542D01*
X014243Y012550D01*
X014187Y012554D01*
X014131Y012554D01*
X014075Y012550D01*
X014019Y012542D01*
X013965Y012530D01*
X013911Y012514D01*
X013858Y012495D01*
X013807Y012472D01*
X013757Y012446D01*
X013710Y012416D01*
X013711Y012415D01*
X013758Y012445D01*
X013807Y012471D01*
X013858Y012494D01*
X013911Y012514D01*
X013965Y012529D01*
X014020Y012541D01*
X014075Y012549D01*
X014131Y012553D01*
X014187Y012553D01*
X014243Y012549D01*
X014298Y012541D01*
X014353Y012529D01*
X014407Y012514D01*
X014460Y012494D01*
X014511Y012471D01*
X014560Y012445D01*
X014607Y012415D01*
X014607Y012414D01*
X014560Y012444D01*
X014510Y012470D01*
X014459Y012493D01*
X014407Y012513D01*
X014353Y012528D01*
X014298Y012540D01*
X014243Y012548D01*
X014187Y012552D01*
X014131Y012552D01*
X014075Y012548D01*
X014020Y012540D01*
X013965Y012528D01*
X013911Y012513D01*
X013859Y012493D01*
X013808Y012470D01*
X013758Y012444D01*
X013711Y012414D01*
X013712Y012413D01*
X013759Y012443D01*
X013808Y012470D01*
X013859Y012492D01*
X013912Y012512D01*
X013965Y012527D01*
X014020Y012539D01*
X014075Y012547D01*
X014131Y012551D01*
X014187Y012551D01*
X014243Y012547D01*
X014298Y012539D01*
X014353Y012527D01*
X014406Y012512D01*
X014459Y012492D01*
X014510Y012470D01*
X014559Y012443D01*
X014606Y012413D01*
X014559Y012442D01*
X014509Y012469D01*
X014458Y012491D01*
X014406Y012511D01*
X014352Y012526D01*
X014298Y012538D01*
X014243Y012546D01*
X014187Y012550D01*
X014131Y012550D01*
X014075Y012546D01*
X014020Y012538D01*
X013966Y012526D01*
X013912Y012511D01*
X013860Y012491D01*
X013809Y012469D01*
X013759Y012442D01*
X013712Y012413D01*
X013713Y012412D01*
X013760Y012441D01*
X013809Y012468D01*
X013860Y012491D01*
X013912Y012510D01*
X013966Y012525D01*
X014020Y012537D01*
X014076Y012545D01*
X014131Y012549D01*
X014187Y012549D01*
X014242Y012545D01*
X014298Y012537D01*
X014352Y012525D01*
X014406Y012510D01*
X014458Y012491D01*
X014509Y012468D01*
X014558Y012441D01*
X014605Y012412D01*
X014605Y012411D01*
X014558Y012441D01*
X014508Y012467D01*
X014458Y012490D01*
X014405Y012509D01*
X014352Y012524D01*
X014297Y012536D01*
X014242Y012544D01*
X014187Y012548D01*
X014131Y012548D01*
X014076Y012544D01*
X014021Y012536D01*
X013966Y012524D01*
X013913Y012509D01*
X013860Y012490D01*
X013810Y012467D01*
X013760Y012441D01*
X013713Y012411D01*
X013714Y012410D01*
X013761Y012440D01*
X013810Y012466D01*
X013861Y012489D01*
X013913Y012508D01*
X013966Y012523D01*
X014021Y012535D01*
X014076Y012543D01*
X014131Y012547D01*
X014187Y012547D01*
X014242Y012543D01*
X014297Y012535D01*
X014352Y012523D01*
X014405Y012508D01*
X014457Y012489D01*
X014508Y012466D01*
X014557Y012440D01*
X014604Y012410D01*
X014617Y011977D02*
X014600Y011969D01*
X014601Y011969D02*
X014580Y012008D01*
X014555Y012045D01*
X014528Y012079D01*
X014498Y012111D01*
X014464Y012139D01*
X014429Y012165D01*
X014391Y012188D01*
X014351Y012207D01*
X014310Y012222D01*
X014268Y012234D01*
X014225Y012242D01*
X014181Y012246D01*
X014137Y012246D01*
X014093Y012242D01*
X014050Y012234D01*
X014008Y012222D01*
X013967Y012207D01*
X013927Y012188D01*
X013889Y012165D01*
X013854Y012139D01*
X013820Y012111D01*
X013790Y012079D01*
X013763Y012045D01*
X013738Y012008D01*
X013717Y011969D01*
X013701Y011977D01*
X013700Y011978D01*
X013721Y012016D01*
X013745Y012053D01*
X013772Y012088D01*
X013802Y012120D01*
X013835Y012149D01*
X013870Y012175D01*
X013907Y012199D01*
X013946Y012219D01*
X013987Y012235D01*
X014029Y012248D01*
X014072Y012257D01*
X014115Y012263D01*
X014159Y012265D01*
X014203Y012263D01*
X014246Y012257D01*
X014289Y012248D01*
X014331Y012235D01*
X014372Y012219D01*
X014411Y012199D01*
X014448Y012175D01*
X014483Y012149D01*
X014516Y012120D01*
X014546Y012088D01*
X014573Y012053D01*
X014597Y012016D01*
X014618Y011978D01*
X014617Y011977D01*
X014596Y012016D01*
X014572Y012052D01*
X014545Y012087D01*
X014515Y012119D01*
X014482Y012148D01*
X014447Y012174D01*
X014410Y012198D01*
X014371Y012218D01*
X014331Y012234D01*
X014289Y012247D01*
X014246Y012256D01*
X014203Y012262D01*
X014159Y012264D01*
X014115Y012262D01*
X014072Y012256D01*
X014029Y012247D01*
X013987Y012234D01*
X013947Y012218D01*
X013908Y012198D01*
X013871Y012174D01*
X013836Y012148D01*
X013803Y012119D01*
X013773Y012087D01*
X013746Y012052D01*
X013722Y012016D01*
X013701Y011977D01*
X013702Y011977D01*
X013723Y012015D01*
X013747Y012052D01*
X013774Y012086D01*
X013804Y012118D01*
X013836Y012147D01*
X013871Y012174D01*
X013908Y012197D01*
X013947Y012217D01*
X013988Y012233D01*
X014029Y012246D01*
X014072Y012255D01*
X014115Y012261D01*
X014159Y012263D01*
X014203Y012261D01*
X014246Y012255D01*
X014289Y012246D01*
X014330Y012233D01*
X014371Y012217D01*
X014410Y012197D01*
X014447Y012174D01*
X014482Y012147D01*
X014514Y012118D01*
X014544Y012086D01*
X014571Y012052D01*
X014595Y012015D01*
X014616Y011977D01*
X014615Y011976D01*
X014594Y012015D01*
X014570Y012051D01*
X014543Y012086D01*
X014514Y012117D01*
X014481Y012147D01*
X014446Y012173D01*
X014409Y012196D01*
X014370Y012216D01*
X014330Y012232D01*
X014288Y012245D01*
X014246Y012255D01*
X014203Y012260D01*
X014159Y012262D01*
X014115Y012260D01*
X014072Y012255D01*
X014030Y012245D01*
X013988Y012232D01*
X013948Y012216D01*
X013909Y012196D01*
X013872Y012173D01*
X013837Y012147D01*
X013804Y012117D01*
X013775Y012086D01*
X013748Y012051D01*
X013724Y012015D01*
X013703Y011976D01*
X013704Y011976D01*
X013725Y012014D01*
X013748Y012051D01*
X013775Y012085D01*
X013805Y012117D01*
X013838Y012146D01*
X013872Y012172D01*
X013909Y012195D01*
X013948Y012215D01*
X013988Y012231D01*
X014030Y012244D01*
X014072Y012254D01*
X014116Y012259D01*
X014159Y012261D01*
X014202Y012259D01*
X014246Y012254D01*
X014288Y012244D01*
X014330Y012231D01*
X014370Y012215D01*
X014409Y012195D01*
X014446Y012172D01*
X014480Y012146D01*
X014513Y012117D01*
X014543Y012085D01*
X014570Y012051D01*
X014593Y012014D01*
X014614Y011976D01*
X014613Y011976D01*
X014593Y012014D01*
X014569Y012050D01*
X014542Y012084D01*
X014512Y012116D01*
X014480Y012145D01*
X014445Y012171D01*
X014408Y012194D01*
X014370Y012214D01*
X014329Y012230D01*
X014288Y012243D01*
X014245Y012253D01*
X014202Y012258D01*
X014159Y012260D01*
X014116Y012258D01*
X014073Y012253D01*
X014030Y012243D01*
X013989Y012230D01*
X013948Y012214D01*
X013910Y012194D01*
X013873Y012171D01*
X013838Y012145D01*
X013806Y012116D01*
X013776Y012084D01*
X013749Y012050D01*
X013725Y012014D01*
X013705Y011976D01*
X013706Y011975D01*
X013726Y012013D01*
X013750Y012050D01*
X013777Y012084D01*
X013807Y012115D01*
X013839Y012144D01*
X013873Y012170D01*
X013910Y012193D01*
X013949Y012213D01*
X013989Y012229D01*
X014030Y012242D01*
X014073Y012252D01*
X014116Y012257D01*
X014159Y012259D01*
X014202Y012257D01*
X014245Y012252D01*
X014288Y012242D01*
X014329Y012229D01*
X014369Y012213D01*
X014408Y012193D01*
X014445Y012170D01*
X014479Y012144D01*
X014511Y012115D01*
X014541Y012084D01*
X014568Y012050D01*
X014592Y012013D01*
X014612Y011975D01*
X014611Y011975D01*
X014591Y012013D01*
X014567Y012049D01*
X014540Y012083D01*
X014511Y012115D01*
X014479Y012143D01*
X014444Y012169D01*
X014407Y012192D01*
X014369Y012212D01*
X014329Y012228D01*
X014287Y012241D01*
X014245Y012251D01*
X014202Y012256D01*
X014159Y012258D01*
X014116Y012256D01*
X014073Y012251D01*
X014031Y012241D01*
X013989Y012228D01*
X013949Y012212D01*
X013911Y012192D01*
X013874Y012169D01*
X013839Y012143D01*
X013807Y012115D01*
X013778Y012083D01*
X013751Y012049D01*
X013727Y012013D01*
X013707Y011975D01*
X013707Y011974D01*
X013728Y012012D01*
X013752Y012048D01*
X013778Y012082D01*
X013808Y012114D01*
X013840Y012143D01*
X013875Y012169D01*
X013911Y012192D01*
X013950Y012211D01*
X013990Y012228D01*
X014031Y012240D01*
X014073Y012250D01*
X014116Y012255D01*
X014159Y012257D01*
X014202Y012255D01*
X014245Y012250D01*
X014287Y012240D01*
X014328Y012228D01*
X014368Y012211D01*
X014407Y012192D01*
X014443Y012169D01*
X014478Y012143D01*
X014510Y012114D01*
X014540Y012082D01*
X014566Y012048D01*
X014590Y012012D01*
X014611Y011974D01*
X014610Y011974D01*
X014589Y012012D01*
X014566Y012048D01*
X014539Y012082D01*
X014509Y012113D01*
X014477Y012142D01*
X014443Y012168D01*
X014406Y012191D01*
X014368Y012210D01*
X014328Y012227D01*
X014287Y012239D01*
X014245Y012249D01*
X014202Y012254D01*
X014159Y012256D01*
X014116Y012254D01*
X014073Y012249D01*
X014031Y012239D01*
X013990Y012227D01*
X013950Y012210D01*
X013912Y012191D01*
X013875Y012168D01*
X013841Y012142D01*
X013809Y012113D01*
X013779Y012082D01*
X013752Y012048D01*
X013729Y012012D01*
X013708Y011974D01*
X013709Y011973D01*
X013730Y012011D01*
X013753Y012047D01*
X013780Y012081D01*
X013809Y012112D01*
X013841Y012141D01*
X013876Y012167D01*
X013912Y012190D01*
X013950Y012209D01*
X013990Y012226D01*
X014031Y012238D01*
X014073Y012248D01*
X014116Y012253D01*
X014159Y012255D01*
X014202Y012253D01*
X014245Y012248D01*
X014287Y012238D01*
X014328Y012226D01*
X014368Y012209D01*
X014406Y012190D01*
X014442Y012167D01*
X014477Y012141D01*
X014509Y012112D01*
X014538Y012081D01*
X014565Y012047D01*
X014588Y012011D01*
X014609Y011973D01*
X014608Y011973D01*
X014587Y012011D01*
X014564Y012047D01*
X014537Y012080D01*
X014508Y012112D01*
X014476Y012140D01*
X014442Y012166D01*
X014405Y012189D01*
X014367Y012209D01*
X014327Y012225D01*
X014286Y012237D01*
X014244Y012247D01*
X014202Y012252D01*
X014159Y012254D01*
X014116Y012252D01*
X014074Y012247D01*
X014032Y012237D01*
X013991Y012225D01*
X013951Y012209D01*
X013913Y012189D01*
X013876Y012166D01*
X013842Y012140D01*
X013810Y012112D01*
X013781Y012080D01*
X013754Y012047D01*
X013731Y012011D01*
X013710Y011973D01*
X013711Y011973D01*
X013731Y012010D01*
X013755Y012046D01*
X013781Y012080D01*
X013811Y012111D01*
X013843Y012140D01*
X013877Y012165D01*
X013913Y012188D01*
X013951Y012208D01*
X013991Y012224D01*
X014032Y012236D01*
X014074Y012246D01*
X014116Y012251D01*
X014159Y012253D01*
X014202Y012251D01*
X014244Y012246D01*
X014286Y012236D01*
X014327Y012224D01*
X014367Y012208D01*
X014405Y012188D01*
X014441Y012165D01*
X014475Y012140D01*
X014507Y012111D01*
X014537Y012080D01*
X014563Y012046D01*
X014587Y012010D01*
X014607Y011973D01*
X014606Y011972D01*
X014586Y012010D01*
X014562Y012045D01*
X014536Y012079D01*
X014507Y012110D01*
X014475Y012139D01*
X014441Y012165D01*
X014404Y012187D01*
X014366Y012207D01*
X014327Y012223D01*
X014286Y012236D01*
X014244Y012245D01*
X014202Y012250D01*
X014159Y012252D01*
X014116Y012250D01*
X014074Y012245D01*
X014032Y012236D01*
X013991Y012223D01*
X013952Y012207D01*
X013914Y012187D01*
X013877Y012165D01*
X013843Y012139D01*
X013811Y012110D01*
X013782Y012079D01*
X013756Y012045D01*
X013732Y012010D01*
X013712Y011972D01*
X013713Y011972D01*
X013734Y012011D01*
X013759Y012048D01*
X013786Y012082D01*
X013817Y012114D01*
X013851Y012143D01*
X013886Y012169D01*
X013925Y012192D01*
X013965Y012211D01*
X014006Y012227D01*
X014049Y012239D01*
X014093Y012247D01*
X014137Y012251D01*
X014181Y012251D01*
X014225Y012247D01*
X014269Y012239D01*
X014312Y012227D01*
X014353Y012211D01*
X014393Y012192D01*
X014432Y012169D01*
X014467Y012143D01*
X014501Y012114D01*
X014532Y012082D01*
X014559Y012048D01*
X014584Y012011D01*
X014605Y011972D01*
X014604Y011971D01*
X014583Y012010D01*
X014559Y012047D01*
X014531Y012082D01*
X014500Y012114D01*
X014467Y012143D01*
X014431Y012169D01*
X014393Y012191D01*
X014353Y012210D01*
X014312Y012226D01*
X014269Y012238D01*
X014225Y012246D01*
X014181Y012250D01*
X014137Y012250D01*
X014093Y012246D01*
X014049Y012238D01*
X014006Y012226D01*
X013965Y012210D01*
X013925Y012191D01*
X013887Y012169D01*
X013851Y012143D01*
X013818Y012114D01*
X013787Y012082D01*
X013759Y012047D01*
X013735Y012010D01*
X013714Y011971D01*
X013715Y011971D01*
X013736Y012010D01*
X013760Y012046D01*
X013788Y012081D01*
X013818Y012113D01*
X013852Y012142D01*
X013888Y012168D01*
X013926Y012190D01*
X013965Y012209D01*
X014007Y012225D01*
X014049Y012237D01*
X014093Y012245D01*
X014137Y012249D01*
X014181Y012249D01*
X014225Y012245D01*
X014269Y012237D01*
X014311Y012225D01*
X014353Y012209D01*
X014392Y012190D01*
X014430Y012168D01*
X014466Y012142D01*
X014500Y012113D01*
X014530Y012081D01*
X014558Y012046D01*
X014582Y012010D01*
X014603Y011971D01*
X014602Y011970D01*
X014581Y012009D01*
X014557Y012046D01*
X014529Y012080D01*
X014499Y012112D01*
X014466Y012141D01*
X014430Y012167D01*
X014392Y012189D01*
X014352Y012209D01*
X014311Y012224D01*
X014268Y012236D01*
X014225Y012244D01*
X014181Y012248D01*
X014137Y012248D01*
X014093Y012244D01*
X014050Y012236D01*
X014007Y012224D01*
X013966Y012209D01*
X013926Y012189D01*
X013888Y012167D01*
X013852Y012141D01*
X013819Y012112D01*
X013789Y012080D01*
X013761Y012046D01*
X013737Y012009D01*
X013716Y011970D01*
X013737Y012009D01*
X013762Y012045D01*
X013789Y012080D01*
X013820Y012111D01*
X013853Y012140D01*
X013889Y012166D01*
X013926Y012189D01*
X013966Y012208D01*
X014007Y012223D01*
X014050Y012235D01*
X014093Y012243D01*
X014137Y012247D01*
X014181Y012247D01*
X014225Y012243D01*
X014268Y012235D01*
X014311Y012223D01*
X014352Y012208D01*
X014392Y012189D01*
X014429Y012166D01*
X014465Y012140D01*
X014498Y012111D01*
X014529Y012080D01*
X014556Y012045D01*
X014581Y012009D01*
X014602Y011970D01*
X013700Y011976D02*
X013717Y011968D01*
X013717Y011969D02*
X013702Y011935D01*
X013690Y011900D01*
X013680Y011865D01*
X013674Y011829D01*
X013669Y011792D01*
X013668Y011755D01*
X013650Y011755D01*
X013649Y011755D01*
X013650Y011794D01*
X013655Y011832D01*
X013662Y011869D01*
X013672Y011906D01*
X013684Y011942D01*
X013700Y011977D01*
X013701Y011976D01*
X013685Y011942D01*
X013673Y011906D01*
X013663Y011869D01*
X013656Y011831D01*
X013651Y011794D01*
X013650Y011755D01*
X013651Y011755D01*
X013652Y011793D01*
X013657Y011831D01*
X013664Y011869D01*
X013674Y011905D01*
X013686Y011941D01*
X013702Y011976D01*
X013687Y011941D01*
X013675Y011905D01*
X013665Y011868D01*
X013658Y011831D01*
X013653Y011793D01*
X013652Y011755D01*
X013653Y011755D01*
X013654Y011793D01*
X013659Y011831D01*
X013666Y011868D01*
X013676Y011905D01*
X013688Y011940D01*
X013703Y011975D01*
X013704Y011975D01*
X013689Y011940D01*
X013677Y011904D01*
X013667Y011868D01*
X013660Y011831D01*
X013655Y011793D01*
X013654Y011755D01*
X013655Y011755D01*
X013656Y011793D01*
X013661Y011831D01*
X013668Y011868D01*
X013678Y011904D01*
X013690Y011940D01*
X013705Y011974D01*
X013706Y011974D01*
X013691Y011939D01*
X013679Y011904D01*
X013669Y011867D01*
X013662Y011831D01*
X013657Y011793D01*
X013656Y011755D01*
X013657Y011755D01*
X013658Y011793D01*
X013663Y011830D01*
X013670Y011867D01*
X013679Y011904D01*
X013692Y011939D01*
X013707Y011973D01*
X013708Y011973D01*
X013693Y011939D01*
X013680Y011903D01*
X013671Y011867D01*
X013664Y011830D01*
X013659Y011793D01*
X013658Y011755D01*
X013659Y011755D01*
X013660Y011793D01*
X013665Y011830D01*
X013672Y011867D01*
X013681Y011903D01*
X013694Y011938D01*
X013709Y011973D01*
X013710Y011972D01*
X013695Y011938D01*
X013682Y011903D01*
X013673Y011867D01*
X013666Y011830D01*
X013661Y011793D01*
X013660Y011755D01*
X013661Y011755D01*
X013662Y011793D01*
X013667Y011830D01*
X013674Y011866D01*
X013683Y011902D01*
X013696Y011937D01*
X013711Y011972D01*
X013711Y011971D01*
X013697Y011937D01*
X013684Y011902D01*
X013675Y011866D01*
X013668Y011830D01*
X013663Y011793D01*
X013662Y011755D01*
X013663Y011755D01*
X013664Y011793D01*
X013669Y011829D01*
X013676Y011866D01*
X013685Y011902D01*
X013698Y011937D01*
X013712Y011971D01*
X013713Y011970D01*
X013698Y011936D01*
X013686Y011901D01*
X013677Y011866D01*
X013670Y011829D01*
X013665Y011793D01*
X013664Y011755D01*
X013665Y011755D01*
X013666Y011792D01*
X013671Y011829D01*
X013678Y011865D01*
X013687Y011901D01*
X013699Y011936D01*
X013714Y011970D01*
X013715Y011969D01*
X013700Y011936D01*
X013688Y011901D01*
X013678Y011865D01*
X013672Y011829D01*
X013667Y011792D01*
X013666Y011755D01*
X013667Y011755D01*
X013668Y011792D01*
X013673Y011829D01*
X013679Y011865D01*
X013689Y011901D01*
X013701Y011935D01*
X013716Y011969D01*
X014668Y011755D02*
X014649Y011755D01*
X014650Y011755D02*
X014649Y011792D01*
X014644Y011829D01*
X014638Y011865D01*
X014628Y011900D01*
X014616Y011935D01*
X014601Y011969D01*
X014618Y011976D01*
X014618Y011977D01*
X014634Y011942D01*
X014646Y011906D01*
X014656Y011869D01*
X014663Y011832D01*
X014668Y011794D01*
X014669Y011755D01*
X014668Y011755D01*
X014667Y011794D01*
X014662Y011831D01*
X014655Y011869D01*
X014645Y011906D01*
X014633Y011942D01*
X014617Y011976D01*
X014616Y011976D01*
X014632Y011941D01*
X014644Y011905D01*
X014654Y011869D01*
X014661Y011831D01*
X014666Y011793D01*
X014667Y011755D01*
X014666Y011755D01*
X014665Y011793D01*
X014660Y011831D01*
X014653Y011868D01*
X014643Y011905D01*
X014631Y011941D01*
X014616Y011976D01*
X014615Y011975D01*
X014630Y011940D01*
X014642Y011905D01*
X014652Y011868D01*
X014659Y011831D01*
X014664Y011793D01*
X014665Y011755D01*
X014664Y011755D01*
X014663Y011793D01*
X014658Y011831D01*
X014651Y011868D01*
X014641Y011904D01*
X014629Y011940D01*
X014614Y011975D01*
X014613Y011974D01*
X014628Y011940D01*
X014640Y011904D01*
X014650Y011868D01*
X014657Y011831D01*
X014662Y011793D01*
X014663Y011755D01*
X014662Y011755D01*
X014661Y011793D01*
X014656Y011831D01*
X014649Y011867D01*
X014639Y011904D01*
X014627Y011939D01*
X014612Y011974D01*
X014611Y011973D01*
X014626Y011939D01*
X014639Y011904D01*
X014648Y011867D01*
X014655Y011830D01*
X014660Y011793D01*
X014661Y011755D01*
X014660Y011755D01*
X014659Y011793D01*
X014654Y011830D01*
X014647Y011867D01*
X014638Y011903D01*
X014625Y011939D01*
X014610Y011973D01*
X014609Y011973D01*
X014624Y011938D01*
X014637Y011903D01*
X014646Y011867D01*
X014653Y011830D01*
X014658Y011793D01*
X014659Y011755D01*
X014658Y011755D01*
X014657Y011793D01*
X014652Y011830D01*
X014645Y011867D01*
X014636Y011903D01*
X014623Y011938D01*
X014608Y011972D01*
X014607Y011972D01*
X014622Y011937D01*
X014635Y011902D01*
X014644Y011866D01*
X014651Y011830D01*
X014656Y011793D01*
X014657Y011755D01*
X014656Y011755D01*
X014655Y011793D01*
X014650Y011830D01*
X014643Y011866D01*
X014634Y011902D01*
X014621Y011937D01*
X014607Y011971D01*
X014606Y011971D01*
X014620Y011937D01*
X014633Y011902D01*
X014642Y011866D01*
X014649Y011829D01*
X014654Y011793D01*
X014655Y011755D01*
X014654Y011755D01*
X014653Y011793D01*
X014648Y011829D01*
X014641Y011866D01*
X014632Y011901D01*
X014620Y011936D01*
X014605Y011970D01*
X014604Y011970D01*
X014619Y011936D01*
X014631Y011901D01*
X014640Y011865D01*
X014647Y011829D01*
X014652Y011792D01*
X014653Y011755D01*
X014652Y011755D01*
X014651Y011792D01*
X014646Y011829D01*
X014640Y011865D01*
X014630Y011901D01*
X014618Y011936D01*
X014603Y011969D01*
X014602Y011969D01*
X014617Y011935D01*
X014629Y011901D01*
X014639Y011865D01*
X014645Y011829D01*
X014650Y011792D01*
X014651Y011755D01*
X013703Y012424D02*
X013714Y012408D01*
X013714Y012409D02*
X013669Y012376D01*
X013627Y012341D01*
X013588Y012302D01*
X013551Y012262D01*
X013518Y012218D01*
X013487Y012173D01*
X013460Y012125D01*
X013436Y012076D01*
X013415Y012025D01*
X013398Y011972D01*
X013385Y011919D01*
X013376Y011865D01*
X013370Y011810D01*
X013368Y011755D01*
X013350Y011755D01*
X013349Y011755D01*
X013351Y011812D01*
X013357Y011868D01*
X013367Y011923D01*
X013380Y011978D01*
X013398Y012031D01*
X013418Y012083D01*
X013443Y012134D01*
X013471Y012183D01*
X013502Y012229D01*
X013537Y012274D01*
X013574Y012316D01*
X013615Y012355D01*
X013658Y012391D01*
X013703Y012424D01*
X013704Y012424D01*
X013658Y012390D01*
X013615Y012354D01*
X013575Y012315D01*
X013538Y012273D01*
X013503Y012229D01*
X013472Y012182D01*
X013444Y012133D01*
X013419Y012083D01*
X013398Y012031D01*
X013381Y011977D01*
X013368Y011923D01*
X013358Y011867D01*
X013352Y011812D01*
X013350Y011755D01*
X013351Y011755D01*
X013353Y011812D01*
X013359Y011867D01*
X013369Y011923D01*
X013382Y011977D01*
X013399Y012030D01*
X013420Y012082D01*
X013445Y012133D01*
X013473Y012182D01*
X013504Y012228D01*
X013538Y012272D01*
X013576Y012314D01*
X013616Y012353D01*
X013659Y012390D01*
X013704Y012423D01*
X013705Y012422D01*
X013659Y012389D01*
X013617Y012353D01*
X013577Y012314D01*
X013539Y012272D01*
X013505Y012228D01*
X013474Y012181D01*
X013446Y012132D01*
X013421Y012082D01*
X013400Y012030D01*
X013383Y011977D01*
X013370Y011922D01*
X013360Y011867D01*
X013354Y011811D01*
X013352Y011755D01*
X013353Y011755D01*
X013355Y011811D01*
X013361Y011867D01*
X013371Y011922D01*
X013384Y011976D01*
X013401Y012030D01*
X013422Y012082D01*
X013447Y012132D01*
X013474Y012180D01*
X013506Y012227D01*
X013540Y012271D01*
X013577Y012313D01*
X013617Y012352D01*
X013660Y012388D01*
X013705Y012421D01*
X013706Y012420D01*
X013661Y012387D01*
X013618Y012351D01*
X013578Y012312D01*
X013541Y012271D01*
X013506Y012226D01*
X013475Y012180D01*
X013447Y012132D01*
X013423Y012081D01*
X013402Y012029D01*
X013385Y011976D01*
X013372Y011922D01*
X013362Y011867D01*
X013356Y011811D01*
X013354Y011755D01*
X013355Y011755D01*
X013357Y011811D01*
X013363Y011867D01*
X013372Y011922D01*
X013386Y011976D01*
X013403Y012029D01*
X013424Y012081D01*
X013448Y012131D01*
X013476Y012179D01*
X013507Y012226D01*
X013541Y012270D01*
X013579Y012311D01*
X013619Y012350D01*
X013661Y012386D01*
X013706Y012419D01*
X013707Y012419D01*
X013662Y012386D01*
X013619Y012350D01*
X013579Y012311D01*
X013542Y012269D01*
X013508Y012225D01*
X013477Y012179D01*
X013449Y012131D01*
X013425Y012080D01*
X013404Y012029D01*
X013387Y011976D01*
X013373Y011922D01*
X013364Y011867D01*
X013358Y011811D01*
X013356Y011755D01*
X013357Y011755D01*
X013359Y011811D01*
X013365Y011867D01*
X013374Y011921D01*
X013388Y011975D01*
X013405Y012028D01*
X013426Y012080D01*
X013450Y012130D01*
X013478Y012178D01*
X013509Y012225D01*
X013543Y012269D01*
X013580Y012310D01*
X013620Y012349D01*
X013663Y012385D01*
X013707Y012418D01*
X013708Y012417D01*
X013663Y012384D01*
X013621Y012348D01*
X013581Y012309D01*
X013544Y012268D01*
X013510Y012224D01*
X013479Y012178D01*
X013451Y012130D01*
X013427Y012080D01*
X013406Y012028D01*
X013389Y011975D01*
X013375Y011921D01*
X013366Y011866D01*
X013360Y011811D01*
X013358Y011755D01*
X013359Y011755D01*
X013361Y011811D01*
X013367Y011866D01*
X013376Y011921D01*
X013390Y011975D01*
X013407Y012028D01*
X013428Y012079D01*
X013452Y012129D01*
X013480Y012177D01*
X013511Y012223D01*
X013545Y012267D01*
X013582Y012309D01*
X013621Y012347D01*
X013664Y012383D01*
X013709Y012416D01*
X013709Y012415D01*
X013664Y012383D01*
X013622Y012347D01*
X013582Y012308D01*
X013545Y012267D01*
X013511Y012223D01*
X013480Y012177D01*
X013453Y012129D01*
X013429Y012079D01*
X013408Y012027D01*
X013391Y011975D01*
X013377Y011921D01*
X013368Y011866D01*
X013362Y011811D01*
X013360Y011755D01*
X013361Y011755D01*
X013363Y011811D01*
X013369Y011866D01*
X013378Y011921D01*
X013392Y011974D01*
X013409Y012027D01*
X013429Y012078D01*
X013454Y012128D01*
X013481Y012176D01*
X013512Y012222D01*
X013546Y012266D01*
X013583Y012307D01*
X013623Y012346D01*
X013665Y012382D01*
X013710Y012415D01*
X013710Y012414D01*
X013666Y012381D01*
X013623Y012345D01*
X013584Y012307D01*
X013547Y012265D01*
X013513Y012222D01*
X013482Y012176D01*
X013455Y012128D01*
X013430Y012078D01*
X013410Y012027D01*
X013393Y011974D01*
X013379Y011920D01*
X013370Y011866D01*
X013364Y011811D01*
X013362Y011755D01*
X013363Y011755D01*
X013365Y011811D01*
X013371Y011866D01*
X013380Y011920D01*
X013394Y011974D01*
X013411Y012026D01*
X013431Y012078D01*
X013455Y012127D01*
X013483Y012175D01*
X013514Y012221D01*
X013548Y012265D01*
X013584Y012306D01*
X013624Y012344D01*
X013666Y012380D01*
X013711Y012413D01*
X013711Y012412D01*
X013667Y012379D01*
X013625Y012344D01*
X013585Y012305D01*
X013548Y012264D01*
X013515Y012221D01*
X013484Y012175D01*
X013456Y012127D01*
X013432Y012077D01*
X013412Y012026D01*
X013395Y011973D01*
X013381Y011920D01*
X013372Y011866D01*
X013366Y011811D01*
X013364Y011755D01*
X013365Y011755D01*
X013367Y011811D01*
X013373Y011865D01*
X013382Y011920D01*
X013396Y011973D01*
X013413Y012026D01*
X013433Y012077D01*
X013457Y012126D01*
X013485Y012174D01*
X013515Y012220D01*
X013549Y012263D01*
X013586Y012305D01*
X013625Y012343D01*
X013668Y012379D01*
X013712Y012411D01*
X013713Y012410D01*
X013668Y012378D01*
X013626Y012342D01*
X013587Y012304D01*
X013550Y012263D01*
X013516Y012219D01*
X013486Y012174D01*
X013458Y012126D01*
X013434Y012076D01*
X013413Y012025D01*
X013397Y011973D01*
X013383Y011919D01*
X013374Y011865D01*
X013368Y011811D01*
X013366Y011755D01*
X013367Y011755D01*
X013369Y011810D01*
X013375Y011865D01*
X013384Y011919D01*
X013397Y011973D01*
X013414Y012025D01*
X013435Y012076D01*
X013459Y012125D01*
X013486Y012173D01*
X013517Y012219D01*
X013551Y012262D01*
X013587Y012303D01*
X013627Y012342D01*
X013669Y012377D01*
X013713Y012410D01*
X004553Y020187D02*
X004553Y020148D01*
X004553Y020149D02*
X004532Y020147D01*
X004512Y020142D01*
X004493Y020133D01*
X004476Y020121D01*
X004462Y020106D01*
X004450Y020089D01*
X004441Y020071D01*
X004436Y020051D01*
X004434Y020030D01*
X004436Y020009D01*
X004441Y019989D01*
X004450Y019971D01*
X004462Y019954D01*
X004476Y019939D01*
X004493Y019927D01*
X004512Y019918D01*
X004532Y019913D01*
X004553Y019911D01*
X004553Y019873D01*
X004553Y019872D01*
X004528Y019874D01*
X004504Y019880D01*
X004481Y019889D01*
X004460Y019902D01*
X004441Y019918D01*
X004425Y019937D01*
X004412Y019958D01*
X004403Y019981D01*
X004397Y020005D01*
X004395Y020030D01*
X004397Y020055D01*
X004403Y020079D01*
X004412Y020102D01*
X004425Y020123D01*
X004441Y020142D01*
X004460Y020158D01*
X004481Y020171D01*
X004504Y020180D01*
X004528Y020186D01*
X004553Y020188D01*
X004553Y020187D01*
X004528Y020185D01*
X004504Y020179D01*
X004481Y020170D01*
X004460Y020157D01*
X004442Y020141D01*
X004426Y020122D01*
X004413Y020101D01*
X004404Y020078D01*
X004398Y020055D01*
X004396Y020030D01*
X004398Y020005D01*
X004404Y019982D01*
X004413Y019959D01*
X004426Y019938D01*
X004442Y019919D01*
X004460Y019903D01*
X004481Y019890D01*
X004504Y019881D01*
X004528Y019875D01*
X004553Y019873D01*
X004553Y019874D01*
X004528Y019876D01*
X004504Y019882D01*
X004482Y019891D01*
X004461Y019904D01*
X004443Y019920D01*
X004427Y019938D01*
X004414Y019959D01*
X004405Y019982D01*
X004399Y020006D01*
X004397Y020030D01*
X004399Y020054D01*
X004405Y020078D01*
X004414Y020101D01*
X004427Y020122D01*
X004443Y020140D01*
X004461Y020156D01*
X004482Y020169D01*
X004504Y020178D01*
X004528Y020184D01*
X004553Y020186D01*
X004553Y020185D01*
X004528Y020183D01*
X004505Y020177D01*
X004482Y020168D01*
X004462Y020155D01*
X004443Y020139D01*
X004427Y020121D01*
X004415Y020100D01*
X004406Y020078D01*
X004400Y020054D01*
X004398Y020030D01*
X004400Y020006D01*
X004406Y019982D01*
X004415Y019960D01*
X004427Y019939D01*
X004443Y019921D01*
X004462Y019905D01*
X004482Y019892D01*
X004505Y019883D01*
X004528Y019877D01*
X004553Y019875D01*
X004553Y019876D01*
X004528Y019878D01*
X004505Y019884D01*
X004483Y019893D01*
X004462Y019906D01*
X004444Y019921D01*
X004428Y019940D01*
X004416Y019960D01*
X004407Y019983D01*
X004401Y020006D01*
X004399Y020030D01*
X004401Y020054D01*
X004407Y020077D01*
X004416Y020100D01*
X004428Y020120D01*
X004444Y020139D01*
X004462Y020154D01*
X004483Y020167D01*
X004505Y020176D01*
X004528Y020182D01*
X004553Y020184D01*
X004553Y020183D01*
X004529Y020181D01*
X004505Y020175D01*
X004483Y020166D01*
X004463Y020154D01*
X004445Y020138D01*
X004429Y020120D01*
X004417Y020099D01*
X004407Y020077D01*
X004402Y020054D01*
X004400Y020030D01*
X004402Y020006D01*
X004407Y019983D01*
X004417Y019961D01*
X004429Y019940D01*
X004445Y019922D01*
X004463Y019906D01*
X004483Y019894D01*
X004505Y019885D01*
X004529Y019879D01*
X004553Y019877D01*
X004553Y019878D01*
X004529Y019880D01*
X004506Y019886D01*
X004484Y019895D01*
X004463Y019907D01*
X004445Y019923D01*
X004430Y019941D01*
X004417Y019961D01*
X004408Y019983D01*
X004403Y020006D01*
X004401Y020030D01*
X004403Y020054D01*
X004408Y020077D01*
X004417Y020099D01*
X004430Y020119D01*
X004445Y020137D01*
X004463Y020153D01*
X004484Y020165D01*
X004506Y020174D01*
X004529Y020180D01*
X004553Y020182D01*
X004553Y020181D01*
X004529Y020179D01*
X004506Y020173D01*
X004484Y020164D01*
X004464Y020152D01*
X004446Y020137D01*
X004431Y020119D01*
X004418Y020098D01*
X004409Y020077D01*
X004404Y020054D01*
X004402Y020030D01*
X004404Y020006D01*
X004409Y019983D01*
X004418Y019962D01*
X004431Y019941D01*
X004446Y019923D01*
X004464Y019908D01*
X004484Y019896D01*
X004506Y019887D01*
X004529Y019881D01*
X004553Y019879D01*
X004553Y019880D01*
X004529Y019882D01*
X004506Y019887D01*
X004485Y019897D01*
X004465Y019909D01*
X004447Y019924D01*
X004432Y019942D01*
X004419Y019962D01*
X004410Y019984D01*
X004405Y020007D01*
X004403Y020030D01*
X004405Y020053D01*
X004410Y020076D01*
X004419Y020098D01*
X004432Y020118D01*
X004447Y020136D01*
X004465Y020151D01*
X004485Y020163D01*
X004506Y020173D01*
X004529Y020178D01*
X004553Y020180D01*
X004553Y020179D01*
X004529Y020177D01*
X004507Y020172D01*
X004485Y020163D01*
X004465Y020150D01*
X004447Y020135D01*
X004432Y020117D01*
X004420Y020098D01*
X004411Y020076D01*
X004406Y020053D01*
X004404Y020030D01*
X004406Y020007D01*
X004411Y019984D01*
X004420Y019962D01*
X004432Y019943D01*
X004447Y019925D01*
X004465Y019910D01*
X004485Y019897D01*
X004507Y019888D01*
X004529Y019883D01*
X004553Y019881D01*
X004553Y019882D01*
X004529Y019884D01*
X004507Y019889D01*
X004485Y019898D01*
X004466Y019910D01*
X004448Y019926D01*
X004433Y019943D01*
X004421Y019963D01*
X004412Y019984D01*
X004407Y020007D01*
X004405Y020030D01*
X004407Y020053D01*
X004412Y020076D01*
X004421Y020097D01*
X004433Y020117D01*
X004448Y020134D01*
X004466Y020150D01*
X004485Y020162D01*
X004507Y020171D01*
X004529Y020176D01*
X004553Y020178D01*
X004553Y020177D01*
X004530Y020175D01*
X004507Y020170D01*
X004486Y020161D01*
X004466Y020149D01*
X004449Y020134D01*
X004434Y020116D01*
X004422Y020097D01*
X004413Y020075D01*
X004408Y020053D01*
X004406Y020030D01*
X004408Y020007D01*
X004413Y019985D01*
X004422Y019963D01*
X004434Y019944D01*
X004449Y019926D01*
X004466Y019911D01*
X004486Y019899D01*
X004507Y019890D01*
X004530Y019885D01*
X004553Y019883D01*
X004553Y019884D01*
X004530Y019886D01*
X004508Y019891D01*
X004486Y019900D01*
X004467Y019912D01*
X004450Y019927D01*
X004435Y019944D01*
X004423Y019964D01*
X004414Y019985D01*
X004409Y020007D01*
X004407Y020030D01*
X004409Y020053D01*
X004414Y020075D01*
X004423Y020096D01*
X004435Y020116D01*
X004450Y020133D01*
X004467Y020148D01*
X004486Y020160D01*
X004508Y020169D01*
X004530Y020174D01*
X004553Y020176D01*
X004553Y020175D01*
X004529Y020173D01*
X004506Y020167D01*
X004484Y020157D01*
X004464Y020144D01*
X004446Y020128D01*
X004432Y020109D01*
X004420Y020088D01*
X004412Y020066D01*
X004408Y020042D01*
X004408Y020018D01*
X004412Y019994D01*
X004420Y019972D01*
X004432Y019951D01*
X004446Y019932D01*
X004464Y019916D01*
X004484Y019903D01*
X004506Y019893D01*
X004529Y019887D01*
X004553Y019885D01*
X004553Y019886D01*
X004529Y019888D01*
X004506Y019894D01*
X004484Y019904D01*
X004464Y019917D01*
X004447Y019933D01*
X004432Y019951D01*
X004421Y019972D01*
X004413Y019995D01*
X004409Y020018D01*
X004409Y020042D01*
X004413Y020065D01*
X004421Y020088D01*
X004432Y020109D01*
X004447Y020127D01*
X004464Y020143D01*
X004484Y020156D01*
X004506Y020166D01*
X004529Y020172D01*
X004553Y020174D01*
X004553Y020173D01*
X004529Y020171D01*
X004506Y020165D01*
X004485Y020156D01*
X004465Y020143D01*
X004448Y020127D01*
X004433Y020108D01*
X004422Y020087D01*
X004414Y020065D01*
X004410Y020042D01*
X004410Y020018D01*
X004414Y019995D01*
X004422Y019973D01*
X004433Y019952D01*
X004448Y019933D01*
X004465Y019917D01*
X004485Y019904D01*
X004506Y019895D01*
X004529Y019889D01*
X004553Y019887D01*
X004553Y019888D01*
X004529Y019890D01*
X004507Y019896D01*
X004485Y019905D01*
X004466Y019918D01*
X004448Y019934D01*
X004434Y019952D01*
X004423Y019973D01*
X004415Y019995D01*
X004411Y020018D01*
X004411Y020042D01*
X004415Y020065D01*
X004423Y020087D01*
X004434Y020108D01*
X004448Y020126D01*
X004466Y020142D01*
X004485Y020155D01*
X004507Y020164D01*
X004529Y020170D01*
X004553Y020172D01*
X004553Y020171D01*
X004529Y020169D01*
X004507Y020163D01*
X004486Y020154D01*
X004466Y020141D01*
X004449Y020125D01*
X004435Y020107D01*
X004424Y020087D01*
X004416Y020065D01*
X004412Y020042D01*
X004412Y020018D01*
X004416Y019995D01*
X004424Y019973D01*
X004435Y019953D01*
X004449Y019935D01*
X004466Y019919D01*
X004486Y019906D01*
X004507Y019897D01*
X004529Y019891D01*
X004553Y019889D01*
X004553Y019890D01*
X004530Y019892D01*
X004507Y019898D01*
X004486Y019907D01*
X004467Y019920D01*
X004450Y019935D01*
X004436Y019954D01*
X004425Y019974D01*
X004417Y019996D01*
X004413Y020018D01*
X004413Y020042D01*
X004417Y020064D01*
X004425Y020086D01*
X004436Y020106D01*
X004450Y020125D01*
X004467Y020140D01*
X004486Y020153D01*
X004507Y020162D01*
X004530Y020168D01*
X004553Y020170D01*
X004553Y020169D01*
X004530Y020167D01*
X004507Y020161D01*
X004487Y020152D01*
X004467Y020140D01*
X004451Y020124D01*
X004437Y020106D01*
X004426Y020086D01*
X004418Y020064D01*
X004414Y020041D01*
X004414Y020019D01*
X004418Y019996D01*
X004426Y019974D01*
X004437Y019954D01*
X004451Y019936D01*
X004467Y019920D01*
X004487Y019908D01*
X004507Y019899D01*
X004530Y019893D01*
X004553Y019891D01*
X004553Y019892D01*
X004530Y019894D01*
X004508Y019900D01*
X004487Y019909D01*
X004468Y019921D01*
X004451Y019937D01*
X004437Y019955D01*
X004427Y019975D01*
X004419Y019996D01*
X004415Y020019D01*
X004415Y020041D01*
X004419Y020064D01*
X004427Y020085D01*
X004437Y020105D01*
X004451Y020123D01*
X004468Y020139D01*
X004487Y020151D01*
X004508Y020160D01*
X004530Y020166D01*
X004553Y020168D01*
X004553Y020167D01*
X004530Y020165D01*
X004508Y020159D01*
X004487Y020150D01*
X004469Y020138D01*
X004452Y020123D01*
X004438Y020105D01*
X004427Y020085D01*
X004420Y020064D01*
X004416Y020041D01*
X004416Y020019D01*
X004420Y019996D01*
X004427Y019975D01*
X004438Y019955D01*
X004452Y019937D01*
X004469Y019922D01*
X004487Y019910D01*
X004508Y019901D01*
X004530Y019895D01*
X004553Y019893D01*
X004553Y019894D01*
X004530Y019896D01*
X004508Y019901D01*
X004488Y019911D01*
X004469Y019923D01*
X004453Y019938D01*
X004439Y019956D01*
X004428Y019975D01*
X004421Y019997D01*
X004417Y020019D01*
X004417Y020041D01*
X004421Y020063D01*
X004428Y020085D01*
X004439Y020104D01*
X004453Y020122D01*
X004469Y020137D01*
X004488Y020149D01*
X004508Y020159D01*
X004530Y020164D01*
X004553Y020166D01*
X004553Y020165D01*
X004530Y020163D01*
X004509Y020158D01*
X004488Y020149D01*
X004470Y020136D01*
X004454Y020121D01*
X004440Y020104D01*
X004429Y020084D01*
X004422Y020063D01*
X004418Y020041D01*
X004418Y020019D01*
X004422Y019997D01*
X004429Y019976D01*
X004440Y019956D01*
X004454Y019939D01*
X004470Y019924D01*
X004488Y019911D01*
X004509Y019902D01*
X004530Y019897D01*
X004553Y019895D01*
X004553Y019896D01*
X004531Y019898D01*
X004509Y019903D01*
X004489Y019912D01*
X004470Y019924D01*
X004454Y019939D01*
X004441Y019957D01*
X004430Y019976D01*
X004423Y019997D01*
X004419Y020019D01*
X004419Y020041D01*
X004423Y020063D01*
X004430Y020084D01*
X004441Y020103D01*
X004454Y020121D01*
X004470Y020136D01*
X004489Y020148D01*
X004509Y020157D01*
X004531Y020162D01*
X004553Y020164D01*
X004553Y020163D01*
X004531Y020161D01*
X004509Y020156D01*
X004489Y020147D01*
X004471Y020135D01*
X004455Y020120D01*
X004442Y020103D01*
X004431Y020083D01*
X004424Y020063D01*
X004420Y020041D01*
X004420Y020019D01*
X004424Y019997D01*
X004431Y019977D01*
X004442Y019957D01*
X004455Y019940D01*
X004471Y019925D01*
X004489Y019913D01*
X004509Y019904D01*
X004531Y019899D01*
X004553Y019897D01*
X004553Y019898D01*
X004531Y019900D01*
X004510Y019905D01*
X004490Y019914D01*
X004472Y019926D01*
X004456Y019941D01*
X004442Y019958D01*
X004432Y019977D01*
X004425Y019998D01*
X004421Y020019D01*
X004421Y020041D01*
X004425Y020062D01*
X004432Y020083D01*
X004442Y020102D01*
X004456Y020119D01*
X004472Y020134D01*
X004490Y020146D01*
X004510Y020155D01*
X004531Y020160D01*
X004553Y020162D01*
X004553Y020161D01*
X004531Y020159D01*
X004510Y020154D01*
X004490Y020145D01*
X004472Y020133D01*
X004456Y020119D01*
X004443Y020101D01*
X004433Y020083D01*
X004426Y020062D01*
X004422Y020041D01*
X004422Y020019D01*
X004426Y019998D01*
X004433Y019977D01*
X004443Y019959D01*
X004456Y019941D01*
X004472Y019927D01*
X004490Y019915D01*
X004510Y019906D01*
X004531Y019901D01*
X004553Y019899D01*
X004553Y019900D01*
X004530Y019902D01*
X004508Y019908D01*
X004488Y019918D01*
X004469Y019931D01*
X004453Y019947D01*
X004440Y019965D01*
X004431Y019986D01*
X004425Y020007D01*
X004423Y020030D01*
X004425Y020053D01*
X004431Y020074D01*
X004440Y020095D01*
X004453Y020113D01*
X004469Y020129D01*
X004488Y020142D01*
X004508Y020152D01*
X004530Y020158D01*
X004553Y020160D01*
X004553Y020159D01*
X004530Y020157D01*
X004509Y020151D01*
X004488Y020142D01*
X004470Y020129D01*
X004454Y020113D01*
X004441Y020094D01*
X004432Y020074D01*
X004426Y020052D01*
X004424Y020030D01*
X004426Y020008D01*
X004432Y019986D01*
X004441Y019966D01*
X004454Y019947D01*
X004470Y019931D01*
X004488Y019918D01*
X004509Y019909D01*
X004530Y019903D01*
X004553Y019901D01*
X004553Y019902D01*
X004530Y019904D01*
X004509Y019910D01*
X004489Y019919D01*
X004471Y019932D01*
X004455Y019948D01*
X004442Y019966D01*
X004433Y019986D01*
X004427Y020008D01*
X004425Y020030D01*
X004427Y020052D01*
X004433Y020074D01*
X004442Y020094D01*
X004455Y020112D01*
X004471Y020128D01*
X004489Y020141D01*
X004509Y020150D01*
X004530Y020156D01*
X004553Y020158D01*
X004553Y020157D01*
X004531Y020155D01*
X004509Y020149D01*
X004489Y020140D01*
X004471Y020127D01*
X004456Y020111D01*
X004443Y020093D01*
X004434Y020073D01*
X004428Y020052D01*
X004426Y020030D01*
X004428Y020008D01*
X004434Y019987D01*
X004443Y019967D01*
X004456Y019949D01*
X004471Y019933D01*
X004489Y019920D01*
X004509Y019911D01*
X004531Y019905D01*
X004553Y019903D01*
X004553Y019904D01*
X004531Y019906D01*
X004510Y019912D01*
X004490Y019921D01*
X004472Y019934D01*
X004456Y019949D01*
X004444Y019967D01*
X004435Y019987D01*
X004429Y020008D01*
X004427Y020030D01*
X004429Y020052D01*
X004435Y020073D01*
X004444Y020093D01*
X004456Y020111D01*
X004472Y020126D01*
X004490Y020139D01*
X004510Y020148D01*
X004531Y020154D01*
X004553Y020156D01*
X004553Y020155D01*
X004531Y020153D01*
X004510Y020147D01*
X004490Y020138D01*
X004472Y020126D01*
X004457Y020110D01*
X004445Y020092D01*
X004436Y020073D01*
X004430Y020052D01*
X004428Y020030D01*
X004430Y020008D01*
X004436Y019987D01*
X004445Y019968D01*
X004457Y019950D01*
X004472Y019934D01*
X004490Y019922D01*
X004510Y019913D01*
X004531Y019907D01*
X004553Y019905D01*
X004553Y019906D01*
X004531Y019908D01*
X004510Y019914D01*
X004491Y019923D01*
X004473Y019935D01*
X004458Y019950D01*
X004446Y019968D01*
X004436Y019988D01*
X004431Y020009D01*
X004429Y020030D01*
X004431Y020051D01*
X004436Y020072D01*
X004446Y020092D01*
X004458Y020110D01*
X004473Y020125D01*
X004491Y020137D01*
X004510Y020146D01*
X004531Y020152D01*
X004553Y020154D01*
X004553Y020153D01*
X004531Y020151D01*
X004511Y020145D01*
X004491Y020136D01*
X004474Y020124D01*
X004459Y020109D01*
X004446Y020091D01*
X004437Y020072D01*
X004432Y020051D01*
X004430Y020030D01*
X004432Y020009D01*
X004437Y019988D01*
X004446Y019969D01*
X004459Y019951D01*
X004474Y019936D01*
X004491Y019924D01*
X004511Y019915D01*
X004531Y019909D01*
X004553Y019907D01*
X004553Y019908D01*
X004531Y019910D01*
X004511Y019915D01*
X004492Y019925D01*
X004474Y019937D01*
X004459Y019952D01*
X004447Y019969D01*
X004438Y019988D01*
X004433Y020009D01*
X004431Y020030D01*
X004433Y020051D01*
X004438Y020072D01*
X004447Y020091D01*
X004459Y020108D01*
X004474Y020123D01*
X004492Y020135D01*
X004511Y020145D01*
X004531Y020150D01*
X004553Y020152D01*
X004553Y020151D01*
X004532Y020149D01*
X004511Y020144D01*
X004492Y020135D01*
X004475Y020123D01*
X004460Y020108D01*
X004448Y020090D01*
X004439Y020071D01*
X004434Y020051D01*
X004432Y020030D01*
X004434Y020009D01*
X004439Y019989D01*
X004448Y019970D01*
X004460Y019952D01*
X004475Y019937D01*
X004492Y019925D01*
X004511Y019916D01*
X004532Y019911D01*
X004553Y019909D01*
X004553Y019910D01*
X004532Y019912D01*
X004512Y019917D01*
X004493Y019926D01*
X004476Y019938D01*
X004461Y019953D01*
X004449Y019970D01*
X004440Y019989D01*
X004435Y020009D01*
X004433Y020030D01*
X004435Y020051D01*
X004440Y020071D01*
X004449Y020090D01*
X004461Y020107D01*
X004476Y020122D01*
X004493Y020134D01*
X004512Y020143D01*
X004532Y020148D01*
X004553Y020150D01*
X003765Y019873D02*
X003765Y019912D01*
X003765Y019911D02*
X003786Y019913D01*
X003806Y019918D01*
X003825Y019927D01*
X003842Y019939D01*
X003856Y019954D01*
X003868Y019971D01*
X003877Y019989D01*
X003882Y020009D01*
X003884Y020030D01*
X003882Y020051D01*
X003877Y020071D01*
X003868Y020089D01*
X003856Y020106D01*
X003842Y020121D01*
X003825Y020133D01*
X003806Y020142D01*
X003786Y020147D01*
X003765Y020149D01*
X003765Y020187D01*
X003765Y020188D01*
X003790Y020186D01*
X003814Y020180D01*
X003837Y020171D01*
X003858Y020158D01*
X003877Y020142D01*
X003893Y020123D01*
X003906Y020102D01*
X003915Y020079D01*
X003921Y020055D01*
X003923Y020030D01*
X003921Y020005D01*
X003915Y019981D01*
X003906Y019958D01*
X003893Y019937D01*
X003877Y019918D01*
X003858Y019902D01*
X003837Y019889D01*
X003814Y019880D01*
X003790Y019874D01*
X003765Y019872D01*
X003765Y019873D01*
X003790Y019875D01*
X003814Y019881D01*
X003837Y019890D01*
X003858Y019903D01*
X003876Y019919D01*
X003892Y019938D01*
X003905Y019959D01*
X003914Y019982D01*
X003920Y020005D01*
X003922Y020030D01*
X003920Y020055D01*
X003914Y020078D01*
X003905Y020101D01*
X003892Y020122D01*
X003876Y020141D01*
X003858Y020157D01*
X003837Y020170D01*
X003814Y020179D01*
X003790Y020185D01*
X003765Y020187D01*
X003765Y020186D01*
X003790Y020184D01*
X003814Y020178D01*
X003836Y020169D01*
X003857Y020156D01*
X003875Y020140D01*
X003891Y020122D01*
X003904Y020101D01*
X003913Y020078D01*
X003919Y020054D01*
X003921Y020030D01*
X003919Y020006D01*
X003913Y019982D01*
X003904Y019959D01*
X003891Y019938D01*
X003875Y019920D01*
X003857Y019904D01*
X003836Y019891D01*
X003814Y019882D01*
X003790Y019876D01*
X003765Y019874D01*
X003765Y019875D01*
X003790Y019877D01*
X003813Y019883D01*
X003836Y019892D01*
X003856Y019905D01*
X003875Y019921D01*
X003891Y019939D01*
X003903Y019960D01*
X003912Y019982D01*
X003918Y020006D01*
X003920Y020030D01*
X003918Y020054D01*
X003912Y020078D01*
X003903Y020100D01*
X003891Y020121D01*
X003875Y020139D01*
X003856Y020155D01*
X003836Y020168D01*
X003813Y020177D01*
X003790Y020183D01*
X003765Y020185D01*
X003765Y020184D01*
X003790Y020182D01*
X003813Y020176D01*
X003835Y020167D01*
X003856Y020154D01*
X003874Y020139D01*
X003890Y020120D01*
X003902Y020100D01*
X003911Y020077D01*
X003917Y020054D01*
X003919Y020030D01*
X003917Y020006D01*
X003911Y019983D01*
X003902Y019960D01*
X003890Y019940D01*
X003874Y019921D01*
X003856Y019906D01*
X003835Y019893D01*
X003813Y019884D01*
X003790Y019878D01*
X003765Y019876D01*
X003765Y019877D01*
X003789Y019879D01*
X003813Y019885D01*
X003835Y019894D01*
X003855Y019906D01*
X003873Y019922D01*
X003889Y019940D01*
X003901Y019961D01*
X003911Y019983D01*
X003916Y020006D01*
X003918Y020030D01*
X003916Y020054D01*
X003911Y020077D01*
X003901Y020099D01*
X003889Y020120D01*
X003873Y020138D01*
X003855Y020154D01*
X003835Y020166D01*
X003813Y020175D01*
X003789Y020181D01*
X003765Y020183D01*
X003765Y020182D01*
X003789Y020180D01*
X003812Y020174D01*
X003834Y020165D01*
X003855Y020153D01*
X003873Y020137D01*
X003888Y020119D01*
X003901Y020099D01*
X003910Y020077D01*
X003915Y020054D01*
X003917Y020030D01*
X003915Y020006D01*
X003910Y019983D01*
X003901Y019961D01*
X003888Y019941D01*
X003873Y019923D01*
X003855Y019907D01*
X003834Y019895D01*
X003812Y019886D01*
X003789Y019880D01*
X003765Y019878D01*
X003765Y019879D01*
X003789Y019881D01*
X003812Y019887D01*
X003834Y019896D01*
X003854Y019908D01*
X003872Y019923D01*
X003887Y019941D01*
X003900Y019962D01*
X003909Y019983D01*
X003914Y020006D01*
X003916Y020030D01*
X003914Y020054D01*
X003909Y020077D01*
X003900Y020098D01*
X003887Y020119D01*
X003872Y020137D01*
X003854Y020152D01*
X003834Y020164D01*
X003812Y020173D01*
X003789Y020179D01*
X003765Y020181D01*
X003765Y020180D01*
X003789Y020178D01*
X003812Y020173D01*
X003833Y020163D01*
X003853Y020151D01*
X003871Y020136D01*
X003886Y020118D01*
X003899Y020098D01*
X003908Y020076D01*
X003913Y020053D01*
X003915Y020030D01*
X003913Y020007D01*
X003908Y019984D01*
X003899Y019962D01*
X003886Y019942D01*
X003871Y019924D01*
X003853Y019909D01*
X003833Y019897D01*
X003812Y019887D01*
X003789Y019882D01*
X003765Y019880D01*
X003765Y019881D01*
X003789Y019883D01*
X003811Y019888D01*
X003833Y019897D01*
X003853Y019910D01*
X003871Y019925D01*
X003886Y019943D01*
X003898Y019962D01*
X003907Y019984D01*
X003912Y020007D01*
X003914Y020030D01*
X003912Y020053D01*
X003907Y020076D01*
X003898Y020098D01*
X003886Y020117D01*
X003871Y020135D01*
X003853Y020150D01*
X003833Y020163D01*
X003811Y020172D01*
X003789Y020177D01*
X003765Y020179D01*
X003765Y020178D01*
X003789Y020176D01*
X003811Y020171D01*
X003833Y020162D01*
X003852Y020150D01*
X003870Y020134D01*
X003885Y020117D01*
X003897Y020097D01*
X003906Y020076D01*
X003911Y020053D01*
X003913Y020030D01*
X003911Y020007D01*
X003906Y019984D01*
X003897Y019963D01*
X003885Y019943D01*
X003870Y019926D01*
X003852Y019910D01*
X003833Y019898D01*
X003811Y019889D01*
X003789Y019884D01*
X003765Y019882D01*
X003765Y019883D01*
X003788Y019885D01*
X003811Y019890D01*
X003832Y019899D01*
X003852Y019911D01*
X003869Y019926D01*
X003884Y019944D01*
X003896Y019963D01*
X003905Y019985D01*
X003910Y020007D01*
X003912Y020030D01*
X003910Y020053D01*
X003905Y020075D01*
X003896Y020097D01*
X003884Y020116D01*
X003869Y020134D01*
X003852Y020149D01*
X003832Y020161D01*
X003811Y020170D01*
X003788Y020175D01*
X003765Y020177D01*
X003765Y020176D01*
X003788Y020174D01*
X003810Y020169D01*
X003832Y020160D01*
X003851Y020148D01*
X003868Y020133D01*
X003883Y020116D01*
X003895Y020096D01*
X003904Y020075D01*
X003909Y020053D01*
X003911Y020030D01*
X003909Y020007D01*
X003904Y019985D01*
X003895Y019964D01*
X003883Y019944D01*
X003868Y019927D01*
X003851Y019912D01*
X003832Y019900D01*
X003810Y019891D01*
X003788Y019886D01*
X003765Y019884D01*
X003765Y019885D01*
X003789Y019887D01*
X003812Y019893D01*
X003834Y019903D01*
X003854Y019916D01*
X003872Y019932D01*
X003886Y019951D01*
X003898Y019972D01*
X003906Y019994D01*
X003910Y020018D01*
X003910Y020042D01*
X003906Y020066D01*
X003898Y020088D01*
X003886Y020109D01*
X003872Y020128D01*
X003854Y020144D01*
X003834Y020157D01*
X003812Y020167D01*
X003789Y020173D01*
X003765Y020175D01*
X003765Y020174D01*
X003789Y020172D01*
X003812Y020166D01*
X003834Y020156D01*
X003854Y020143D01*
X003871Y020127D01*
X003886Y020109D01*
X003897Y020088D01*
X003905Y020065D01*
X003909Y020042D01*
X003909Y020018D01*
X003905Y019995D01*
X003897Y019972D01*
X003886Y019951D01*
X003871Y019933D01*
X003854Y019917D01*
X003834Y019904D01*
X003812Y019894D01*
X003789Y019888D01*
X003765Y019886D01*
X003765Y019887D01*
X003789Y019889D01*
X003812Y019895D01*
X003833Y019904D01*
X003853Y019917D01*
X003870Y019933D01*
X003885Y019952D01*
X003896Y019973D01*
X003904Y019995D01*
X003908Y020018D01*
X003908Y020042D01*
X003904Y020065D01*
X003896Y020087D01*
X003885Y020108D01*
X003870Y020127D01*
X003853Y020143D01*
X003833Y020156D01*
X003812Y020165D01*
X003789Y020171D01*
X003765Y020173D01*
X003765Y020172D01*
X003789Y020170D01*
X003811Y020164D01*
X003833Y020155D01*
X003852Y020142D01*
X003870Y020126D01*
X003884Y020108D01*
X003895Y020087D01*
X003903Y020065D01*
X003907Y020042D01*
X003907Y020018D01*
X003903Y019995D01*
X003895Y019973D01*
X003884Y019952D01*
X003870Y019934D01*
X003852Y019918D01*
X003833Y019905D01*
X003811Y019896D01*
X003789Y019890D01*
X003765Y019888D01*
X003765Y019889D01*
X003789Y019891D01*
X003811Y019897D01*
X003832Y019906D01*
X003852Y019919D01*
X003869Y019935D01*
X003883Y019953D01*
X003894Y019973D01*
X003902Y019995D01*
X003906Y020018D01*
X003906Y020042D01*
X003902Y020065D01*
X003894Y020087D01*
X003883Y020107D01*
X003869Y020125D01*
X003852Y020141D01*
X003832Y020154D01*
X003811Y020163D01*
X003789Y020169D01*
X003765Y020171D01*
X003765Y020170D01*
X003788Y020168D01*
X003811Y020162D01*
X003832Y020153D01*
X003851Y020140D01*
X003868Y020125D01*
X003882Y020106D01*
X003893Y020086D01*
X003901Y020064D01*
X003905Y020042D01*
X003905Y020018D01*
X003901Y019996D01*
X003893Y019974D01*
X003882Y019954D01*
X003868Y019935D01*
X003851Y019920D01*
X003832Y019907D01*
X003811Y019898D01*
X003788Y019892D01*
X003765Y019890D01*
X003765Y019891D01*
X003788Y019893D01*
X003811Y019899D01*
X003831Y019908D01*
X003851Y019920D01*
X003867Y019936D01*
X003881Y019954D01*
X003892Y019974D01*
X003900Y019996D01*
X003904Y020019D01*
X003904Y020041D01*
X003900Y020064D01*
X003892Y020086D01*
X003881Y020106D01*
X003867Y020124D01*
X003851Y020140D01*
X003831Y020152D01*
X003811Y020161D01*
X003788Y020167D01*
X003765Y020169D01*
X003765Y020168D01*
X003788Y020166D01*
X003810Y020160D01*
X003831Y020151D01*
X003850Y020139D01*
X003867Y020123D01*
X003881Y020105D01*
X003891Y020085D01*
X003899Y020064D01*
X003903Y020041D01*
X003903Y020019D01*
X003899Y019996D01*
X003891Y019975D01*
X003881Y019955D01*
X003867Y019937D01*
X003850Y019921D01*
X003831Y019909D01*
X003810Y019900D01*
X003788Y019894D01*
X003765Y019892D01*
X003765Y019893D01*
X003788Y019895D01*
X003810Y019901D01*
X003831Y019910D01*
X003849Y019922D01*
X003866Y019937D01*
X003880Y019955D01*
X003891Y019975D01*
X003898Y019996D01*
X003902Y020019D01*
X003902Y020041D01*
X003898Y020064D01*
X003891Y020085D01*
X003880Y020105D01*
X003866Y020123D01*
X003849Y020138D01*
X003831Y020150D01*
X003810Y020159D01*
X003788Y020165D01*
X003765Y020167D01*
X003765Y020166D01*
X003788Y020164D01*
X003810Y020159D01*
X003830Y020149D01*
X003849Y020137D01*
X003865Y020122D01*
X003879Y020104D01*
X003890Y020085D01*
X003897Y020063D01*
X003901Y020041D01*
X003901Y020019D01*
X003897Y019997D01*
X003890Y019975D01*
X003879Y019956D01*
X003865Y019938D01*
X003849Y019923D01*
X003830Y019911D01*
X003810Y019901D01*
X003788Y019896D01*
X003765Y019894D01*
X003765Y019895D01*
X003788Y019897D01*
X003809Y019902D01*
X003830Y019911D01*
X003848Y019924D01*
X003864Y019939D01*
X003878Y019956D01*
X003889Y019976D01*
X003896Y019997D01*
X003900Y020019D01*
X003900Y020041D01*
X003896Y020063D01*
X003889Y020084D01*
X003878Y020104D01*
X003864Y020121D01*
X003848Y020136D01*
X003830Y020149D01*
X003809Y020158D01*
X003788Y020163D01*
X003765Y020165D01*
X003765Y020164D01*
X003787Y020162D01*
X003809Y020157D01*
X003829Y020148D01*
X003848Y020136D01*
X003864Y020121D01*
X003877Y020103D01*
X003888Y020084D01*
X003895Y020063D01*
X003899Y020041D01*
X003899Y020019D01*
X003895Y019997D01*
X003888Y019976D01*
X003877Y019957D01*
X003864Y019939D01*
X003848Y019924D01*
X003829Y019912D01*
X003809Y019903D01*
X003787Y019898D01*
X003765Y019896D01*
X003765Y019897D01*
X003787Y019899D01*
X003809Y019904D01*
X003829Y019913D01*
X003847Y019925D01*
X003863Y019940D01*
X003876Y019957D01*
X003887Y019977D01*
X003894Y019997D01*
X003898Y020019D01*
X003898Y020041D01*
X003894Y020063D01*
X003887Y020083D01*
X003876Y020103D01*
X003863Y020120D01*
X003847Y020135D01*
X003829Y020147D01*
X003809Y020156D01*
X003787Y020161D01*
X003765Y020163D01*
X003765Y020162D01*
X003787Y020160D01*
X003808Y020155D01*
X003828Y020146D01*
X003846Y020134D01*
X003862Y020119D01*
X003876Y020102D01*
X003886Y020083D01*
X003893Y020062D01*
X003897Y020041D01*
X003897Y020019D01*
X003893Y019998D01*
X003886Y019977D01*
X003876Y019958D01*
X003862Y019941D01*
X003846Y019926D01*
X003828Y019914D01*
X003808Y019905D01*
X003787Y019900D01*
X003765Y019898D01*
X003765Y019899D01*
X003787Y019901D01*
X003808Y019906D01*
X003828Y019915D01*
X003846Y019927D01*
X003862Y019941D01*
X003875Y019959D01*
X003885Y019977D01*
X003892Y019998D01*
X003896Y020019D01*
X003896Y020041D01*
X003892Y020062D01*
X003885Y020083D01*
X003875Y020101D01*
X003862Y020119D01*
X003846Y020133D01*
X003828Y020145D01*
X003808Y020154D01*
X003787Y020159D01*
X003765Y020161D01*
X003765Y020160D01*
X003788Y020158D01*
X003810Y020152D01*
X003830Y020142D01*
X003849Y020129D01*
X003865Y020113D01*
X003878Y020095D01*
X003887Y020074D01*
X003893Y020053D01*
X003895Y020030D01*
X003893Y020007D01*
X003887Y019986D01*
X003878Y019965D01*
X003865Y019947D01*
X003849Y019931D01*
X003830Y019918D01*
X003810Y019908D01*
X003788Y019902D01*
X003765Y019900D01*
X003765Y019901D01*
X003788Y019903D01*
X003809Y019909D01*
X003830Y019918D01*
X003848Y019931D01*
X003864Y019947D01*
X003877Y019966D01*
X003886Y019986D01*
X003892Y020008D01*
X003894Y020030D01*
X003892Y020052D01*
X003886Y020074D01*
X003877Y020094D01*
X003864Y020113D01*
X003848Y020129D01*
X003830Y020142D01*
X003809Y020151D01*
X003788Y020157D01*
X003765Y020159D01*
X003765Y020158D01*
X003788Y020156D01*
X003809Y020150D01*
X003829Y020141D01*
X003847Y020128D01*
X003863Y020112D01*
X003876Y020094D01*
X003885Y020074D01*
X003891Y020052D01*
X003893Y020030D01*
X003891Y020008D01*
X003885Y019986D01*
X003876Y019966D01*
X003863Y019948D01*
X003847Y019932D01*
X003829Y019919D01*
X003809Y019910D01*
X003788Y019904D01*
X003765Y019902D01*
X003765Y019903D01*
X003787Y019905D01*
X003809Y019911D01*
X003829Y019920D01*
X003847Y019933D01*
X003862Y019949D01*
X003875Y019967D01*
X003884Y019987D01*
X003890Y020008D01*
X003892Y020030D01*
X003890Y020052D01*
X003884Y020073D01*
X003875Y020093D01*
X003862Y020111D01*
X003847Y020127D01*
X003829Y020140D01*
X003809Y020149D01*
X003787Y020155D01*
X003765Y020157D01*
X003765Y020156D01*
X003787Y020154D01*
X003808Y020148D01*
X003828Y020139D01*
X003846Y020126D01*
X003862Y020111D01*
X003874Y020093D01*
X003883Y020073D01*
X003889Y020052D01*
X003891Y020030D01*
X003889Y020008D01*
X003883Y019987D01*
X003874Y019967D01*
X003862Y019949D01*
X003846Y019934D01*
X003828Y019921D01*
X003808Y019912D01*
X003787Y019906D01*
X003765Y019904D01*
X003765Y019905D01*
X003787Y019907D01*
X003808Y019913D01*
X003828Y019922D01*
X003846Y019934D01*
X003861Y019950D01*
X003873Y019968D01*
X003882Y019987D01*
X003888Y020008D01*
X003890Y020030D01*
X003888Y020052D01*
X003882Y020073D01*
X003873Y020092D01*
X003861Y020110D01*
X003846Y020126D01*
X003828Y020138D01*
X003808Y020147D01*
X003787Y020153D01*
X003765Y020155D01*
X003765Y020154D01*
X003787Y020152D01*
X003808Y020146D01*
X003827Y020137D01*
X003845Y020125D01*
X003860Y020110D01*
X003872Y020092D01*
X003882Y020072D01*
X003887Y020051D01*
X003889Y020030D01*
X003887Y020009D01*
X003882Y019988D01*
X003872Y019968D01*
X003860Y019950D01*
X003845Y019935D01*
X003827Y019923D01*
X003808Y019914D01*
X003787Y019908D01*
X003765Y019906D01*
X003765Y019907D01*
X003787Y019909D01*
X003807Y019915D01*
X003827Y019924D01*
X003844Y019936D01*
X003859Y019951D01*
X003872Y019969D01*
X003881Y019988D01*
X003886Y020009D01*
X003888Y020030D01*
X003886Y020051D01*
X003881Y020072D01*
X003872Y020091D01*
X003859Y020109D01*
X003844Y020124D01*
X003827Y020136D01*
X003807Y020145D01*
X003787Y020151D01*
X003765Y020153D01*
X003765Y020152D01*
X003787Y020150D01*
X003807Y020145D01*
X003826Y020135D01*
X003844Y020123D01*
X003859Y020108D01*
X003871Y020091D01*
X003880Y020072D01*
X003885Y020051D01*
X003887Y020030D01*
X003885Y020009D01*
X003880Y019988D01*
X003871Y019969D01*
X003859Y019952D01*
X003844Y019937D01*
X003826Y019925D01*
X003807Y019915D01*
X003787Y019910D01*
X003765Y019908D01*
X003765Y019909D01*
X003786Y019911D01*
X003807Y019916D01*
X003826Y019925D01*
X003843Y019937D01*
X003858Y019952D01*
X003870Y019970D01*
X003879Y019989D01*
X003884Y020009D01*
X003886Y020030D01*
X003884Y020051D01*
X003879Y020071D01*
X003870Y020090D01*
X003858Y020108D01*
X003843Y020123D01*
X003826Y020135D01*
X003807Y020144D01*
X003786Y020149D01*
X003765Y020151D01*
X003765Y020150D01*
X003786Y020148D01*
X003806Y020143D01*
X003825Y020134D01*
X003842Y020122D01*
X003857Y020107D01*
X003869Y020090D01*
X003878Y020071D01*
X003883Y020051D01*
X003885Y020030D01*
X003883Y020009D01*
X003878Y019989D01*
X003869Y019970D01*
X003857Y019953D01*
X003842Y019938D01*
X003825Y019926D01*
X003806Y019917D01*
X003786Y019912D01*
X003765Y019910D01*
D14*
X003952Y019804D02*
X004366Y019804D01*
X004453Y020207D02*
X004455Y020219D01*
X004460Y020230D01*
X004468Y020239D01*
X004479Y020245D01*
X004491Y020248D01*
X004503Y020247D01*
X004515Y020243D01*
X004524Y020235D01*
X004531Y020225D01*
X004535Y020213D01*
X004535Y020201D01*
X004531Y020189D01*
X004524Y020179D01*
X004514Y020171D01*
X004503Y020167D01*
X004491Y020166D01*
X004479Y020169D01*
X004468Y020175D01*
X004460Y020184D01*
X004455Y020195D01*
X004453Y020207D01*
X004523Y020256D02*
X003962Y020256D01*
X008923Y019269D02*
X008923Y018541D01*
X009395Y018541D02*
X009395Y019269D01*
X013899Y014555D02*
X013899Y014255D01*
X014419Y014265D02*
X014419Y014555D01*
X012770Y011769D02*
X012770Y011041D01*
X012298Y011041D02*
X012298Y011769D01*
X009990Y011088D02*
X009990Y010360D01*
X009517Y010360D02*
X009517Y011088D01*
X007836Y010901D02*
X007482Y010901D01*
X007472Y010409D02*
X007836Y010409D01*
X006718Y008944D02*
X006718Y006700D01*
X005498Y006700D01*
X005498Y008944D01*
X006718Y008944D01*
X010387Y009252D02*
X010387Y007007D01*
X011608Y007007D01*
X011608Y009252D01*
X010387Y009252D01*
X012298Y009041D02*
X012298Y009769D01*
X012770Y009769D02*
X012770Y009041D01*
X021045Y011419D02*
X021773Y011419D01*
X021773Y011891D02*
X021045Y011891D01*
X023697Y007915D02*
X023997Y007915D01*
X023997Y007395D02*
X023706Y007395D01*
X022630Y005035D02*
X021901Y005035D01*
X021901Y004563D02*
X022630Y004563D01*
D15*
X012534Y009110D03*
X012534Y009700D03*
X012534Y011110D03*
X012534Y011700D03*
X009754Y011019D03*
X009754Y010429D03*
X009159Y018610D03*
X009159Y019200D03*
D16*
X021114Y011655D03*
X021704Y011655D03*
X021970Y004799D03*
X022561Y004799D03*
D17*
X022893Y005752D02*
X022893Y006933D01*
X020925Y006933D01*
X020925Y005752D01*
X022893Y005752D01*
X024925Y008108D02*
X025200Y008108D01*
X024925Y008108D02*
X024925Y008345D01*
X024925Y008108D02*
X024925Y010077D01*
X025161Y010077D01*
X025003Y009919D02*
X025005Y009937D01*
X025011Y009953D01*
X025020Y009968D01*
X025033Y009981D01*
X025048Y009990D01*
X025064Y009996D01*
X025082Y009998D01*
X025100Y009996D01*
X025116Y009990D01*
X025131Y009981D01*
X025144Y009968D01*
X025153Y009953D01*
X025159Y009937D01*
X025161Y009919D01*
X025159Y009901D01*
X025153Y009885D01*
X025144Y009870D01*
X025131Y009857D01*
X025116Y009848D01*
X025100Y009842D01*
X025082Y009840D01*
X025064Y009842D01*
X025048Y009848D01*
X025033Y009857D01*
X025020Y009870D01*
X025011Y009885D01*
X025005Y009901D01*
X025003Y009919D01*
X024925Y009841D02*
X024925Y010077D01*
X026893Y010077D01*
X026893Y009841D01*
X026893Y010077D02*
X026657Y010077D01*
X026893Y010077D02*
X026893Y008108D01*
X026893Y008345D01*
X026893Y008108D02*
X026618Y008108D01*
X026893Y008108D02*
X024925Y008108D01*
X026159Y012421D02*
X020647Y012421D01*
X020647Y018366D01*
X021041Y018366D01*
X021043Y018317D01*
X021049Y018267D01*
X021058Y018219D01*
X021072Y018171D01*
X021089Y018125D01*
X021110Y018080D01*
X021134Y018037D01*
X021161Y017996D01*
X021192Y017957D01*
X021226Y017921D01*
X021262Y017887D01*
X021301Y017856D01*
X021342Y017829D01*
X021385Y017805D01*
X021430Y017784D01*
X021476Y017767D01*
X021524Y017753D01*
X021572Y017744D01*
X021622Y017738D01*
X021671Y017736D01*
X025490Y017736D01*
X025489Y017736D02*
X025522Y017742D01*
X025554Y017751D01*
X025585Y017764D01*
X025614Y017780D01*
X025641Y017798D01*
X025667Y017820D01*
X025690Y017844D01*
X025710Y017870D01*
X025728Y017898D01*
X025742Y017928D01*
X025753Y017959D01*
X025761Y017991D01*
X025766Y018024D01*
X025767Y018057D01*
X025765Y018090D01*
X026159Y018090D01*
X026159Y012421D01*
X026001Y018193D02*
X025999Y018234D01*
X025994Y018275D01*
X025985Y018315D01*
X025973Y018354D01*
X025957Y018392D01*
X025938Y018429D01*
X025916Y018464D01*
X025891Y018496D01*
X025863Y018527D01*
X025832Y018555D01*
X025800Y018580D01*
X025765Y018602D01*
X025728Y018621D01*
X025690Y018637D01*
X025651Y018649D01*
X025611Y018658D01*
X025570Y018663D01*
X025529Y018665D01*
X021907Y018665D01*
X021907Y019019D02*
X021866Y019021D01*
X021825Y019019D01*
X021784Y019013D01*
X021743Y019004D01*
X021704Y018992D01*
X021666Y018976D01*
X021629Y018957D01*
X021595Y018934D01*
X021562Y018909D01*
X021531Y018881D01*
X021504Y018850D01*
X021479Y018817D01*
X021457Y018782D01*
X021438Y018746D01*
X021422Y018707D01*
X021410Y018668D01*
X021401Y018627D01*
X021396Y018586D01*
X021396Y018232D02*
X021401Y018273D01*
X021410Y018314D01*
X021422Y018353D01*
X021438Y018392D01*
X021457Y018428D01*
X021479Y018463D01*
X021504Y018496D01*
X021531Y018527D01*
X021562Y018555D01*
X021595Y018580D01*
X021629Y018603D01*
X021666Y018622D01*
X021704Y018638D01*
X021743Y018650D01*
X021784Y018659D01*
X021825Y018665D01*
X021866Y018667D01*
X021907Y018665D01*
X021907Y019019D02*
X025529Y019019D01*
X025570Y019017D01*
X025611Y019012D01*
X025651Y019003D01*
X025690Y018991D01*
X025728Y018975D01*
X025765Y018956D01*
X025800Y018934D01*
X025832Y018909D01*
X025863Y018881D01*
X025891Y018850D01*
X025916Y018818D01*
X025938Y018783D01*
X025957Y018746D01*
X025973Y018708D01*
X025985Y018669D01*
X025994Y018629D01*
X025999Y018588D01*
X026001Y018547D01*
X026001Y020043D02*
X025999Y020084D01*
X025994Y020125D01*
X025985Y020165D01*
X025973Y020204D01*
X025957Y020242D01*
X025938Y020279D01*
X025916Y020314D01*
X025891Y020346D01*
X025863Y020377D01*
X025832Y020405D01*
X025800Y020430D01*
X025765Y020452D01*
X025728Y020471D01*
X025690Y020487D01*
X025651Y020499D01*
X025611Y020508D01*
X025570Y020513D01*
X025529Y020515D01*
X021907Y020515D01*
X021866Y020517D01*
X021825Y020515D01*
X021784Y020509D01*
X021743Y020500D01*
X021704Y020488D01*
X021666Y020472D01*
X021629Y020453D01*
X021595Y020430D01*
X021562Y020405D01*
X021531Y020377D01*
X021504Y020346D01*
X021479Y020313D01*
X021457Y020278D01*
X021438Y020242D01*
X021422Y020203D01*
X021410Y020164D01*
X021401Y020123D01*
X021396Y020082D01*
X013259Y016905D02*
X013259Y013905D01*
X013257Y013846D01*
X013251Y013788D01*
X013242Y013729D01*
X013228Y013672D01*
X013211Y013616D01*
X013190Y013561D01*
X013166Y013507D01*
X013138Y013455D01*
X013107Y013405D01*
X013073Y013357D01*
X013036Y013312D01*
X012995Y013269D01*
X012952Y013228D01*
X012907Y013191D01*
X012859Y013157D01*
X012809Y013126D01*
X012757Y013098D01*
X012703Y013074D01*
X012648Y013053D01*
X012592Y013036D01*
X012535Y013022D01*
X012476Y013013D01*
X012418Y013007D01*
X012359Y013005D01*
X009359Y013005D01*
X008159Y014205D01*
X008159Y016605D01*
X009359Y017805D01*
X012359Y017805D01*
X012418Y017803D01*
X012476Y017797D01*
X012535Y017788D01*
X012592Y017774D01*
X012648Y017757D01*
X012703Y017736D01*
X012757Y017712D01*
X012809Y017684D01*
X012859Y017653D01*
X012907Y017619D01*
X012952Y017582D01*
X012995Y017541D01*
X013036Y017498D01*
X013073Y017453D01*
X013107Y017405D01*
X013138Y017355D01*
X013166Y017303D01*
X013190Y017249D01*
X013211Y017194D01*
X013228Y017138D01*
X013242Y017081D01*
X013251Y017022D01*
X013257Y016964D01*
X013259Y016905D01*
X005726Y017905D02*
X005726Y011905D01*
X004742Y011905D01*
X004742Y012405D01*
X002380Y012405D01*
X002380Y013405D02*
X004742Y013405D01*
X004742Y012405D01*
X004742Y013405D02*
X004742Y014405D01*
X002380Y014405D01*
X002380Y015405D02*
X004742Y015405D01*
X004742Y014405D01*
X004742Y015405D02*
X004742Y016405D01*
X002380Y016405D01*
X002380Y017405D02*
X004742Y017405D01*
X004742Y016405D01*
X004742Y017405D02*
X004742Y017905D01*
X005726Y017905D01*
X011057Y010779D02*
X010784Y010756D01*
X010784Y010756D01*
X010511Y010779D01*
X010510Y010780D01*
X010515Y010812D01*
X010524Y010844D01*
X010536Y010874D01*
X010552Y010902D01*
X010571Y010929D01*
X010593Y010953D01*
X010617Y010974D01*
X010644Y010992D01*
X010673Y011007D01*
X010704Y011018D01*
X010735Y011026D01*
X010768Y011030D01*
X010800Y011030D01*
X010833Y011026D01*
X010864Y011018D01*
X010895Y011007D01*
X010924Y010992D01*
X010951Y010974D01*
X010975Y010953D01*
X010997Y010929D01*
X011016Y010902D01*
X011032Y010874D01*
X011044Y010844D01*
X011053Y010812D01*
X011058Y010780D01*
X011011Y010780D01*
X011006Y010808D01*
X010997Y010836D01*
X010985Y010862D01*
X010970Y010887D01*
X010952Y010910D01*
X010931Y010930D01*
X010907Y010947D01*
X010882Y010961D01*
X010855Y010972D01*
X010827Y010979D01*
X010798Y010983D01*
X010770Y010983D01*
X010741Y010979D01*
X010713Y010972D01*
X010686Y010961D01*
X010661Y010947D01*
X010637Y010930D01*
X010616Y010910D01*
X010598Y010887D01*
X010583Y010862D01*
X010571Y010836D01*
X010562Y010808D01*
X010557Y010780D01*
X010605Y010780D01*
X010610Y010805D01*
X010619Y010830D01*
X010631Y010852D01*
X010647Y010873D01*
X010665Y010892D01*
X010686Y010907D01*
X010709Y010920D01*
X010733Y010929D01*
X010758Y010934D01*
X010784Y010936D01*
X010810Y010934D01*
X010835Y010929D01*
X010859Y010920D01*
X010882Y010907D01*
X010903Y010892D01*
X010921Y010873D01*
X010937Y010852D01*
X010949Y010830D01*
X010958Y010805D01*
X010963Y010780D01*
X010916Y010780D01*
X010910Y010801D01*
X010901Y010821D01*
X010889Y010839D01*
X010874Y010855D01*
X010856Y010868D01*
X010837Y010878D01*
X010816Y010885D01*
X010795Y010889D01*
X010773Y010889D01*
X010752Y010885D01*
X010731Y010878D01*
X010712Y010868D01*
X010694Y010855D01*
X010679Y010839D01*
X010667Y010821D01*
X010658Y010801D01*
X010652Y010780D01*
X010701Y010780D01*
X010707Y010796D01*
X010716Y010810D01*
X010729Y010822D01*
X010743Y010832D01*
X010759Y010838D01*
X010775Y010842D01*
X010793Y010842D01*
X010809Y010838D01*
X010825Y010832D01*
X010839Y010822D01*
X010852Y010810D01*
X010861Y010796D01*
X010867Y010780D01*
X010816Y010778D01*
X010809Y010786D01*
X010800Y010792D01*
X010789Y010795D01*
X010779Y010795D01*
X010768Y010792D01*
X010759Y010786D01*
X010752Y010778D01*
X010511Y010531D02*
X010784Y010554D01*
X010784Y010554D01*
X011057Y010531D01*
X011058Y010530D01*
X011053Y010498D01*
X011044Y010466D01*
X011032Y010436D01*
X011016Y010408D01*
X010997Y010381D01*
X010975Y010357D01*
X010951Y010336D01*
X010924Y010318D01*
X010895Y010303D01*
X010864Y010292D01*
X010833Y010284D01*
X010800Y010280D01*
X010768Y010280D01*
X010735Y010284D01*
X010704Y010292D01*
X010673Y010303D01*
X010644Y010318D01*
X010617Y010336D01*
X010593Y010357D01*
X010571Y010381D01*
X010552Y010408D01*
X010536Y010436D01*
X010524Y010466D01*
X010515Y010498D01*
X010510Y010530D01*
X010557Y010530D01*
X010562Y010502D01*
X010571Y010474D01*
X010583Y010448D01*
X010598Y010423D01*
X010616Y010400D01*
X010637Y010380D01*
X010661Y010363D01*
X010686Y010349D01*
X010713Y010338D01*
X010741Y010331D01*
X010770Y010327D01*
X010798Y010327D01*
X010827Y010331D01*
X010855Y010338D01*
X010882Y010349D01*
X010907Y010363D01*
X010931Y010380D01*
X010952Y010400D01*
X010970Y010423D01*
X010985Y010448D01*
X010997Y010474D01*
X011006Y010502D01*
X011011Y010530D01*
X010963Y010530D01*
X010958Y010505D01*
X010949Y010480D01*
X010937Y010458D01*
X010921Y010437D01*
X010903Y010418D01*
X010882Y010403D01*
X010859Y010390D01*
X010835Y010381D01*
X010810Y010376D01*
X010784Y010374D01*
X010758Y010376D01*
X010733Y010381D01*
X010709Y010390D01*
X010686Y010403D01*
X010665Y010418D01*
X010647Y010437D01*
X010631Y010458D01*
X010619Y010480D01*
X010610Y010505D01*
X010605Y010530D01*
X010652Y010530D01*
X010658Y010509D01*
X010667Y010489D01*
X010679Y010471D01*
X010694Y010455D01*
X010712Y010442D01*
X010731Y010432D01*
X010752Y010425D01*
X010773Y010421D01*
X010795Y010421D01*
X010816Y010425D01*
X010837Y010432D01*
X010856Y010442D01*
X010874Y010455D01*
X010889Y010471D01*
X010901Y010489D01*
X010910Y010509D01*
X010916Y010530D01*
X010867Y010530D01*
X010861Y010514D01*
X010852Y010500D01*
X010839Y010488D01*
X010825Y010478D01*
X010809Y010472D01*
X010793Y010468D01*
X010775Y010468D01*
X010759Y010472D01*
X010743Y010478D01*
X010729Y010488D01*
X010716Y010500D01*
X010707Y010514D01*
X010701Y010530D01*
X010752Y010532D01*
X010759Y010524D01*
X010768Y010518D01*
X010779Y010515D01*
X010789Y010515D01*
X010800Y010518D01*
X010809Y010524D01*
X010816Y010532D01*
X011691Y003657D02*
X008147Y003657D01*
X008147Y002279D01*
X009131Y002279D01*
X009131Y001492D01*
X009722Y001492D01*
X009722Y002279D01*
X011691Y002279D01*
X011691Y003657D01*
X009722Y002279D02*
X009131Y002279D01*
D18*
X008147Y002279D02*
X008147Y003657D01*
X008344Y003657D01*
X008147Y002279D02*
X011691Y002279D01*
X011691Y003657D01*
X011494Y003657D01*
X020925Y005752D02*
X020925Y006067D01*
X020925Y006618D02*
X020925Y006933D01*
X022264Y006343D02*
X022266Y006355D01*
X022271Y006366D01*
X022280Y006375D01*
X022291Y006380D01*
X022303Y006382D01*
X022315Y006380D01*
X022326Y006375D01*
X022335Y006366D01*
X022340Y006355D01*
X022342Y006343D01*
X022340Y006331D01*
X022335Y006320D01*
X022326Y006311D01*
X022315Y006306D01*
X022303Y006304D01*
X022291Y006306D01*
X022280Y006311D01*
X022271Y006320D01*
X022266Y006331D01*
X022264Y006343D01*
X022893Y006618D02*
X022893Y006933D01*
X022893Y006067D02*
X022893Y005752D01*
X024659Y005655D02*
X024659Y006155D01*
X024909Y006405D01*
X026409Y006405D01*
X026659Y006655D01*
X026659Y007155D01*
X026409Y007405D01*
X024909Y007405D01*
X024659Y007155D01*
X024659Y006655D01*
X024909Y006405D01*
X024659Y005655D02*
X024909Y005405D01*
X026409Y005405D01*
X026659Y005655D01*
X026659Y006155D01*
X026409Y006405D01*
X026409Y005405D02*
X026659Y005155D01*
X026659Y004655D01*
X026409Y004405D01*
X024909Y004405D01*
X024659Y004655D01*
X024659Y005155D01*
X024909Y005405D01*
X026791Y005155D02*
X026791Y004655D01*
X012712Y019865D02*
X012714Y019880D01*
X012720Y019893D01*
X012729Y019905D01*
X012740Y019914D01*
X012754Y019920D01*
X012769Y019922D01*
X012784Y019920D01*
X012797Y019914D01*
X012809Y019905D01*
X012818Y019894D01*
X012824Y019880D01*
X012826Y019865D01*
X012824Y019850D01*
X012818Y019837D01*
X012809Y019825D01*
X012798Y019816D01*
X012784Y019810D01*
X012769Y019808D01*
X012754Y019810D01*
X012741Y019816D01*
X012729Y019825D01*
X012720Y019836D01*
X012714Y019850D01*
X012712Y019865D01*
D19*
X025159Y006905D03*
X025159Y005905D03*
X026159Y005905D03*
X026159Y006905D03*
X026159Y004905D03*
X025159Y004905D03*
D20*
X008533Y008992D03*
D21*
X008533Y006992D03*
X007633Y006992D03*
X009433Y006992D03*
D22*
X010998Y006988D03*
X010998Y009271D03*
X006108Y008964D03*
X006108Y006681D03*
D23*
X006108Y006887D03*
X010998Y007194D03*
D24*
X007718Y010419D03*
X007718Y010891D03*
D25*
X007718Y010655D03*
X004415Y020207D03*
D26*
X007364Y010655D03*
X007954Y010655D03*
D27*
X006499Y010655D03*
X005819Y010655D03*
X012282Y007369D03*
X012962Y007369D03*
X012999Y006280D03*
X012319Y006280D03*
X019819Y004780D03*
X020499Y004780D03*
X023444Y003905D03*
X024124Y003905D03*
X025819Y011405D03*
X026499Y011405D03*
D28*
X024134Y007656D03*
X023564Y007656D03*
D29*
X014089Y018405D03*
X014089Y018905D03*
X014089Y019405D03*
X014089Y019905D03*
X012229Y019905D03*
X012229Y019405D03*
X012229Y018905D03*
X012229Y018405D03*
D30*
X007519Y018705D03*
X007519Y019105D03*
D31*
X007584Y019105D02*
X007734Y019105D01*
X007754Y019125D01*
X007734Y018705D02*
X007754Y018685D01*
X007734Y018705D02*
X007634Y018705D01*
D32*
X014159Y014693D03*
X014159Y014123D03*
D33*
X004454Y019848D03*
X003864Y019848D03*
X003864Y020212D03*
D34*
X003913Y020129D03*
X003913Y019932D03*
X004405Y019932D03*
X004405Y020129D03*
D35*
X004390Y020030D03*
X003928Y020030D03*
D36*
X004198Y020030D03*
D37*
X004538Y020232D03*
D38*
X003451Y018405D03*
X002871Y018405D03*
X014246Y017405D03*
X014826Y017405D03*
X014826Y016530D03*
X014246Y016530D03*
D39*
X016689Y003443D02*
X016734Y003464D01*
X016759Y003414D01*
X016787Y003366D01*
X016818Y003319D01*
X016851Y003274D01*
X016812Y003244D01*
X016812Y003243D01*
X016777Y003291D01*
X016745Y003340D01*
X016715Y003390D01*
X016689Y003443D01*
X016697Y003446D01*
X016723Y003395D01*
X016752Y003344D01*
X016784Y003296D01*
X016819Y003249D01*
X016826Y003255D01*
X016792Y003301D01*
X016760Y003349D01*
X016731Y003399D01*
X016705Y003450D01*
X016713Y003454D01*
X016739Y003403D01*
X016768Y003354D01*
X016799Y003306D01*
X016833Y003260D01*
X016840Y003266D01*
X016806Y003311D01*
X016775Y003359D01*
X016747Y003408D01*
X016721Y003458D01*
X016729Y003462D01*
X016755Y003412D01*
X016783Y003363D01*
X016814Y003316D01*
X016847Y003271D01*
X018633Y003452D02*
X018588Y003473D01*
X018589Y003473D02*
X018614Y003532D01*
X018635Y003592D01*
X018652Y003653D01*
X018666Y003715D01*
X018676Y003778D01*
X018682Y003841D01*
X018684Y003905D01*
X018682Y003969D01*
X018676Y004032D01*
X018666Y004095D01*
X018652Y004157D01*
X018635Y004218D01*
X018614Y004278D01*
X018589Y004337D01*
X018633Y004358D01*
X018634Y004358D01*
X018658Y004301D01*
X018680Y004242D01*
X018698Y004183D01*
X018712Y004122D01*
X018723Y004060D01*
X018730Y003998D01*
X018734Y003936D01*
X018734Y003874D01*
X018730Y003812D01*
X018723Y003750D01*
X018712Y003688D01*
X018698Y003627D01*
X018680Y003568D01*
X018658Y003509D01*
X018634Y003452D01*
X018626Y003456D01*
X018650Y003512D01*
X018671Y003570D01*
X018689Y003630D01*
X018703Y003690D01*
X018714Y003751D01*
X018721Y003812D01*
X018725Y003874D01*
X018725Y003936D01*
X018721Y003998D01*
X018714Y004059D01*
X018703Y004120D01*
X018689Y004180D01*
X018671Y004240D01*
X018650Y004298D01*
X018626Y004354D01*
X018617Y004351D01*
X018642Y004294D01*
X018663Y004237D01*
X018680Y004178D01*
X018694Y004118D01*
X018705Y004058D01*
X018712Y003997D01*
X018716Y003936D01*
X018716Y003874D01*
X018712Y003813D01*
X018705Y003752D01*
X018694Y003692D01*
X018680Y003632D01*
X018663Y003573D01*
X018642Y003516D01*
X018617Y003459D01*
X018609Y003463D01*
X018633Y003519D01*
X018654Y003576D01*
X018671Y003634D01*
X018685Y003694D01*
X018696Y003754D01*
X018703Y003814D01*
X018707Y003875D01*
X018707Y003935D01*
X018703Y003996D01*
X018696Y004056D01*
X018685Y004116D01*
X018671Y004176D01*
X018654Y004234D01*
X018633Y004291D01*
X018609Y004347D01*
X018601Y004343D01*
X018625Y004288D01*
X018646Y004231D01*
X018663Y004173D01*
X018677Y004115D01*
X018687Y004055D01*
X018694Y003995D01*
X018698Y003935D01*
X018698Y003875D01*
X018694Y003815D01*
X018687Y003755D01*
X018677Y003695D01*
X018663Y003637D01*
X018646Y003579D01*
X018625Y003522D01*
X018601Y003467D01*
X018593Y003471D01*
X018618Y003530D01*
X018640Y003590D01*
X018657Y003652D01*
X018671Y003714D01*
X018681Y003777D01*
X018687Y003841D01*
X018689Y003905D01*
X018687Y003969D01*
X018681Y004033D01*
X018671Y004096D01*
X018657Y004158D01*
X018640Y004220D01*
X018618Y004280D01*
X018593Y004339D01*
X018506Y003244D02*
X018467Y003275D01*
X018467Y003274D02*
X018502Y003321D01*
X018533Y003370D01*
X018562Y003421D01*
X018589Y003473D01*
X018634Y003453D01*
X018634Y003452D01*
X018607Y003397D01*
X018576Y003344D01*
X018543Y003293D01*
X018506Y003243D01*
X018499Y003249D01*
X018535Y003298D01*
X018568Y003349D01*
X018599Y003402D01*
X018626Y003456D01*
X018618Y003460D01*
X018591Y003406D01*
X018561Y003354D01*
X018528Y003303D01*
X018492Y003255D01*
X018485Y003260D01*
X018521Y003308D01*
X018553Y003358D01*
X018583Y003410D01*
X018609Y003464D01*
X018601Y003467D01*
X018575Y003414D01*
X018545Y003363D01*
X018513Y003313D01*
X018478Y003266D01*
X018471Y003271D01*
X018506Y003319D01*
X018538Y003368D01*
X018567Y003419D01*
X018593Y003471D01*
X016685Y004358D02*
X016730Y004337D01*
X016729Y004337D02*
X016704Y004278D01*
X016683Y004218D01*
X016666Y004157D01*
X016652Y004095D01*
X016642Y004032D01*
X016636Y003969D01*
X016634Y003905D01*
X016636Y003841D01*
X016642Y003778D01*
X016652Y003715D01*
X016666Y003653D01*
X016683Y003592D01*
X016704Y003532D01*
X016729Y003473D01*
X016685Y003452D01*
X016684Y003452D01*
X016660Y003509D01*
X016638Y003568D01*
X016620Y003627D01*
X016606Y003688D01*
X016595Y003750D01*
X016588Y003812D01*
X016584Y003874D01*
X016584Y003936D01*
X016588Y003998D01*
X016595Y004060D01*
X016606Y004122D01*
X016620Y004183D01*
X016638Y004242D01*
X016660Y004301D01*
X016684Y004358D01*
X016692Y004354D01*
X016668Y004298D01*
X016647Y004240D01*
X016629Y004180D01*
X016615Y004120D01*
X016604Y004059D01*
X016597Y003998D01*
X016593Y003936D01*
X016593Y003874D01*
X016597Y003812D01*
X016604Y003751D01*
X016615Y003690D01*
X016629Y003630D01*
X016647Y003570D01*
X016668Y003512D01*
X016692Y003456D01*
X016701Y003459D01*
X016676Y003516D01*
X016655Y003573D01*
X016638Y003632D01*
X016624Y003692D01*
X016613Y003752D01*
X016606Y003813D01*
X016602Y003874D01*
X016602Y003936D01*
X016606Y003997D01*
X016613Y004058D01*
X016624Y004118D01*
X016638Y004178D01*
X016655Y004237D01*
X016676Y004294D01*
X016701Y004351D01*
X016709Y004347D01*
X016685Y004291D01*
X016664Y004234D01*
X016647Y004176D01*
X016633Y004116D01*
X016622Y004056D01*
X016615Y003996D01*
X016611Y003935D01*
X016611Y003875D01*
X016615Y003814D01*
X016622Y003754D01*
X016633Y003694D01*
X016647Y003634D01*
X016664Y003576D01*
X016685Y003519D01*
X016709Y003463D01*
X016717Y003467D01*
X016693Y003522D01*
X016672Y003579D01*
X016655Y003637D01*
X016641Y003695D01*
X016631Y003755D01*
X016624Y003815D01*
X016620Y003875D01*
X016620Y003935D01*
X016624Y003995D01*
X016631Y004055D01*
X016641Y004115D01*
X016655Y004173D01*
X016672Y004231D01*
X016693Y004288D01*
X016717Y004343D01*
X016725Y004339D01*
X016700Y004280D01*
X016678Y004220D01*
X016661Y004158D01*
X016647Y004096D01*
X016637Y004033D01*
X016631Y003969D01*
X016629Y003905D01*
X016631Y003841D01*
X016637Y003777D01*
X016647Y003714D01*
X016661Y003652D01*
X016678Y003590D01*
X016700Y003530D01*
X016725Y003471D01*
X018629Y004367D02*
X018584Y004346D01*
X018556Y004402D01*
X018524Y004455D01*
X018489Y004507D01*
X018451Y004556D01*
X018410Y004603D01*
X018366Y004647D01*
X018319Y004689D01*
X018270Y004728D01*
X018219Y004763D01*
X018166Y004796D01*
X018111Y004825D01*
X018054Y004851D01*
X017996Y004873D01*
X017936Y004892D01*
X017876Y004907D01*
X017814Y004918D01*
X017752Y004926D01*
X017690Y004930D01*
X017628Y004930D01*
X017566Y004926D01*
X017504Y004918D01*
X017442Y004907D01*
X017382Y004892D01*
X017322Y004873D01*
X017264Y004851D01*
X017207Y004825D01*
X017152Y004796D01*
X017099Y004763D01*
X017048Y004728D01*
X016999Y004689D01*
X016952Y004647D01*
X016908Y004603D01*
X016867Y004556D01*
X016829Y004507D01*
X016794Y004455D01*
X016762Y004402D01*
X016734Y004346D01*
X016689Y004367D01*
X016718Y004424D01*
X016750Y004479D01*
X016786Y004532D01*
X016824Y004582D01*
X016866Y004631D01*
X016910Y004676D01*
X016957Y004719D01*
X017007Y004759D01*
X017058Y004797D01*
X017112Y004831D01*
X017168Y004861D01*
X017226Y004889D01*
X017285Y004913D01*
X017345Y004933D01*
X017407Y004950D01*
X017469Y004963D01*
X017532Y004972D01*
X017595Y004978D01*
X017659Y004980D01*
X017723Y004978D01*
X017786Y004972D01*
X017849Y004963D01*
X017911Y004950D01*
X017973Y004933D01*
X018033Y004913D01*
X018092Y004889D01*
X018150Y004861D01*
X018206Y004831D01*
X018260Y004797D01*
X018311Y004759D01*
X018361Y004719D01*
X018408Y004676D01*
X018452Y004631D01*
X018494Y004582D01*
X018532Y004532D01*
X018568Y004479D01*
X018600Y004424D01*
X018629Y004367D01*
X018621Y004364D01*
X018592Y004421D01*
X018559Y004477D01*
X018522Y004531D01*
X018482Y004582D01*
X018440Y004631D01*
X018394Y004677D01*
X018346Y004720D01*
X018295Y004761D01*
X018242Y004798D01*
X018186Y004831D01*
X018129Y004862D01*
X018070Y004889D01*
X018009Y004912D01*
X017947Y004931D01*
X017884Y004947D01*
X017821Y004959D01*
X017756Y004967D01*
X017691Y004971D01*
X017627Y004971D01*
X017562Y004967D01*
X017497Y004959D01*
X017434Y004947D01*
X017371Y004931D01*
X017309Y004912D01*
X017248Y004889D01*
X017189Y004862D01*
X017132Y004831D01*
X017076Y004798D01*
X017023Y004761D01*
X016972Y004720D01*
X016924Y004677D01*
X016878Y004631D01*
X016836Y004582D01*
X016796Y004531D01*
X016759Y004477D01*
X016726Y004421D01*
X016697Y004364D01*
X016705Y004360D01*
X016734Y004417D01*
X016767Y004472D01*
X016803Y004525D01*
X016843Y004576D01*
X016885Y004625D01*
X016930Y004671D01*
X016978Y004713D01*
X017028Y004753D01*
X017081Y004790D01*
X017136Y004824D01*
X017193Y004854D01*
X017252Y004880D01*
X017312Y004903D01*
X017373Y004923D01*
X017436Y004938D01*
X017499Y004950D01*
X017563Y004958D01*
X017627Y004962D01*
X017691Y004962D01*
X017755Y004958D01*
X017819Y004950D01*
X017882Y004938D01*
X017945Y004923D01*
X018006Y004903D01*
X018066Y004880D01*
X018125Y004854D01*
X018182Y004824D01*
X018237Y004790D01*
X018290Y004753D01*
X018340Y004713D01*
X018388Y004671D01*
X018433Y004625D01*
X018475Y004576D01*
X018515Y004525D01*
X018551Y004472D01*
X018584Y004417D01*
X018613Y004360D01*
X018605Y004356D01*
X018576Y004413D01*
X018543Y004467D01*
X018507Y004520D01*
X018468Y004571D01*
X018426Y004619D01*
X018382Y004664D01*
X018334Y004707D01*
X018284Y004746D01*
X018232Y004783D01*
X018177Y004816D01*
X018121Y004846D01*
X018063Y004872D01*
X018003Y004895D01*
X017942Y004914D01*
X017881Y004929D01*
X017818Y004941D01*
X017755Y004949D01*
X017691Y004953D01*
X017627Y004953D01*
X017563Y004949D01*
X017500Y004941D01*
X017437Y004929D01*
X017376Y004914D01*
X017315Y004895D01*
X017255Y004872D01*
X017197Y004846D01*
X017141Y004816D01*
X017086Y004783D01*
X017034Y004746D01*
X016984Y004707D01*
X016936Y004664D01*
X016892Y004619D01*
X016850Y004571D01*
X016811Y004520D01*
X016775Y004467D01*
X016742Y004413D01*
X016713Y004356D01*
X016721Y004352D01*
X016750Y004408D01*
X016782Y004463D01*
X016818Y004515D01*
X016857Y004565D01*
X016898Y004613D01*
X016943Y004658D01*
X016990Y004700D01*
X017039Y004739D01*
X017091Y004775D01*
X017145Y004808D01*
X017201Y004838D01*
X017259Y004864D01*
X017318Y004886D01*
X017378Y004905D01*
X017439Y004921D01*
X017502Y004932D01*
X017564Y004940D01*
X017627Y004944D01*
X017691Y004944D01*
X017754Y004940D01*
X017816Y004932D01*
X017879Y004921D01*
X017940Y004905D01*
X018000Y004886D01*
X018059Y004864D01*
X018117Y004838D01*
X018173Y004808D01*
X018227Y004775D01*
X018279Y004739D01*
X018328Y004700D01*
X018375Y004658D01*
X018420Y004613D01*
X018461Y004565D01*
X018500Y004515D01*
X018536Y004463D01*
X018568Y004408D01*
X018597Y004352D01*
X018589Y004348D01*
X018560Y004404D01*
X018528Y004458D01*
X018493Y004510D01*
X018455Y004559D01*
X018413Y004606D01*
X018369Y004651D01*
X018322Y004693D01*
X018273Y004732D01*
X018222Y004768D01*
X018168Y004800D01*
X018113Y004830D01*
X018056Y004855D01*
X017997Y004878D01*
X017938Y004897D01*
X017877Y004912D01*
X017815Y004923D01*
X017753Y004931D01*
X017690Y004935D01*
X017628Y004935D01*
X017565Y004931D01*
X017503Y004923D01*
X017441Y004912D01*
X017380Y004897D01*
X017321Y004878D01*
X017262Y004855D01*
X017205Y004830D01*
X017150Y004800D01*
X017096Y004768D01*
X017045Y004732D01*
X016996Y004693D01*
X016949Y004651D01*
X016905Y004606D01*
X016863Y004559D01*
X016825Y004510D01*
X016790Y004458D01*
X016758Y004404D01*
X016729Y004348D01*
D40*
X010784Y010813D02*
X010776Y010813D01*
X010776Y010817D01*
X010778Y010818D01*
X010780Y010818D01*
X010781Y010817D01*
X010781Y010813D01*
X010781Y010815D02*
X010784Y010818D01*
X010783Y010820D02*
X010780Y010820D01*
X010779Y010821D01*
X010779Y010824D01*
X010780Y010825D01*
X010781Y010825D01*
X010781Y010820D01*
X010783Y010820D02*
X010784Y010821D01*
X010784Y010824D01*
X010784Y010827D02*
X010784Y010831D01*
X010783Y010832D01*
X010781Y010831D01*
X010781Y010828D01*
X010780Y010827D01*
X010779Y010828D01*
X010779Y010832D01*
X010780Y010834D02*
X010779Y010836D01*
X010779Y010838D01*
X010780Y010840D01*
X010781Y010840D01*
X010781Y010834D01*
X010780Y010834D02*
X010783Y010834D01*
X010784Y010836D01*
X010784Y010838D01*
X010783Y010843D02*
X010784Y010844D01*
X010783Y010843D02*
X010778Y010843D01*
X010779Y010842D02*
X010779Y010844D01*
X010780Y010854D02*
X010780Y010856D01*
X010776Y010854D02*
X010784Y010854D01*
X010784Y010859D01*
X010784Y010861D02*
X010779Y010861D01*
X010779Y010865D01*
X010780Y010866D01*
X010784Y010866D01*
X010776Y010859D02*
X010776Y010854D01*
D41*
X002659Y004905D02*
X002659Y003155D01*
X007659Y003155D01*
X007659Y004905D01*
X002659Y004905D01*
X002659Y005655D01*
X007659Y005655D01*
X007659Y004905D01*
X010038Y005067D02*
X010038Y005618D01*
X010905Y005618D01*
X010905Y005067D01*
X010038Y005067D01*
X013159Y004905D02*
X013159Y004155D01*
X015159Y004155D01*
X015159Y002405D01*
X013159Y002405D01*
X013159Y004155D01*
X013159Y004905D02*
X015159Y004905D01*
X015159Y004155D01*
X004909Y006405D02*
X004159Y006405D01*
X004159Y011405D01*
X004909Y011405D01*
X004909Y006405D01*
X004159Y006405D02*
X002409Y006405D01*
X002409Y011405D01*
X004159Y011405D01*
D42*
X009851Y005333D03*
X011092Y005333D03*
D43*
X010235Y005352D03*
M02*
